<?xml version="1.0" encoding="UTF-8" standalone="no"?>
<!DOCTYPE svg PUBLIC "-//W3C//DTD SVG 1.1//EN" "http://www.w3.org/Graphics/SVG/1.1/DTD/svg11.dtd">
<svg xmlns="http://www.w3.org/2000/svg" xmlns:xlink="http://www.w3.org/1999/xlink"
    width="100%" height="100%" viewBox="0 0 100 100">
  <clipPath id="svgClip">
    <path id="svgPath"  d="M 42.00,2.83
                                   C 42.00,2.83 62.00,4.09 62.00,4.09
                                     62.00,4.09 101.00,7.09 101.00,7.09
                                     101.00,7.09 130.00,9.00 130.00,9.00
                                     130.00,9.00 130.00,135.00 130.00,135.00
                                     130.00,135.00 103.00,136.91 103.00,136.91
                                     103.00,136.91 49.00,141.17 49.00,141.17
                                     49.00,141.17 9.00,144.00 9.00,144.00
                                     9.00,144.00 7.09,112.00 7.09,112.00
                                     7.09,112.00 2.91,47.00 2.91,47.00
                                     2.91,47.00 0.00,0.00 0.00,0.00
                                     0.00,0.00 42.00,2.83 42.00,2.83 Z"/>

  </clipPath>
  <clipPath id="bookclip">
                                     <path id="button" d="M 46.00,2.91
                                                                                                           C 46.00,2.91 109.00,7.09 109.00,7.09
                                                                                                             109.00,7.09 140.00,9.00 140.00,9.00
                                                                                                             140.00,9.00 140.00,55.00 140.00,55.00
                                                                                                             140.00,55.00 111.00,56.91 111.00,56.91
                                                                                                             111.00,56.91 72.00,59.91 72.00,59.91
                                                                                                             72.00,59.91 52.00,61.17 52.00,61.17
                                                                                                             52.00,61.17 9.00,64.00 9.00,64.00
                                                                                                             9.00,64.00 0.00,0.00 0.00,0.00
                                                                                                             0.00,0.00 46.00,2.91 46.00,2.91 Z" />

  </clipPath>
  <clipPath id="codeclip" width="100%">
  <path id="Selection" width="100%"
          fill="none" stroke="black" stroke-width="1"
          d="M 14.00,0.00
             C 14.00,0.00 35.00,1.00 35.00,1.00
               35.00,1.00 57.00,2.00 57.00,2.00
               57.00,2.00 74.00,3.00 74.00,3.00
               74.00,3.00 96.00,4.00 96.00,4.00
               96.00,4.00 117.00,5.00 117.00,5.00
               117.00,5.00 146.00,6.00 146.00,6.00
               146.00,6.00 159.00,7.00 159.00,7.00
               159.00,7.00 189.00,8.00 189.00,8.00
               189.00,8.00 204.00,9.00 204.00,9.00
               204.00,9.00 226.00,10.00 226.00,10.00
               226.00,10.00 247.00,11.00 247.00,11.00
               247.00,11.00 276.00,12.00 276.00,12.00
               276.00,12.00 291.00,13.00 291.00,13.00
               291.00,13.00 340.00,15.00 340.00,15.00
               340.00,15.00 355.00,16.04 355.00,16.04
               355.00,16.04 366.00,16.04 366.00,16.04
               366.00,16.04 377.00,17.00 377.00,17.00
               377.00,17.00 400.00,18.00 400.00,18.00
               400.00,18.00 422.00,19.00 422.00,19.00
               422.00,19.00 470.00,21.00 470.00,21.00
               470.00,21.00 487.00,22.00 487.00,22.00
               487.00,22.00 508.00,23.00 508.00,23.00
               508.00,23.00 537.00,24.00 537.00,24.00
               537.00,24.00 552.00,25.00 552.00,25.00
               552.00,25.00 574.00,26.00 574.00,26.00
               574.00,26.00 603.00,27.00 603.00,27.00
               603.00,27.00 616.00,28.00 616.00,28.00
               616.00,28.00 646.00,29.00 646.00,29.00
               646.00,29.00 660.00,30.00 660.00,30.00
               660.00,30.00 690.00,31.00 690.00,31.00
               690.00,31.00 705.00,32.00 705.00,32.00
               705.00,32.00 726.00,33.00 726.00,33.00
               726.00,33.00 748.00,34.00 748.00,34.00
               748.00,34.00 777.00,35.00 777.00,35.00
               777.00,35.00 787.00,35.96 787.00,35.96
               787.00,35.96 798.00,35.96 798.00,35.96
               798.00,35.96 813.00,37.00 813.00,37.00
               813.00,37.00 835.00,38.00 835.00,38.00
               835.00,38.00 855.00,39.00 855.00,39.00
               855.00,39.00 870.00,39.00 870.00,39.00
               870.00,39.00 870.00,79.00 870.00,79.00
               870.00,79.00 869.00,94.00 869.00,94.00
               869.00,94.00 869.00,127.00 869.00,127.00
               869.00,127.00 868.00,143.00 868.00,143.00
               868.00,143.00 868.00,175.00 868.00,175.00
               868.00,175.00 867.00,192.00 867.00,192.00
               867.00,192.00 867.00,223.00 867.00,223.00
               867.00,223.00 866.00,240.00 866.00,240.00
               866.00,240.00 866.00,271.00 866.00,271.00
               866.00,271.00 865.00,288.00 865.00,288.00
               865.00,288.00 865.00,319.00 865.00,319.00
               865.00,319.00 864.00,336.00 864.00,336.00
               864.00,336.00 864.00,367.00 864.00,367.00
               864.00,367.00 863.00,384.00 863.00,384.00
               863.00,384.00 863.00,415.00 863.00,415.00
               863.00,415.00 862.00,432.00 862.00,432.00
               862.00,432.00 862.00,463.00 862.00,463.00
               862.00,463.00 861.00,478.00 861.00,478.00
               861.00,478.00 861.00,499.00 861.00,499.00
               861.00,503.37 862.25,517.60 858.69,519.98
               856.84,521.21 853.19,521.00 851.00,521.00
               851.00,521.00 833.00,521.00 833.00,521.00
               833.00,521.00 817.00,522.00 817.00,522.00
               817.00,522.00 800.00,522.00 800.00,522.00
               800.00,522.00 783.00,523.00 783.00,523.00
               783.00,523.00 731.00,524.00 731.00,524.00
               731.00,524.00 715.00,525.00 715.00,525.00
               715.00,525.00 697.00,525.00 697.00,525.00
               697.00,525.00 681.00,526.00 681.00,526.00
               681.00,526.00 629.00,527.00 629.00,527.00
               629.00,527.00 612.00,528.00 612.00,528.00
               612.00,528.00 594.00,528.00 594.00,528.00
               594.00,528.00 578.00,529.00 578.00,529.00
               578.00,529.00 560.00,529.00 560.00,529.00
               560.00,529.00 544.00,530.00 544.00,530.00
               544.00,530.00 525.00,530.00 525.00,530.00
               525.00,530.00 510.00,531.00 510.00,531.00
               510.00,531.00 492.00,531.00 492.00,531.00
               492.00,531.00 476.00,532.00 476.00,532.00
               476.00,532.00 457.00,532.00 457.00,532.00
               457.00,532.00 441.00,533.00 441.00,533.00
               441.00,533.00 422.00,533.00 422.00,533.00
               422.00,533.00 407.00,534.00 407.00,534.00
               407.00,534.00 389.00,534.00 389.00,534.00
               389.00,534.00 373.00,535.00 373.00,535.00
               373.00,535.00 354.00,535.00 354.00,535.00
               354.00,535.00 341.00,536.00 341.00,536.00
               341.00,536.00 322.00,536.00 322.00,536.00
               322.00,536.00 305.00,537.00 305.00,537.00
               305.00,537.00 287.00,537.00 287.00,537.00
               287.00,537.00 271.00,538.00 271.00,538.00
               271.00,538.00 252.00,538.00 252.00,538.00
               252.00,538.00 236.00,539.00 236.00,539.00
               236.00,539.00 218.00,539.00 218.00,539.00
               218.00,539.00 202.00,540.00 202.00,540.00
               202.00,540.00 183.00,540.00 183.00,540.00
               183.00,540.00 170.00,541.00 170.00,541.00
               170.00,541.00 151.00,541.00 151.00,541.00
               151.00,541.00 134.00,542.00 134.00,542.00
               134.00,542.00 116.00,542.00 116.00,542.00
               116.00,542.00 100.00,543.00 100.00,543.00
               100.00,543.00 82.00,543.00 82.00,543.00
               82.00,543.00 66.00,544.00 66.00,544.00
               66.00,544.00 39.00,544.00 39.00,544.00
               39.00,544.00 36.09,500.00 36.09,500.00
               36.09,500.00 30.09,419.00 30.09,419.00
               30.09,419.00 9.91,140.00 9.91,140.00
               9.91,140.00 5.09,79.00 5.09,79.00
               5.09,79.00 3.83,57.00 3.83,57.00
               3.83,57.00 1.83,30.00 1.83,30.00
               1.83,30.00 0.00,0.00 0.00,0.00
               0.00,0.00 14.00,0.00 14.00,0.00 Z" />
  </clipPath>
    <clipPath id="herobtn">
    <path id="Selection"
            fill="none" stroke="black" stroke-width="1"
            d="M 21.00,0.00
               C 21.00,0.00 36.00,1.00 36.00,1.00
                 36.00,1.00 51.00,1.00 51.00,1.00
                 51.00,1.00 66.00,2.00 66.00,2.00
                 66.00,2.00 81.00,2.00 81.00,2.00
                 81.00,2.00 96.00,3.00 96.00,3.00
                 96.00,3.00 112.00,3.00 112.00,3.00
                 112.00,3.00 128.00,4.00 128.00,4.00
                 128.00,4.00 142.00,4.00 142.00,4.00
                 142.00,4.00 158.00,5.00 158.00,5.00
                 158.00,5.00 172.00,5.00 172.00,5.00
                 172.00,5.00 188.00,6.00 188.00,6.00
                 188.00,6.00 202.00,6.00 202.00,6.00
                 202.00,6.00 218.00,7.00 218.00,7.00
                 218.00,7.00 233.00,7.00 233.00,7.00
                 233.00,7.00 246.00,8.00 246.00,8.00
                 246.00,8.00 261.00,8.00 261.00,8.00
                 261.00,8.00 276.00,9.00 276.00,9.00
                 276.00,9.00 291.00,9.00 291.00,9.00
                 293.65,9.01 298.04,8.46 299.40,11.31
                 300.67,13.99 298.31,24.62 297.75,28.00
                 297.75,28.00 292.59,61.00 292.59,61.00
                 292.17,63.60 291.42,71.68 289.99,73.40
                 288.35,75.38 284.36,75.00 282.00,75.04
                 282.00,75.04 266.00,75.04 266.00,75.04
                 266.00,75.04 254.00,76.04 254.00,76.04
                 254.00,76.04 238.00,76.04 238.00,76.04
                 238.00,76.04 226.00,77.00 226.00,77.00
                 226.00,77.00 185.00,78.00 185.00,78.00
                 185.00,78.00 170.00,79.00 170.00,79.00
                 170.00,79.00 130.00,80.00 130.00,80.00
                 130.00,80.00 116.00,81.00 116.00,81.00
                 116.00,81.00 102.00,81.00 102.00,81.00
                 102.00,81.00 86.00,82.04 86.00,82.04
                 86.00,82.04 70.00,82.04 70.00,82.04
                 70.00,82.04 58.00,83.04 58.00,83.04
                 58.00,83.04 42.00,83.04 42.00,83.04
                 42.00,83.04 30.00,84.00 30.00,84.00
                 30.00,84.00 9.00,84.00 9.00,84.00
                 9.00,84.00 7.15,65.00 7.15,65.00
                 7.15,65.00 0.00,0.00 0.00,0.00
                 0.00,0.00 21.00,0.00 21.00,0.00 Z" />
    </clipPath>
    <clipPath id="section" width="100%">
      <path id="Selection"
             fill="none" stroke="black" stroke-width="1"
             d="M 16.00,58.00
                C 16.00,58.00 108.00,56.00 108.00,56.00
                  108.00,56.00 127.00,55.00 127.00,55.00
                  127.00,55.00 140.00,54.00 140.00,54.00
                  140.00,54.00 155.00,54.00 155.00,54.00
                  155.00,54.00 171.00,53.00 171.00,53.00
                  171.00,53.00 192.00,53.00 192.00,53.00
                  192.00,53.00 208.00,52.00 208.00,52.00
                  208.00,52.00 229.00,52.00 229.00,52.00
                  229.00,52.00 245.00,51.00 245.00,51.00
                  245.00,51.00 266.00,51.00 266.00,51.00
                  266.00,51.00 281.00,50.00 281.00,50.00
                  281.00,50.00 300.00,50.00 300.00,50.00
                  300.00,50.00 332.00,48.00 332.00,48.00
                  332.00,48.00 348.00,48.00 348.00,48.00
                  348.00,48.00 363.00,47.00 363.00,47.00
                  363.00,47.00 384.00,47.00 384.00,47.00
                  384.00,47.00 400.00,46.00 400.00,46.00
                  400.00,46.00 493.00,44.00 493.00,44.00
                  493.00,44.00 511.00,43.00 511.00,43.00
                  511.00,43.00 526.00,42.00 526.00,42.00
                  526.00,42.00 540.00,42.00 540.00,42.00
                  540.00,42.00 555.00,41.00 555.00,41.00
                  555.00,41.00 577.00,41.00 577.00,41.00
                  577.00,41.00 592.00,40.00 592.00,40.00
                  592.00,40.00 684.00,38.00 684.00,38.00
                  684.00,38.00 703.00,37.00 703.00,37.00
                  703.00,37.00 718.00,36.00 718.00,36.00
                  718.00,36.00 732.00,36.00 732.00,36.00
                  732.00,36.00 747.00,35.00 747.00,35.00
                  747.00,35.00 767.00,35.00 767.00,35.00
                  767.00,35.00 784.00,34.00 784.00,34.00
                  784.00,34.00 805.00,34.00 805.00,34.00
                  805.00,34.00 821.00,33.00 821.00,33.00
                  821.00,33.00 841.00,33.00 841.00,33.00
                  841.00,33.00 855.00,32.00 855.00,32.00
                  855.00,32.00 876.00,32.00 876.00,32.00
                  876.00,32.00 910.00,30.00 910.00,30.00
                  910.00,30.00 924.00,30.00 924.00,30.00
                  924.00,30.00 939.00,29.00 939.00,29.00
                  939.00,29.00 996.00,28.00 996.00,28.00
                  996.00,28.00 1013.00,27.00 1013.00,27.00
                  1013.00,27.00 1033.00,27.00 1033.00,27.00
                  1033.00,27.00 1049.00,26.00 1049.00,26.00
                  1049.00,26.00 1068.00,26.00 1068.00,26.00
                  1068.00,26.00 1102.00,24.00 1102.00,24.00
                  1102.00,24.00 1116.00,24.00 1116.00,24.00
                  1116.00,24.00 1131.00,23.00 1131.00,23.00
                  1131.00,23.00 1151.00,23.00 1151.00,23.00
                  1151.00,23.00 1168.00,22.00 1168.00,22.00
                  1168.00,22.00 1260.00,20.00 1260.00,20.00
                  1260.00,20.00 1279.00,19.00 1279.00,19.00
                  1279.00,19.00 1294.00,18.00 1294.00,18.00
                  1294.00,18.00 1308.00,18.00 1308.00,18.00
                  1308.00,18.00 1323.00,17.00 1323.00,17.00
                  1323.00,17.00 1343.00,17.00 1343.00,17.00
                  1343.00,17.00 1360.00,16.00 1360.00,16.00
                  1360.00,16.00 1452.00,14.00 1452.00,14.00
                  1452.00,14.00 1468.00,13.00 1468.00,13.00
                  1468.00,13.00 1484.00,12.00 1484.00,12.00
                  1484.00,12.00 1500.00,12.00 1500.00,12.00
                  1500.00,12.00 1513.00,11.00 1513.00,11.00
                  1513.00,11.00 1535.00,11.00 1535.00,11.00
                  1535.00,11.00 1552.00,10.00 1552.00,10.00
                  1552.00,10.00 1573.00,10.00 1573.00,10.00
                  1573.00,10.00 1589.00,9.00 1589.00,9.00
                  1589.00,9.00 1609.00,9.00 1609.00,9.00
                  1609.00,9.00 1625.00,8.00 1625.00,8.00
                  1625.00,8.00 1646.00,8.00 1646.00,8.00
                  1646.00,8.00 1678.00,6.00 1678.00,6.00
                  1678.00,6.00 1692.00,6.00 1692.00,6.00
                  1692.00,6.00 1707.00,5.00 1707.00,5.00
                  1707.00,5.00 1729.00,5.00 1729.00,5.00
                  1729.00,5.00 1744.00,4.00 1744.00,4.00
                  1744.00,4.00 1836.00,2.00 1836.00,2.00
                  1836.00,2.00 1863.00,0.00 1863.00,0.00
                  1863.00,0.00 1920.00,0.00 1920.00,0.00
                  1920.00,0.00 1920.00,1092.00 1920.00,1092.00
                  1920.00,1092.00 1863.00,1092.00 1863.00,1092.00
                  1863.00,1092.00 1836.00,1090.00 1836.00,1090.00
                  1836.00,1090.00 1816.00,1090.00 1816.00,1090.00
                  1816.00,1090.00 1800.00,1089.00 1800.00,1089.00
                  1800.00,1089.00 1780.00,1089.00 1780.00,1089.00
                  1780.00,1089.00 1764.00,1088.00 1764.00,1088.00
                  1764.00,1088.00 1743.00,1088.00 1743.00,1088.00
                  1743.00,1088.00 1727.00,1087.00 1727.00,1087.00
                  1727.00,1087.00 1705.00,1087.00 1705.00,1087.00
                  1705.00,1087.00 1690.00,1086.00 1690.00,1086.00
                  1690.00,1086.00 1677.00,1086.00 1677.00,1086.00
                  1677.00,1086.00 1660.00,1085.00 1660.00,1085.00
                  1660.00,1085.00 1644.00,1084.00 1644.00,1084.00
                  1644.00,1084.00 1625.00,1084.00 1625.00,1084.00
                  1625.00,1084.00 1608.00,1083.00 1608.00,1083.00
                  1608.00,1083.00 1588.00,1083.00 1588.00,1083.00
                  1588.00,1083.00 1572.00,1082.00 1572.00,1082.00
                  1572.00,1082.00 1515.00,1081.00 1515.00,1081.00
                  1515.00,1081.00 1498.00,1080.00 1498.00,1080.00
                  1498.00,1080.00 1485.00,1080.00 1485.00,1080.00
                  1485.00,1080.00 1467.00,1079.00 1467.00,1079.00
                  1467.00,1079.00 1454.00,1078.00 1454.00,1078.00
                  1454.00,1078.00 1431.00,1078.00 1431.00,1078.00
                  1431.00,1078.00 1416.00,1077.00 1416.00,1077.00
                  1416.00,1077.00 1396.00,1077.00 1396.00,1077.00
                  1396.00,1077.00 1380.00,1076.00 1380.00,1076.00
                  1380.00,1076.00 1292.00,1074.00 1292.00,1074.00
                  1292.00,1074.00 1275.00,1073.00 1275.00,1073.00
                  1275.00,1073.00 1260.00,1072.00 1260.00,1072.00
                  1260.00,1072.00 1240.00,1072.00 1240.00,1072.00
                  1240.00,1072.00 1224.00,1071.00 1224.00,1071.00
                  1224.00,1071.00 1203.00,1071.00 1203.00,1071.00
                  1203.00,1071.00 1190.00,1070.00 1190.00,1070.00
                  1190.00,1070.00 1168.00,1070.00 1168.00,1070.00
                  1168.00,1070.00 1151.00,1069.00 1151.00,1069.00
                  1151.00,1069.00 1131.00,1069.00 1131.00,1069.00
                  1131.00,1069.00 1119.00,1068.04 1119.00,1068.04
                  1119.00,1068.04 1102.00,1068.04 1102.00,1068.04
                  1102.00,1068.04 1068.00,1066.00 1068.00,1066.00
                  1068.00,1066.00 1048.00,1066.00 1048.00,1066.00
                  1048.00,1066.00 1032.00,1065.00 1032.00,1065.00
                  1032.00,1065.00 1012.00,1065.00 1012.00,1065.00
                  1012.00,1065.00 996.00,1064.00 996.00,1064.00
                  996.00,1064.00 974.00,1064.00 974.00,1064.00
                  974.00,1064.00 959.00,1063.00 959.00,1063.00
                  959.00,1063.00 939.00,1063.00 939.00,1063.00
                  939.00,1063.00 927.00,1062.04 927.00,1062.04
                  927.00,1062.04 910.00,1062.04 910.00,1062.04
                  910.00,1062.04 876.00,1060.00 876.00,1060.00
                  876.00,1060.00 784.00,1058.00 784.00,1058.00
                  784.00,1058.00 769.00,1057.00 769.00,1057.00
                  769.00,1057.00 747.00,1057.00 747.00,1057.00
                  747.00,1057.00 735.00,1056.04 735.00,1056.04
                  735.00,1056.04 718.00,1056.04 718.00,1056.04
                  718.00,1056.04 703.00,1055.00 703.00,1055.00
                  703.00,1055.00 686.00,1054.00 686.00,1054.00
                  686.00,1054.00 665.00,1054.00 665.00,1054.00
                  665.00,1054.00 648.00,1053.00 648.00,1053.00
                  648.00,1053.00 628.00,1053.00 628.00,1053.00
                  628.00,1053.00 612.00,1052.00 612.00,1052.00
                  612.00,1052.00 555.00,1051.00 555.00,1051.00
                  555.00,1051.00 539.00,1050.00 539.00,1050.00
                  539.00,1050.00 525.00,1050.00 525.00,1050.00
                  525.00,1050.00 508.00,1049.00 508.00,1049.00
                  508.00,1049.00 494.00,1048.00 494.00,1048.00
                  494.00,1048.00 473.00,1048.00 473.00,1048.00
                  473.00,1048.00 457.00,1047.00 457.00,1047.00
                  457.00,1047.00 400.00,1046.00 400.00,1046.00
                  400.00,1046.00 385.00,1045.00 385.00,1045.00
                  385.00,1045.00 363.00,1045.00 363.00,1045.00
                  363.00,1045.00 346.00,1044.00 346.00,1044.00
                  346.00,1044.00 333.00,1044.00 333.00,1044.00
                  333.00,1044.00 315.00,1043.00 315.00,1043.00
                  315.00,1043.00 302.00,1042.00 302.00,1042.00
                  302.00,1042.00 280.00,1042.00 280.00,1042.00
                  280.00,1042.00 264.00,1041.00 264.00,1041.00
                  264.00,1041.00 244.00,1041.00 244.00,1041.00
                  244.00,1041.00 228.00,1040.00 228.00,1040.00
                  228.00,1040.00 206.00,1040.00 206.00,1040.00
                  206.00,1040.00 191.00,1039.00 191.00,1039.00
                  191.00,1039.00 171.00,1039.00 171.00,1039.00
                  171.00,1039.00 159.00,1038.04 159.00,1038.04
                  159.00,1038.04 142.00,1038.04 142.00,1038.04
                  142.00,1038.04 108.00,1036.00 108.00,1036.00
                  108.00,1036.00 16.00,1034.00 16.00,1034.00
                  16.00,1034.00 0.00,1033.00 0.00,1033.00
                  0.00,1033.00 0.00,59.00 0.00,59.00
                  0.00,59.00 16.00,58.00 16.00,58.00 Z" />
    </clipPath>
    <clipPath id="car">
     <path id="Selection"
                       fill="none" stroke="black" stroke-width="1"
            d="M 42.00,2.91
               C 42.00,2.91 104.00,7.83 104.00,7.83
                 104.00,7.83 163.00,12.17 163.00,12.17
                 163.00,12.17 238.00,18.09 238.00,18.09
                 238.00,18.09 301.00,23.09 301.00,23.09
                 301.00,23.09 352.00,27.09 352.00,27.09
                 352.00,27.09 380.00,29.00 380.00,29.00
                 380.00,29.00 380.00,45.00 380.00,45.00
                 380.00,45.00 379.00,66.00 379.00,66.00
                 379.00,66.00 378.00,88.00 378.00,88.00
                 378.00,88.00 377.04,100.00 377.04,100.00
                 377.04,100.00 377.04,112.00 377.04,112.00
                 377.04,112.00 376.00,126.00 376.00,126.00
                 376.00,126.00 375.00,149.00 375.00,149.00
                 375.00,149.00 374.00,171.00 374.00,171.00
                 374.00,171.00 373.00,198.00 373.00,198.00
                 373.00,198.00 372.00,221.00 372.00,221.00
                 372.00,221.00 371.04,232.00 371.04,232.00
                 371.04,232.00 371.04,244.00 371.04,244.00
                 371.04,244.00 369.40,249.98 369.40,249.98
                 369.40,249.98 352.00,251.00 352.00,251.00
                 352.00,251.00 342.00,251.96 342.00,251.96
                 342.00,251.96 327.00,251.96 327.00,251.96
                 327.00,251.96 312.00,253.00 312.00,253.00
                 312.00,253.00 254.00,255.00 254.00,255.00
                 254.00,255.00 237.00,256.04 237.00,256.04
                 237.00,256.04 224.00,256.04 224.00,256.04
                 224.00,256.04 212.00,257.00 212.00,257.00
                 212.00,257.00 177.00,258.00 177.00,258.00
                 177.00,258.00 162.00,259.00 162.00,259.00
                 162.00,259.00 127.00,260.00 127.00,260.00
                 127.00,260.00 112.00,261.04 112.00,261.04
                 112.00,261.04 99.00,261.04 99.00,261.04
                 99.00,261.04 87.00,262.04 87.00,262.04
                 87.00,262.04 74.00,262.04 74.00,262.04
                 74.00,262.04 62.00,263.04 62.00,263.04
                 62.00,263.04 49.00,263.04 49.00,263.04
                 49.00,263.04 38.00,264.00 38.00,264.00
                 38.00,264.00 19.00,264.00 19.00,264.00
                 19.00,264.00 15.09,208.00 15.09,208.00
                 15.09,208.00 4.91,70.00 4.91,70.00
                 4.91,70.00 2.00,38.00 2.00,38.00
                 2.00,38.00 2.00,29.00 2.00,29.00
                 2.00,29.00 0.00,0.00 0.00,0.00
                 0.00,0.00 42.00,2.91 42.00,2.91 Z" />
    </clipPath>
    <clipPath id="social">
    <path id="Selection"
            fill="none" stroke="black" stroke-width="1"
            d="M 50.00,9.00
               C 50.00,9.00 50.00,45.00 50.00,45.00
                 50.00,45.00 9.00,54.00 9.00,54.00
                 9.00,54.00 0.00,0.00 0.00,0.00
                 0.00,0.00 50.00,9.00 50.00,9.00 Z" />
    </clipPath>
</svg>