<svg id="Tagline" xmlns="http://www.w3.org/2000/svg" viewBox="0 0 885.47 224.25"><defs><style>.cls-1{fill:#2f85ae;}.cls-2{fill:#414042;}.cls-3{fill:#808184;}</style></defs><title>CakeDC Tagline RGB</title><path class="cls-1" d="M148.54,98.66l67.32,16.76c11.72-4.59,18.77-10.39,18.77-16.76V71.81c0-14.83-38.54-26.87-86.09-26.87S62.46,57,62.46,71.81V98.66c0,14.87,38.54,26.88,86.08,26.88V98.66Z"/><path class="cls-1" d="M215.87,142.31l-67.32-16.77v26.9l67.32,16.73c11.72-4.61,18.77-10.41,18.77-16.73v-26.9C234.64,131.87,227.59,137.71,215.87,142.31Z"/><path class="cls-1" d="M62.46,125.54v26.9c0,14.83,38.54,26.86,86.08,26.86V152.44C101,152.44,62.46,140.39,62.46,125.54Z"/><path class="cls-1" d="M282.4,12.34V211.91H14.69V12.34H282.4m14.7-14.7H0v229H297.1v-229h0Z"/><path class="cls-2" d="M386.11,158.77c-27.66,0-48.19-21.35-48.19-48.32v-0.28c0-26.7,20.14-48.58,49-48.58,17.72,0,28.34,5.91,37.05,14.5L410.8,91.26c-7.24-6.58-14.63-10.61-24-10.61-15.84,0-27.25,13.16-27.25,29.26v0.26c0,16.11,11.13,29.55,27.25,29.55,10.74,0,17.31-4.31,24.7-11L424.62,142C415,152.32,404.22,158.77,386.11,158.77Z"/><path class="cls-2" d="M481.18,157.17v-7.78c-5,5.5-11.8,9.11-21.74,9.11-13.56,0-24.7-7.78-24.7-22v-0.27c0-15.71,11.94-22.95,29-22.95a51,51,0,0,1,17.58,3V115c0-8.47-5.23-13.16-15.43-13.16-7.79,0-13.29,1.49-19.86,3.89l-5.11-15.57a63.73,63.73,0,0,1,27.93-5.76c22.28,0,32.07,11.54,32.07,31v41.75H481.18Zm0.41-29a31.73,31.73,0,0,0-13-2.68c-8.72,0-14.09,3.49-14.09,9.93v0.28c0,5.5,4.56,8.72,11.14,8.72,9.53,0,16-5.23,16-12.62v-3.62Z"/><path class="cls-2" d="M564.84,157.17l-18.79-29.4-7.11,7.51v21.89H518.54v-98h20.41V111.4l23.89-26.17h24.42l-27.39,28.32,28.32,43.63H564.84Z"/><path class="cls-2" d="M661.51,128.3H611.45c2,9.26,8.45,14.09,17.58,14.09,6.84,0,11.81-2.14,17.45-7.38l11.68,10.34c-6.71,8.32-16.37,13.42-29.4,13.42-21.61,0-37.58-15.17-37.58-37.18v-0.27c0-20.54,14.63-37.45,35.57-37.45,24,0,35,18.66,35,39.07v0.27C661.78,125.21,661.64,126.43,661.51,128.3Zm-34.76-28.06c-8.46,0-14,6-15.57,15.3h30.73C640.7,106.43,635.33,100.25,626.75,100.25Z"/><path class="cls-1" d="M715.78,157.17H679.14v-94h36.65c29.53,0,49.92,20.27,49.92,46.7v0.26C765.71,136.62,745.31,157.17,715.78,157.17Zm28.32-47c0-16.62-11.41-28.31-28.32-28.31h-16V138.5h16c16.91,0,28.32-11.41,28.32-28.05v-0.28Z"/><path class="cls-1" d="M828.19,158.77c-27.65,0-48.19-21.35-48.19-48.32v-0.28c0-26.7,20.14-48.58,49-48.58,17.71,0,28.31,5.91,37,14.5L852.88,91.26c-7.24-6.58-14.63-10.61-24-10.61-15.84,0-27.25,13.16-27.25,29.26v0.26c0,16.11,11.14,29.55,27.25,29.55,10.74,0,17.32-4.31,24.7-11L866.71,142C857.05,152.32,846.32,158.77,828.19,158.77Z"/><path class="cls-3" d="M361.74,193.65h-8.61l0.73-2.66H374l-0.73,2.66h-8.61l-6.13,22.88h-2.88Z"/><path class="cls-3" d="M378.52,189.89h2.81l-2.92,10.84c1.71-1.93,3.68-3.47,6.57-3.47,3.65,0,6,2.26,6,5.84a12.5,12.5,0,0,1-.47,2.92l-2.77,10.51h-2.81l2.85-10.69a8.46,8.46,0,0,0,.29-2.12c0-2.48-1.61-3.94-4.23-3.94-2.92,0-5.84,2.52-6.82,6.09l-2.84,10.65h-2.81Z"/><path class="cls-3" d="M398,208.82a5.32,5.32,0,0,0,5.69,5.69,8.54,8.54,0,0,0,5.8-2.23l1.46,1.86a10.87,10.87,0,0,1-7.41,2.81c-5,0-8.36-3.25-8.36-8,0-5.77,4.67-11.67,11-11.67,4.78,0,7.3,3.28,7.3,7.22a10.42,10.42,0,0,1-.66,3.58H398.07A5.56,5.56,0,0,0,398,208.82Zm12.55-2.88a4.82,4.82,0,0,0,.18-1.46c0-2.59-1.46-4.85-4.71-4.85-3.72,0-6.57,2.85-7.59,6.31h12.12Z"/><path class="cls-3" d="M434.59,191h18.28l-0.73,2.63H436.75l-2.34,8.72h13.75L447.43,205H433.71l-2.41,8.94h15.58l-0.69,2.63H427.73Z"/><path class="cls-3" d="M459.69,206.75l-4.74-9.09h3.1l3.57,7.19,7.19-7.19h3.54l-9.6,9.34,4.93,9.52h-3.1l-3.76-7.66-7.73,7.66h-3.54Z"/><path class="cls-3" d="M477.42,197.66h2.81l-0.87,3.25c1.82-2,4.12-3.65,7.15-3.65,4.27,0,7.48,3.17,7.48,8,0,6.68-5.07,11.71-10.58,11.71a7.26,7.26,0,0,1-7.08-4.67l-2.7,10.07h-2.81ZM491,205.5c0-3.5-2.15-5.76-5.33-5.76-4.2,0-8.39,4.27-8.39,8.86a5.69,5.69,0,0,0,5.84,5.88C487.64,214.48,491,210.32,491,205.5Z"/><path class="cls-3" d="M500.73,208.82a5.32,5.32,0,0,0,5.69,5.69,8.55,8.55,0,0,0,5.8-2.23l1.46,1.86a10.87,10.87,0,0,1-7.41,2.81c-5,0-8.36-3.25-8.36-8,0-5.77,4.67-11.67,11-11.67,4.78,0,7.3,3.28,7.3,7.22a10.37,10.37,0,0,1-.66,3.58H500.77A5.56,5.56,0,0,0,500.73,208.82Zm12.55-2.88a4.74,4.74,0,0,0,.18-1.46c0-2.59-1.46-4.85-4.71-4.85-3.72,0-6.56,2.85-7.59,6.31h12.11Z"/><path class="cls-3" d="M523.68,197.66h2.81l-1.28,4.93c2.3-3.29,5.22-5.47,9-5.25l-0.8,3H533.2c-4.12,0-8.25,3-9.74,8.72l-2,7.44h-2.81Z"/><path class="cls-3" d="M535.83,213.13a8.45,8.45,0,0,1,.26-2l3-11h-2.59l0.66-2.48h2.63l1.53-5.69H544l-1.53,5.69h5.95l-0.66,2.48h-5.95L538.93,211a9.23,9.23,0,0,0-.15,1.38c0,1.31,1,1.93,2.59,1.93a7.35,7.35,0,0,0,2.74-.58l-0.69,2.55a7.55,7.55,0,0,1-3,.55C537.73,216.85,535.83,215.57,535.83,213.13Z"/><path class="cls-3" d="M547.83,213.64l1.83-1.82a9.24,9.24,0,0,0,6.56,2.77c2.15,0,4.16-1.24,4.16-3.14,0-1.24-.84-2.15-3.57-3.21-3.39-1.31-5.33-2.55-5.33-5.18,0-3.21,2.77-5.8,7.15-5.8a11.21,11.21,0,0,1,7,2.59L564,201.78a9.06,9.06,0,0,0-5.58-2.19c-2.66,0-4.09,1.42-4.09,3,0,1.24.77,2,3.76,3.21,3.39,1.39,5.14,2.74,5.14,5.18,0,3.5-3.21,5.95-7.23,5.95A11.58,11.58,0,0,1,547.83,213.64Z"/><path class="cls-3" d="M585.77,191h9.56c5,0,7.92,2.34,7.92,5.95s-2.78,6-6.38,6.71c2.52,0.77,4.52,2.41,4.52,5.29,0,4.42-4,7.59-10.72,7.59H578.91ZM591,213.93c4.6,0,7.48-1.93,7.48-5.11,0-2.59-2.44-3.9-5.87-3.9h-7.74l-2.41,9H591Zm1.82-11.57c4.56,0,7.48-2,7.48-5.07,0-2.41-1.9-3.72-5.22-3.72h-7.19l-2.33,8.79h7.26Z"/><path class="cls-3" d="M608.9,208.82a5.32,5.32,0,0,0,5.69,5.69,8.54,8.54,0,0,0,5.8-2.23l1.46,1.86a10.85,10.85,0,0,1-7.4,2.81c-5,0-8.36-3.25-8.36-8,0-5.77,4.67-11.67,11-11.67,4.78,0,7.3,3.28,7.3,7.22a10.37,10.37,0,0,1-.66,3.58H608.94A5.56,5.56,0,0,0,608.9,208.82Zm12.55-2.88a4.75,4.75,0,0,0,.18-1.46c0-2.59-1.46-4.85-4.71-4.85-3.72,0-6.56,2.85-7.59,6.31h12.11Z"/><path class="cls-3" d="M634,189.89h2.81l-2.92,10.84c1.71-1.93,3.68-3.47,6.57-3.47,3.65,0,6,2.26,6,5.84A12.5,12.5,0,0,1,646,206l-2.77,10.51h-2.81l2.85-10.69a8.46,8.46,0,0,0,.29-2.12c0-2.48-1.61-3.94-4.23-3.94-2.92,0-5.84,2.52-6.82,6.09l-2.84,10.65h-2.81Z"/><path class="cls-3" d="M654.87,197.66h2.81l-5.07,18.86H649.8Zm1.75-7.22h3.21l-0.84,3.1h-3.21Z"/><path class="cls-3" d="M664.57,197.66h2.81l-0.8,3.07c1.71-1.93,3.69-3.47,6.57-3.47,3.65,0,6,2.26,6,5.84a12.39,12.39,0,0,1-.47,2.92l-2.78,10.51h-2.81L676,205.83a8.45,8.45,0,0,0,.29-2.12c0-2.48-1.61-3.94-4.23-3.94-2.92,0-5.84,2.52-6.82,6.09l-2.85,10.65h-2.81Z"/><path class="cls-3" d="M683.47,209c0-6.68,5.07-11.71,10.58-11.71a7.23,7.23,0,0,1,7.08,4.67l3.21-12h2.81L700,216.52h-2.81l0.84-3.21A9.39,9.39,0,0,1,691,217C686.68,217,683.47,213.75,683.47,209Zm16.67-3.39a5.65,5.65,0,0,0-5.84-5.84c-4.48,0-7.88,4.16-7.88,9,0,3.5,2.19,5.77,5.33,5.77C695.95,214.48,700.14,210.21,700.14,205.58Z"/><path class="cls-3" d="M720.46,206.41c0-8.24,6.86-15.87,15.32-15.87a10.37,10.37,0,0,1,9.63,5.47l-2.48,1.53a7.84,7.84,0,0,0-7.41-4.34c-6.64,0-12,6.35-12,13.1,0,4.92,3.36,8,8,8a10.66,10.66,0,0,0,7.92-3.47l1.93,1.9a13.4,13.4,0,0,1-10,4.27C725.32,217,720.46,213,720.46,206.41Z"/><path class="cls-3" d="M745.23,211.71c0-4.23,3.54-6.82,8.39-6.82a25.17,25.17,0,0,1,6.71,1l0.11-.44a7.61,7.61,0,0,0,.25-1.75c0-2.44-1.68-3.83-5.11-3.83a15.48,15.48,0,0,0-5.32,1l-0.48-2.33a17.15,17.15,0,0,1,6.24-1.13c4.74,0,7.41,2.19,7.41,5.84a9.58,9.58,0,0,1-.4,2.59l-2.85,10.69h-2.74l0.8-3a9.08,9.08,0,0,1-7,3.36C748,216.92,745.23,215.06,745.23,211.71Zm14.27-2.59,0.36-1.31a22.49,22.49,0,0,0-6.13-.84c-3.36,0-5.65,1.83-5.65,4.42,0,2,1.57,3.36,4,3.36A7.94,7.94,0,0,0,759.5,209.12Z"/><path class="cls-3" d="M773.69,189.89h2.81L771.65,208l12.7-10.36h3.83l-10.1,8.14,5.18,10.73h-3.17l-4.38-8.94-5,4-1.31,4.93h-2.81Z"/><path class="cls-3" d="M790.47,208.82a5.32,5.32,0,0,0,5.69,5.69,8.54,8.54,0,0,0,5.8-2.23l1.46,1.86A10.85,10.85,0,0,1,796,217c-5,0-8.36-3.25-8.36-8,0-5.77,4.67-11.67,11-11.67,4.78,0,7.3,3.28,7.3,7.22a10.37,10.37,0,0,1-.66,3.58H790.51A5.56,5.56,0,0,0,790.47,208.82ZM803,205.94a4.75,4.75,0,0,0,.18-1.46c0-2.59-1.46-4.85-4.71-4.85-3.72,0-6.56,2.85-7.59,6.31H803Z"/><path class="cls-3" d="M815.72,191h8c3.21,0,5.65.77,7.3,2.37a6.55,6.55,0,0,1,1.82,4.74c0,5.95-5.07,9.34-12.59,9.34h-6.06l-2.45,9.09h-2.88Zm4.67,13.9c6,0,9.45-2.41,9.45-6.6a4,4,0,0,0-1.17-3c-1.06-1.06-2.78-1.61-5.07-1.61h-5.73l-3,11.23h5.51Z"/><path class="cls-3" d="M840.41,191h2.88l-3,11.35h14.56l3-11.35h2.92l-6.86,25.54H851L854.1,205H839.54l-3.1,11.49h-2.88Z"/><path class="cls-3" d="M868.36,191h8c3.21,0,5.65.77,7.3,2.37a6.56,6.56,0,0,1,1.82,4.74c0,5.95-5.07,9.34-12.59,9.34h-6.06l-2.45,9.09H861.5Zm4.67,13.9c6,0,9.45-2.41,9.45-6.6a4,4,0,0,0-1.17-3c-1.06-1.06-2.77-1.61-5.07-1.61h-5.73l-3,11.23H873Z"/></svg>