<svg enable-background="new 0 0 884.4 428.7" viewBox="0 0 884.4 428.7" xmlns="http://www.w3.org/2000/svg" xmlns:xlink="http://www.w3.org/1999/xlink"><defs><path id="a" d="m262.9 201.4c0-.1 0-.2 0-.2 0-.1 0-.1-.1-.2 0 0 0-.1-.1-.1 0-.1-.1-.1-.1-.2 0 0-.1-.1-.1-.1-.1-.1-.1-.1-.2-.2 0 0 0 0-.1-.1l-31.2-17.3c-.4-.2-1-.2-1.4 0l-26.3 16.1s-.1.1-.1.1-.1.1-.1.1-.1.1-.1.1-.1.1-.1.1c0 .1-.1.1-.1.2 0 0 0 .1-.1.1v.2.1l-.3 14-10.7-7.1c-.4-.3-1-.3-1.5 0l-15.4 9.4-.7-15.7v-.1c0-.1 0-.1 0-.2 0 0 0-.1-.1-.1 0-.1 0-.1-.1-.2 0 0-.1-.1-.1-.1s-.1-.1-.1-.1-.1-.1-.1-.1-.1-.1-.1-.1l-16-10.8 15-7.8c.5-.2.8-.7.7-1.3l-2.5-59c0-.1 0-.1 0-.2v-.1c0-.1-.1-.2-.1-.3 0 0 0 0 0-.1-.1-.1-.1-.2-.2-.2 0 0-.1 0-.1-.1 0 0-.1-.1-.1-.1s-.1 0-.1-.1l-40.5-19.5c-.3-.2-.7-.2-1-.1l-55.2 17.2s0 0-.1 0-.2.1-.3.1-.1.1-.1.1c-.1.1-.1.1-.2.2 0 .1-.1.1-.1.2s-.1.1-.1.2 0 .1-.1.2v.1.2.2l12.3 59.5c.1.3.2.6.5.8l16.7 13-12.2 6s0 0-.1 0c0 0 0 0-.1 0 0 0 0 0-.1.1-.1 0-.1.1-.2.2 0 0-.1.1-.1.1-.1.1-.1.2-.1.2v.1c0 .1-.1.2-.1.4v.1.3l9.3 44.8c.1.3.2.5.4.7l11.6 11-7.7 4.7c-.1.1-.2.1-.3.2 0 0 0 0-.1.1s-.1.2-.2.3v.1c-.1.1-.1.2-.1.4v.4l7.2 34.7c.1.2.2.5.3.7l29 30.8s.1.1.1.1h.1c.1.1.2.1.3.2.2.1.3.1.5.1.1 0 .3 0 .4-.1h.1.1c.1 0 .1-.1.1-.1s.1 0 .1-.1l37.3-29.8c.3-.3.5-.7.5-1.1l-.9-20.4 12.5 10.5h.1c.1.1.1.1.2.1h.1.1c.1 0 .3.1.4.1s.3 0 .4-.1h.1.1c.1 0 .1-.1.2-.1h.1l29.9-23.9c.3-.2.5-.6.5-1l.9-15 9.1 6.3h.1s0 0 .1.1c.1 0 .1 0 .2.1h.1c.1 0 .2.1.4.1.1 0 .3 0 .4-.1h.1.1c.1 0 .1-.1.2-.1h.1l24.4-19.5c.3-.2.5-.5.5-.9l4.3-32.1v-.1c.2-.1.2-.1.2-.2z"/><clipPath id="b"><use xlink:href="#a"/></clipPath></defs><g fill="#231f20"><path d="m317.9 143.2 21.6-5.2v104.1c0 11.4 3.4 18.2 10.2 20.4-3.3 6.3-9 9.5-17.1 9.5-9.8 0-14.7-6.8-14.7-20.4z"/><path d="m372.2 270.4v-74.9h-11.8v-17.7h33.7v92.6zm11.1-128.5c3.5 0 6.4 1.2 8.9 3.7s3.7 5.4 3.7 8.9-1.2 6.4-3.7 8.9-5.4 3.7-8.9 3.7-6.4-1.2-8.9-3.7c-2.5-2.4-3.7-5.4-3.7-8.9s1.2-6.4 3.7-8.9 5.5-3.7 8.9-3.7z"/><path d="m478.8 270.4v-53.5c0-7.9-1.5-13.7-4.5-17.3s-8-5.4-14.8-5.4c-3.2 0-6.6.9-10.2 2.7s-6.4 4-8.4 6.7v66.9h-21.6v-92.6h15.6l4 8.6c5.9-6.9 14.6-10.4 26-10.4 11 0 19.7 3.3 26.1 9.9s9.6 15.8 9.6 27.6v56.8z"/><path d="m517.7 223.8c0-14.1 4.1-25.6 12.2-34.5 8.2-8.9 18.9-13.3 32.3-13.3 14.1 0 25 4.3 32.8 12.8s11.7 20.2 11.7 35-4 26.5-11.9 35.2-18.8 13.1-32.6 13.1c-14.1 0-25-4.4-32.8-13.2s-11.7-20.5-11.7-35.1zm22.5 0c0 20.4 7.3 30.6 22.1 30.6 6.7 0 12.1-2.7 16-8s5.9-12.9 5.9-22.7c0-20.1-7.3-30.2-22-30.2-6.7 0-12.1 2.7-16.1 8-3.9 5.4-5.9 12.8-5.9 22.3z"/><path d="m683.6 270.4v-5.6c-1.8 2-4.8 3.7-9.1 5.1-4.3 1.5-8.7 2.2-13.2 2.2-12.9 0-23.1-4.1-30.5-12.3s-11.1-19.6-11.1-34.2 4.3-26.6 12.8-35.8 19.2-13.8 31.9-13.8c7 0 13.4 1.4 19.2 4.3v-37.1l21.6-5.2v132.3h-21.6zm0-70.5c-4.6-3.7-9.4-5.5-14.4-5.5-8.6 0-15.3 2.6-20 7.9s-7 12.8-7 22.7c0 19.3 9.3 28.9 27.9 28.9 2.1 0 4.6-.6 7.7-1.9 3-1.2 5-2.5 5.9-3.8v-48.3z"/><path d="m809.5 230.7h-66.2c.4 7.4 2.9 13.1 7.6 17.2s11 6.1 18.9 6.1c9.9 0 17.4-2.6 22.5-7.7l8.4 16.5c-7.6 6.2-19 9.3-34.1 9.3-14.1 0-25.3-4.1-33.5-12.4s-12.3-19.8-12.3-34.6c0-14.6 4.5-26.4 13.5-35.5s19.8-13.6 32.5-13.6c13.4 0 24.2 4 32.3 12s12.2 18.2 12.2 30.6c0 2.7-.6 6.7-1.8 12.1zm-65.4-16.3h45.5c-1.5-13.6-9-20.3-22.5-20.3-12.3 0-20 6.8-23 20.3z"/></g><use xlink:href="#a"/><path clip-path="url(#b)" d="m263.1 200.6-4.6 33.7-25.8 20.5 2.8-33z" fill="#00a75d"/><path clip-path="url(#b)" d="m190.8 253.7-.1 34.7 31.4-25 1.9-34z" fill="#00a75d"/><path clip-path="url(#b)" d="m176.7 263.1-41.8 30.7 4.6 35.6 38.8-30.9z" fill="#00a75d"/><path clip-path="url(#b)" d="m176 246.1-1.8-46.2-48.7 29.5 6.7 46.3z" fill="#00a75d"/><path clip-path="url(#b)" d="m170.6 120.7-57.6 23.4 9.5 64.3 35.2-19.5.1.4 15.9-8v-1.3z" fill="#00a75d"/><path clip-path="url(#b)" d="m235.5 221.8-2.8 32.9-9.8-6.9 1.1-18.4s0 0 0-.1 0-.1 0-.2v-.1c0-.1-.1-.2-.1-.3-.1-.1-.1-.2-.2-.3 0 0 0 0-.1 0-.1-.1-.1-.1-.2-.1l-21.1-13.9.3-14.2zm-44.7 31.9-14.9-10.7.1 2.3c0 .5-.2.9-.6 1.2l-9.9 6.7 10.8 8.8s.1.1.1.1l.2.2s0 .1.1.1c0 .1.1.1.1.2v.1.2.1l.6 14 13.4 11.2zm-89.4 7.5 7.5 35.7 30.7 32.7-4.7-35.8zm30.8 14.5-6.7-46.3-36.5-29.9 9 45.4zm-9.7-67.3-9.5-64.3-41.3-26.1 12.8 60.8z" fill="#536657"/></svg>