<?xml version="1.0" encoding="utf-8"?>
<!-- Generator: Adobe Illustrator 21.0.2, SVG Export Plug-In . SVG Version: 6.00 Build 0)  -->
<svg version="1.1" id="Layer_1" xmlns="http://www.w3.org/2000/svg" xmlns:xlink="http://www.w3.org/1999/xlink" x="0px" y="0px"
	 viewBox="0 0 984.7 241.9" style="enable-background:new 0 0 984.7 241.9;" xml:space="preserve">
<style type="text/css">
	.st0{fill:#2F86AF;}
	.st1{fill:#414042;}
	.st2{fill:#808285;}
	.st3{fill:#2098A1;}
	.st4{fill:#F9C631;}
	.st5{fill:#D43D44;}
	.st6{fill:#D7B967;}
	.st7{fill:#35BED7;}
	.st8{fill:#32BCAD;}
</style>
<g>
	<g>
		<path class="st1" d="M299.1,205.1c8.4,0,13.7-3.7,13.7-9.3c0-4.4-3.5-6.8-9.5-6.8H290l-4.3,16.1H299.1z M295.7,226.3
			c8.4,0,13.7-3.5,13.7-9.4c0-4.7-4.5-7.1-10.8-7.1h-14.2l-4.4,16.5H295.7z M286.2,184.3h17.5c9.1,0,14.5,4.3,14.5,10.9
			c0,6.7-5.1,10.9-11.7,12.3c4.6,1.4,8.3,4.4,8.3,9.7c0,8.1-7.3,13.9-19.6,13.9h-21.5L286.2,184.3z"/>
		<path class="st1" d="M324,221.1c0-1.6,0.4-3.5,0.9-5.3l5.1-19.2h5.1l-5.3,19.6c-0.3,1.1-0.5,2.7-0.5,3.9c0,4.5,2.9,7.2,7.7,7.2
			c5.3,0,10.7-4.6,12.5-11.2l5.2-19.4h5.1l-9.2,34.5h-5.1l1.5-5.6c-3.1,3.5-6.8,6.3-12.1,6.3C328.4,231.8,324,227.6,324,221.1"/>
		<path class="st1" d="M375.8,183.3h5.9l-1.5,5.7h-5.9L375.8,183.3z M372.6,196.5h5.1l-9.3,34.5h-5.1L372.6,196.5z"/>
		<polygon class="st1" points="394.7,182.3 399.9,182.3 386.8,231 381.6,231 		"/>
		<g>
			<path class="st1" d="M432.2,211c0-6-4.3-10.7-10.7-10.7c-8.2,0-14.4,7.6-14.4,16.4c0,6.4,4,10.5,9.7,10.5
				C424.5,227.3,432.2,219.5,432.2,211 M401.7,217.2c0-12.2,9.3-21.4,19.4-21.4c7.1,0,11.1,4,12.9,8.5l5.9-22h5.1L432,231h-5.1
				l1.5-5.9c-3.3,3.7-7.5,6.7-13,6.7C407.5,231.8,401.7,226,401.7,217.2"/>
			<path class="st1" d="M474.8,201.1h-4.7l1.2-4.5h4.7l1.1-4.1c1.8-6.9,5.9-10.2,11.8-10.2c2.7,0,5.1,0.5,6.9,1.5l-1.2,4.4
				c-2-0.9-3.7-1.4-5.7-1.4c-3.3,0-5.7,2-7,6.5l-0.9,3.3h11.3l-1.3,4.5H480l-8.1,30h-5.1L474.8,201.1z"/>
			<path class="st1" d="M515.5,217.5l0.7-2.4c-3-0.9-6.9-1.5-11.2-1.5c-6.1,0-10.4,3.3-10.4,8.1c0,3.7,2.9,6.1,7.3,6.1
				C507.8,227.8,513.9,223.6,515.5,217.5 M489.4,222.2c0-7.7,6.5-12.5,15.4-12.5c4.6,0,8.9,0.9,12.3,1.9l0.2-0.8
				c0.3-1,0.5-2.3,0.5-3.2c0-4.5-3.1-7-9.3-7c-3.7,0-6.7,0.7-9.7,1.8l-0.9-4.3c3.4-1.3,6.9-2.1,11.4-2.1c8.7,0,13.6,4,13.6,10.7
				c0,1.5-0.3,3.1-0.7,4.7l-5.2,19.6h-5l1.5-5.4c-3.2,3.7-7.4,6.1-12.9,6.1C494.6,231.8,489.4,228.4,489.4,222.2"/>
			<path class="st1" d="M526.9,225.8l3.3-3.3c3.7,3.6,7.9,5.1,12,5.1c3.9,0,7.6-2.3,7.6-5.7c0-2.3-1.5-3.9-6.5-5.9
				c-6.2-2.4-9.8-4.7-9.8-9.5c0-5.9,5.1-10.6,13.1-10.6c5.1,0,9.9,2.3,12.8,4.7l-3,3.5c-2.9-2.3-6.5-4-10.2-4
				c-4.9,0-7.5,2.6-7.5,5.5c0,2.3,1.4,3.7,6.9,5.9c6.2,2.5,9.4,5,9.4,9.5c0,6.4-5.9,10.9-13.2,10.9
				C536.4,231.8,530.9,229.8,526.9,225.8"/>
			<path class="st1" d="M565.5,224.8c0-1.2,0.2-2.5,0.5-3.6l5.4-20.2h-4.7l1.2-4.5h4.8l2.8-10.4h5.1l-2.8,10.4h10.9l-1.2,4.5h-10.9
				l-5.3,19.9c-0.1,0.8-0.3,1.8-0.3,2.5c0,2.4,1.8,3.5,4.7,3.5c1.5,0,3.1-0.3,5-1.1l-1.3,4.7c-1.8,0.7-3.5,1-5.5,1
				C568.9,231.6,565.5,229.3,565.5,224.8"/>
			<path class="st1" d="M584.8,236.9c3.9-1,5.7-2.9,6.3-5.8h-2.5l1.9-7h6.1l-1.6,6c-1.6,5.8-4.3,8.1-9.7,9.1L584.8,236.9z"/>
			<path class="st1" d="M660.1,210.1c0-5.1-4-9.7-10.6-9.7c-7.3,0-14.2,6.1-14.2,14.4c0,6.1,4.8,9.3,10.1,9.3
				C653.2,224,660.1,217.2,660.1,210.1 M625.3,235.9l3.2-3.6c3.7,3.1,8.3,5.2,13.6,5.2c4.3,0,7.6-1.4,9.7-3.5
				c2.1-2.1,3.3-4.7,4.3-8.3l0.9-3.5c-3.5,3.5-7.5,6.2-13.2,6.2c-7.2,0-14-4.7-14-13c0-11.5,9.7-19.6,19.4-19.6
				c7.4,0,10.8,4.1,12.7,8.3l2-7.5h5.1l-7.9,29.6c-1.5,5.3-3.1,8.4-5.6,10.9c-3.2,3.2-7.5,4.9-13.4,4.9
				C635.9,241.9,629.6,239.6,625.3,235.9"/>
			<path class="st1" d="M681.2,196.5h5.1l-2.3,9c4.2-6,9.6-10,16.4-9.6l-1.5,5.5h-0.3c-7.5,0-15.1,5.5-17.8,16l-3.7,13.6H672
				L681.2,196.5z"/>
			<path class="st1" d="M732.1,211.4c0-7-4.4-11.1-10.8-11.1c-7.9,0-14.8,7.9-14.8,15.9c0,7,4.4,11,10.8,11
				C725.1,227.2,732.1,219.6,732.1,211.4 M701.3,216.4c0-10.8,9.3-20.6,20.3-20.6c9.5,0,15.8,6.5,15.8,15.4c0,11-9.5,20.6-20.4,20.6
				C707.5,231.8,701.3,225.3,701.3,216.4"/>
		</g>
		<polygon class="st1" points="746.1,196.5 751.3,196.5 753.1,224 769.8,196.4 774.1,196.4 776,224 792.6,196.5 798,196.5 
			776.5,231.3 771.9,231.3 769.9,204.1 753.3,231.3 748.8,231.3 		"/>
		<g>
			<path class="st1" d="M817.2,225.8l3.3-3.3c3.7,3.6,7.9,5.1,12,5.1c3.9,0,7.6-2.3,7.6-5.7c0-2.3-1.5-3.9-6.5-5.9
				c-6.2-2.4-9.7-4.7-9.7-9.5c0-5.9,5.1-10.6,13.1-10.6c5.1,0,9.9,2.3,12.7,4.7l-3,3.5c-2.9-2.3-6.5-4-10.2-4
				c-4.9,0-7.5,2.6-7.5,5.5c0,2.3,1.4,3.7,6.9,5.9c6.2,2.5,9.4,5,9.4,9.5c0,6.4-5.9,10.9-13.2,10.9
				C826.8,231.8,821.2,229.8,817.2,225.8"/>
			<path class="st1" d="M885.5,211.4c0-7-4.4-11.1-10.8-11.1c-7.9,0-14.8,7.9-14.8,15.9c0,7,4.4,11,10.8,11
				C878.5,227.2,885.5,219.6,885.5,211.4 M854.7,216.4c0-10.8,9.3-20.6,20.3-20.6c9.5,0,15.8,6.5,15.8,15.4c0,11-9.5,20.6-20.4,20.6
				C860.9,231.8,854.7,225.3,854.7,216.4"/>
		</g>
		<polygon class="st1" points="909.4,182.3 914.5,182.3 901.4,231 896.3,231 		"/>
		<path class="st1" d="M927.1,183.3h5.9l-1.5,5.7h-5.9L927.1,183.3z M923.9,196.5h5.1l-9.3,34.5h-5.1L923.9,196.5z"/>
		<g>
			<path class="st1" d="M965.1,211c0-6-4.3-10.7-10.7-10.7c-8.2,0-14.4,7.6-14.4,16.4c0,6.4,4,10.5,9.8,10.5
				C957.4,227.3,965.1,219.5,965.1,211 M934.6,217.2c0-12.2,9.3-21.4,19.4-21.4c7.1,0,11.1,4,13,8.5l5.9-22h5.1l-13,48.7h-5.1
				l1.5-5.9c-3.3,3.7-7.5,6.7-13,6.7C940.5,231.8,934.6,226,934.6,217.2"/>
		</g>
		<polygon class="st1" points="978.7,224 984.7,224 982.9,231 976.7,231 		"/>
	</g>
	<path class="st5" d="M112.5,70.2l88,21.8c15.3-6,24.5-13.6,24.5-21.8V35.1C225,15.7,174.6,0,112.5,0C50.3,0,0,15.7,0,35.1v35.1
		c0,19.4,50.3,35.1,112.5,35.1V70.2z"/>
	<path class="st5" d="M200.4,127.2l-88-21.9v35.1l88,21.9c15.3-6,24.5-13.6,24.5-21.9v-35.1C225,113.6,215.8,121.2,200.4,127.2"/>
	<path class="st5" d="M0,105.3v35.1c0,19.4,50.3,35.1,112.5,35.1v-35.1C50.3,140.5,0,124.7,0,105.3"/>
	<path class="st1" d="M321.5,137.2c-27.5,0-47.9-21.2-47.9-48V89c0-26.5,20-48.3,48.7-48.3c17.6,0,28.1,5.9,36.8,14.4L346,70.2
		c-7.2-6.5-14.5-10.5-23.9-10.5c-15.7,0-27.1,13.1-27.1,29.1V89c0,16,11,29.3,27.1,29.3c10.7,0,17.2-4.3,24.5-10.9l13.1,13.2
		C350.1,130.8,339.5,137.2,321.5,137.2"/>
	<path class="st1" d="M416.3,106.8c-3.5-1.6-8-2.7-12.9-2.7c-8.7,0-14,3.5-14,9.9v0.3c0,5.5,4.5,8.7,11.1,8.7
		c9.5,0,15.9-5.2,15.9-12.5V106.8z M415.9,135.6v-7.7c-4.9,5.5-11.7,9.1-21.6,9.1c-13.5,0-24.5-7.7-24.5-21.9v-0.3
		c0-15.6,11.9-22.8,28.8-22.8c7.2,0,12.4,1.2,17.5,2.9v-1.2c0-8.4-5.2-13.1-15.3-13.1c-7.7,0-13.2,1.5-19.7,3.9l-5.1-15.5
		c7.9-3.5,15.6-5.7,27.7-5.7c22.1,0,31.9,11.5,31.9,30.8v41.5H415.9z"/>
	<polygon class="st1" points="498.9,135.6 480.3,106.4 473.2,113.9 473.2,135.6 452.9,135.6 452.9,38.3 473.2,38.3 473.2,90.2 
		496.9,64.2 521.2,64.2 494,92.3 522.1,135.6 	"/>
	<g>
		<path class="st1" d="M560.4,79.1c-8.4,0-13.9,6-15.5,15.2h30.5C574.2,85.2,568.9,79.1,560.4,79.1 M594.9,107h-49.7
			c2,9.2,8.4,14,17.5,14c6.8,0,11.7-2.1,17.3-7.3l11.6,10.3c-6.7,8.3-16.3,13.3-29.2,13.3c-21.5,0-37.3-15.1-37.3-36.9V100
			c0-20.4,14.5-37.2,35.3-37.2c23.9,0,34.8,18.5,34.8,38.8v0.3C595.2,103.9,595,105.1,594.9,107"/>
		<path class="st5" d="M665.4,75c0-9.2-6.4-14.1-16.7-14.1h-15.9v28.5h16.3c10.3,0,16.3-6.2,16.3-14.1V75z M648.5,107.6h-15.6v28
			h-20.5V42.3h38.1c22.3,0,35.7,13.2,35.7,32.3v0.3C686.2,96.4,669.4,107.6,648.5,107.6"/>
	</g>
	<polygon class="st5" points="759.8,135.6 759.8,98.2 721.9,98.2 721.9,135.6 701.4,135.6 701.4,42.3 721.9,42.3 721.9,79.2 
		759.8,79.2 759.8,42.3 780.3,42.3 780.3,135.6 	"/>
	<g>
		<path class="st5" d="M855.8,75c0-9.2-6.4-14.1-16.7-14.1h-15.9v28.5h16.3c10.3,0,16.3-6.2,16.3-14.1V75z M838.9,107.6h-15.6v28
			h-20.5V42.3h38.1c22.3,0,35.7,13.2,35.7,32.3v0.3C876.6,96.4,859.8,107.6,838.9,107.6"/>
	</g>
</g>
</svg>
