<?xml version="1.0" encoding="utf-8"?>
<!DOCTYPE svg PUBLIC "-//W3C//DTD SVG 1.1//EN" "http://www.w3.org/Graphics/SVG/1.1/DTD/svg11.dtd">
<svg version="1.1" id="Layer_1" xmlns="http://www.w3.org/2000/svg" xmlns:xlink="http://www.w3.org/1999/xlink" x="0px" y="0px"
	 width="230px" height="24.673px" viewBox="0 0 230 24.673" enable-background="new 0 0 230 24.673" xml:space="preserve">
<g>
	<g>
		<path fill="#FFFFFF" d="M133.629,15.422c1.175,0,1.926-0.515,1.926-1.304c0-0.619-0.489-0.957-1.343-0.957h-1.849l-0.601,2.261
			H133.629z M133.161,18.398c1.183,0,1.924-0.498,1.924-1.313c0-0.667-0.629-1.005-1.511-1.005h-1.99l-0.619,2.318H133.161z
			 M131.819,12.495h2.458c1.285,0,2.037,0.601,2.037,1.53c0,0.938-0.714,1.539-1.643,1.726c0.647,0.197,1.163,0.619,1.163,1.361
			c0,1.135-1.031,1.952-2.759,1.952h-3.021L131.819,12.495z"/>
		<path fill="#FFFFFF" d="M137.138,17.666c0-0.226,0.058-0.498,0.123-0.751l0.713-2.702h0.723l-0.741,2.749
			c-0.038,0.16-0.064,0.386-0.064,0.545c0,0.637,0.411,1.013,1.078,1.013c0.751,0,1.511-0.647,1.754-1.577l0.732-2.73h0.723
			l-1.295,4.851h-0.724l0.217-0.788c-0.441,0.497-0.957,0.892-1.698,0.892C137.749,19.167,137.138,18.585,137.138,17.666"/>
	</g>
	<path fill="#FFFFFF" d="M144.419,12.355h0.826l-0.217,0.797h-0.824L144.419,12.355z M143.97,14.212h0.722l-1.305,4.852h-0.722
		L143.97,14.212z"/>
	<polygon fill="#FFFFFF" points="147.075,12.214 147.797,12.214 145.958,19.064 145.235,19.064 	"/>
	<g>
		<path fill="#FFFFFF" d="M152.339,16.249c0-0.845-0.61-1.501-1.502-1.501c-1.154,0-2.026,1.07-2.026,2.309
			c0,0.901,0.562,1.482,1.37,1.482C151.26,18.539,152.339,17.441,152.339,16.249 M148.051,17.122c0-1.718,1.304-3.012,2.722-3.012
			c0.994,0,1.558,0.562,1.819,1.201l0.826-3.097h0.723l-1.83,6.85h-0.723l0.216-0.826c-0.46,0.525-1.051,0.938-1.83,0.938
			C148.876,19.176,148.051,18.351,148.051,17.122"/>
		<path fill="#FFFFFF" d="M158.333,14.851h-0.667l0.171-0.638h0.666l0.159-0.582c0.253-0.976,0.825-1.436,1.661-1.436
			c0.375,0,0.712,0.075,0.966,0.207l-0.17,0.619c-0.28-0.132-0.516-0.197-0.796-0.197c-0.46,0-0.808,0.282-0.977,0.92l-0.123,0.469
			h1.588l-0.18,0.638h-1.577l-1.134,4.213h-0.724L158.333,14.851z"/>
		<path fill="#FFFFFF" d="M164.057,17.159l0.093-0.337c-0.421-0.122-0.976-0.216-1.576-0.216c-0.863,0-1.454,0.469-1.454,1.135
			c0,0.517,0.403,0.863,1.032,0.863C162.968,18.604,163.821,18.013,164.057,17.159 M160.388,17.825c0-1.088,0.909-1.755,2.157-1.755
			c0.648,0,1.258,0.131,1.727,0.263l0.028-0.112c0.038-0.141,0.066-0.319,0.066-0.45c0-0.629-0.432-0.986-1.313-0.986
			c-0.518,0-0.939,0.103-1.37,0.253l-0.123-0.601c0.479-0.178,0.976-0.291,1.605-0.291c1.22,0,1.904,0.563,1.904,1.501
			c0,0.207-0.037,0.441-0.103,0.666l-0.732,2.75h-0.704l0.207-0.76c-0.45,0.516-1.041,0.863-1.812,0.863
			C161.11,19.167,160.388,18.688,160.388,17.825"/>
		<path fill="#FFFFFF" d="M165.651,18.323l0.469-0.469c0.525,0.507,1.106,0.713,1.689,0.713c0.553,0,1.069-0.32,1.069-0.807
			c0-0.319-0.217-0.554-0.921-0.826c-0.872-0.338-1.37-0.657-1.37-1.333c0-0.825,0.714-1.492,1.84-1.492
			c0.714,0,1.389,0.32,1.792,0.667l-0.422,0.497c-0.403-0.328-0.91-0.563-1.436-0.563c-0.685,0-1.052,0.366-1.052,0.77
			c0,0.319,0.198,0.525,0.968,0.826c0.873,0.356,1.322,0.704,1.322,1.333c0,0.901-0.825,1.53-1.857,1.53
			C166.992,19.167,166.214,18.886,165.651,18.323"/>
		<path fill="#FFFFFF" d="M171.074,18.191c0-0.169,0.027-0.356,0.064-0.507l0.761-2.834h-0.666l0.169-0.638h0.675l0.396-1.464h0.713
			l-0.395,1.464h1.529l-0.169,0.638h-1.529l-0.751,2.797c-0.019,0.112-0.037,0.253-0.037,0.356c0,0.337,0.253,0.497,0.665,0.497
			c0.217,0,0.441-0.046,0.705-0.149l-0.179,0.656c-0.254,0.103-0.488,0.141-0.77,0.141C171.562,19.148,171.074,18.82,171.074,18.191
			"/>
		<path fill="#FFFFFF" d="M173.794,19.881c0.545-0.141,0.807-0.414,0.882-0.817h-0.348l0.272-0.985h0.855l-0.227,0.845
			c-0.226,0.816-0.61,1.135-1.36,1.276L173.794,19.881z"/>
		<path fill="#FFFFFF" d="M184.378,16.118c0-0.713-0.562-1.37-1.492-1.37c-1.032,0-1.998,0.854-1.998,2.018
			c0,0.863,0.676,1.304,1.416,1.304C183.401,18.069,184.378,17.112,184.378,16.118 M179.489,19.74l0.45-0.507
			c0.516,0.441,1.173,0.732,1.914,0.732c0.61,0,1.069-0.197,1.36-0.498c0.301-0.291,0.47-0.666,0.61-1.163l0.131-0.488
			c-0.487,0.497-1.061,0.872-1.857,0.872c-1.013,0-1.971-0.666-1.971-1.83c0-1.614,1.36-2.749,2.722-2.749
			c1.041,0,1.511,0.582,1.782,1.163l0.282-1.06h0.723l-1.107,4.157c-0.207,0.75-0.441,1.182-0.789,1.53
			c-0.45,0.45-1.051,0.685-1.877,0.685C180.972,20.584,180.09,20.265,179.489,19.74"/>
		<path fill="#FFFFFF" d="M187.343,14.212h0.723l-0.33,1.267c0.593-0.845,1.343-1.408,2.31-1.352l-0.207,0.779h-0.047
			c-1.06,0-2.12,0.779-2.506,2.243l-0.515,1.914h-0.724L187.343,14.212z"/>
		<path fill="#FFFFFF" d="M194.491,16.305c0-0.985-0.619-1.558-1.52-1.558c-1.117,0-2.075,1.107-2.075,2.234
			c0,0.985,0.62,1.547,1.521,1.547C193.506,18.529,194.491,17.459,194.491,16.305 M190.166,17c0-1.511,1.303-2.891,2.852-2.891
			c1.333,0,2.214,0.911,2.214,2.168c0,1.549-1.342,2.9-2.861,2.9C191.038,19.177,190.166,18.257,190.166,17"/>
	</g>
	<polygon fill="#FFFFFF" points="196.459,14.212 197.19,14.212 197.444,18.079 199.791,14.194 200.391,14.194 200.663,18.079 
		202.999,14.212 203.75,14.212 200.728,19.102 200.091,19.102 199.809,15.273 197.473,19.102 196.845,19.102 	"/>
	<g>
		<path fill="#FFFFFF" d="M206.461,18.323l0.469-0.469c0.525,0.507,1.106,0.713,1.688,0.713c0.554,0,1.07-0.32,1.07-0.807
			c0-0.319-0.216-0.554-0.92-0.826c-0.873-0.338-1.37-0.657-1.37-1.333c0-0.825,0.713-1.492,1.84-1.492
			c0.713,0,1.389,0.32,1.791,0.667l-0.422,0.497c-0.403-0.328-0.91-0.563-1.436-0.563c-0.685,0-1.051,0.366-1.051,0.77
			c0,0.319,0.197,0.525,0.967,0.826c0.873,0.356,1.323,0.704,1.323,1.333c0,0.901-0.826,1.53-1.857,1.53
			C207.802,19.167,207.022,18.886,206.461,18.323"/>
		<path fill="#FFFFFF" d="M216.05,16.305c0-0.985-0.619-1.558-1.521-1.558c-1.116,0-2.073,1.107-2.073,2.234
			c0,0.985,0.619,1.547,1.521,1.547C215.065,18.529,216.05,17.459,216.05,16.305 M211.723,17c0-1.511,1.306-2.891,2.854-2.891
			c1.333,0,2.216,0.911,2.216,2.168c0,1.549-1.343,2.9-2.862,2.9C212.596,19.177,211.723,18.257,211.723,17"/>
	</g>
	<polygon fill="#FFFFFF" points="219.408,12.214 220.131,12.214 218.291,19.064 217.568,19.064 	"/>
	<path fill="#FFFFFF" d="M221.895,12.355h0.826l-0.217,0.797h-0.825L221.895,12.355z M221.443,14.212h0.724l-1.305,4.852h-0.724
		L221.443,14.212z"/>
	<g>
		<path fill="#FFFFFF" d="M227.243,16.249c0-0.845-0.61-1.501-1.503-1.501c-1.154,0-2.026,1.07-2.026,2.309
			c0,0.901,0.563,1.482,1.37,1.482C226.163,18.539,227.243,17.441,227.243,16.249 M222.954,17.122c0-1.718,1.304-3.012,2.722-3.012
			c0.994,0,1.558,0.562,1.821,1.201l0.825-3.097h0.721l-1.829,6.85h-0.723l0.216-0.826c-0.46,0.525-1.051,0.938-1.83,0.938
			C223.779,19.176,222.954,18.351,222.954,17.122"/>
	</g>
	<polygon fill="#FFFFFF" points="229.146,18.079 228.874,19.064 229.738,19.064 230,18.079 	"/>
	<g>
		<path fill="#FFFFFF" d="M15.806,9.873l12.366,3.07c2.152-0.84,3.445-1.911,3.445-3.07V4.935C31.617,2.213,24.537,0,15.806,0
			C7.076,0,0,2.213,0,4.935v4.938c0,2.723,7.076,4.933,15.806,4.933V9.873z"/>
		<path fill="#FFFFFF" d="M28.171,17.879l-12.366-3.073v4.934l12.366,3.074c2.153-0.844,3.446-1.911,3.446-3.074v-4.934
			C31.618,15.969,30.324,17.036,28.171,17.879"/>
		<path fill="#FFFFFF" d="M0,14.806v4.935c0,2.724,7.076,4.933,15.806,4.933v-4.933C7.076,19.741,0,17.53,0,14.806"/>
		<path fill="#FFFFFF" d="M45.185,19.29c-3.861,0-6.727-2.98-6.727-6.747v-0.036c0-3.728,2.81-6.784,6.838-6.784
			c2.473,0,3.955,0.826,5.172,2.024l-1.836,2.117c-1.012-0.918-2.043-1.48-3.354-1.48c-2.212,0-3.803,1.836-3.803,4.084v0.039
			c0,2.248,1.554,4.122,3.803,4.122c1.499,0,2.416-0.599,3.446-1.537l1.836,1.854C49.213,18.39,47.714,19.29,45.185,19.29"/>
		<path fill="#FFFFFF" d="M58.506,15.017c-0.486-0.227-1.125-0.375-1.817-0.375c-1.218,0-1.969,0.487-1.969,1.387v0.037
			c0,0.767,0.638,1.217,1.555,1.217c1.33,0,2.231-0.728,2.231-1.761V15.017z M58.448,19.064v-1.086
			c-0.692,0.768-1.647,1.274-3.035,1.274c-1.891,0-3.447-1.087-3.447-3.073v-0.039c0-2.193,1.667-3.205,4.046-3.205
			c1.013,0,1.744,0.169,2.457,0.412V13.18c0-1.179-0.731-1.836-2.156-1.836c-1.086,0-1.854,0.207-2.772,0.543l-0.713-2.173
			c1.106-0.489,2.193-0.806,3.897-0.806c3.111,0,4.48,1.611,4.48,4.33v5.826H58.448z"/>
	</g>
	<polygon fill="#FFFFFF" points="70.123,19.064 67.499,14.961 66.505,16.01 66.505,19.064 63.659,19.064 63.659,5.384 66.505,5.384 
		66.505,12.676 69.842,9.021 73.251,9.021 69.429,12.973 73.382,19.064 	"/>
	<g>
		<path fill="#FFFFFF" d="M78.757,11.12c-1.18,0-1.95,0.843-2.174,2.135h4.292C80.705,11.98,79.956,11.12,78.757,11.12
			 M83.61,15.037h-6.989c0.28,1.292,1.18,1.966,2.455,1.966c0.956,0,1.648-0.301,2.435-1.031l1.632,1.444
			c-0.939,1.162-2.288,1.874-4.105,1.874c-3.017,0-5.249-2.117-5.249-5.19v-0.039c0-2.867,2.044-5.228,4.967-5.228
			c3.354,0,4.891,2.605,4.891,5.454v0.037C83.647,14.605,83.629,14.774,83.61,15.037"/>
		<path fill="#FFFFFF" d="M93.521,10.538c0-1.292-0.898-1.985-2.342-1.985H88.95v4.012h2.286c1.442,0,2.285-0.865,2.285-1.987
			V10.538z M91.141,15.129h-2.19v3.935h-2.886V5.947h5.359c3.128,0,5.021,1.855,5.021,4.537v0.036
			C96.444,13.555,94.083,15.129,91.141,15.129"/>
	</g>
	<polygon fill="#FFFFFF" points="106.787,19.064 106.787,13.796 101.465,13.796 101.465,19.064 98.58,19.064 98.58,5.947 
		101.465,5.947 101.465,11.138 106.787,11.138 106.787,5.947 109.672,5.947 109.672,19.064 	"/>
	<g>
		<path fill="#FFFFFF" d="M120.277,10.538c0-1.292-0.899-1.985-2.342-1.985h-2.23v4.012h2.285c1.444,0,2.287-0.865,2.287-1.987
			V10.538z M117.899,15.129h-2.194v3.935h-2.886V5.947h5.359c3.128,0,5.022,1.855,5.022,4.537v0.036
			C123.201,13.555,120.84,15.129,117.899,15.129"/>
	</g>
</g>
</svg>
