<?xml version="1.0" standalone="no"?>
<!DOCTYPE svg PUBLIC "-//W3C//DTD SVG 1.1//EN" "http://www.w3.org/Graphics/SVG/1.1/DTD/svg11.dtd" >
<svg xmlns="http://www.w3.org/2000/svg">
<metadata></metadata>
<defs>
<font id="cake_dingbatsregular" horiz-adv-x="1706" >
<font-face units-per-em="2048" ascent="1536" descent="-512" />
<missing-glyph horiz-adv-x="1024" />
<glyph horiz-adv-x="0" />
<glyph unicode="&#xd;" horiz-adv-x="1024" />
<glyph horiz-adv-x="0" />
<glyph horiz-adv-x="0" />
<glyph unicode=" "  horiz-adv-x="1024" />
<glyph unicode="&#x09;" horiz-adv-x="1024" />
<glyph unicode="&#xa0;" horiz-adv-x="1024" />
<glyph unicode="A" horiz-adv-x="1716" d="M1676 23q20 -21 30 -46t10 -51q0 -27 -10 -51.5t-30 -43.5q-20 -20 -44.5 -30t-50.5 -10q-27 0 -52 9.5t-45 30.5l-344 345q-91 -62 -194.5 -95t-215.5 -33q-147 0 -279.5 55t-236.5 159t-159 236t-55 280q0 147 55 279.5t159 236.5t236.5 159t279.5 55q146 0 278.5 -55 t236.5 -159t159 -236.5t55 -279.5q0 -112 -32 -216t-95 -194zM406 454q65 -65 148.5 -99.5t175.5 -34.5q91 0 174.5 34t148.5 100q65 65 99.5 148t34.5 176q0 92 -34 175t-100 149q-65 65 -148.5 99.5t-174.5 34.5q-92 0 -175.5 -34.5t-148.5 -99.5t-99.5 -148.5 t-34.5 -175.5t34.5 -175.5t99.5 -148.5z" />
<glyph unicode="B" horiz-adv-x="2784" d="M2722 569q8 4 18 4q26 0 38 -24q4 -8 4 -17q0 -11 -6 -22.5t-18 -16.5l-1387 -654q-8 -4 -19 -4q-4 0 -12 2l-1237 396q-1 0 -3 2q-2 0 -3 1t-4 2q-4 2 -6.5 5t-5.5 6q-1 2 -14 24.5t-27.5 61t-27 90.5t-12.5 112q0 37 4.5 77.5t14 80t24.5 77t37 69.5q3 5 8 9.5t11 6.5 l1387 654q7 4 17 4q5 0 13 -2l1237 -396q11 -4 19.5 -14t9.5 -25q0 -27 -24 -38l-1387 -655q-5 -2 -9.5 -3t-9.5 -1q-4 0 -12 2l-1203 386q-7 -16 -16.5 -39.5t-17 -53t-13.5 -65t-6 -74.5q0 -42 7.5 -78.5t16.5 -66.5t19.5 -51.5t16.5 -33.5l1206 -385zM2722 752q7 3 17 3 q11 0 22.5 -6t16.5 -18q4 -8 4 -18q0 -11 -6 -22t-18 -16l-1387 -654q-5 -2 -9.5 -3t-9.5 -1q-26 0 -37 25q-4 8 -4 17q0 11 6 21.5t18 16.5zM2722 934q5 2 8.5 3t9.5 1q26 0 38 -24q4 -8 4 -18q0 -11 -6 -22t-18 -16l-1387 -654q-8 -4 -19 -5q-26 0 -37 24q-4 8 -4 18 q0 26 24 38z" />
<glyph unicode="C" horiz-adv-x="2607" d="M883 -107q-127 -57 -251 -57q-83 0 -160.5 26t-147.5 76t-129 123.5t-106 169.5q-4 5 -7 10.5t-5 10.5l-9 24q-34 81 -51 159t-17 152q0 84 22 160t64.5 141t105 117.5t146.5 90.5q100 45 222.5 62.5t264.5 17.5q163 0 339 -17.5t354 -37.5l219 -24q0 50 22.5 91.5 t66.5 60.5l538 243q28 14 60 14q50 0 95.5 -31t69.5 -85q19 -43 19 -86q0 -50 -23.5 -90.5t-67.5 -60.5l-538 -243q-28 -12 -59 -13q-62 0 -114 46l-126 -180q-96 -137 -192 -272t-195.5 -251.5t-201.5 -207.5t-208 -139zM189 303q8 -18 36.5 -30.5t80.5 -12.5 q59 0 149.5 22t215.5 78q91 42 190 100t202 127t209 146t212 156q-130 -27 -257.5 -55.5t-247.5 -61t-229 -67.5t-201 -77q-103 -47 -172.5 -91.5t-112 -84.5t-61 -73t-18.5 -56q0 -12 4 -20zM2503 1351q-11 24 -31.5 38t-42.5 14q-16 0 -28 -6q-20 -8 -30 -27t-10 -41 q0 -9 1.5 -19.5t6.5 -19.5q11 -24 31.5 -38t43.5 -14q15 0 27 6q20 8 30 27.5t10 41.5q0 18 -8 38zM396 968q-135 -60 -203 -162t-68 -233q0 -17 1 -32t3 -33q46 57 132 120t230 127q86 39 187 73t211 64.5t227 57.5t236 53q-135 15 -265.5 25.5t-250.5 10.5 q-130 0 -241.5 -16t-198.5 -55zM302 124q134 -152 316 -152q101 0 207 48q83 37 166 107.5t165 163t163.5 201.5t162.5 224q-98 -73 -195.5 -142.5t-193 -132.5t-187.5 -116t-178 -92q-135 -61 -234.5 -85t-171.5 -24h-20z" />
<glyph unicode="D" horiz-adv-x="5411" d="M939 1478q62 0 150.5 -7.5t194.5 -21t227 -33t249 -45t261.5 -56.5t264.5 -68q214 -59 371.5 -117t269.5 -114t182 -108.5t109 -100.5q33 39 80 62.5t103 23.5h2010v-474h-2010q-56 0 -102.5 23t-80.5 63q-39 -48 -109 -100.5t-182 -108.5t-269.5 -114t-371.5 -118 q-131 -36 -264.5 -67t-261.5 -56.5t-249 -45.5t-227 -33.5t-194.5 -20.5t-150.5 -7q-129 0 -249 29.5t-224.5 83t-190 128.5t-146.5 166t-95 196t-34 218t34 218.5t95 197t146.5 166.5t190 128.5t224 83t249.5 29.5zM84 655q23 -16 92 -33.5t178.5 -32t257 -23.5t327.5 -9 q88 0 211 2t267 6t303 9.5t320 12t316.5 15t293.5 16.5t252 18t191 19q-77 10 -191 19.5t-252 18.5t-293.5 17.5t-316.5 15t-320 12t-303 9.5t-267 6t-211 2q-180 0 -327.5 -9.5t-257 -24t-178.5 -32t-92 -34.5zM939 832q62 0 149.5 -1t192.5 -3.5t225 -6t248.5 -8t261 -9.5 t262.5 -12q157 -8 282 -15t223 -14t171.5 -14t126.5 -14q-45 18 -112 38.5t-165 43.5t-229.5 48t-304.5 51q-128 19 -259.5 35.5t-259.5 30t-248 24.5t-225 18t-192 11t-147 4q-149 0 -284.5 -22.5t-246 -62t-190 -92.5t-114.5 -115q54 20 128.5 34.5t157.5 23.5t167.5 14.5 t159 8.5t133.5 3.5t89 0.5zM939 1400q-143 0 -273.5 -38.5t-238 -107.5t-187 -163.5t-121.5 -206.5q59 53 145 95.5t191.5 73t227.5 47t256 16.5q62 0 150 -3.5t193 -11t225.5 -18t249 -24.5t261.5 -30.5t264 -36.5q171 -25 304 -50t234.5 -49t175 -46t124.5 -43 q-66 60 -177 118t-251 111t-301 101t-329 89t-333 73.5t-313 55.5t-271.5 35.5t-205.5 12.5zM939 -88q82 0 205.5 12.5t271.5 35t313 55.5t333 74t329 88.5t301 100.5t250.5 111.5t177.5 118.5q-51 -21 -124.5 -44t-175 -46t-234.5 -48t-304 -50q-131 -20 -264 -36.5 t-261.5 -30.5t-249 -24.5t-225.5 -18t-193 -11.5t-150 -4q-134 0 -256 16.5t-227.5 47.5t-191 73.5t-145.5 95.5q42 -112 121.5 -206.5t187 -163.5t238 -107.5t273.5 -38.5zM939 273q60 0 147 3.5t192 11t225 18.5t248 24.5t260 30t259 35.5q172 26 304 50t230 47.5 t165.5 44.5t111.5 38q-53 -6 -126.5 -13t-171.5 -14t-223.5 -14.5t-281.5 -15.5q-130 -6 -262.5 -11t-261 -10t-248.5 -8.5t-225 -6t-192.5 -3.5t-149.5 -1q-30 0 -89 0.5t-133.5 3.5t-159 8.5t-167.5 15t-157.5 23.5t-128.5 35q35 -62 114.5 -115.5t190 -92.5t246 -61.5 t284.5 -22.5z" />
<glyph unicode="E" horiz-adv-x="6932" d="M6932 1478v-1627h-5048q-39 0 -74 48t-63 132.5t-47.5 200.5t-27.5 252q-82 -7 -175.5 -18.5t-191.5 -24t-198 -25.5t-193.5 -23.5t-177 -16.5t-150.5 -6q-122 0 -228.5 23t-186 63.5t-125.5 94.5t-46 116q0 61 46 115t125.5 94.5t186 64t228.5 23.5q68 0 151 -6.5 t176.5 -16.5t193.5 -23t198 -25.5t191.5 -24t175.5 -18.5q8 135 28 250t48 199t62 131.5t74 47.5h5048zM1760 490q6 -112 20.5 -203.5t32 -160.5t36 -114t35.5 -64q19 22 41 81t41.5 150.5t32.5 214t13 271.5t-13 271t-32.5 213.5t-41.5 150.5t-41 81q-17 -19 -35.5 -63.5 t-35.5 -113t-31 -159.5t-22 -202q48 -3 90 -3q7 0 13 -13.5t11 -37.5t7.5 -55.5t2.5 -66.5q0 -36 -2.5 -68t-7.5 -55.5t-11.5 -37t-13.5 -13.5q-41 0 -89 -3z" />
<glyph unicode="F" horiz-adv-x="7919" d="M6599 669q0 44 16.5 82.5t45.5 67.5t68 46.5t84 17.5h513q-34 -46 -53.5 -100t-19.5 -114t19.5 -114t52.5 -99h-512q-45 0 -84 16.5t-68 45t-45.5 67.5t-16.5 84zM7484 669q0 44 16.5 82.5t45.5 67.5t68 46.5t84 17.5q44 0 82.5 -17.5t67.5 -46.5t46 -68t17 -82 q0 -44 -17 -83t-46 -68t-68 -45.5t-82 -16.5q-45 0 -84 16.5t-68 45t-45.5 67.5t-16.5 84zM6368 664q0 -60 19.5 -114.5t52.5 -98.5h-2859q-173 0 -327 -26.5t-297.5 -69.5t-279.5 -98.5t-272.5 -112.5t-278 -112t-295.5 -98t-324.5 -69.5t-365.5 -26.5q-132 0 -268 26 t-263 75.5t-238 121t-193.5 163.5t-130.5 202.5t-48 238.5q0 127 48 237.5t130.5 202t193.5 163.5t238 121t262.5 75t268.5 26q194 0 365 -26.5t325 -69.5t295.5 -98t278 -112t272.5 -112t279.5 -98t297 -69.5t327.5 -26.5h2860q-34 -45 -53.5 -99.5t-19.5 -114.5zM1817 193 q115 41 207.5 93.5t155.5 113t97 128.5t34 140q0 79 -40.5 152t-114 137t-176.5 116.5t-228.5 90t-269 58t-299.5 20.5q-95 0 -189.5 -14.5t-183 -41t-168.5 -65t-145 -86.5q-8 -6 -12 -15.5t-4 -18.5q0 -10 4 -19q14 -24 38 -23q4 0 13 2q89 29 182.5 44t186.5 15 q141 0 273.5 -17.5t248 -50.5t211.5 -77.5t165 -99t107 -117t38 -128.5q0 -44 -15.5 -82.5t-40.5 -71.5t-55 -60.5t-59 -48.5q-17 -10 -17 -33q0 -11 5 -20q11 -23 37 -23q9 0 14 2z" />
<glyph unicode="G" horiz-adv-x="1389" d="M375 -139q-79 34 -145 101.5t-115.5 155t-78.5 187t-35 199.5h1389q-5 -100 -35 -199.5t-79 -187t-115.5 -154.5t-145.5 -101q-29 -12 -58 -20t-65 -11.5t-83.5 -5.5t-113.5 -2t-113.5 2t-83.5 5.5t-65 11t-58 19.5zM417 213q-5 -7 -5 -16q0 -8 3 -14q8 -15 26 -15h188 q12 0 20.5 8.5t8.5 20.5q0 14 -9 22l-89 136q-9 12 -25 13q-7 0 -14 -3.5t-11 -9.5zM156 614h-156q3 103 33.5 209t81 207t117 189.5t142.5 154.5t158 104.5t163 38.5t163 -38.5t158.5 -104.5t142.5 -154.5t116.5 -189.5t81 -207t34.5 -209h-668v184h-65v-184h-438v184h-64 v-184zM736 1003q3 -9 3 -18q0 -22 -14 -35q-14 -14 -35 -13q-18 0 -35 9q-18 9 -28 25l-31 -32q11 -22 38 -37q27 -14 56 -13q11 0 21.5 2t20.5 5q21 8 33 20t21 30q8 20 8 40q0 22 -7 37q-6 16 -20 28q-12 11 -29 20q-19 6 -37 6q-14 0 -23 -3t-14 -8l11 63h102v49h-140 l-23 -112q-1 -8 -2 -15t-3 -13l-4 -20q-2 -5 -2 -10h47q8 11 19 17q10 6 24 6q11 0 18 -4q8 -3 15 -9q6 -7 10 -15zM563 683h28v115h-28v-115zM470 683h30v115h-30v-115zM379 683h29v115h-29v-115zM288 683h28v115h-28v-115z" />
<glyph unicode="H" horiz-adv-x="1791" d="M1555 1163q-22 0 -37 15.5t-15 37.5q0 33 29 47l16 36q2 4 7 4q4 0 6 -4l18 -36q29 -14 29 -47q0 -22 -15 -37.5t-38 -15.5zM1292 1163q-21 0 -36.5 15.5t-15.5 37.5q0 33 29 47l17 36q2 4 6 4t6 -4l18 -36q29 -14 29 -47q0 -22 -15 -37.5t-38 -15.5zM1029 1163 q-21 0 -36.5 15.5t-15.5 37.5q0 33 29 47l17 36q2 4 6 4t6 -4l18 -36q29 -14 29 -47q0 -22 -15 -37.5t-38 -15.5zM1625 1445q35 0 66 -13.5t54 -37t36.5 -54t13.5 -66.5v-1459q0 -9 -7 -16t-16 -7h-238q-11 0 -20 11l-37 55q-4 8 -4 13v38h-1151v-38q0 -5 -4 -13l-38 -55 q-7 -10 -19 -11h-238q-9 0 -16 7t-7 16v1459q0 35 13.5 66t36.5 54.5t54 37t66 13.5h65v19q0 31 21.5 53t52.5 22h198q31 0 53.5 -22t22.5 -53v-19h141v19q0 31 21.5 53t53.5 22h197q31 0 53 -22t22 -53v-19h141v19q0 31 22.5 53t53.5 22h197q31 0 53 -22t22 -53v-19h65z M1555 1324q-22 0 -42 -8t-35 -23.5t-23 -35t-8 -41.5q0 -23 8 -42.5t23 -34t35 -23t42 -8.5q46 0 77 31t31 77q0 22 -8.5 41.5t-23 35t-34 23.5t-42.5 8zM1292 1324q-22 0 -41.5 -8t-34.5 -23.5t-23.5 -35t-8.5 -41.5q0 -23 8.5 -42.5t23.5 -34t34.5 -23t41.5 -8.5 q46 0 77 31t31 77q0 22 -8.5 41.5t-23 35t-34 23.5t-42.5 8zM1029 1324q-22 0 -41.5 -8t-34 -23.5t-23 -35t-8.5 -41.5q0 -23 8.5 -42.5t23 -34t34 -23t41.5 -8.5q46 0 77 31t31 77q0 22 -8 41.5t-22.5 35t-34.5 23.5t-43 8zM226 1019v-674h1343v674h-1343zM232 1302 q-21 -16 -32.5 -38.5t-11.5 -47.5q0 -36 22 -65q17 -21 39.5 -32t47.5 -11q36 0 64 21q21 17 32.5 39.5t11.5 47.5q0 34 -22 65q-16 21 -38.5 32t-47.5 11q-36 0 -65 -22zM1664 141h-1533v-34q0 -30 20.5 -51.5t51.5 -21.5h378q4 -14 15.5 -22.5t25.5 -8.5h551q15 0 26 9 t15 22h378q30 0 51 21.5t21 51.5v34zM1664 193l-95 100h-1343l-95 -100h1533zM234 1161q-8 0 -9 6q0 2 1 3l19 36q-1 4 -1 10q0 26 21 42q14 10 32 10q11 0 22.5 -4.5t19.5 -16.5q10 -14 10 -31q0 -11 -5 -22.5t-16 -19.5q-14 -10 -31 -11q-11 0 -24 5zM872 669 q-23 25 -36 56.5t-16 64.5v8q0 36 14 69t41 60q1 2 6 2q4 0 6 -2l39 -40q3 -2 3 -5t-3 -7q-18 -18 -25 -37t-7 -38q0 -23 9 -44t23 -37q25 -28 36.5 -58.5t11.5 -61.5q0 -45 -19.5 -87t-50.5 -75q-2 -3 -6 -3q-2 0 -6 2l-41 39l-3 6q0 4 3 6q26 27 38 54.5t12 54.5 q0 43 -29 73zM613 487q20 21 29 41.5t9 41.5q0 31 -21 53q-20 21 -31 49.5t-11 59.5q0 28 11 56t35 52q2 2 5 2q4 0 6 -2l39 -40q3 -2 4 -6q0 -3 -4 -6q-14 -14 -18.5 -27t-4.5 -28q0 -18 7 -34t16 -27q22 -24 31.5 -49t9.5 -51q0 -36 -16 -72t-42 -63q-2 -3 -6 -3 q-3 0 -6 2l-41 39q-2 2 -2 6t1 6zM1096 487q38 39 38 82q0 32 -21 53q-20 22 -31.5 51t-11.5 60q0 28 11 55.5t34 51.5q4 2 7 2q1 0 5 -2l40 -40q2 -4 2 -7t-2 -5q-14 -14 -19 -27.5t-5 -28.5q0 -18 7.5 -33.5t16.5 -26.5q21 -24 31 -49t10 -51q0 -36 -16.5 -72t-42.5 -63 q-2 -3 -6 -3q-2 0 -6 2l-41 39q-2 4 -2 6t2 6z" />
<glyph unicode="I" horiz-adv-x="2069" d="M299 1146q-18 0 -29 11t-11 29t11 30t29 12q43 0 82 -13.5t70.5 -37.5t55 -57t35.5 -71q10 2 20 3.5t22 1.5q35 0 66 -13.5t54.5 -36.5t37 -54t13.5 -66t-13.5 -66.5t-37 -54.5t-54.5 -36.5t-66 -13.5t-66 13.5t-54.5 36.5t-37 54t-13.5 67q0 37 14.5 69t40.5 55 q-6 29 -21.5 54t-38 44t-50.5 29.5t-59 10.5zM637 994q-20 0 -34 -14t-14 -34q0 -21 14 -34.5t34 -13.5t33.5 13.5t13.5 34.5q0 20 -13.5 34t-33.5 14zM2055 453q14 -16 14 -32q0 -18 -14 -32l-294 -292q-12 -14 -31 -14q-20 0 -32 14l-360 360q-11 11 -14 28l-21 315v4 q0 19 13 31l7 6q-29 21 -64 32.5t-72 11.5q-21 0 -40 -3q-41 -7 -77 -28t-63 -52l-3 -3q39 -73 66.5 -122.5t44.5 -81.5t27 -49.5t14 -26t5 -9.5l1 -2q7 -15 7 -26v-601q0 -17 -11 -29t-29 -12h-1088q-17 0 -29 12t-12 29v602q0 2 0.5 3t0.5 5l2 6l1 1q0 1 0.5 2t0.5 2 l325 577q21 -6 37.5 -19.5t28.5 -31.5l-285 -506h949l-466 859l-93 -167q-30 26 -70 45l129 227q12 21 35 21q25 0 36 -22l332 -610q71 71 169 89q15 2 28 3.5t27 1.5q76 0 142.5 -34t110.5 -93l226 -15q18 -2 28 -14zM1088 95h-1006v-173h1006v173zM1088 440h-1006v-172 h1006v172zM1466 599q34 0 59 24.5t25 59.5q0 30 -19 53t-49 29q5 -15 10 -29t7 -30q0 -2 0.5 -3.5t0.5 -3.5q0 -15 -10 -26.5t-25 -15.5h-7q-16 0 -27.5 10t-13.5 25q-4 25 -14 46q-20 -25 -20 -55q0 -35 24.5 -59.5t58.5 -24.5zM1732 297q37 8 59.5 32t22.5 57t-18.5 55 t-61.5 37q-29 11 -40.5 18.5t-11.5 15.5q0 20 34 20q22 0 37.5 -5t23.5 -9q0 -1 3 -1q1 0 2 -1q2 0 3 1l3 4l13 54q0 2 -2 5q-28 12 -65 15v34q0 6 -5 7h-44q-6 0 -7 -7v-38q-36 -8 -57 -31t-21 -55q0 -21 8 -35.5t20.5 -25t28 -17.5t31.5 -13q27 -9 35.5 -17.5t8.5 -16.5 t-4.5 -12.5t-11 -7t-13 -3t-9.5 -0.5q-10 0 -22 3t-23 7.5t-19.5 7.5t-11.5 3q-1 0 -1.5 -0.5t-1.5 -0.5l-3 -3l-14 -56q0 -2 2 -4q15 -8 34.5 -13.5t41.5 -7.5v-38q0 -6 5 -6h46q5 0 5 6v42z" />
<glyph unicode="J" horiz-adv-x="2220" d="M2162 628q23 -23 34 -50.5t11 -57.5q0 -48 -26 -86l-356 -526q-4 -8 -10 -15t-12 -15q-23 -23 -51 -33.5t-58 -10.5t-57.5 11t-50.5 33l-1052 1053q-21 22 -33 50t-12 59q0 6 0.5 12t1.5 13q6 36 28 65.5t55 46.5l17 8t42.5 20.5t57.5 28t63.5 31.5t59 29.5t45.5 22.5 q75 37 155.5 57t160.5 20l47 101q6 12 17.5 19t25.5 7q11 0 20 -4l84 -40q12 -5 19 -16.5t7 -25.5q0 -11 -4 -19l-25 -54q15 -5 28.5 -11t27.5 -13l25 51q5 12 16.5 18.5t24.5 6.5q12 0 21 -4l83 -39q12 -6 19.5 -17.5t7.5 -24.5q0 -10 -5 -20l-43 -90zM1899 344 q19 15 28.5 39t9.5 55q0 34 -10.5 75t-29.5 85t-47.5 90.5t-65.5 92.5q-43 53 -88.5 95.5t-90 72t-85.5 45.5t-75 16q-37 0 -62 -19q-19 -15 -28 -40t-9 -56q0 -34 10 -74.5t29.5 -84.5t48 -90.5t65.5 -91.5q42 -53 87.5 -96t90 -72.5t86 -45.5t75.5 -16q37 0 61 20z M779 596l-161 -160q30 -33 45.5 -73.5t15.5 -84.5q0 -46 -17 -89t-51 -77l-155 -155q-34 -34 -77.5 -51t-88.5 -17q-46 0 -88.5 17t-77.5 51l-55 54q-34 34 -51.5 77.5t-17.5 89.5t17 88.5t52 77.5l154 154q34 34 77.5 51.5t88.5 17.5q44 0 84.5 -15t73.5 -45l161 161z M139 273q-20 -20 -29 -44.5t-9 -50.5q0 -49 31 -87l345 344q-38 32 -88 32q-26 0 -50.5 -9.5t-44.5 -29.5zM539 183q21 20 31 44t10 50q0 49 -33 88l-344 -345q37 -31 86 -31q26 0 51 9.5t44 29.5z" />
<glyph unicode="K" horiz-adv-x="2870" d="M1438 1114q134 0 251.5 -50.5t205.5 -138t138.5 -205t50.5 -251.5q0 -89 -23 -171.5t-65.5 -154t-101 -131t-130 -101.5t-154 -65t-172.5 -23q-89 0 -171.5 23t-154 65t-130.5 101.5t-101 131t-65.5 154t-23.5 171.5q0 134 51 251.5t139 205t205 138t251 50.5zM1438 -127 q82 0 158 21.5t142.5 60.5t120.5 93.5t93 120.5t60 142t21 158t-21 158t-60 142.5t-93 120.5t-120.5 93t-142.5 60.5t-158 21.5t-157.5 -21.5t-142 -60.5t-120.5 -93t-93 -120.5t-60.5 -142.5t-21.5 -158q0 -124 47 -232t128 -189t188.5 -128t231.5 -47zM746 889 q8 0 13.5 -5t5.5 -14v-258q0 -26 -15 -46t-38 -28l15 -409q0 -17 -12 -29t-29 -12t-28 12t-11 29l14 409q-23 8 -37.5 28t-14.5 46v258q0 8 5 13.5t13 5.5t14 -5t6 -14v-184h21v184q0 8 5 13.5t13 5.5t13.5 -5t5.5 -14v-184h22v184q0 8 5.5 13.5t13.5 5.5zM1121 1206 q-17 0 -28 11.5t-11 26.5q0 16 11 27t28 11l387 -14q7 22 26.5 36t43.5 14h199q7 0 12.5 -5t5.5 -13t-5.5 -13t-12.5 -5h-128v-20h128q7 0 12.5 -5.5t5.5 -12.5q0 -8 -5.5 -13.5t-12.5 -5.5h-128v-19h128q7 0 12.5 -5t5.5 -13t-5.5 -13.5t-12.5 -5.5h-199q-24 0 -43.5 14 t-26.5 36zM534 804q8 0 13.5 -6t5.5 -14v-197q0 -26 -15 -46t-37 -28l13 -384q0 -17 -11.5 -29t-27.5 -12q-18 0 -29.5 12t-11.5 29l15 384q-23 8 -38 28t-15 46v197q0 8 5.5 14t13.5 6t13.5 -6t5.5 -14v-121h22v121q0 8 5 14t14 6q8 0 13 -6t5 -14v-121h21v121q0 8 6 14 t14 6zM1259 1337q-29 0 -57 6.5t-50.5 19t-36 28.5t-13.5 35t13.5 35.5t36 28.5t50.5 19t57 7q48 0 84.5 -18t49.5 -46l344 12q16 0 27.5 -10.5t11.5 -27.5q0 -16 -11.5 -26.5t-27.5 -10.5l-344 11q-12 -27 -49 -45t-85 -18zM2540 859q19 0 35 -13.5t28 -35.5t19 -50t7 -56 q0 -47 -18.5 -82.5t-45.5 -48.5l13 -447q0 -15 -11 -26.5t-27 -11.5q-15 0 -26 11.5t-11 26.5l13 447q-28 12 -46 48t-18 83q0 28 6.5 56t18.5 50t28 35.5t35 13.5zM2863 682q0 -46 -22 -80t-56 -45l13 -431q0 -15 -11 -26.5t-27 -11.5q-15 0 -26 11.5t-11 26.5l13 431 q-33 11 -55 45.5t-22 79.5q0 27 7.5 53t21.5 47t33 34t39 13q22 0 41 -13t33 -34t21.5 -47t7.5 -53zM2245 414l10 -285q0 -17 -11.5 -29t-28.5 -12q-18 0 -29 12t-11 29l12 357l-49 34v299q0 51 8.5 86t20.5 56.5t25.5 31.5t23.5 10t16 -7.5t9 -16.5q4 -11 4 -24v-541z M2400 414l10 -285q0 -17 -11.5 -29t-28.5 -12t-29 12t-12 29l14 361l-33 30v204q0 51 5.5 85.5t14.5 56.5t20 32t21 10t16 -8t9 -16q4 -10 4 -23v-447zM341 933q7 -4 7 -17v-875q0 -14 -7 -17q-4 -2 -6 -2q-6 0 -9 5l-322 438q-4 5 -4 13t4 13l322 438q6 9 15 4zM1438 1010 q112 0 210.5 -42.5t172 -116t116 -171.5t42.5 -211q0 -112 -42.5 -210.5t-116 -171.5t-171.5 -116t-211 -43q-112 0 -210 43t-172 116t-116.5 171.5t-42.5 210.5t42.5 210.5t116.5 172t172 116t210 42.5zM1865 652q14 32 -11 57q-16 16 -37 16q-2 0 -2 -1q6 29 -14 50 q-16 16 -37 15q-2 0 -3.5 -0.5t-3.5 -0.5v6q0 22 -14 37q-16 16 -38 15q-9 0 -13 -2q0 23 -16 39q-15 15 -37 14q-10 0 -16 -2q0 22 -14 37q-18 16 -38 15q-17 0 -30 -9q-2 17 -14 29q-15 16 -37 15q-22 0 -37 -15q-16 -16 -16 -36q0 -18 12 -33l-181 -368q6 4 14 6.5 t16 1.5q8 -2 13 -5q4 8 7 11q7 6 16.5 8.5t17.5 2.5q10 0 20 -1q-2 -29 -25 -49q33 3 59 -11.5t39 -54.5q7 -24 2.5 -50.5t-14.5 -49.5t-22.5 -40t-20.5 -20q-9 -3 -29 4t-41.5 21t-40 33t-25.5 43q-12 38 1 66t41 43q-24 2 -39 18l-182 -370q-7 -16 4 -27q9 -7 17 -7 q5 0 10 3l502 245q21 -29 52 -29q25 0 44 19.5t29 52.5q16 -6 31 -7q28 0 46 18q20 20 17 54l41 20q14 -10 31 -11q22 0 38 16q15 15 14.5 36.5t-14.5 37.5q-14 12 -30 14q8 14 8 28q0 22 -16 38q-14 14 -34 14zM1323 371q-2 7 -6 11t-9 2t-6.5 -7.5t0.5 -13.5q2 -7 7 -11 t9 -2q10 3 5 21zM1326 463q-8 -3 -5 -21q2 -7 6.5 -11t10.5 -2q10 4 5 21q-2 7 -7 11t-10 2zM1399 442q10 3 5 20q-2 8 -6.5 12.5t-8.5 2.5q-5 -2 -6.5 -8t0.5 -13q6 -17 16 -14zM1410 417q-10 -4 -5 -20q2 -7 7 -11.5t10 -2.5q4 1 5.5 7t-0.5 13q-6 16 -17 14zM1394 329 q10 3 5 21q-2 7 -7 11.5t-9 1.5q-5 -2 -6 -7.5t1 -12.5t6.5 -11.5t9.5 -2.5zM1386 410q-2 7 -6.5 11.5t-8.5 2.5q-5 -1 -6 -7t1 -14q2 -7 6 -11.5t9 -2.5t6 8t-1 13zM1491 585q-7 11 -12 23.5t-6 27.5q-2 10 3 21q5 10 16 14q16 3 32 -2q2 0 2.5 -0.5t2.5 -0.5q0 -3 -1 -5 v-8q-1 -5 -1 -9v-9q1 -18 4 -34.5t10 -33.5q6 -15 16.5 -28t25.5 -22q-15 2 -27.5 9t-23.5 15t-22 19.5t-19 22.5zM1629 434q0 -1 1.5 0.5t-1.5 -0.5q-19 -22 -38 -33q-21 -14 -41 -17q-17 -3 -28 3q-11 5 -13 18q-3 15 2 30q0 1 0.5 2t0.5 2q0 2 2 0h2q5 0 9 -1h16 q37 0 69 14q15 6 28 16.5t22 24.5q-1 -8 -4.5 -16t-7.5 -16q-9 -16 -19 -27zM1777 506q7 -11 12.5 -24t7.5 -27q0 -12 -4 -22q-4 -9 -17 -12q-8 -2 -16 -1t-16 3q-2 0 -2 1q-2 0 -2 1q1 1 1 4v8q1 4 1 8.5v9.5q-1 18 -4.5 34.5t-10.5 32.5q-6 15 -16.5 28.5t-24.5 20.5 q15 -2 27.5 -8.5t23.5 -15.5q22 -16 40 -41zM1641 658q1 2 -0.5 0.5t0.5 -0.5q17 20 39 35q10 5 21.5 9t22.5 5q7 1 14.5 0t12.5 -6q7 -6 9 -21q0 -9 -1 -14q0 -2 -0.5 -4.5t-0.5 -4.5q-1 -1 -1 -4l-1 -2q0 -1 -1 0q-9 1 -18 1h-17q-18 -1 -34.5 -4t-31.5 -11 q-15 -6 -26.5 -15.5t-18.5 -24.5q2 18 11.5 33.5t20.5 27.5zM1559 630q-3 30 6 59q3 11 9.5 21.5t14.5 18.5q8 7 17 8q9 2 19 -5q11 -8 18 -21q1 -1 1 -2t1 -2t0 -2l-1 -1q-2 -2 -3.5 -2.5t-3.5 -2.5q-6 -5 -12 -11q-26 -26 -39 -58q-6 -15 -9 -32t3 -34q-9 12 -15 31 q-6 16 -6 35zM1762 618q15 -3 16 -3t-3 0.5t-9.5 1.5t-3.5 1q20 -3 37 -13q15 -7 22 -18q6 -8 6 -16q0 -10 -9 -21q-6 -6 -10 -8q-1 -1 -7 -5q-1 0 -1.5 -0.5t-1.5 -0.5q0 -1 -1 -1q-1 -1 -2 0q-5 7 -11.5 13t-12.5 12q-26 25 -57 36q-15 5 -31 7t-31 -3q23 16 52 19 q30 5 58 -1zM1709 461q1 -2 0.5 0t-0.5 0q3 -32 -6 -60q-4 -11 -9.5 -21t-14.5 -19q-6 -6 -15 -8q-11 -2 -20 5q-6 4 -10.5 10t-8.5 11l-2 4v2l1 1q2 2 3.5 2.5t4.5 3.5t6 5.5t6 6.5q11 11 21.5 25.5t16.5 30.5t9 33t-2 35q10 -15 14.5 -32t5.5 -35zM1522 470q-11 1 -22 3.5 t-22 7.5q-9 5 -18.5 11t-14.5 16q-5 12 -1 21q2 6 6 10.5t9 8.5q6 4 14 9q2 2 2 -1q1 -1 1 -2l3 -4q1 -2 5 -6q9 -10 25 -23q24 -20 52 -28q14 -5 27.5 -6t27.5 4q-4 -4 -9 -6.5t-10 -4.5t-11 -3.5t-12 -2.5q-25 -7 -52 -4z" />
<glyph unicode="L" horiz-adv-x="2014" d="M1908 350q44 -36 67 -81t26 -89l-66 -79q-5 -1 -10 -1h-10q-41 0 -83.5 16t-79.5 47t-59.5 69t-30.5 77q-37 -50 -86 -104t-106 -113q-64 -64 -125.5 -117t-114 -91.5t-93 -59t-62.5 -20.5q-11 0 -17 5l-69 68q6 -6 17 -6q22 0 62.5 21.5t93 60.5t114 92t125.5 117 t117.5 125.5t91.5 114t59.5 93t21.5 62.5q0 11 -5 16l68 -68q5 -5 5 -17q0 -25 -27 -76h15q39 0 81.5 -15.5t79.5 -46.5zM1883 192q35 -41 52 -89q-3 38 -21.5 77t-51.5 72l-5.5 5.5t-3.5 5.5l-6 4t-5 4l-12 10l-10 7q-33 24 -69 35t-71 11l-3 -4q21 -5 41.5 -13t39.5 -20 q4 -15 17 -32t34 -34q20 -18 39.5 -27.5t34.5 -11.5zM1220 709q-7 -6 -12.5 -20t-10 -29.5t-7.5 -31t-4 -26.5l-2 -3v145h143l-2 -4q-11 -2 -27 -5t-32 -7t-29 -9t-17 -10zM612 1316h143l-3 -3q-11 -2 -27.5 -5.5t-32 -7.5t-28.5 -8.5t-17 -8.5q-6 -6 -11.5 -18.5t-9.5 -27 t-7 -29.5t-5 -27l-2 -8v143zM898 744h144l-3 -4l-27.5 -5t-32 -7t-28.5 -8.5t-17 -10.5q-7 -6 -12.5 -20t-9.5 -29.5t-7.5 -31t-4.5 -26.5l-2 -3v145zM898 1029h144l-3 -2l-27.5 -5t-32 -7.5t-28.5 -9.5t-17 -9q-6 -6 -11.5 -17.5t-9.5 -26t-7.5 -29.5t-5.5 -28l-2 -9v143z M612 1029h143l-3 -2l-27.5 -5t-32 -7.5t-28.5 -9.5t-17 -9q-6 -6 -11.5 -17.5t-9.5 -26t-7 -29.5t-5 -28l-2 -9v143zM360 1283q-6 -6 -11 -18.5t-9.5 -27t-7.5 -29.5t-5 -27l-2 -8v143h143l-2 -3q-11 -2 -27.5 -5.5t-32.5 -7.5t-29 -8.5t-17 -8.5zM898 1316h144l-3 -3 q-11 -2 -27.5 -5.5t-32 -7.5t-28.5 -8.5t-17 -8.5q-6 -6 -11.5 -18.5t-9.5 -27t-7.5 -29.5t-5.5 -27l-2 -8v143zM934 424q-7 -7 -12.5 -21t-10 -30t-8 -32t-5.5 -27v143h144l-3 -3l-27.5 -5t-32 -7.5t-28.5 -9t-17 -8.5zM647 709q-7 -6 -12.5 -20t-9.5 -29.5t-7 -31 t-4 -26.5l-2 -3v145h143l-3 -4l-27.5 -5t-32 -7t-28.5 -9t-17 -10zM360 996q-6 -6 -11 -17.5t-9.5 -26t-7.5 -29.5t-5 -28l-2 -9v141h141l-27.5 -5t-32.5 -7.5t-29 -9.5t-17 -9zM1184 457h143l-2 -3q-11 -2 -27 -5t-32 -7.5t-29 -9t-17 -8.5q-6 -6 -11.5 -19t-10 -28t-8 -30 t-5.5 -27q0 -2 -0.5 -3t-0.5 -3v143zM1631 627q6 -6 6 -17q0 -22 -21.5 -62.5t-60 -93t-92 -114t-116.5 -124.5q-64 -64 -125.5 -117t-114 -92t-93 -60.5t-62.5 -21.5q-11 0 -17 6l-66 66q-138 137 -242.5 242t-181.5 183t-130.5 130.5t-88.5 87.5l-92 91q-68 68 -101 152 t-33 172t33 172.5t101 151.5q68 68 152 101t172 33t172.5 -33t151.5 -101l36 -41q3 39 20.5 77t48.5 69q34 34 77 52t89 18t89 -18t78 -52q25 -25 40.5 -54.5t23.5 -61.5l164 -558zM569 1410h80q-19 11 -39 19t-41 15v-34zM517 1455q-15 2 -29.5 3t-29.5 1q-46 0 -90 -9.5 t-86 -28.5v-11h235v45zM282 1358v-233h235v233h-235zM231 786h-80q3 -3 10 -9t9 -12l61 -60v81zM231 1073h-180v-46h129l-27.5 -5t-32.5 -7.5t-29 -9.5t-17 -9q-7 -7 -15 -27q8 -34 20.5 -67.5t32.5 -63.5h119v235zM231 1358h-42l-10 -8t-10 -9l-23 -25h36l-2 -3 q-18 -2 -43 -9q-32 -41 -52 -85.5t-28 -93.5h174v233zM517 500h-81l81 -81v81zM517 786h-235v-133l43 -42v133h143l-2 -4l-27.5 -5t-32.5 -7t-28.5 -8.5t-17.5 -10.5q-6 -6 -11 -18.5t-9 -27t-7 -29.5t-5 -26l56 -57h133v235zM517 1073h-235v-235h235v235zM803 213h-80 l80 -81v81zM803 500h-234v-133l43 -43v133h143l-3 -3l-27.5 -5t-32 -7.5t-28.5 -9t-17 -8.5q-6 -6 -12 -18.5t-9.5 -28t-6.5 -30.5t-4 -26l56 -56h132v235zM803 786h-234v-235h234v235zM803 838v235h-234v-235h234zM803 1286q-16 5 -27 17q-8 10 -16 19.5t-16 18.5l-20 17 h-155v-233h234v161zM1428 551h130q20 35 23 48l-88 90q-8 -20 -13 -45.5t-7 -41.5l-2 -3v112l-43 43v-203zM1428 378q11 15 22 27t21 25v27h21l32 43h-96v-122zM1141 1410h69q-6 9 -13 18t-15 18q-20 20 -41 30v-66zM1141 1125h158l-50 171q-23 -7 -29 -13t-11.5 -19.5 t-10 -29t-8 -31t-5.5 -27.5q0 -1 -0.5 -1.5t-0.5 -1.5v143h59l-10 36q0 1 -0.5 1.5t-0.5 1.5q0 2 -1 3h-90v-233zM1141 838h235v26l-51 163q-11 -2 -27 -5t-32 -7.5t-29 -9.5t-17 -9q-6 -6 -11.5 -19t-10 -28t-8 -31t-5.5 -28q0 -2 -0.5 -2.5t-0.5 -1.5v143h143l-12 44h-174 v-235zM1141 786v-235h235v235h-235zM855 1125h234v233h-216q-2 -6 -3 -12.5t-2 -14.5q-1 -17 -13 -30v-176zM855 838h234v235h-234v-235zM855 551h234v235h-234v-235zM963 -22q18 6 49.5 25.5t76.5 53.5v156h-234v-132l43 -44v133h144l-3 -3l-27.5 -5t-32 -7t-28.5 -9 t-17 -9q-6 -6 -12 -18.5t-9.5 -27.5t-7 -29.5t-5.5 -26.5l5 -3l53 -54h5zM1089 500h-234v-235h234v235zM1089 1495q-9 2 -19 3.5t-19 1.5q-35 0 -68.5 -13.5t-60.5 -40.5q-8 -8 -15 -17t-13 -19h195v85zM1270 213h-129v-114q10 8 21 17l22 18v36h40zM1323 265l53 56v179 h-235v-235h182z" />
<glyph unicode="M" horiz-adv-x="15106" d="M8634 651h162q63 0 98 -27t35 -74t-30.5 -74.5t-76.5 -37.5q31 -10 53.5 -31.5t22.5 -57.5q0 -56 -48 -92t-132 -36h-199zM8723 265q59 0 92 23t33 62q0 33 -27.5 49.5t-70.5 16.5h-130l-41 -151h144zM8754 460q57 0 91.5 23t34.5 61q0 31 -23 47.5t-66 16.5h-120 l-40 -148h123zM8983 313q0 11 3 23.5t6 24.5l46 178h47l-49 -181q-2 -8 -3 -17.5t-1 -17.5q0 -31 19 -48.5t52 -17.5q19 0 36.5 7.5t33 21t27.5 32t18 41.5l48 180h48l-86 -318h-46l13 51q-22 -24 -48.5 -41t-62.5 -17q-47 0 -74 26.5t-27 72.5zM9431 539h48l-86 -318h-48z M9460 661h54l-13 -53h-54zM9635 669h46l-120 -448h-47zM9698 348q0 43 15 78.5t40 62t57 41.5t67 15q50 0 77.5 -23.5t41.5 -54.5l54 202h47l-120 -448h-46l13 54q-23 -26 -52 -44t-68 -18q-54 0 -90 37.5t-36 97.5zM9979 405q0 43 -27.5 71t-70.5 28q-28 0 -52.5 -12 t-43 -33t-28 -48.5t-9.5 -58.5q0 -44 25.5 -70.5t64.5 -26.5q26 0 51.5 12.5t45.5 33.5t32 48t12 56zM10372 496h-44l12 43h43l11 37q11 49 39 72t69 23q39 0 63 -14l-11 -40q-14 6 -26 9t-26 3q-22 0 -38.5 -14.5t-25.5 -45.5l-8 -30h104l-12 -43h-103l-74 -275h-48z M10506 302q0 54 40 84t102 30q31 0 60 -5t52 -11l2 7q2 7 3.5 15t1.5 14q0 31 -21.5 48.5t-65.5 17.5q-25 0 -46.5 -5t-42.5 -13l-7 40q23 8 48 13.5t56 5.5q61 0 93 -26t32 -73q0 -10 -2 -21l-4 -22l-49 -180h-45l13 49q-23 -25 -52 -40.5t-67 -15.5q-20 0 -38 5.5 t-32.5 17t-22.5 28t-8 37.5zM10747 346l6 22q-21 6 -47.5 10t-56.5 4q-43 0 -69 -20.5t-26 -54.5q0 -26 18.5 -41t49.5 -15q20 0 39.5 7t37 19.5t30 30t18.5 38.5zM10852 270l30 30q26 -25 54 -36t57 -11q27 0 48.5 14.5t21.5 38.5q0 16 -12.5 28.5t-48.5 25.5 q-44 18 -66.5 36t-22.5 52q0 41 32 69t88 28q34 0 65.5 -13t51.5 -30l-27 -33q-20 16 -44 26.5t-51 10.5q-33 0 -50.5 -15t-17.5 -35q0 -16 13 -28t50 -27q44 -18 65.5 -37t21.5 -49q0 -45 -35 -73t-86 -28q-37 0 -73.5 14t-63.5 42zM11206 278q0 8 1 16.5t3 17.5l51 184 h-45l12 43h44l26 96h46l-25 -96h100l-12 -43h-99l-49 -182q-1 -5 -1.5 -11.5t-0.5 -11.5q0 -33 42 -33q22 0 47 10l-12 -44q-24 -9 -50 -9q-34 0 -56 16t-22 47zM11384 167q27 7 40.5 20.5t18.5 33.5h-23l17 65h57l-16 -55q-11 -41 -31.5 -59t-57.5 -26zM11757 177l30 33 q25 -22 57 -35t69 -13q30 0 52 9t36 24q15 14 24.5 32.5t16.5 42.5l8 32q-24 -24 -53 -40t-68 -16q-25 0 -48.5 8t-41.5 23t-29 37t-11 52q0 39 15.5 71.5t40.5 56.5t57 37.5t65 13.5q26 0 45 -6t33 -17t23.5 -24.5t16.5 -28.5l19 70h46l-72 -273q-10 -36 -22.5 -59 t-29.5 -41q-44 -45 -123 -44q-44 0 -85 14.5t-71 40.5zM12077 413q0 36 -25.5 63.5t-70.5 27.5q-25 0 -49 -10t-42 -27.5t-29 -42t-11 -52.5q0 -44 28 -65t64 -21q27 0 51.5 10.5t43 28.5t29.5 41t11 47zM12271 539h48l-21 -83q29 42 66 66t85 22l-14 -51h-3q-26 0 -51 -9 t-47 -28t-39 -46.5t-27 -63.5l-33 -125h-48zM12456 356q0 37 15 71t40.5 60.5t60 42t72.5 15.5q65 0 105 -39.5t40 -101.5q0 -38 -15.5 -72.5t-41 -61t-59.5 -42t-71 -15.5q-66 0 -106 40.5t-40 102.5zM12740 401q0 50 -27 76.5t-72 26.5q-28 0 -52.5 -12.5t-43 -33.5 t-29.5 -47t-11 -54q0 -49 27.5 -74.5t72.5 -25.5q26 0 50.5 11.5t43 32t30 46.5t11.5 54zM12870 539h47l17 -253l154 254h39l18 -254l152 253h50l-198 -321h-43l-17 251l-153 -251h-41zM13524 270l31 30q26 -25 54 -36t57 -11q27 0 48.5 14.5t21.5 38.5q0 16 -13 28.5 t-48 25.5q-44 18 -66.5 36t-22.5 52q0 41 32 69t88 28q36 0 66.5 -13t50.5 -30l-27 -33q-21 16 -44.5 26.5t-50.5 10.5q-33 0 -50.5 -15t-17.5 -35q0 -16 13 -28t50 -27q44 -18 65.5 -37t21.5 -49q0 -22 -9 -41t-25.5 -32.5t-39 -20.5t-48.5 -7q-36 0 -72.5 14t-64.5 42z M13870 356q0 37 14.5 71t40 60.5t59 42t72.5 15.5q66 0 105.5 -39.5t39.5 -101.5q0 -38 -15.5 -72.5t-41 -61t-59.5 -42t-71 -15.5q-65 0 -104.5 40.5t-39.5 102.5zM14153 401q0 50 -28 76.5t-73 26.5q-27 0 -51 -12.5t-43 -33.5t-30 -47t-11 -54q0 -49 27 -74.5t73 -25.5 q26 0 51 11.5t43.5 32t30 46.5t11.5 54zM14372 669h47l-119 -448h-48zM14505 539h48l-85 -318h-48zM14535 661h54l-14 -53h-54zM14605 348q0 43 14.5 78.5t39.5 62t57 41.5t67 15q50 0 78 -23.5t41 -54.5l54 202h48l-121 -448h-46l14 54q-24 -26 -53 -44t-67 -18 q-54 0 -90 37.5t-36 97.5zM14885 405q0 43 -27 71t-70 28q-28 0 -52.5 -12t-42.5 -33t-28 -48.5t-10 -58.5q0 -44 25 -70.5t64 -26.5q26 0 51.5 12.5t46 33.5t32 48t11.5 56zM15010 286h56l-17 -65h-57zM1035 500q-143 0 -275.5 11t-247 32.5t-209 51t-162 65.5t-104.5 77.5 t-37 86.5v323q0 45 37 86t104.5 77t162 65t209 50.5t247 33t275.5 11.5t276 -11.5t247.5 -33t209 -50.5t162 -65t104.5 -77.5t37 -85.5v-323q0 -58 -59.5 -109t-166.5 -94l-810 203v-324zM1845 298q107 42 166.5 93t59.5 109v-323q0 -57 -59.5 -108.5t-166.5 -93.5l-810 202 v323zM0 500q0 -45 37 -86.5t104.5 -77.5t162 -65t209 -50.5t247 -32.5t275.5 -11v-323q-143 0 -275.5 11t-247 32.5t-209 50.5t-162 65t-104.5 77.5t-37 86.5v323zM2960 206q-95 0 -175.5 34t-139.5 94t-92.5 141t-33.5 173v3q0 91 33 172t92 141t141.5 95.5t181.5 35.5 q60 0 110 -10t90.5 -27t74.5 -42t64 -54l-121 -138q-50 46 -102 71t-117 25q-54 0 -99.5 -20.5t-79 -57t-52 -85.5t-18.5 -104v-2q0 -56 18 -105.5t51 -86t79 -58t101 -21.5q36 0 67 7.5t57.5 20.5t51.5 31.5t49 42.5l121 -123q-33 -35 -69 -63.5t-78 -48.5t-92.5 -30.5 t-112.5 -10.5zM3829 221v71q-34 -37 -82.5 -60t-116.5 -23q-47 0 -88 13t-71.5 38.5t-48.5 63t-18 86.5v2q0 54 19.5 93.5t54.5 65.5t84 38.5t107 12.5q50 0 88 -7.5t73 -19.5v12q0 58 -35 88.5t-106 30.5q-53 0 -94.5 -9t-87.5 -26l-47 143q54 23 113.5 38t142.5 15 q153 0 223.5 -75.5t70.5 -209.5v-381h-181zM3832 486q-24 11 -54.5 18t-63.5 7q-60 0 -95 -23.5t-35 -67.5v-3q0 -37 28 -58t74 -21q66 0 106 32t40 83v33zM4593 221l-172 268l-64 -67v-201h-187v896h187v-477l218 239h223l-250 -259l259 -399h-214zM5477 484h-458 q14 -63 56 -95.5t105 -32.5q47 0 84 15.5t75 52.5l108 -95q-47 -57 -113.5 -90t-156.5 -33q-74 0 -137 24.5t-109 70t-72 107.5t-26 138v3q0 70 24 132.5t67 109t103 73.5t131 27q82 0 143 -29.5t100.5 -79t58.5 -114.5t19 -134v-2q0 -15 -0.5 -24.5t-1.5 -23.5zM5158 742 q-58 0 -94 -38t-47 -103h281q-8 62 -44.5 101.5t-95.5 39.5zM5971 479h-144v-258h-189v859h351q77 0 138 -22t103.5 -60.5t64.5 -94t22 -120.5v-2q0 -75 -27 -131.5t-73.5 -94.5t-109.5 -57t-136 -19zM6126 779q0 64 -41 97.5t-112 33.5h-146v-263h150q72 0 110.5 37 t38.5 93v2zM6996 221v345h-349v-345h-189v859h189v-340h349v340h189v-859h-189zM7723 479h-144v-258h-189v859h351q77 0 138 -22t103.5 -60.5t65 -94t22.5 -120.5v-2q0 -75 -27 -131.5t-74 -94.5t-110 -57t-136 -19zM7879 779q0 64 -41 97.5t-112 33.5h-147v-263h150 q72 0 111 37t39 93v2z" />
<glyph unicode="N" horiz-adv-x="2734" d="M1368 1015l300 -74q39 15 61 34t22 40v120q0 25 -30 47t-82 38t-122 25.5t-149 9.5q-80 0 -149.5 -9.5t-121.5 -25.5t-82 -38t-30 -47v-120q0 -25 30 -46.5t82 -38t121.5 -26t149.5 -9.5v120zM1668 820l-300 75v-119l300 -75q39 16 61 35t22 40v119q0 -21 -22 -40 t-61 -35zM985 776q0 -25 30 -46.5t82 -38t121.5 -26t149.5 -9.5v120q-80 0 -149.5 9t-121.5 26t-82 38t-30 46v-119zM1368 377l-662 220v717l662 220l661 -220v-717zM772 645l596 -199l596 199v621l-596 199l-596 -199v-621zM215 -189q-47 0 -86 16.5t-68 45.5t-45 68 t-16 85q0 45 16 85t45 69.5t69 46.5t88 17q59 0 97.5 -18t67.5 -46l-59 -68q-24 22 -49.5 34.5t-56.5 12.5q-27 0 -49 -10.5t-38.5 -28t-25 -41.5t-8.5 -50q0 -28 8.5 -52t24.5 -42t38.5 -28.5t49.5 -10.5q36 0 60.5 13t48.5 36l59 -59q-33 -35 -72 -55t-99 -20zM639 -182 v35q-18 -18 -41.5 -29.5t-56.5 -11.5q-46 0 -78 25.5t-32 73.5q0 53 36.5 78t92.5 25q24 0 42.5 -4t36.5 -10v6q0 58 -69 58q-27 0 -46.5 -4t-41.5 -12l-23 68q26 11 54.5 18.5t69.5 7.5q75 0 109 -36t34 -102v-186h-87zM640 -53q-11 5 -26 8.5t-32 3.5q-29 0 -46 -11 t-17 -33q0 -20 14 -30t36 -10q31 0 51 16t20 40v16zM1010 -182l-84 131l-31 -33v-98h-90v436h90v-232l107 116h108l-121 -126l125 -194h-104zM1441 -53h-223q7 -31 27.5 -47t50.5 -16q24 0 41.5 7.5t36.5 25.5l52 -47q-22 -27 -54.5 -43t-76.5 -16q-36 0 -66.5 12t-53 33.5 t-35 52.5t-12.5 67q0 34 11.5 65t32.5 53.5t50 36t65 13.5q41 0 69.5 -14.5t48 -38t29 -55t9.5 -65.5q0 -8 -1 -13t-1 -11zM1287 72q-29 0 -47 -19t-23 -50h137q-4 31 -21.5 50t-45.5 19zM1612 153v-89h199v-84h-199v-162h-93v419h319v-84h-226zM2191 -53h-223q7 -31 28 -47 t51 -16q23 0 40.5 7.5t36.5 25.5l52 -47q-22 -27 -54 -43t-77 -16q-36 0 -66.5 12t-53 33.5t-35 52.5t-12.5 67q0 34 11.5 65t32.5 53.5t50 36t65 13.5q41 0 69.5 -14.5t48 -38t28.5 -55t9 -65.5q0 -8 -0.5 -13t-0.5 -11zM2037 72q-28 0 -46.5 -19t-23.5 -50h137 q-4 31 -21.5 50t-45.5 19zM2373 -188q-34 0 -70 12t-68 37l39 59q26 -19 52 -28t49 -9q38 0 39 22q0 17 -20 24t-47 15q-17 5 -34 12t-30.5 17.5t-22 27t-8.5 40.5q0 50 33.5 76t83.5 26q30 0 61 -9.5t58 -27.5l-35 -62q-24 15 -46.5 22.5t-39.5 7.5q-33 0 -33 -23 q0 -14 16 -20.5t40 -14.5l8 -4q17 -6 34 -13t31 -18t23 -26.5t9 -37.5q0 -55 -35 -80t-87 -25zM2663 -187q-42 0 -68 20.5t-26 75.5v152h-38v77h38v82h92v-82h75v-77h-75v-137q0 -31 29 -31q25 0 44 11v-72q-27 -19 -71 -19z" />
<glyph unicode="O" horiz-adv-x="6154" d="M1053 603q-127 0 -238 14.5t-193.5 40.5t-131 61t-48.5 74v190q0 39 48.5 74.5t131 61t193.5 41t238 15.5t238 -15.5t194 -41t131.5 -60.5t48.5 -75v-190q0 -34 -36 -64t-98 -55l-478 119v-190zM1531 484q62 24 98 54.5t36 64.5v-191q0 -33 -36 -63.5t-98 -55.5l-478 119 v191zM442 603q0 -39 48.5 -74t131 -61t193.5 -41t238 -15v-191q-127 0 -238 15t-193.5 41t-131 61t-48.5 74v191zM104 1405v-1415h1899v1415h-1899zM2107 -114h-2107v1624h2107v-1624zM2739 368q-74 0 -137 26.5t-108.5 72.5t-71.5 108.5t-26 133.5q0 72 25.5 135.5 t71.5 110.5t110.5 74t141.5 27q93 0 154.5 -28.5t107.5 -74.5l-93 -107q-39 34 -79.5 54.5t-91.5 20.5q-43 0 -77.5 -16.5t-60.5 -44.5t-40 -66t-14 -81q0 -44 14 -82t39.5 -66.5t60.5 -45t78 -16.5q58 0 97 20.5t78 56.5l94 -94q-26 -28 -53.5 -50t-60.5 -37t-72 -23 t-87 -8zM3413 378v55q-27 -29 -64 -46.5t-90 -17.5q-36 0 -68 10t-56 30t-38 49t-14 66q0 43 15.5 74t43 51.5t64.5 30.5t83 10q39 0 68.5 -6t56.5 -15v8q0 46 -27.5 70t-81.5 24q-42 0 -74 -7.5t-68 -19.5l-36 110q44 19 88.5 29.5t109.5 10.5q118 0 173 -58t55 -162v-296 h-140zM3416 585q-19 8 -42.5 13t-50.5 5q-47 0 -73 -18t-26 -52q0 -30 21.5 -47.5t57.5 -17.5q51 0 82 25.5t31 65.5v26zM4007 378l-134 209l-50 -53v-156h-144v695h144v-370l169 186h173l-194 -201l201 -310h-165zM4692 583h-355q11 -50 43 -75t82 -25q36 0 64.5 12.5 t58.5 39.5l83 -73q-36 -45 -87.5 -69.5t-121.5 -24.5q-57 0 -105.5 19t-84.5 54t-56 83t-20 106q0 56 18.5 105t51.5 85.5t79.5 57t102.5 20.5q63 0 110.5 -22.5t77.5 -61t45 -89t15 -104.5v-19.5t-1 -18.5zM4445 782q-45 0 -73.5 -29t-36.5 -79h218q-7 49 -34 78.5 t-74 29.5zM5077 378h-260v667h260q78 0 143.5 -25.5t112.5 -69.5t73 -105t26 -132t-26 -132t-73 -106t-112.5 -71t-143.5 -26zM5278 711q0 45 -14.5 82t-41 63.5t-63.5 41.5t-82 15h-114v-402h114q45 0 82 14.5t63.5 41t41 63t14.5 81.5zM5874 368q-74 0 -136 26.5 t-108 72.5t-72 108.5t-26 133.5q0 72 25.5 135.5t71.5 110.5t110 74t141 27q47 0 85.5 -7t70 -20.5t57.5 -33t50 -42.5l-94 -107q-38 34 -79 54.5t-91 20.5q-43 0 -78 -16.5t-60.5 -44.5t-40 -66t-14.5 -81q0 -44 14 -82t39.5 -66.5t61 -45t78.5 -16.5q57 0 96 20.5t79 56.5 l93 -94q-26 -28 -53.5 -50t-60 -37t-72 -23t-87.5 -8z" />
<glyph unicode="P" horiz-adv-x="1274" d="M875 705q-12 5 -12 18q0 3 2 7l3 4v84q-42 -9 -103 -14.5t-133 -5.5t-133 5.5t-100 14.5v-84l2 -4q1 -2 1 -6q0 -14 -12 -19q-4 -2 -7 -2q-12 0 -17 12t-9 16.5t-5 5.5q-6 0 -10 -6t-6.5 -15t-3 -19.5t-0.5 -17.5q0 -23 6 -42.5t13.5 -34t16.5 -23.5t15 -9t11 -4 q6 -6 6 -15v-108q0 -15 6 -26.5t17 -20.5l150 -119q15 -14 38 -13h39q23 0 38 13q4 4 12 4q10 0 15 -7q4 -5 4 -12q0 -10 -8 -15q-27 -22 -61 -22h-39q-35 0 -62 22l-149 120q-37 29 -38 76v93q-14 6 -26 20t-21.5 33.5t-15 42.5t-5.5 47q0 50 14 70.5t32 24.5l-7 77v207 q-39 7 -74 30t-55 61q-12 21 -18 43.5t-6 46.5q0 48 23.5 91t68.5 68q42 23 90 23q36 0 66 -12q16 34 43 63t65 46q47 22 96 22q64 0 120 -33.5t85 -96.5q0 -1 0.5 -1.5t0.5 -1.5q35 15 70 15q48 0 90.5 -24.5t67.5 -68.5q25 -43 24 -90q0 -48 -23.5 -91t-68.5 -68 q-31 -17 -66 -22v-207l-6 -77q14 -3 25.5 -14.5t16.5 -36.5v-5q0 -5 -2 -11t-11 -7q-10 0 -12.5 8t-3.5 9q-3 21 -25 20q-2 -1 -5 -5.5t-9 -16.5q-5 -11 -17 -12q-4 0 -8 2zM1266 -125q0 -29 -21 -48q-23 -23 -59 -23h-902q14 100 50 153.5t84.5 78.5t105 29.5t108.5 4.5 q41 0 77.5 10.5t63 30.5t42 45.5t15.5 55.5v68q45 -16 94 -34t94 -36.5t82.5 -37t60.5 -35.5q28 -21 47 -55t30.5 -71.5t18 -73.5t9.5 -57v-5zM508 102q-44 -6 -86.5 -22t-78.5 -49.5t-62 -88t-36 -138.5h-166q-35 0 -58 23q-21 19 -21 46v7q3 22 9.5 57.5t18 73t30.5 71.5 t46 55q23 17 61 35.5t83 37t93.5 37t94.5 33.5v-68q0 -33 19.5 -61.5t52.5 -48.5zM266 1265q11 41 47 60q23 14 48 14q26 0 49.5 -13.5t38.5 -37.5q0 -1 1 -1.5t1 -1.5q2 -12 5.5 -25t9.5 -24q2 -6 7 -9t10 -3q6 0 8 3q11 5 12 16q0 2 -2 8q-7 15 -10.5 31t-3.5 32 q0 42 22 77.5t61 54.5q28 14 61 13q23 0 50 -8q58 -21 83 -75q5 -11 18 -11q3 0 7 2q11 5 12 16q0 2 -2 9q-16 33 -43 57.5t-61 37.5q-28 10 -61 11q-42 0 -80 -18q-43 -21 -69 -57t-34 -79q-39 33 -90 33q-35 0 -67 -19q-50 -27 -64 -83l-4 -18t-2 -18q0 -36 19 -68 q5 -10 16 -10q4 0 10 2q9 7 9 17q0 4 -3 9q-12 23 -12 51q0 13 3 25zM958 629q0 -31 -24 -44q-3 -45 -21.5 -89t-48.5 -80t-70 -59t-88 -25q-10 -20 -34 -19h-55q-17 0 -28.5 11t-11.5 28q0 18 11.5 29.5t28.5 11.5h55q14 0 23.5 -8t13.5 -20q33 3 66.5 20.5t60.5 46t45 67 t21 84.5q-7 5 -8 18t-1 28q8 4 10 12t2 16.5t1.5 14.5t9.5 6q18 0 30 -14t12 -35zM804 484q-5 -35 -30 -58.5t-64 -23.5q-25 0 -45.5 10t-32.5 25q-11 -16 -31.5 -25.5t-44.5 -9.5q-38 0 -63.5 23.5t-31.5 58.5h15q21 -26 53 -26q29 0 45 26q10 17 29 17q17 0 29 -13 q12 12 31 13q20 0 30 -17q8 -14 20 -20t25 -6q15 0 29 6.5t24 19.5h13zM976 1119q33 20 51.5 52.5t18.5 68.5q0 18 -4 34.5t-14 31.5q-15 24 -36 41.5t-48 24.5q-9 2 -18 3.5t-18 1.5q-37 0 -69 -19q-9 -5 -9 -16q0 -5 3 -10q4 -9 17 -9q6 0 9 2q24 14 48 14q7 0 13.5 -1 t14.5 -3q37 -9 60 -47q12 -24 12 -48q0 -27 -13.5 -50t-37.5 -37q-8 -5 -8 -17q0 -6 2 -9q5 -10 17 -11zM740 -149q18 0 30.5 12.5t12.5 30.5t-12.5 30t-30.5 12t-30 -12t-12 -30t12 -30.5t30 -12.5zM506 -149q18 0 30 12.5t12 30.5t-12.5 30t-29.5 12q-18 0 -30 -12 t-12 -30t12 -30.5t30 -12.5z" />
<glyph unicode="Q" horiz-adv-x="1987" d="M1574 58q8 0 15 -6t7 -16q0 -9 -6.5 -15t-15.5 -6h-844q-9 0 -15.5 6t-6.5 15t6.5 15.5t15.5 6.5h844zM1574 137q8 0 15 -6.5t7 -16.5q0 -8 -6.5 -14.5t-15.5 -6.5h-844q-9 0 -15.5 6.5t-6.5 14.5q0 9 6.5 16t15.5 7h844zM1574 1097q8 0 15 -6.5t7 -15.5v-876 q0 -8 -6.5 -14.5t-15.5 -6.5h-844q-21 0 -39 -8t-31.5 -21.5t-21.5 -31.5t-8 -38q0 -42 29.5 -71t70.5 -29h844q8 0 15 -6t7 -16q0 -9 -6.5 -15t-15.5 -6h-844q-30 0 -56 10.5t-45 30.5t-30.5 46t-11.5 56v289q25 -31 62 -50.5t81 -19.5h705q25 0 43.5 18t18.5 43 q0 11 -4.5 20.5t-10.5 18.5q6 8 10.5 18.5t4.5 21.5t-4.5 20.5t-10.5 18.5q6 8 10.5 18.5t4.5 21.5q0 24 -18 42q8 8 13 19t5 23v496h77zM730 336q-30 0 -56 11.5t-45 31t-30.5 45.5t-11.5 56v783q0 29 11.5 55.5t30.5 45.5t45 30.5t56 11.5h705q9 0 15.5 -6t6.5 -16v-783 q0 -9 -6 -15t-16 -6h-705q-42 0 -71 -29.5t-29 -70.5q0 -21 8 -38.5t21.5 -31t31.5 -21.5t39 -8h705q9 0 15.5 -6t6.5 -16q0 -9 -6 -16t-16 -7h-705zM1435 460q9 0 15.5 -6t6.5 -16q0 -9 -6 -16t-16 -7h-705q-9 0 -15.5 7t-6.5 16t6.5 15.5t15.5 6.5h705zM1435 539 q9 0 15.5 -6.5t6.5 -15.5t-6 -16t-16 -7h-705q-9 0 -15.5 7t-6.5 16q0 8 6.5 15t15.5 7h705zM182 92q20 0 33 -13.5t13 -32.5v-112q-22 17 -46 16q-25 0 -47 -16v112q0 20 13.5 33t33.5 13zM182 -101q20 0 33 -13.5t13 -32.5q0 -20 -13.5 -33.5t-32.5 -13.5 q-20 0 -33.5 13.5t-13.5 33.5t13.5 33t33.5 13zM181 1535q42 0 75.5 -23t56.5 -58.5t35.5 -80t12.5 -87.5q0 -56 -9.5 -104t-24.5 -90.5t-32.5 -81.5t-32.5 -79.5t-25 -84t-10 -93.5v-626q-22 17 -46 16q-25 0 -47 -16v626q0 50 -10 93.5t-25 84t-32 79.5t-32 81.5t-25 90 t-10 104.5q0 44 12.5 88t36 79.5t57 58.5t75.5 23zM181 1030q26 0 49 19.5t40.5 53t27 78t9.5 95.5q0 42 -12.5 82.5t-32.5 68.5q-2 3 -8 3q-3 0 -4 -1q-5 -2 -5 -7q0 -3 1 -4q11 -39 12 -80q0 -47 -8.5 -88t-23 -72t-34 -49.5t-40.5 -18.5q-20 0 -34.5 12t-24.5 25 q-1 4 -7 4q-3 0 -4 -1q-5 -2 -5 -9q0 -2 1 -3q18 -51 45 -79.5t58 -28.5zM1938 1027q-7 3 -14 5t-15 2t-15 -2t-14 -5l15 48q3 9 14 9q10 0 13 -9zM1909 902q-22 0 -41 -8.5t-34 -23.5l32 100q5 12 16.5 20t26.5 8t26 -8t16 -19l33 -101q-15 15 -34 23.5t-41 8.5zM1909 170 q31 0 53 -21.5t22 -51.5q0 -31 -22 -53.5t-53 -22.5t-53 22t-22 54q0 30 22 51.5t53 21.5zM1909 62q15 0 24 10t9 25q0 14 -9.5 23.5t-23.5 9.5q-15 0 -24 -10t-9 -23q0 -15 9 -25t24 -10zM1984 476q-20 21 -47 29v-209q27 -6 47 -28v-92q-15 15 -33.5 23.5t-41.5 8.5 t-41.5 -9t-33.5 -23v615q0 31 22 53t53 22t53 -21.5t22 -53.5v-315z" />
<glyph unicode="R" horiz-adv-x="1667" d="M192 1228h132v-39h-132v39zM192 875h132v-39h-132v39zM192 808h132v-38h-132v38zM814 696h-551v38h551v-38zM452 1019v-38h-189v38h189zM1517 -17q31 0 58 -4t47.5 -12t32 -18t11.5 -22q0 -11 -11.5 -21t-32 -17.5t-47.5 -12t-58 -4.5q-19 0 -41.5 0.5t-46 2t-45.5 4.5 t-41 8q-4 -46 -14 -75.5t-24 -29.5h-902q-14 0 -23.5 29.5t-13.5 75.5q-19 -5 -42 -8t-46.5 -4.5t-46 -2t-41.5 -0.5q-30 0 -57 4.5t-47.5 12t-31.5 17.5t-11 21t11 21.5t31.5 18.5t47.5 12t57 4q19 0 41.5 -1t46 -3t46.5 -5.5t42 -8.5q4 47 13.5 77.5t23.5 30.5h902 q14 0 24 -31t14 -77q19 5 41 8.5t45.5 5.5t46 3t41.5 1zM760 857q-63 56 -97.5 133t-34.5 161q0 74 25.5 141t74.5 122q59 65 136 98t159 33q71 0 139 -25t124 -74q63 -56 97.5 -133.5t34.5 -161.5q0 -112 -60 -208l250 -222q23 -21 23 -50q0 -25 -18 -46q-20 -23 -52 -23 q-27 0 -45 17l-248 222q-53 -43 -116.5 -63.5t-128.5 -20.5q-71 0 -138.5 24.5t-124.5 75.5zM812 1340q-35 -39 -53.5 -87.5t-18.5 -101.5q0 -60 24 -115.5t70 -95.5q41 -36 89.5 -54t99.5 -18q59 0 114 23.5t98 71.5q34 39 52.5 87t18.5 101q0 61 -24 116t-70 96 q-41 36 -89.5 53.5t-99.5 17.5q-59 0 -113.5 -23.5t-97.5 -70.5zM1110 254q9 0 10 -11v-39q0 -10 -10 -11h-943q-10 0 -10 11v39q0 11 10 11h943zM837 1120q-9 8 -13.5 19t-4.5 22q0 23 15 37q17 19 41 19q21 0 38 -14l96 -88l150 160q8 9 18.5 13.5t22.5 4.5q10 0 20 -3 t18 -12q18 -17 18 -41q0 -10 -3.5 -20t-11.5 -19l-187 -200q-16 -18 -41 -18q-20 0 -37 15zM322 379q36 0 65 12t51.5 33.5t38.5 49t27 58.5h-494q-10 0 -10 10v851q0 9 10 9h651q-26 -36 -44 -80h-536v-710h1109v131q21 8 40.5 19t39.5 23v-243q0 -10 -10 -10h-494 q10 -31 27.5 -58.5t41 -48.5t53.5 -33.5t66 -12.5h7.5h13.5t13 -0.5t7 -1.5l106 -73q4 -4 4 -11q-2 -7 -10 -7h-912q-9 0 -11 10q0 5 5 8l105 73q0 1 6.5 1.5t13 0.5h13h7.5zM602 1019q3 -9 6.5 -18.5t7.5 -19.5h-127v38h113zM586 1089l7 -38h-330v38h323zM582 1160v-9 v-14.5t1 -14.5h-320v38h319zM263 946h369q5 -11 11 -20l12 -18h-392v38z" />
<glyph unicode="S" horiz-adv-x="1192" d="M454 731q8 -2 20 -13.5t27 -29.5t32.5 -40t38.5 -45l-16 86q-1 2 -1 7q0 14 10.5 25t27.5 11q10 0 23 -6q7 -5 14.5 -19t15.5 -34.5t18 -46t21 -52.5q-24 -24 -59 -24q-59 0 -104.5 22.5t-84.5 51.5l-30 54q-4 5 -4 16q0 14 10 26t29 12q8 0 12 -1zM1192 297v-515 l-335 184q-5 24 -8.5 46.5t-3.5 44.5q0 65 21.5 119t51 94.5t62 66t54.5 37.5zM927 334q-36 -35 -68.5 -88t-44.5 -122q-20 19 -51.5 40t-68 41t-73 37.5t-64.5 28.5q-22 8 -46.5 32t-50.5 55.5t-53 68.5t-54 71t-52.5 62.5t-48.5 43.5q-25 18 -35.5 34.5t-10.5 31.5t9 23 t25 8q31 0 58.5 -13.5t55.5 -33.5t57 -44t62 -44.5t71.5 -34t84.5 -13.5q22 0 38 8t30 22.5t27.5 34.5t30.5 45q24 36 45 58.5t41 22.5q14 0 25 -11q9 -8 13 -20t4 -27q0 -23 -7 -49.5t-16 -55.5l-4 -12q-3 -11 -3 -22q0 -19 9.5 -36t22 -36t25 -45t17.5 -61zM381 769 q-31 0 -58 12.5t-45 36.5h-73q-58 0 -110.5 23t-92.5 67q-2 4 -2 6t1 3q1 5 8 5h1045q7 0 9 -7q0 -3 -2 -7q-39 -44 -91.5 -67t-110.5 -23h-74q-18 -24 -44 -36.5t-58 -12.5h-302zM228 950q-11 0 -11 12v353q0 10 11 10h272q-11 9 -18.5 22t-7.5 29q0 14 5.5 25.5t13.5 20.5 q-4 21 -21 35.5t-40 14.5q-6 0 -11 4t-5 10t5 11t11 5q31 0 55.5 -18.5t32.5 -47.5q10 2 16 2q26 0 44 -18t18 -44q0 -16 -7 -28.5t-19 -22.5h264q10 0 10 -10v-353q0 -11 -10 -12h-608zM556 1416q-8 0 -13.5 -5t-5.5 -12t5 -12.5t14 -5.5q7 0 11.5 5.5t4.5 12.5 q1 17 -16 17zM239 1197v-118h27q2 9 12 9q9 0 12 -9h535v118h-526q0 -5 -3 -8.5t-8 -3.5t-9 3.5t-4 8.5h-36zM317 1160q-5 0 -9 3.5t-4 9.5q0 5 4 8.5t9 3.5q12 0 12 -12q0 -5 -3.5 -9t-8.5 -4zM314 1134q0 12 12 13q5 0 9 -4t4 -9t-4 -8.5t-9 -3.5t-8.5 3.5t-3.5 8.5z M350 1095q-6 0 -6 6t6 6t6 -6t-6 -6zM404 1126q-6 0 -6 6q0 7 6 7t6 -7q0 -6 -6 -6zM426 1174q-6 0 -6 6t6 6t6 -6t-6 -6zM275 1144q-6 0 -6 7q0 6 6 6q7 0 7 -6q0 -7 -7 -7zM502 1112q-6 0 -7 8q0 6 7 6q6 0 6 -6q0 -8 -6 -8zM557 1158q-6 0 -7 6q0 7 7 7q6 0 6 -7 q0 -6 -6 -6zM656 1129q-7 0 -7 6t7 6q6 0 7 -6q-1 -6 -7 -6zM629 1099q-6 0 -6 6t6 6t7 -6q-1 -6 -7 -6zM381 1158q-12 0 -12 12q0 5 3.5 9t8.5 4t9 -3.5t4 -9.5q0 -5 -4 -8.5t-9 -3.5zM441 1087q-5 0 -8.5 4t-3.5 9t3.5 8.5t8.5 3.5q12 0 13 -12q0 -5 -4 -9t-9 -4z M455 1151q-5 0 -9 3.5t-4 8.5t4 9t9 4t8.5 -4t3.5 -9q0 -12 -12 -12z" />
<glyph unicode="T" horiz-adv-x="1689" d="M1685 141q0 -29 -5.5 -67t-19.5 -77.5t-38.5 -77.5t-63 -68.5t-92 -48.5t-124.5 -18q-65 0 -117 18.5t-94 51t-75 75t-61 90.5q-95 -26 -204 -26q-116 0 -220 31t-192 85t-158 128.5t-119 159.5t-75.5 178.5t-26.5 186.5t26.5 187t75.5 179.5t119 159.5t158 128.5 t192 85.5t220 31t220.5 -31t193 -85.5t158.5 -128.5t119 -159.5t75.5 -179t26.5 -187.5q0 -83 -21 -166.5t-61 -162t-97 -148.5t-129 -126q39 -54 83.5 -90.5t90.5 -36.5q38 0 61.5 16t36.5 36t17.5 37.5t4.5 19.5h115zM791 157q65 0 121 15q-27 50 -54.5 95.5t-60.5 79 t-73 54t-90 20.5q-14 0 -23.5 -2t-16.5 -4q-8 -3 -13 -5l-42 93q25 21 61 37q31 15 78 26.5t111 11.5q112 0 205 -52t149 -150q36 78 53.5 175.5t17.5 210.5q0 132 -23.5 243t-74 191.5t-131 126t-194.5 45.5q-113 0 -193 -45.5t-131 -126t-74 -191.5t-23 -243t23 -243 t74 -191.5t131 -125.5t193 -45z" />
<glyph unicode="U" horiz-adv-x="1487" d="M1487 -78q0 -32 -23 -55t-56 -23h-1330q-32 0 -55 23t-23 55v652q0 11 5 27l3 6q2 6 3 7l665 1109q11 18 29 28t39 10t38.5 -10t27.5 -28l662 -1102l7 -14l2 -4q6 -15 6 -30v-651zM1330 495h-1173v-162h1173v162zM842 1291q0 8 -7 12q-6 8 -17 9h-150q-8 0 -17 -9 q-4 -2 -5 -6.5t-1 -6.5l11 -315q0 -6 7 -10.5t16 -4.5h128q8 0 15 4.5t8 10.5zM832 850q0 8 -7 14.5t-16 6.5h-132q-9 0 -15.5 -6.5t-6.5 -14.5v-131q0 -9 6.5 -16t15.5 -7h132q9 0 16 6.5t7 16.5v131zM1330 1v162h-1173v-162h1173z" />
<glyph unicode="V" horiz-adv-x="1768" d="M1722 1373q47 -83 47 -175q0 -93 -46.5 -175.5t-133.5 -132.5q-60 -34 -128 -44v-542q0 -22 -45.5 -41.5t-124 -34.5t-184.5 -23.5t-226 -8.5t-226.5 8.5t-185.5 23.5t-124.5 34.5t-45.5 41.5v544q-78 11 -144.5 56t-107.5 119q-24 42 -35.5 86t-11.5 88q0 93 46 176 t134 133q42 24 85.5 35t88.5 11q68 0 127 -23q32 68 85 122.5t126 89.5q46 22 93 32t95 10q62 0 121 -17t111 -49t94.5 -79.5t70.5 -106.5q1 -2 1 -3t1 -2q64 26 134 26q93 0 176 -46t133 -133zM1461 149v-174q0 -22 -45.5 -41.5t-124 -34.5t-184.5 -23.5t-226 -8.5 t-226.5 8.5t-185.5 23.5t-124.5 34.5t-45.5 41.5v174q0 -22 45.5 -42t124.5 -35t185 -23t227 -8q120 0 226 8t184.5 23t124 35t45.5 42z" />
<glyph unicode="W" horiz-adv-x="2166" d="M2046 479q48 -35 78.5 -78t41.5 -85l-48 -73q-4 0 -8.5 -0.5t-8.5 -0.5q-39 0 -83.5 16t-87.5 47q-33 24 -59.5 53.5t-41.5 60.5q-41 -53 -94 -113.5t-116 -123.5q-68 -68 -132 -124t-119.5 -96.5t-98 -63.5t-66.5 -23q-12 0 -19 7l-95 94q6 -6 19 -6q24 0 66.5 23 t98 63.5t120 96.5t132.5 123q68 68 124 133t96.5 120.5t63.5 98t23 66.5q0 12 -6 18l94 -94q6 -6 6 -19q0 -20 -19 -61q33 -5 69 -19.5t70 -39.5zM1725 813q6 -6 6 -19q0 -24 -22.5 -66.5t-63 -98t-97.5 -120.5t-124 -132q-68 -68 -132 -124t-120 -96.5t-98.5 -63 t-66.5 -22.5q-12 0 -18 6l-70 68l-777 777q-72 72 -107 160.5t-35 182.5q0 93 35.5 182t106.5 161q72 72 160 106.5t182 34.5q93 0 182 -35t161 -106q10 -10 20 -21.5t19 -22.5q3 43 21 82.5t51 72.5q36 36 82 54t94 18t94.5 -18t82.5 -54q27 -27 43 -58.5t24 -64.5 l173 -591zM993 1002l216 215l-98 98l-216 -215l-215 215l-97 -98l216 -215l-216 -216l97 -96l215 215l216 -215l98 96z" />
<glyph unicode="X" horiz-adv-x="1554" d="M1515 1753q16 0 28 -11.5t12 -27.5v-1397q0 -17 -12 -28.5t-28 -11.5h-1258q-36 0 -69 -14t-57 -38t-38 -56t-14 -68q0 -37 14 -69.5t38 -56.5t56.5 -38t69.5 -14h1258q16 0 28 -11.5t12 -27.5q0 -17 -12 -28.5t-28 -11.5h-1258q-53 0 -100 20.5t-81.5 55t-55 81.5 t-20.5 100v1396q0 53 20.5 99.5t55 81.5t81.5 55t100 20h1258zM1515 63q16 0 28 -11t12 -28t-12 -28.5t-28 -11.5h-1258q-17 0 -28.5 11.5t-11.5 28.5t11.5 28t28.5 11h1258zM1515 205q16 0 28 -11.5t12 -28.5t-12 -28t-28 -11h-1258q-17 0 -28.5 11.5t-11.5 27.5 q0 17 11.5 28.5t28.5 11.5h1258z" />
<glyph unicode="Y" horiz-adv-x="1866" d="M1456 969q-34 -41 -81 -61.5t-97 -20.5q-44 0 -84 15l-191 -244l555 -623q14 -16 20 -34.5t6 -36.5q0 -24 -10 -46.5t-30 -40.5q-32 -26 -72 -26q-24 0 -47 10t-39 31l-494 624l-491 -627q-18 -21 -42 -32t-50 -11q-21 0 -40.5 7t-36.5 21q-21 18 -32.5 43t-11.5 51 q0 21 7.5 40t21.5 36l558 621l-218 276q-31 -8 -63 -8q-41 0 -83.5 12.5t-86 35.5t-85.5 57.5t-79 78.5q-35 42 -63 89.5t-48 96t-31 96.5t-11 91q0 48 13.5 87t43.5 64q43 35 109 35q46 0 98 -16t103.5 -45.5t100 -70t89.5 -88.5q63 -76 95.5 -157.5t32.5 -154.5 q0 -30 -9.5 -57.5t-13.5 -51.5l218 -246l190 211q-33 57 -33 121q0 39 13.5 77t40.5 71l397 475q8 10 20.5 14.5t24.5 4.5q19 0 37 -12q20 -18 19 -44q0 -20 -13 -36l-253 -301l49 -41l253 302q16 20 42 19q23 0 38 -13q10 -8 14.5 -19.5t4.5 -23.5q0 -9 -3 -18.5t-10 -17.5 l-253 -301l49 -42l253 301q18 21 43 21q9 0 18.5 -3t18.5 -10q20 -17 19 -44q0 -21 -12 -36l-398 -475v0z" />
<glyph unicode="Z" horiz-adv-x="1907" d="M406 1635q-15 0 -25.5 10t-10.5 25t11 25.5t25 10.5q37 0 71 -12t62 -32.5t49 -49t31 -62.5q19 5 37 5q31 0 58.5 -12t47.5 -32.5t32 -48t12 -58.5t-12 -58t-32 -47.5t-47 -32t-59 -11.5q-31 0 -58.5 11.5t-47.5 32t-32 47.5t-12 58q0 33 13 61t35 49q-5 26 -19 48 t-33 38t-44 25.5t-52 9.5zM702 1501q-18 0 -30.5 -12t-12.5 -30t12.5 -29.5t30.5 -11.5t30 11.5t12 29.5t-12 30t-30 12zM1702 266q5 0 11 0.5t11 1.5l30 -354q0 -21 -17 -31q-10 -7 -22 -8q-9 0 -18 5l-245 120l-246 -120q-7 -4 -18 -5q-14 0 -22 8q-18 9 -17 36l30 349 q5 -1 11 -1.5t13 -0.5q12 0 27 3l74 18l50 -59q19 -21 44.5 -32t53.5 -11t53.5 11.5t42.5 31.5l51 59l75 -18q13 -3 28 -3zM1452 986q51 0 95.5 -19.5t78 -52.5t52.5 -78t19 -96t-19 -95.5t-52.5 -77.5t-78 -52.5t-95.5 -19.5t-95.5 19.5t-78 52.5t-52.5 78t-19 95 q0 51 19 96t52.5 78t78 52.5t95.5 19.5zM1901 634q6 -11 6 -25q0 -10 -2 -16q-6 -22 -28 -30l-115 -49l-10 -124q-2 -23 -21 -35q-12 -9 -29 -9q-7 0 -11 1l-121 27l-81 -94q-15 -17 -37 -16q-23 0 -38 16l-82 94l-120 -27q-4 -1 -11 -1q-17 0 -30 9q-18 14 -19 35l-12 124 l-114 49q-21 8 -27 30q-3 7 -3 16q0 12 7 25l64 106l-64 106q-7 12 -7 25q0 8 3 17q6 20 27 30l114 48l12 123q2 23 19 37q12 9 30 9q7 0 11 -1l120 -28l82 94q15 17 38 16q23 0 37 -16l81 -94l121 28q4 1 11 1q17 0 29 -9q19 -12 21 -37l10 -123l115 -48q22 -10 28 -30 q2 -4 2 -8.5v-8.5q0 -15 -6 -25l-65 -106zM1452 430q63 0 119.5 24.5t99 66.5t66.5 98.5t24 120.5q0 63 -24 120t-66.5 99t-99 66.5t-119.5 24.5q-64 0 -121 -24.5t-99 -66.5t-66.5 -98.5t-24.5 -120.5t24.5 -120.5t66.5 -98.5t99 -66.5t121 -24.5zM1078 388 q2 -22 11.5 -41.5t24.5 -34.5l-6 -72q-93 -28 -209 -42.5t-237 -14.5q-85 0 -169 7t-159 21t-139 35.5t-109 49.5v-143q0 -19 37.5 -45t110.5 -49.5t180.5 -40t247.5 -16.5q142 0 249.5 16.5t180.5 40.5l-8 -92q-91 -25 -200 -38t-222 -13q-124 0 -242.5 15t-212 44.5 t-150.5 74.5t-57 103v996q0 45 34.5 80.5t93 63.5t137.5 47t168 31q6 -42 26 -77t50 -61.5t68.5 -41.5t80.5 -15q43 0 81.5 15t68.5 41.5t50 62t26 77.5q78 -9 148.5 -25t127 -38t96.5 -50.5t57 -63.5l-7 -8l-73 18q-15 3 -28 3q-42 0 -75 -24q-23 -17 -36.5 -41t-15.5 -51 l-7 -75l-70 -30q-74 -15 -159.5 -23.5t-179.5 -8.5q-99 0 -188.5 9t-164 25.5t-132 38.5t-91.5 49v-195q0 -19 37.5 -45t110.5 -49.5t180.5 -40t247.5 -16.5q91 0 168 8t141 19l10 -18l-38 -65q-19 -30 -19 -65q0 -20 7 -39l2 -4q-65 -10 -133.5 -15t-137.5 -5 q-85 0 -169 7.5t-159 21.5t-139 35t-109 50v-144q0 -19 37.5 -44.5t110.5 -49t180.5 -40t247.5 -16.5q134 0 237 15t176 37z" />
<glyph unicode="a" horiz-adv-x="3043" d="M1386 198q-47 -6 -92.5 -23t-84.5 -53t-67 -95.5t-39 -150.5h-180q-37 0 -63 24q-22 20 -22 50v7q2 20 7 48t13 59h-608q11 87 43.5 135t75.5 70t93 25.5t97 3.5q35 0 66.5 10t55.5 27t37.5 40.5t13.5 49.5v59q39 -14 82.5 -30t83.5 -32t73 -32.5t53 -31.5q15 -10 26 -25 t21 -33q55 24 117 47.5t122 44.5v-74q0 -36 20.5 -67t55.5 -53zM447 106q16 0 26.5 11t10.5 26q0 16 -11 27t-26 11q-16 0 -27 -11t-11 -27t11 -26.5t27 -10.5zM653 106q16 0 27 11t11 26q0 16 -11 27t-27 11t-26.5 -11t-10.5 -27t10.5 -26.5t26.5 -10.5zM1586 612 q18 -28 50 -28q16 0 30.5 6.5t26.5 21.5h14q-6 -38 -33 -63.5t-68 -25.5q-27 0 -49.5 10.5t-34.5 28.5q-12 -18 -34.5 -28.5t-49.5 -10.5q-42 0 -68.5 25t-31.5 64h13q11 -15 26.5 -21.5t30.5 -6.5t28.5 6.5t21.5 21.5q5 9 14 13t18 4q19 0 32 -13q14 14 33 13q21 1 31 -17z M1198 1234q-44 7 -80 31.5t-60 64.5q-26 46 -26 98t26 98t74 73q23 14 48 20t50 6q18 0 35.5 -3.5t34.5 -9.5q18 38 47.5 69t70.5 49q25 11 51 17t52 6q70 0 131 -37.5t93 -104.5q18 8 37 11t38 3q52 0 98 -25.5t73 -73.5q14 -24 19.5 -48t5.5 -49q0 -52 -25.5 -98.5 t-74.5 -73.5q-33 -19 -71 -24v-221l-6 -87q19 -5 34.5 -26t15.5 -76q0 -26 -6 -51t-16 -46t-23.5 -36.5t-28.5 -21.5v-100q0 -24 -10.5 -46t-29.5 -37l-163 -130q-29 -23 -67 -23h-46q-37 0 -67 23l-163 130q-19 15 -29 37t-10 46v100q-15 6 -28.5 21.5t-24 36.5t-16 46 t-5.5 51q0 55 15 76t34 26l-7 87v222zM1848 823q0 9 -1.5 20t-3.5 20t-6 16t-11 7q-2 -1 -6 -6t-9 -18q-5 -12 -20 -12q-5 0 -7 1q-12 7 -12 18q0 3 2 10q0 1 3 3v92q-45 -10 -111 -16.5t-144 -6.5t-143.5 6.5t-109.5 16.5v-92l2 -3q1 -3 1 -9q0 -14 -12 -19q-2 -1 -8 -1 q-14 0 -19 12q-5 14 -9 18.5t-6 5.5q-7 0 -11 -7t-7 -16t-3.5 -20t-0.5 -20q0 -18 6 -38.5t13.5 -38t16 -29.5t13.5 -12q2 0 3 1q9 0 16 -6q6 -5 6 -15v-117q0 -31 25 -51l163 -129q18 -15 41 -14h46q22 0 42 14l162 129q25 20 25 51v117q0 9 6 15q5 5 14 5h4q4 1 13 10 t16.5 24.5t14 37t6.5 46.5zM1746 1558q-10 -6 -11 -19q0 -6 2 -9q6 -10 19 -11q6 0 10 2q26 15 54 15q7 0 13.5 -1t14.5 -3q44 -11 65 -51q14 -24 13 -53q0 -28 -13.5 -53.5t-40.5 -39.5q-10 -4 -10 -17q0 -7 3 -12q5 -10 18 -10q5 0 10 3q36 21 55.5 55.5t19.5 73.5 q0 19 -4.5 37.5t-15.5 36.5q-15 26 -37.5 43.5t-51.5 25.5q-21 6 -41 7q-38 0 -72 -20zM1085 1467q-5 -21 -5 -39q0 -38 20 -74q7 -10 17 -10q5 0 11 3q10 4 10 18q0 7 -2 10q-15 26 -14 53q0 17 4 29q5 21 18 37.5t33 26.5q26 15 53 15q28 0 53.5 -14t39.5 -41l2 -3 q2 -14 6.5 -27.5t10.5 -26.5q6 -11 18 -12q4 0 9 2q12 6 12 18q0 3 -2 9q-16 32 -15 68q0 45 23.5 84t67.5 58q31 16 66 16q27 0 54 -9q30 -11 52.5 -32t37.5 -49q5 -12 18 -13q2 0 9 2q12 7 12 20q0 2 -2 8q-18 36 -47 62t-66 40q-17 6 -33.5 8.5t-34.5 2.5q-44 0 -84 -18 q-47 -22 -75.5 -61.5t-36.5 -86.5q-42 35 -96 36q-38 0 -73 -19q-27 -15 -45 -38.5t-26 -52.5zM448 327q-38 -5 -76 -19t-69.5 -43.5t-54.5 -78t-32 -122.5h-146q-30 0 -52 20q-18 18 -18 41v6q2 20 8 51.5t16.5 64.5t27.5 63.5t40 47.5q20 15 53.5 31.5t73.5 32.5t83 32 t82 30v-59q0 -30 17.5 -55t46.5 -43zM295 1171q-35 5 -66 25.5t-49 53.5q-11 19 -16 39.5t-5 40.5q0 43 20.5 80.5t60.5 59.5q19 11 38.5 15.5t40.5 4.5q31 0 58 -10q15 31 38.5 56t57.5 41q41 19 85 18q57 0 107 -30t74 -86q29 12 62 12q43 0 79.5 -21t59.5 -61 q22 -37 22 -80t-21.5 -80t-60.5 -59q-25 -15 -57 -20v-180l-6 -70q15 -4 28 -21.5t13 -62.5q0 -21 -5 -41t-13 -37.5t-19 -29.5t-23 -18v-82q0 -41 -34 -67l-133 -106q-24 -19 -54 -19h-38q-15 0 -29 5.5t-25 13.5l-133 106q-33 27 -33 67v82q-12 5 -23 17.5t-19.5 30 t-13 37.5t-4.5 41q0 45 13 62.5t28 21.5l-5 70v181zM824 836q0 15 -3.5 33t-14.5 19q-1 -1 -4 -5t-8 -15q-5 -10 -16 -10q-4 0 -6 1q-10 5 -11 15q0 3 2 8q0 1 3 3v75q-36 -8 -90 -13.5t-117 -5.5q-64 0 -118 5t-89 14v-75q0 -1 0.5 -1.5t0.5 -1.5q2 -4 2 -8q0 -10 -10 -15 q-2 -1 -6 -1q-11 0 -17 10q-5 11 -7.5 15t-3.5 5q-11 -1 -14.5 -19t-3.5 -33q0 -7 3 -22t8 -31.5t13.5 -28.5t20.5 -14q4 0 10 -4q5 -5 5 -12v-96q0 -25 20 -41l133 -105q15 -11 33 -12h38q19 0 34 12l133 105q20 17 19 41v96q0 7 6 12q6 4 14 4q4 0 11 8t13.5 20.5 t11.5 29.5t5 38zM740 1435q-8 -5 -8 -14q0 -2 2 -9q5 -8 15 -8q4 0 8 2q19 11 42 12q12 0 25 -4q35 -9 53 -40q6 -10 8.5 -21t2.5 -23q0 -24 -11.5 -44.5t-32.5 -31.5q-8 -5 -8 -15q0 -5 2 -8q5 -8 15 -9q2 0 8 2q30 18 45.5 46t15.5 60t-15 61q-25 43 -74 57q-14 4 -31 4 q-16 0 -31.5 -4.5t-30.5 -12.5zM203 1363q-4 -16 -5 -34q0 -33 16 -59q5 -8 14 -8q5 0 9 2q8 5 8 14q0 2 -2 9q-11 21 -11 43q0 11 3 23q9 35 41 53q10 6 21 9t23 3q23 0 43.5 -11.5t32.5 -32.5l2 -3q2 -11 5 -22t8 -22q5 -10 16 -10q2 0 6 2q10 5 10 14q0 2 -2 9 q-12 26 -12 54q0 36 19.5 67.5t55.5 48.5q26 12 55 13q24 0 42 -8q50 -18 73 -66q2 -5 6.5 -7.5t10.5 -2.5q4 0 6 2q5 2 7 6.5t2 9.5q0 4 -1 6q-15 30 -38.5 51t-53.5 32q-27 9 -55 10q-36 0 -69 -16q-37 -18 -61 -49.5t-30 -69.5q-34 29 -78 29q-33 0 -60 -17 q-21 -11 -36 -29.5t-21 -42.5zM3044 125q0 -11 -4.5 -22t-13.5 -19q-22 -20 -52 -20h-787q8 -31 12.5 -59t6.5 -48v-7q0 -30 -22 -50q-11 -11 -28.5 -17.5t-34.5 -6.5h-977q14 107 53.5 166t92.5 85.5t113.5 31t118.5 4.5q44 0 83 12t68 33.5t45.5 49.5t16.5 60v74 q58 -21 120.5 -44.5t118.5 -47.5q8 18 19.5 33t26.5 25q21 15 54 31t73 34q-24 6 -41 18.5t-29 23.5q-12 14 -22 29q29 9 53 28q20 17 36.5 44.5t16.5 74.5q0 18 -3 39q-5 27 -6.5 50.5t-1.5 44.5q0 45 7.5 79t18.5 60t24 44.5t22 31.5v181q-35 5 -65.5 25.5t-49.5 53.5 q-11 19 -16 39.5t-5 40.5q0 43 21 80.5t60 59.5q19 11 39 15.5t40 4.5q31 0 59 -10q15 31 39 56t57 41q20 9 40.5 13t42.5 4q28 0 56 -7.5t52.5 -22t44 -36t30.5 -49.5q29 12 61 12q43 0 80.5 -21t59.5 -61q11 -19 16 -38.5t5 -40.5q0 -43 -20.5 -80.5t-60.5 -59.5 q-27 -15 -58 -20v-180q9 -12 21.5 -31t24 -45.5t19.5 -61.5t8 -79q0 -21 -1.5 -44t-7.5 -49q-2 -11 -3 -21.5t-1 -19.5q0 -46 16 -74t37 -44q23 -19 53 -27q-9 -16 -22 -29q-11 -11 -27.5 -23.5t-40.5 -18.5q39 -18 72.5 -34t54.5 -31q24 -18 40.5 -48t26.5 -63t16 -64.5 t8 -51.5v-6zM1385 -72q19 0 32.5 13t13.5 33q0 19 -13.5 32.5t-32.5 13.5q-20 0 -32.5 -13.5t-12.5 -32.5q0 -20 12.5 -33t32.5 -13zM1639 -72q19 0 32.5 13t13.5 33q0 19 -13.5 32.5t-32.5 13.5q-20 0 -33.5 -13.5t-13.5 -32.5q0 -20 13.5 -33t33.5 -13zM2281 664 q3 -25 10.5 -51.5t25.5 -41.5q26 -26 55 -45q24 -18 55 -31.5t61 -13.5q29 0 59 13.5t54 31.5q27 20 52 45q12 11 19.5 29t12 37.5t5.5 38t1 30.5v18q0 7 6 12q4 4 14 4q4 0 10.5 8t13.5 20.5t11.5 29.5t4.5 38q0 15 -3 33t-15 19q-1 -1 -3.5 -4.5t-7.5 -15.5 q-5 -10 -17 -10q-4 0 -6 1q-10 5 -10 15q0 3 2 8q0 1 3 3v75q-36 -8 -90 -13.5t-118 -5.5t-117.5 5t-88.5 14v-75q0 -1 0.5 -1.5t0.5 -1.5q2 -4 2 -8q0 -10 -11 -15q-2 -1 -6 -1q-12 0 -15 10q-5 11 -8 15t-5 5q-11 -1 -14.5 -19t-3.5 -33q0 -7 3.5 -22t8.5 -31.5 t13.5 -28.5t19.5 -14q6 0 10 -4q5 -5 6 -12v-60zM2668 1435q-8 -5 -8 -14q0 -2 2 -9q5 -8 15 -8q3 0 8 2q19 11 42 12q12 0 25 -4q33 -9 53 -40q11 -21 12 -44q0 -24 -11.5 -44t-33.5 -32q-8 -5 -8 -15q0 -5 2 -8q5 -8 14 -9q2 0 8 2q30 18 46 46t16 60t-16 61 q-25 43 -74 57q-14 4 -31 4q-16 0 -31 -4.5t-30 -12.5zM2204 1406q10 6 21 9t22 3q23 0 44 -11.5t32 -32.5l2 -3q3 -21 14 -44q5 -10 15 -10q3 0 8 2q9 4 9 14q0 2 -2 9q-12 26 -13 54q0 36 20 67.5t55 48.5q26 12 55 13q24 0 43 -8q50 -18 73 -66q2 -5 6.5 -7.5t9.5 -2.5 q4 0 6 2q10 5 11 15q0 3 -2 7q-29 61 -93 83q-27 9 -55 10q-36 0 -68 -16q-37 -18 -60.5 -49.5t-31.5 -69.5q-34 29 -78 29q-33 0 -60 -17q-21 -11 -36 -30t-21 -42q-2 -8 -3 -16t-1 -17q0 -32 15 -60q5 -8 15 -8q6 0 8 2q8 5 9 14q0 5 -2 9q-11 21 -12 43q0 11 3 23 q10 35 42 53zM2374 106q16 0 26.5 11t10.5 26q0 16 -10.5 27t-26.5 11t-26.5 -11t-10.5 -27t10.5 -26.5t26.5 -10.5zM2581 106q16 0 26.5 11t10.5 26q0 16 -11 27t-26 11q-16 0 -27 -11t-11 -27t11 -26.5t27 -10.5zM2660 527l-36 -27t-43 -27.5t-47 -21t-46 -8.5 q-23 0 -46.5 8.5t-47 20.5t-45 26.5t-36.5 27.5v-101q0 -30 16.5 -55t46.5 -43q-33 -4 -64.5 -14.5t-60.5 -31.5t-52 -54t-39 -83q6 -15 11 -29.5t10 -29.5q14 80 46.5 123t74.5 63.5t90.5 23.5t93.5 3q35 0 67 10t56 27t37.5 40.5t13.5 49.5v102z" />
<glyph unicode="b" horiz-adv-x="1478" d="M242 495v-148l427 -142l428 142v148l-428 -141zM447 1153q49 0 85 -30t45 -77q-20 -18 -31 -43t-11 -54q0 -28 10.5 -52t28.5 -42t42 -28.5t52 -10.5t52 10.5t42 28.5t28.5 42t10.5 52q0 27 -10.5 51.5t-28.5 42.5t-42 28.5t-52 10.5q-16 0 -33 -5q-9 30 -27.5 55.5 t-43 44t-54.5 29t-63 10.5q-14 0 -23.5 -9.5t-9.5 -22.5q0 -14 9.5 -22.5t23.5 -8.5zM708 1034q16 0 27 -10.5t11 -26.5t-11 -26.5t-27 -10.5q-15 0 -26 10.5t-11 26.5t11 26.5t26 10.5zM843 878q-21 -53 -68 -86t-107 -33q-59 0 -107 33t-69 85l-250 -84v-148l427 -142 l428 142v148zM430 1674v-188q0 -30 -20.5 -51t-50.5 -21t-50.5 21t-20.5 51v188q0 30 20.5 50.5t50.5 20.5t50.5 -20.5t20.5 -50.5zM967 1745q-30 0 -51 -20.5t-21 -50.5v-188q0 -30 21 -51t51 -21t50.5 21t20.5 51v188q0 30 -20.5 50.5t-50.5 20.5zM1206 1534h-107v-48 q0 -27 -10.5 -51.5t-28.5 -42t-42 -28t-51 -10.5t-51.5 10.5t-42 28t-28 42t-10.5 51.5v48h-344v-48q0 -27 -10.5 -51.5t-28.5 -42t-42 -28t-51 -10.5t-51 10.5t-42 28t-28.5 42t-10.5 51.5v48h-107q-25 0 -46.5 -9.5t-38 -25.5t-26 -38.5t-9.5 -47.5v-1275q0 -25 9.5 -46.5 t26 -38.5t38.5 -26t46 -9h1086q25 0 46.5 9t38.5 26t26 38.5t9 46.5v1275q0 25 -9 47.5t-26 38.5t-38.5 25.5t-46.5 9.5zM1235 138q0 -12 -9 -20.5t-20 -8.5h-1086q-11 0 -20 8.5t-9 20.5v914h414l3 5q-10 16 -26.5 25.5t-34.5 9.5q-39 0 -66.5 27t-27.5 65t27 65.5t67 27.5 q72 0 132.5 -36t93.5 -99q50 -2 91.5 -26t67.5 -64h403v-914zM1402 1413v-1275q0 -41 -15.5 -76.5t-42 -62.5t-62.5 -42.5t-76 -15.5h-1086q0 -31 22.5 -53.5t54.5 -22.5h1009q56 0 106 21.5t87 58.5t58.5 87t21.5 106v1200q0 31 -22.5 53t-54.5 22z" />
<glyph unicode="c" d="M1758 819q12 0 21 -8.5t9 -21.5q0 -11 -7 -20.5t-21 -9.5h-2l-287 11q-5 -18 -20.5 -29t-34.5 -11h-149q-14 0 -13 15q0 15 13 14h92v16h-92q-14 0 -13 14q0 14 13 14h92v16h-92q-14 0 -13 14q0 15 13 14h149q20 0 34.5 -10.5t20.5 -28.5zM373 730q-20 0 -34.5 11 t-20.5 29l-288 -11q-12 0 -21 9t-9 21q0 11 7.5 20.5t20.5 9.5h2l288 -11q6 18 20.5 28.5t34.5 10.5h148q14 0 14 -14t-14 -14h-91v-16h90q15 0 15 -14q0 -15 -14 -14h-91v-16h90q15 0 15 -14q0 -15 -15 -15h-147zM1180 993q-4 -4 -11 -4q-6 0 -9 4q-4 4 -4 10t4 11l64 64 l-10 11l-65 -65q-4 -4 -11 -4q-6 0 -9 4q-4 4 -4 10t4 11l64 64l-11 12l-65 -65q-5 -5 -10 -5q-6 0 -9 5q-5 3 -5 10q0 5 5 10l105 105q17 17 41 16q15 0 25 -5l195 211q10 8 22 8q10 0 21 -8q9 -9 9 -22q0 -14 -9 -21l-211 -196q6 -12 6 -26q0 -23 -17 -40zM607 1121 l-12 -12l64 -64q4 -4 5 -11q0 -6 -5 -10q-4 -4 -10 -4t-9 4l-65 65l-11 -11l64 -64q4 -6 4 -11q0 -4 -4 -10q-4 -4 -10 -4t-9 4l-105 105q-18 18 -18 40q0 14 6 26l-211 196q-8 7 -8 21t8 22t21 8q11 0 22 -8l195 -211q10 5 25 5q25 0 42 -16l105 -105q4 -6 4 -10 q0 -5 -4 -10q-5 -5 -11 -5t-9 5zM590 440q4 4 9 4q4 0 11 -4q4 -6 4 -10t-4 -10l-105 -104q-18 -18 -41 -18q-14 0 -26 6l-196 -211q-9 -9 -21 -9t-22 9q-8 7 -8 21t8 22l212 195q-6 12 -6 26q0 24 17 41l105 105q6 4 10 4t10 -4q4 -6 4 -11t-4 -9l-65 -66l11 -10l65 64 q6 4 10 5q4 0 10 -5q4 -6 5 -10q0 -5 -5 -9l-64 -66l10 -10zM1589 136q8 -10 8 -22t-8 -21q-9 -9 -22 -9q-14 0 -21 9l-196 211q-10 -5 -25 -5q-11 0 -22 4t-19 13l-105 104q-4 4 -4 10t4 10q6 4 10 4t11 -4l64 -64l11 10l-65 66q-4 3 -4 9t4 10q6 4 10 5q4 0 11 -5l64 -64 l11 10l-65 66q-4 3 -4 9t4 11q6 4 10 4t11 -4l105 -105q17 -17 16 -42q0 -15 -5 -25zM939 372q14 0 13 -15v-147q0 -20 -10 -34.5t-28 -20.5l10 -288q0 -12 -8.5 -21t-21.5 -9q-11 0 -20.5 7t-9.5 21v2l10 288q-17 6 -27.5 20.5t-10.5 34.5v148q0 14 14 14q15 0 14 -14v-91 h16v90q0 15 14 15q15 0 15 -14v-91h15v90q0 15 15 15zM850 1187q-14 0 -14 15v148q0 19 11 34t27 21l-10 288q0 12 9 21t21 9q11 0 20.5 -7.5t9.5 -20.5v-2l-10 -288q18 -6 28 -21t10 -34v-148q0 -15 -13 -15q-15 0 -15 15v91h-15v-91q0 -15 -15 -15t-14 15v91h-16v-91 q1 -15 -14 -15zM1112 726q3 -6 3 -10v-228q0 -16 -15 -15h-411q-6 0 -11 4t-5 11v231q0 2 2 4l123 218q17 -3 25 -19l-108 -191h360l-177 325l-36 -63q-12 10 -26 16l49 87q3 7 13 7q9 0 14 -7zM1084 569h-380v-66h380v66zM1084 700h-380v-65h380v65zM786 967q-6 0 -10.5 4 t-4.5 11q0 6 4.5 11t10.5 5q32 0 57.5 -19t34.5 -50q5 2 16 3q27 0 46 -19t19 -46t-19 -45.5t-46 -18.5t-45.5 18.5t-18.5 45.5q0 28 20 48q-5 22 -22.5 37t-41.5 15zM914 909q-8 0 -13.5 -5.5t-5.5 -12.5q0 -8 5.5 -13.5t13.5 -5.5q7 0 12.5 5.5t5.5 13.5q0 7 -5.5 12.5 t-12.5 5.5z" />
<glyph unicode="d" horiz-adv-x="1703" d="M847 61q116 0 218 8.5t178 22.5t120 32.5t44 40.5v-122q0 -22 -44 -41t-120 -33t-177.5 -22t-218.5 -8q-115 0 -216.5 8t-177.5 22t-120 33t-44 41v122q0 -22 44 -40.5t120 -32.5t177.5 -22.5t216.5 -8.5zM1659 1389q45 -79 44 -168q0 -45 -11.5 -88t-33.5 -81.5 t-54.5 -71.5t-73.5 -57q-29 -17 -60.5 -26.5t-62.5 -13.5v-622q0 -22 -44 -41t-120 -33t-177.5 -22t-218.5 -8q-115 0 -216.5 8t-177.5 22t-120 33t-44 41v622q-75 11 -140 54t-104 115q-23 39 -34 82t-11 86q0 45 11.5 88t33 81.5t54 70.5t73.5 56q39 23 82 34t87 11 q62 0 122 -23q30 65 81.5 118t122.5 87q87 41 179 40q59 0 116.5 -16.5t108 -47.5t91.5 -76.5t68 -102.5q2 -2 2 -5q62 26 130 26q45 0 87.5 -11.5t81 -33.5t71.5 -53.5t57 -73.5zM869 521h-121v-151h121v151zM1098 880q8 28 8 62q0 56 -21 98q-10 21 -23 37.5t-29 29.5 q-34 28 -73 40q-43 11 -82 11q-37 0 -72 -9q-34 -9 -66 -27q-15 -9 -28.5 -20.5t-25.5 -24.5q-24 -27 -37 -60l96 -67q4 8 9 15t11 15q12 17 29 29q18 14 36 21q20 8 43 9q19 0 40 -7q19 -6 33 -17q12 -11 23 -30q8 -16 8 -41q0 -31 -15 -54q-16 -24 -39 -42 q-11 -8 -23 -15.5t-25 -14.5q-11 -6 -21.5 -11.5t-18.5 -10.5q-54 -31 -72 -74q-18 -42 -17 -97h120q0 26 12 47q5 9 12.5 17.5t16.5 16.5q9 7 19 14t21 12q11 6 21.5 12.5t22.5 13.5q25 15 47 33q21 18 36 40q17 23 24 49zM1141 1459q20 9 20 32q0 7 -3 16q-29 62 -79 108 t-115 68q-59 21 -118 21q-75 0 -146 -33q-80 -37 -129.5 -105t-62.5 -149q-35 30 -78 45.5t-89 15.5q-66 0 -127 -33q-46 -26 -76.5 -66t-45.5 -90q-9 -34 -9 -69q0 -69 34 -127q5 -8 13.5 -13t18.5 -5q9 0 17 4q18 11 18 31q0 9 -5 18q-24 45 -24 92q0 25 6 49 q21 75 88 113q44 25 92 25q49 0 92.5 -24.5t69.5 -69.5l4 -7q4 -24 10.5 -47t18.5 -46q10 -21 32 -21q5 0 16 4q20 9 19 33q0 7 -3 15q-26 55 -26 115q0 77 41 144.5t116 103.5q57 27 116 27q24 0 46.5 -4.5t45.5 -12.5q52 -19 91.5 -54.5t63.5 -85.5q9 -21 32 -21q7 0 15 3 zM1489 996q62 36 96.5 97t34.5 128q0 65 -34 127q-26 45 -66 76t-90 44q-34 9 -68 10q-66 0 -127 -33q-19 -11 -19 -32q0 -9 5 -17q10 -19 30 -19q9 0 18 5q42 25 93 25q12 0 24.5 -2t24.5 -5q36 -10 65.5 -32.5t47.5 -54.5q25 -44 24 -93q0 -49 -24 -92.5t-70 -69.5 q-18 -11 -18 -31q0 -9 4 -18q5 -8 13.5 -12.5t18.5 -4.5t17 4z" />
<glyph unicode="e" horiz-adv-x="3734" d="M3389 396q-16 -21 -24.5 -45.5t-8.5 -51.5t8.5 -52t24.5 -46h-234q-21 0 -38.5 8t-30.5 21t-21 30.5t-8 38.5q0 20 8 37.5t21 30.5t30.5 21t38.5 8h234zM3558 396q20 0 37.5 -7.5t30.5 -21t21 -31t8 -37.5q0 -21 -8 -38.5t-21 -30.5t-30.5 -21t-37.5 -8q-21 0 -38.5 8 t-30.5 21t-21 30.5t-8 38.5q0 20 8 37.5t21 30.5t30.5 21t38.5 8zM2986 394q-16 -21 -24.5 -45.5t-8.5 -51.5q0 -28 8.5 -52.5t24.5 -45.5h-1209q-114 0 -213 -23t-190 -57.5t-180.5 -75.5t-186 -75t-204.5 -57.5t-237 -23.5q-99 0 -199.5 28.5t-182 82t-133 129.5 t-51.5 170q0 95 51.5 170.5t133 129t182 82t199.5 28.5q129 0 237 -23t204.5 -58t186 -75.5t180.5 -75.5t190 -58t213 -23h1209zM901 63q116 39 181 101.5t65 133.5q0 59 -44.5 111t-120 91t-178 61.5t-217.5 22.5q-47 0 -94 -7.5t-91.5 -20.5t-84 -32t-70.5 -43 q-8 -6 -8 -17q0 -6 2 -9q5 -11 19 -12q4 0 6 1q45 15 91 22t92 7q105 0 199 -19.5t165 -52.5t112.5 -77.5t41.5 -93.5q0 -22 -8 -41t-20 -35.5t-27 -30t-29 -23.5q-9 -6 -10 -18q0 -3 2 -9q7 -10 19 -11q5 0 7 1zM3734 1265q0 -5 0.5 -9.5t0.5 -7.5q0 -4 -0.5 -8t-0.5 -9 q-3 -96 -35.5 -173.5t-90 -132.5t-137.5 -84.5t-178 -29.5q-59 0 -149 12.5t-197 34.5t-223 51.5t-228 63.5t-211 71t-171 75l-143 73q-16 -30 -44 -48.5t-64 -18.5h-1650q-26 0 -48.5 9.5t-39 26.5t-26.5 39t-10 48q0 25 10 47.5t26.5 39t39.5 26.5t48 10h1650q36 0 65 -19 t43 -49q36 18 71.5 36.5t71.5 37.5q72 37 171 75t210.5 72.5t228 63.5t223.5 50.5t197 34t149 12.5q98 0 178 -30t137.5 -85t90 -132t35.5 -173zM217 1181q28 0 47.5 19.5t19.5 47.5q0 27 -19.5 47t-47.5 20t-47.5 -20t-19.5 -47q0 -28 19.5 -47.5t47.5 -19.5zM3293 1592 q-47 0 -123.5 -9t-170.5 -25.5t-198 -38.5t-202.5 -48.5t-186 -57t-147.5 -61.5q60 11 146.5 22t184.5 20.5t201.5 17.5t198 13.5t172 8.5t125.5 3q119 0 197.5 -14t128.5 -36q-34 98 -117 151.5t-209 53.5zM3293 904q126 0 209 53t117 151q-50 -22 -128 -36t-198 -14 q-48 0 -125.5 3.5t-172 9t-198 13.5t-201.5 17t-184.5 20t-146.5 22q60 -31 147.5 -61t186 -56.5t202.5 -49t198 -39t170.5 -25t123.5 -8.5zM3293 1151q96 0 162.5 9.5t108 24.5t60 32t18.5 31t-18.5 31t-60 31.5t-108 24.5t-162.5 10q-51 0 -132.5 -3.5t-180 -10.5 t-207 -16t-212 -19.5t-195.5 -22.5t-156 -25q64 -12 156 -24.5t195.5 -23.5t212 -20t207 -15.5t180 -10t132.5 -3.5z" />
<glyph unicode="f" horiz-adv-x="4031" d="M882 621h178v-246h-178v-327h-273v327h-609v244l694 873h188v-871zM640 1081l-365 -460h365v460zM4032 621v-246h-179v-327h-273v327h-609v244l694 873h188v-871h179zM3610 1081l-365 -460h365v460zM2774 942q30 0 57 -11.5t47.5 -31.5t31.5 -46.5t11 -56.5t-11 -57 t-30.5 -46.5t-46 -31.5t-56.5 -13q42 -18 65 -54.5t23 -80.5q0 -30 -10 -55q-18 -44 -55 -67t-81 -23q-30 0 -55 10q-5 2 -9.5 4t-8.5 5l8 -6t7 -7q21 -22 31.5 -49t10.5 -55t-10.5 -55t-31.5 -49q-21 -21 -48 -31.5t-55 -10.5q-58 0 -103 41q10 -25 10 -55q0 -44 -23 -80.5 t-66 -54.5q-29 -11 -56 -11q-44 0 -81 23.5t-55 66.5q-5 9 -6 19q1 -5 1 -10v-10q0 -30 -11.5 -57t-31 -47t-46.5 -31t-58 -11q-30 0 -56.5 11t-46 30.5t-31 45.5t-12.5 56q-18 -42 -54.5 -65t-80.5 -23q-27 0 -55 11q-43 18 -67 54.5t-24 80.5q0 27 11 56q2 5 4 9t4 9 l-12 -16q-22 -21 -49 -31.5t-55 -10.5t-55 10.5t-48 31.5q-22 22 -32.5 49.5t-10.5 55.5q0 27 9.5 53.5t30.5 47.5q-25 -10 -53 -11q-44 0 -81 24t-55 67q-11 29 -11 56q0 44 23.5 81t66.5 55l19 6q-5 -1 -10 -1.5t-10 -0.5q-30 0 -57 11.5t-47 31.5t-31.5 47t-11.5 58 q0 29 11 55.5t31 46t46 31.5t56 12q-42 18 -65 55t-23 81q0 30 10 55q18 44 55.5 67t81.5 23q30 0 55 -10l17 -8q-8 6 -15 12q-22 21 -32 48t-10 55t10 55t32 49t49 32.5t55 10.5q57 0 102 -41q-10 25 -11 54q0 44 24 80.5t66 54.5q15 6 28.5 8.5t28.5 2.5q44 0 80.5 -23 t54.5 -66q4 -9 6 -19q-1 5 -1 10v10q0 30 11.5 56.5t31 47t46.5 31.5t57 11t57 -11t46.5 -30.5t31.5 -46t12 -55.5q18 42 55 65t80 23q27 0 55 -11q44 -18 67.5 -55t23.5 -81q0 -30 -10 -55l-9 -18l12 15q21 21 48.5 31.5t55.5 10.5t55 -10.5t49 -31.5t32.5 -48t10.5 -55 q0 -27 -10 -54t-31 -48q25 10 53 11q44 0 81 -24t55 -67q11 -29 11 -56q0 -44 -24 -81t-66 -55l-18 -6q5 1 9.5 1.5t9.5 0.5zM2781 719q18 0 34.5 8t30 22.5t21.5 34t8 41.5v9l-2 20l-19 -8q-9 -3 -18 -3q-12 0 -24 7t-24 7q-15 5 -30.5 10.5t-34.5 5.5q-29 0 -54.5 -21 t-34.5 -64l-6 1v7q0 51 31 89.5t78 51.5q-5 -1 -15 -1q-30 0 -55 16t-37 46q-12 28 -13 49q0 23 10 38t24 21q12 5 26.5 6t28.5 1q16 0 33 1.5t34 10.5q2 -8 2 -15q0 -24 -16 -50t-46 -43q2 -2 6 -3q6 -3 15 -4q9 0 18 5q24 10 39 35.5t15 55.5q0 26 -12 50l-10 19l-14 -15 q-11 -11 -27 -13.5t-33 -3.5h-5q-15 0 -31.5 -1t-34.5 -8q-23 -9 -37 -31.5t-14 -55.5v-12.5t2 -13.5l-6 -1q-2 4 -2 5q-11 26 -12 56q0 29 11 55.5t31 47.5q-18 -6 -34 -6q-19 0 -37 7.5t-33 23.5q-19 19 -27 37t-8 33q0 23 14 38q10 10 22.5 16.5t25.5 11.5q15 6 31 14 t27 22q12 -18 13 -45q0 -19 -6.5 -39.5t-20.5 -38.5h5q5 0 14 2t18 11q23 23 23 61q0 23 -9.5 46t-28.5 40l-16 13l-8 -19q-3 -5 -10 -12t-15 -13.5t-16 -10.5t-14 -4q-1 -1 -2.5 -1t-3.5 -1q-14 -5 -26.5 -12.5t-24.5 -18.5q-11 -11 -17 -26.5t-6 -33.5q0 -15 4.5 -31 t15.5 -33l-5 -3q-1 1 -1.5 2t-2.5 2q-21 21 -32 48t-11 55q0 41 20 74q-32 -41 -80 -41q-21 0 -38 7q-35 15 -50.5 35t-15.5 39q0 8 5 19q5 14 13.5 23.5t19.5 21.5q11 11 22 24t17 31q17 -10 28 -32.5t11 -51.5q0 -15 -6 -35q6 0 12 4q11 5 19 22q5 10 5 28q0 16 -5.5 31.5 t-15 29.5t-24 25t-32.5 16l-20 6v-21q0 -17 -9.5 -29.5t-23.5 -27.5q-11 -11 -22 -23.5t-19 -29.5q-6 -15 -6 -30q0 -23 12.5 -45t38.5 -40l-3 -5l-5 2q-43 18 -67 54t-25 80q-12 -27 -35.5 -41.5t-54.5 -14.5q-47 0 -69 19.5t-22 41.5q0 11 3 22.5t8 23.5q0 1 0.5 1.5 t0.5 1.5l2 5q5 14 10.5 28.5t5.5 30.5v8q26 -5 48.5 -32t28.5 -66q4 3 8 8q3 5 5.5 11.5t2.5 15.5q0 18 -8 34.5t-22.5 30t-34 21.5t-41.5 8h-8l-21 -2l7 -19q2 -5 3.5 -9.5t1.5 -9.5q0 -10 -3.5 -20t-8.5 -21q0 -2 -1 -2.5t-1 -2.5q-6 -15 -11 -31t-5 -35q0 -28 21 -54 t64 -34l-2 -6h-6q-51 0 -89.5 30.5t-51.5 77.5q0 -3 0.5 -7t0.5 -7q0 -31 -16 -56t-46 -37q-29 -11 -50 -12q-23 0 -38 9.5t-20 23.5q-5 12 -6 26.5t-1 28.5q0 17 -2.5 34t-10.5 33q10 2 16 2q24 0 50 -15.5t43 -45.5l3 6q1 3 2 6.5t1 9.5q0 9 -4 17q-10 24 -36 38.5 t-56 14.5q-12 0 -25.5 -2.5t-24.5 -8.5l-18 -11l14 -14q12 -12 14 -28.5t2 -35.5q0 -16 2 -32.5t9 -33.5q9 -23 31.5 -37.5t54.5 -14.5h12.5t13.5 2l1 -6l-4 -2q-29 -11 -56 -12q-29 0 -56 11t-48 31q6 -18 6 -34q0 -39 -30 -70q-20 -19 -38 -27t-34 -8q-23 0 -37 14 q-9 10 -15.5 22.5t-11.5 26.5q-6 15 -14 30.5t-22 26.5q17 12 45 13q19 0 39.5 -6.5t37.5 -20.5v2q0 1 0.5 2t0.5 3q0 5 -2.5 13.5t-10.5 16.5q-11 11 -28 17t-35 6q-23 0 -45 -9.5t-39 -28.5l-13 -16l19 -8q16 -7 23.5 -21.5t15.5 -31.5q5 -15 13 -30t21 -27q22 -24 58 -24 q15 0 31.5 4.5t33.5 15.5l3 -6l-3 -3q-21 -22 -48 -32.5t-55 -10.5q-19 0 -37.5 4.5t-36.5 14.5q41 -32 41 -78q0 -19 -9 -40q-15 -34 -35 -49.5t-38 -15.5q-9 0 -19 4q-12 5 -22.5 13.5t-21.5 19.5t-24.5 22.5t-31.5 16.5q11 18 34 28.5t51 10.5q19 0 35 -4q-1 6 -4 11 t-8.5 9t-13.5 9q-11 5 -29 5q-16 0 -31.5 -5.5t-29 -15t-24.5 -23.5t-16 -32l-6 -20h21q18 -1 30 -10.5t26 -23.5q11 -11 23.5 -21.5t30.5 -17.5q14 -6 29 -7q22 0 45 12.5t41 38.5l5 -4q-2 -2 -2 -5q-18 -42 -54 -65.5t-80 -25.5q26 -12 41 -36t15 -54q0 -48 -19.5 -69.5 t-42.5 -21.5q-15 0 -27.5 4t-25.5 9q-1 0 -1.5 0.5t-1.5 0.5l-28 10t-28 5h-8q4 26 30.5 48.5t66.5 28.5l-8 8q-5 3 -11.5 6t-15.5 3q-20 0 -36.5 -9t-29 -24t-20 -34t-7.5 -39l1 -30l20 8q9 3 18 3q10 0 21 -3.5t22 -8.5q1 0 1.5 -0.5t1.5 -0.5l31.5 -10.5t34.5 -5.5 q29 0 54.5 21t34.5 64l6 -2v-4q0 -52 -30.5 -91t-78.5 -52q5 1 16 1q31 0 55.5 -16t36.5 -45q11 -29 12 -50q0 -23 -9.5 -38.5t-24.5 -20.5q-14 -5 -27 -6t-28 -1q-17 0 -33.5 -1.5t-33.5 -10.5q-1 3 -1 7v7q0 24 15.5 50.5t45.5 43.5q-3 1 -6 3q-3 1 -6 2.5t-9 1.5 q-10 0 -18 -5q-24 -10 -39 -35.5t-15 -55.5q0 -27 12 -50l10 -19l14 15q12 11 29 13.5t35 2.5q16 0 32.5 1.5t34.5 8.5q22 9 37 31.5t15 54.5q0 12 -3 27h7l2 -4q11 -29 11 -56q0 -29 -10.5 -55.5t-30.5 -47.5q8 3 16 4t16 1q19 0 37 -7t34 -22q20 -20 27.5 -38t7.5 -33 q0 -23 -14 -38q-9 -10 -22 -16l-26 -12q-15 -6 -30.5 -14t-26.5 -22q-14 20 -14 46q0 19 7 39.5t21 37.5h-5q-5 0 -14 -2t-18 -11q-11 -11 -17 -28t-6 -34q0 -23 9.5 -45.5t28.5 -39.5l15 -13l9 19q6 12 23.5 26t31.5 14q15 6 29.5 14t25.5 19q24 24 24 60q0 32 -21 63l6 4 q1 -2 2 -2.5t2 -1.5q21 -21 31.5 -48t10.5 -55q0 -41 -19 -74q32 41 79 41q19 0 40 -8q34 -15 49 -34.5t15 -38.5q0 -8 -4 -19q-5 -14 -14 -23.5t-19 -21.5l-3 -3q-10 -11 -20 -23t-15 -30q-18 11 -28.5 33.5t-10.5 51.5q0 20 4 35q-6 -1 -11 -4t-10.5 -8.5t-8.5 -13.5 q-5 -14 -5 -28q0 -30 20.5 -60.5t56.5 -41.5l20 -6v21q1 18 10 30t23 26l12 16q8 8 16 17.5t12 21.5q6 14 7 29q0 22 -12.5 44.5t-38.5 40.5l3 5l5 -2q43 -18 66.5 -54t24.5 -80q12 27 36 41.5t55 14.5q47 0 69 -19.5t22 -42.5q0 -14 -4.5 -27t-9.5 -26q-5 -14 -10 -29 t-5 -30v-8q-26 5 -49 32t-28 66q-5 -4 -9 -9q-3 -5 -5.5 -11.5t-2.5 -15.5q0 -20 9 -36.5t24 -29t34 -20t39 -7.5l29 1l-8 20q-3 9 -3 19q0 11 4.5 22.5t9.5 23.5q5 15 10 31t5 34q0 29 -21 55t-63 34l1 6q2 0 2.5 0.5t2.5 0.5q51 0 90 -31t52 -78q0 3 -0.5 7t-0.5 7 q0 31 16 56t46 37q15 6 27 9t24 3q23 0 37.5 -9.5t19.5 -23.5t6 -27.5t2 -27.5q0 -17 1.5 -34t10.5 -33q-10 -2 -16 -2q-24 0 -49.5 15.5t-42.5 45.5q-2 -2 -3 -6q-3 -6 -4 -17q0 -7 4 -16q10 -24 35.5 -38.5t55.5 -14.5q26 0 51 12l17 10l-13 14q-11 12 -14 28.5t-3 35.5 q0 16 -1 32.5t-8 33.5q-10 23 -32.5 37.5t-55.5 14.5h-12.5t-12.5 -2l-1 6l5 2q14 6 28 9t28 3q29 0 55.5 -11t47.5 -31q-6 17 -6 34q0 39 30 70q20 19 38 27t33 8q23 0 38 -14q9 -10 15.5 -22.5t11.5 -26.5q7 -15 14.5 -30.5t21.5 -26.5q-18 -12 -46 -13q-19 0 -39 6.5 t-37 20.5q-1 -1 -1 -2v-5q0 -5 2.5 -13.5t10.5 -16.5q11 -11 28 -17t34 -6q23 0 45.5 9.5t40.5 28.5l13 16l-20 8q-6 3 -12.5 9.5t-13 14t-10 16t-3.5 15.5q-6 15 -14 29.5t-20 25.5q-21 24 -59 24q-15 0 -31 -4.5t-33 -15.5l-3 6l3 3q21 21 48.5 31.5t55.5 10.5 q41 0 74 -19q-41 32 -41 81q0 20 7 38q15 34 35 49.5t39 15.5q9 0 19 -4q12 -5 22.5 -13.5t20.5 -19.5q11 -11 25 -22.5t32 -16.5q-11 -18 -34 -28.5t-52 -10.5q-19 0 -34 4q1 -6 5 -11q3 -5 8.5 -10t13.5 -8q11 -5 29 -5q30 0 59 20t41 56l6 20h-20q-18 1 -30.5 11 t-26.5 23q-11 11 -23.5 21.5t-30.5 17.5q-15 6 -30 7q-22 0 -44 -12t-40 -39l-5 4q0 2 2 4q18 43 53.5 66.5t79.5 25.5q-26 12 -41 36t-15 54q0 48 19.5 69.5t42.5 21.5q11 0 22.5 -3t23.5 -8q1 0 1.5 -0.5t1.5 -0.5l11 -4q12 -5 25 -9t27 -4h7q-4 -26 -30.5 -48.5 t-65.5 -28.5q3 -5 8 -9q4 -3 11 -5.5t16 -2.5zM2225 883q10 -1 19 -6.5t16 -11.5q8 -7 14 -17q-21 -19 -49 -18h-8q18 -15 28.5 -33.5t10.5 -41.5q0 -25 -14 -52q-10 -20 -30 -35.5t-42 -26.5t-43.5 -16.5t-35.5 -5.5q-11 0 -16 3q-11 5 -22.5 33t-16.5 63 q-14 -27 -28.5 -45t-24.5 -21q-2 -1 -9 -1q-17 0 -45 11.5t-57.5 31t-54 46.5t-34.5 59q-7 25 -7 48q0 38 18.5 65.5t52.5 45.5q-44 5 -71 38q9 9 21 17q9 6 21 11t25 5h7q10 -2 17 -7q2 5 5 8.5t6 7.5q11 10 26 13t28 3q5 0 9.5 -0.5t7.5 -0.5q4 -1 8 -1q-2 -42 -36 -72 q5 1 9.5 1h9.5q41 0 74 -22t49 -73q4 -11 5 -24.5t1 -26.5q27 27 63 27q15 0 33 -5q-8 11 -12.5 23t-4.5 26q0 2 0.5 4.5t0.5 4.5q10 0 22 -3q8 -2 18 -6.5t16 -12.5q5 -6 6 -13q7 3 14 3zM1879 755q9 3 9 18q0 4 -2 12t-8.5 14.5t-11.5 6.5q-1 0 -1.5 -0.5t-1.5 -0.5 q-10 -2 -10 -19q0 -4 2 -10q2 -9 7.5 -15.5t12.5 -6.5q1 0 2 0.5t2 0.5zM1904 870q7 2 9.5 7.5t2.5 11.5q0 3 -0.5 5.5t-1.5 5.5q-2 8 -8.5 14.5t-11.5 6.5q-1 0 -1.5 -0.5t-1.5 -0.5q-10 -2 -10 -18q0 -3 0.5 -5.5t1.5 -5.5q6 -21 21 -21zM1947 833q2 -8 8.5 -14.5 t11.5 -6.5q1 0 1.5 0.5t1.5 0.5q10 2 10 18q0 3 -0.5 5.5t-1.5 5.5q-3 9 -8.5 15.5t-11.5 6.5q-1 0 -1.5 -0.5t-1.5 -0.5q-9 -3 -10 -18q0 -4 2 -12zM1989 725q9 1 9 18q0 4 -2 12t-8 14.5t-12 6.5q-1 0 -1.5 -0.5t-1.5 -0.5q-9 -2 -9 -18q0 -8 2 -12q2 -8 8 -14.5t12 -6.5 q1 0 1.5 0.5t1.5 0.5zM1996 890q10 2 10 18q0 4 -2 12t-7.5 14.5t-11.5 6.5q-1 0 -2 -0.5t-3 -0.5q-9 -3 -9 -18q0 -4 2 -12t8.5 -14.5t11.5 -6.5q1 0 1.5 0.5t1.5 0.5zM2005 824q6 -21 23 -21q10 3 11 18q0 3 -0.5 6t-1.5 6q-7 21 -24 21q-5 -2 -7.5 -7.5t-2.5 -11.5 q0 -3 0.5 -5.5t1.5 -5.5zM2095 744q3 6 3 12q0 8 -5 11q-1 1 -4 2q-9 0 -16 -14q-3 -6 -3 -12q0 -7 4 -11q1 -1 4 -1q10 1 17 13zM2137 669q3 6 3 12q0 8 -5 11q-1 1 -4 1q-8 0 -15 -13q-3 -6 -4 -12q0 -7 5 -11q1 -1 4 -1q9 1 16 13zM2149 802q-3 -6 -3 -13t5 -10 q1 -1 4 -1q8 0 16 12q3 6 3 13t-4 10q-1 1 -5 1q-9 0 -16 -12zM2154 713q1 -1 3 -1q5 0 10 4.5t7 9.5q4 8 4 13q0 6 -5 10q-1 1 -5 1q-8 0 -15 -13q-4 -10 -4 -14q0 -7 5 -10zM2200 690q3 6 3 12q0 7 -4 10q-1 1 -5 1q-10 0 -15 -12q-4 -10 -4 -15q0 -6 5 -9q1 -1 4 -1 q9 0 16 14zM2228 776q-1 1 -4 1q-10 0 -16 -13q-4 -7 -4 -13q0 -7 5 -11q1 -1 4 -1q8 0 16 14q3 6 3 12q0 8 -4 11z" />
<glyph unicode="g" horiz-adv-x="1674" d="M760 614q9 -16 23.5 -23t29.5 -7q17 0 33 7.5t28 22.5h16q-6 -41 -35 -68t-74 -27q-28 0 -52 11t-37 31q-14 -20 -38 -31t-53 -11q-44 0 -72.5 27t-35.5 68h16q11 -15 28 -22.5t33 -7.5t30 7t23 23q12 20 34 20q21 0 35 -16q14 16 34 16q22 0 34 -20zM549 179 q-47 -6 -92.5 -24t-84.5 -54t-67.5 -95.5t-39.5 -149.5h-179q-39 0 -64 25q-22 22 -22 50v7q3 24 10 62t20.5 79t33 78t49.5 59q25 19 65.5 39t89.5 40.5t102 39.5t101 37v-74q0 -36 21.5 -67t56.5 -52zM361 1214q-44 7 -80.5 32t-60.5 66q-14 24 -19.5 48t-5.5 49 q0 52 25.5 98.5t73.5 73.5q46 26 98 26q18 0 36 -4t35 -10q18 38 47.5 69t70.5 50q53 24 104 23q69 0 129 -36.5t92 -103.5l2 -3q37 15 73 15q52 0 99 -25.5t74 -74.5q26 -46 26 -98t-26 -98t-74 -73q-32 -19 -72 -24v-222l-6 -86q20 -5 35 -26.5t15 -76.5q0 -26 -6 -51 t-16 -46t-23.5 -36.5t-28.5 -21.5v-100q0 -52 -40 -83l-162 -130q-29 -23 -67 -22h-47q-37 0 -67 22l-163 130q-19 15 -29.5 36.5t-10.5 46.5v100q-15 6 -28.5 21.5t-24 36.5t-16 46t-5.5 51q0 55 15.5 76t34.5 27l-7 86v222zM1010 803q0 9 -0.5 20t-3 20.5t-6.5 16t-11 6.5 q-1 -1 -5 -5.5t-10 -18.5q-5 -12 -19 -12q-2 0 -8 2q-12 5 -12 18q0 2 2 8q0 2 3 5v91q-45 -10 -111 -16t-144 -6t-143.5 6t-109.5 16v-91q0 -1 2 -5q1 -2 1 -7q0 -15 -12 -19q-6 -2 -9 -2q-14 0 -18 12q-5 14 -9 18.5t-6 5.5q-7 0 -11 -6.5t-7 -16t-3.5 -20.5t-0.5 -20 q0 -25 6.5 -46.5t14.5 -37t17 -24.5t14 -9q9 0 16 -6q6 -6 6 -14v-118q0 -31 25 -51l163 -129q8 -6 18.5 -10.5t22.5 -4.5h47q11 0 22 4t19 11l162 129q25 19 25 51v118q0 7 7 14q4 6 17 6q4 0 12.5 9t16.5 24.5t14 37t6 46.5zM909 1539q-10 -6 -11 -18q0 -6 3 -10 q4 -10 18 -10q7 0 10 2q26 15 53 14q7 0 14.5 -1t15.5 -3q21 -5 37.5 -18.5t26.5 -32.5q15 -26 14 -53q0 -28 -14 -53.5t-41 -39.5q-9 -6 -9 -19q0 -7 2 -10q6 -9 18 -10q7 0 10 2q36 21 56 56t20 74q0 19 -4.5 37.5t-15.5 36.5q-15 26 -38 43.5t-52 26.5q-21 6 -41 6 q-38 0 -72 -20zM248 1449q-5 -21 -5 -40q0 -41 20 -73q4 -10 17 -11q5 0 11 3q10 5 10 18q0 5 -3 10q-14 27 -13 53q0 17 4 29q5 21 18 37.5t32 27.5q26 15 53 14q28 0 53 -14t41 -41q0 -1 2 -3q5 -29 17 -54q5 -11 18 -11q6 0 9 2q12 5 12 18q0 2 -2 9q-16 32 -15 67 q0 45 23.5 84t66.5 59q32 16 67 15q27 0 54 -9q30 -11 53 -32t37 -49q5 -12 18 -13q2 0 9 2q12 7 12 20q0 2 -2 8q-18 36 -47 62.5t-66 39.5q-33 12 -67 13q-43 0 -85 -20q-47 -22 -75.5 -61.5t-36.5 -86.5q-42 35 -96 36q-38 0 -73 -19q-54 -30 -71 -90zM1611 657 q27 0 45 -18t18 -44v-221q0 -42 -17 -76.5t-46 -57.5h22q8 0 8 -9v-367q0 -8 -8 -8h-1327q9 72 30.5 121t50.5 81t65 49.5t75 25t79.5 9t78.5 1.5q44 0 83 12t68 33.5t45.5 49.5t16.5 60v74q49 -18 102 -37t102 -39.5t90 -40.5t66 -39q22 -18 40 -44v59q0 9 8 9h22 q-29 23 -46 57.5t-17 76.5v492q0 27 18 45t44 18q27 0 45.5 -18t18.5 -45v-153q15 8 31 9q21 0 37 -12t23 -31q14 10 34 11q21 0 37 -12t24 -31q13 10 34 10zM548 -92q19 0 32.5 13.5t13.5 31.5q0 19 -13.5 32.5t-32.5 13.5q-20 0 -33 -13.5t-13 -32.5t13 -32t33 -13z M802 -92q19 0 32 13.5t13 31.5q0 19 -13.5 32.5t-31.5 13.5q-20 0 -33 -13.5t-13 -32.5t13 -32t33 -13zM1547 626q0 14 -8.5 22.5t-22.5 8.5q-12 0 -21.5 -8.5t-9.5 -22.5h62zM1391 620q14 3 28 3h34v35q0 14 -9 23t-22 9q-12 0 -21.5 -9t-9.5 -23v-38zM1296 558 q25 34 63 52v256q0 14 -9 22.5t-23 8.5q-12 0 -21.5 -8.5t-9.5 -22.5v-308zM1556 64q17 0 28 11.5t11 28.5t-11.5 28t-27.5 11t-27.5 -11.5t-11.5 -27.5q0 -17 11.5 -28.5t27.5 -11.5zM1642 452q-15 -8 -31 -9q-28 0 -47 21q-9 -9 -21 -15t-27 -6q-28 0 -46 21 q-19 -21 -48 -21q-11 0 -25 6q-6 -15 -6 -32q0 -6 -5 -10.5t-11 -4.5q-7 0 -11.5 4.5t-4.5 10.5q0 23 9 43.5t23.5 35.5t35 24t43.5 9q28 0 49.5 17.5t26.5 44.5h-127q-25 0 -47.5 -10.5t-39 -29t-26.5 -43t-10 -52.5v-82q0 -27 9.5 -51.5t25 -42.5t37 -29t45.5 -11h113 q23 0 44 11t37 29t25.5 42.5t9.5 51.5v78zM1547 530q-25 -26 -61 -32q7 -23 30 -22q14 0 22.5 8.5t8.5 22.5v23zM1451 494q-21 -5 -34 -18h5q22 -1 29 18zM1642 595q0 12 -9 21.5t-22 9.5q-14 0 -22.5 -9t-8.5 -22v-88q0 -14 8.5 -22.5t22.5 -8.5t22.5 8.5t8.5 22.5v88z M1193 773q-19 18 -27.5 40.5t-8.5 46.5t9 46.5t27 41.5q5 5 12 5q5 0 12 -5q4 -4 4 -11q0 -8 -4 -13q-14 -14 -20.5 -30t-6.5 -34q0 -36 27 -63q4 -5 4 -13q0 -7 -4 -11q-5 -5 -12 -6q-7 1 -12 6zM1446 782q-5 4 -6 12q0 7 6 12q22 24 21 54q0 30 -21 55q-5 4 -6 11 q0 7 6 12q5 5 11 5t11 -5q32 -32 33 -78q0 -46 -33 -78q-4 -4 -11 -4t-11 4z" />
<glyph unicode="h" horiz-adv-x="2037" d="M132 1072q-10 0 -17 8q-4 4 -4 12q0 4 1 6q37 132 123 242.5t207 189.5t271 123t315 44t315 -44t271 -123t207.5 -189.5t123.5 -242.5v-4q0 -8 -4 -14q-5 -8 -16 -8h-1793zM1236 1356q-15 -17 -28 -34.5t-13 -33.5q0 -18 12 -29.5t29 -11.5q18 0 29 11.5t11 29.5 q0 17 -12.5 34t-27.5 34zM1213 1470q0 -17 12 -29t29 -12q18 0 29 12t11 29q0 18 -13 35t-27 34q-15 -17 -28 -34t-13 -35zM1352 1370q0 -18 11.5 -29.5t28.5 -11.5q18 0 29 11.5t11 29.5q0 17 -12.5 34.5t-27.5 33.5q-15 -17 -27.5 -34t-12.5 -34zM1487 1437 q0 -18 11.5 -29t29.5 -11q17 0 28.5 11.5t11.5 28.5t-13 34.5t-27 34.5q-15 -17 -28 -34.5t-13 -34.5zM1571 1267q0 -17 11.5 -28t29.5 -11q17 0 28.5 11t11.5 28q0 18 -13 35t-27 35q-15 -18 -28 -35t-13 -35zM132 185h1793v-177q0 -34 -13 -63.5t-34.5 -51.5t-51 -35 t-64.5 -13h-1467q-34 0 -64 13t-51.5 35t-34.5 51.5t-13 63.5v177zM1894 626q29 0 55.5 -11.5t46 -30.5t31 -45.5t11.5 -56.5t-11.5 -56.5t-31 -46t-46 -30.5t-55.5 -11h-1750q-30 0 -56.5 11t-45.5 30.5t-30.5 46t-11.5 56.5t11.5 56.5t30.5 45.5t45.5 30.5t56.5 11.5h942 l519 -213l161 213h128zM156 781q-18 -15 -39 -15q-29 0 -46 23q-15 18 -15 40q0 28 22 46q57 47 125.5 72t143.5 25q72 0 140 -24.5t127 -73.5q41 -33 89.5 -50.5t101.5 -17.5q104 0 189 71q57 47 126 71t143 24q75 0 143.5 -25t125.5 -72q39 -33 88 -51t102 -18 q52 0 100.5 18t89.5 51q17 14 38 14q29 0 48 -22q14 -17 14 -38q0 -29 -22 -48q-56 -47 -125 -72t-143 -25t-143 25t-126 72q-39 33 -88 51t-102 18q-52 0 -101 -18t-89 -51q-56 -47 -125 -72t-143 -25t-142.5 25.5t-125.5 72.5q-41 33 -89.5 50.5t-100.5 17.5 q-53 0 -101.5 -18t-89.5 -51z" />
<glyph unicode="i" horiz-adv-x="2212" d="M2211 1001q0 -2 0.5 -3t0.5 -3v-778q0 -17 -10.5 -30t-26.5 -17l-1270 -282q-3 -1 -11 -1t-16 2.5t-14 7.5q-18 15 -18 38v777q0 3 1 5v4q1 5 4.5 14t8.5 11l433 452q12 -37 35.5 -68t54.5 -53.5t68.5 -35.5t79.5 -13q49 0 92.5 17.5t76.5 48.5t54.5 72t26.5 89 q15 -3 29.5 -7.5t28.5 -9.5q90 -30 157.5 -66.5t112 -67.5t67 -53t24.5 -24q2 -1 2 -2t1 -2q4 -6 6 -13q2 -6 2 -9zM2117 485l-1175 -261v-229l1175 260v230zM2117 936l-1175 -262v-228l1175 260v230zM1227 1560q-18 0 -31 12.5t-13 31.5q0 18 13 30.5t31 12.5 q46 0 86.5 -14t75 -39.5t59.5 -60.5t37 -77q22 6 46 6q37 0 70.5 -14t58.5 -39t39 -58t14 -70t-14 -70.5t-39 -58.5t-58.5 -39.5t-70.5 -14.5t-70.5 14.5t-58.5 39.5t-39.5 58t-14.5 71q0 39 15.5 73.5t42.5 58.5q-6 31 -22.5 58.5t-40.5 46.5t-53.5 30.5t-62.5 11.5z M1586 1397q-21 0 -36 -15t-15 -36t15 -36t36 -15q22 0 37 15t15 36t-15 36t-37 15zM706 896l-184 182h-389q-28 0 -52 10.5t-42 28.5t-28.5 42.5t-10.5 52.5v299q0 28 10.5 52.5t28.5 42.5t42 28.5t52 10.5h733q28 0 52 -10.5t42 -28.5t28.5 -42.5t10.5 -52.5v-299 q0 -28 -10.5 -52.5t-28.5 -42.5t-42 -28.5t-52 -10.5h-160v-182z" />
<glyph unicode="j" horiz-adv-x="1602" d="M512 405l-44 -147h857q36 0 68 -15t56 -39.5t38 -57.5t14 -70t-14 -70t-39 -58t-58 -39t-70 -14t-70.5 14t-58.5 39t-39 57.5t-14 70.5q0 37 15 71h-592q15 -34 14 -71q0 -37 -14 -70t-39 -58t-57.5 -39t-69.5 -14t-70.5 14t-58 39t-39 57.5t-14.5 70.5q0 32 10.5 61 t29 52t44 39.5t55.5 23.5q22 74 34.5 114t17.5 59l7 25l-134 680l-233 48q-20 4 -32 19.5t-12 34.5q0 6 1 10q4 19 19.5 31.5t34.5 12.5q6 0 10 -1l264 -53h505q-29 24 -46 59t-17 76q0 38 15 71.5t41 56.5q-6 30 -22.5 56.5t-39 45t-51.5 29.5t-61 11q-18 0 -30 12.5 t-12 29.5q0 18 12.5 30t29.5 12q44 0 83.5 -13.5t72 -38t57 -58t36.5 -74.5q22 6 44 6q36 0 68.5 -14t56.5 -38t38 -56t14 -68q0 -41 -17.5 -76t-47.5 -59h489q12 0 23.5 -6t19.5 -15q12 -15 12 -35q0 -7 -1 -11l-141 -715q-2 -20 -17.5 -32.5t-35.5 -12.5h-895zM1000 1485 q-23 0 -38.5 -15.5t-15.5 -38.5q0 -24 15.5 -39.5t38.5 -15.5t39 15.5t16 39.5q0 23 -16 38.5t-39 15.5zM426 941l48 -246h923l49 246h-1020zM466 76q0 30 -20.5 50.5t-50.5 20.5t-51 -20.5t-21 -50.5t21 -51t51 -21t50.5 21t20.5 51zM1320 4q30 0 51 21t21 51t-21 50.5 t-51 20.5t-51 -20.5t-21 -50.5t21 -51t51 -21z" />
<glyph unicode="k" horiz-adv-x="1007" d="M998 706q9 -10 9 -24v-573q0 -12 -7.5 -22t-20.5 -13l-936 -208q-2 -1 -8 -1q-11 0 -21 8q-14 10 -14 27v574q0 2 1 6q1 8 8 18l373 389q10 10 24 10h14q6 0 16 0.5t21 0.5q25 0 57.5 -1.5t69 -5t75 -11t73.5 -19.5q66 -22 115.5 -48.5t83 -50t50 -39.5t17.5 -17z M937 306l-866 -193v-169l866 193v169zM937 639l-866 -193v-170l866 193v170zM296 1641q-12 0 -21 9t-9 21q0 14 9 22.5t21 8.5q31 0 60 -10t53 -27.5t41 -42t27 -53.5q12 4 31 4q26 0 49.5 -9.5t40.5 -27t27 -40.5t10 -49q0 -27 -10 -50t-27 -40t-40.5 -27t-49.5 -10 q-27 0 -50 10t-40 27t-27 40t-10 50t11 50.5t30 41.5q-9 44 -44 73t-82 29zM546 1532q-17 0 -28 -11.5t-11 -28.5t11.5 -28t27.5 -11q17 0 28.5 11.5t11.5 27.5q0 17 -11.5 28.5t-28.5 11.5zM532 1208q15 0 14 -15v-83h48q9 0 14 -9q1 -2 1 -5q0 -6 -5 -11l-90 -90 q-4 -4 -10 -4t-11 4l-90 90q-4 4 -4 11q0 3 1 5q4 9 13 9h48v83q0 15 15 15h56z" />
<glyph unicode="l" horiz-adv-x="2028" d="M1613 114v-6q1 -5 1 -9v-10q0 -65 -38.5 -107t-107.5 -51q-9 -1 -21 -1.5t-25 -0.5q-42 0 -97 5t-111.5 13t-109.5 19.5t-89 25.5q-15 5 -28.5 10t-27.5 10q-5 -11 -14.5 -19.5t-23.5 -10.5l-615 -75h-5q-18 0 -31 11t-16 29v5q0 18 11.5 31.5t29.5 15.5l615 76h5 q26 0 38 -21l50 34q37 26 96 54t121.5 52.5t118.5 41t89 21.5q7 1 14 1.5t14 0.5q62 0 103 -36.5t52 -102.5zM305 -72q9 1 15.5 8t6.5 16v4q0 6 -5.5 13t-19.5 7q-10 0 -17.5 -7t-7.5 -19q1 -10 8 -16t16 -6h4zM1432 222q-18 -2 -46 -8.5t-62 -17t-72 -23.5t-73.5 -27.5 t-66.5 -29.5t-52 -30q22 7 54 15t67.5 16t74 15.5t73.5 14t64 11.5t46 7q18 2 32.5 3t28.5 1q38 0 63 -8q-15 30 -42.5 46.5t-64.5 16.5q-6 0 -12 -0.5t-12 -1.5zM1463 -34q47 6 75.5 30t36.5 61q-18 -10 -45.5 -19t-72.5 -14q-22 -3 -60.5 -6t-83.5 -6t-92 -4.5t-88 -1.5 q-19 0 -35 0.5t-28 1.5q29 -11 73 -19.5t91.5 -14t94 -8t82.5 -2.5q17 0 30 0.5t22 1.5zM1453 58q34 4 58 11t39 14t21.5 14.5t6.5 12.5q-1 8 -19.5 16.5t-59.5 8.5q-11 0 -25.5 -1t-29.5 -3q-19 -2 -49.5 -7.5t-67 -12.5t-76.5 -15.5t-78 -17t-71.5 -17.5t-56.5 -16 q17 -2 37.5 -2h44.5q42 0 90 1.5t93 3.5t83 4.5t60 5.5zM284 198q-5 24 -24 39.5t-44 15.5q-17 0 -17 17t17 17q34 0 60.5 -20.5t37.5 -51.5q10 2 16 2q29 0 49 -20t20 -48t-20 -48.5t-49 -20.5q-28 0 -48 20t-20 49t22 49zM351 192q-8 0 -13.5 -5t-5.5 -14q0 -8 5.5 -13.5 t13.5 -5.5t14 5.5t6 13.5t-6 13.5t-14 5.5zM1224 1099q3 -6 4 -12v-246q0 -6 -5 -11t-12 -5h-446q-7 0 -11.5 5t-4.5 11v247v2q0 1 1 2q0 2 0.5 2t0.5 2l133 236q8 -2 15 -7.5t12 -12.5l-117 -208h389l-190 352l-40 -69q-12 10 -28 19l53 93q4 9 15 9q9 0 14 -9zM1194 929 h-411v-70h411v70zM1194 1071h-411v-71h411v71zM871 1359q-17 0 -16 17q0 17 16 17q35 0 62.5 -20.5t37.5 -52.5q10 2 17 2q30 0 50 -20t20 -50q0 -29 -20 -49t-50 -20q-29 0 -49.5 20t-20.5 49q0 15 6.5 28.5t16.5 22.5q-5 24 -24.5 40t-45.5 16zM1009 1297q-8 0 -13.5 -5.5 t-5.5 -14.5q0 -8 5.5 -13t13.5 -5t14 5t6 13t-6 14t-14 6zM190 1181l215 110v-73l-139 -72l139 -72v-75l-215 111v71zM589 1330q56 0 91 -27.5t35 -80.5q0 -49 -30.5 -72.5t-72.5 -32.5l-5 -31h-53l-13 84l3 3q50 2 70 14.5t20 32.5q0 38 -47 39q-39 0 -78 -37l-48 52 q23 25 54 40.5t74 15.5zM1299 1291l216 -110v-71l-216 -111v74l140 71l-140 73v74zM580 1051q21 0 34 -13.5t13 -34.5q0 -20 -13.5 -34t-33.5 -14t-34 14t-14 34q0 21 14 34.5t34 13.5zM1769 886l28 49q2 5 7 5t8 -5l114 -211q1 -2 2 -3t1 -3v-131q0 -8 -10 -9h-236 q-8 0 -8 9v132v1q0 1 0.5 1t0.5 1l71 124q8 -1 13 -10l-61 -110h206l-101 186l-21 -35zM1911 634h-218v-38h218v38zM1911 708h-218v-37h218v37zM1731 870q0 8 9 9q19 0 33 -10.5t20 -28.5q3 1 9 1q15 0 25.5 -11t10.5 -25q0 -16 -11 -27t-25 -11q-16 0 -27 11t-11 27 q0 15 13 27q-3 12 -13 20.5t-24 8.5q-9 0 -9 9zM1813 829q-10 0 -10 -11q0 -10 10 -10t11 10q-1 11 -11 11zM1700 945l-65 33v22l65 34v-22l-42 -22l42 -22v-23zM1756 1024q-12 0 -24 -11l-14 16q15 17 38 17q18 0 28.5 -8.5t10.5 -24.5q0 -15 -9 -22.5t-23 -9.5l-2 -10h-15 l-3 27q27 1 27 15q0 11 -14 11zM1753 932q-5 0 -9.5 4t-4.5 10t4.5 10.5t9.5 4.5q15 0 15 -15q0 -14 -15 -14zM1729 537l66 -34v-21l-66 -34v22l43 22l-43 22v23zM1675 548q17 0 27.5 -8t10.5 -24t-9 -23t-23 -9l-1 -9h-16l-3 26q16 1 22 4.5t6 9.5q0 11 -15 12 q-14 0 -24 -12l-14 17q14 16 39 16zM1672 463q15 0 15 -14q0 -15 -15 -15t-14 15q-1 14 14 14zM1991 1140q16 0 26.5 -10.5t10.5 -26.5v-714q0 -16 -11 -26t-26 -10h-370q-16 0 -26.5 10.5t-10.5 25.5v170h-542v-18q0 -19 8 -42t28.5 -44t54 -35.5t83.5 -14.5v-52h-727v52 q50 0 83 14.5t53.5 35.5t29.5 44t9 42v18h-560q-44 0 -74 29.5t-30 73.5v926q0 44 30 73.5t74 29.5h1497q44 0 74 -29.5t30 -73.5v-448h286zM1762 1107q0 -3 4 -3h81q3 0 3 3v5q0 2 -3 2h-81q-3 0 -4 -2v-5zM884 1652q-5 0 -5 -5t5 -5t5 5t-5 5zM853 1659q-12 0 -13 -12 q0 -12 13 -12q5 0 8.5 3.5t3.5 8.5t-3.5 8.5t-8.5 3.5zM904 596q15 0 24.5 10t9.5 24t-10 24t-24 10h-102q-15 0 -25 -10t-10 -24q0 -15 10 -24.5t25 -9.5h102zM1581 701v233q-5 0 -6 4v18q0 5 9 6l-3 8q-5 0 -6 4v19q0 5 9 5v105q0 16 11 26.5t26 10.5v465h-1537v-904h1497 zM2012 1079h-411v-666h411v666z" />
<glyph unicode="m" horiz-adv-x="2363" d="M545 195q-47 -6 -92.5 -23t-84 -53t-66.5 -94.5t-39 -149.5h-178q-37 0 -63 24q-22 22 -22 51v6q3 24 10 62.5t20 79t32.5 77t49.5 58.5q25 18 65.5 38t89 40t100.5 39.5t100 35.5v-72q0 -36 21 -67t57 -52zM1246 233q29 -22 49.5 -58.5t33 -77t19 -79t9.5 -62.5v-7 q0 -30 -21 -50q-11 -11 -28.5 -17.5t-35.5 -6.5h-968q9 71 30 120t50 80.5t64.5 48.5t74 25t78.5 9.5t78 1.5q44 0 82.5 12t67 32.5t45 48.5t16.5 61v72q49 -17 101.5 -36t100.5 -39t88.5 -40t65.5 -38zM543 -74q19 0 32.5 13.5t13.5 32.5t-13.5 32.5t-32.5 13.5 t-32.5 -13.5t-13.5 -32.5t13.5 -32.5t32.5 -13.5zM794 -74q19 0 32.5 13.5t13.5 32.5t-13.5 32.5t-32.5 13.5t-32 -13.5t-13 -32.5t13 -32.5t32 -13.5zM743 604q17 -28 48 -28q16 0 31 7.5t26 20.5h14q-5 -37 -32 -62t-68 -25q-27 0 -49 10.5t-34 28.5q-12 -18 -34 -28.5 t-49 -10.5q-42 0 -68.5 25t-32.5 62h15q23 -28 56 -28q15 0 28 7t22 21q5 9 14 14t18 5q18 0 31 -13q11 14 31 13q22 0 33 -19zM358 1221q-44 7 -80 31.5t-60 65.5q-12 23 -18.5 48t-6.5 48q0 52 25.5 98t73.5 73q45 26 96 26q18 0 35.5 -3.5t35.5 -10.5q18 37 47 68t69 50 q49 23 103 22q69 0 129 -36t91 -103q0 -1 0.5 -1.5t0.5 -1.5q18 8 37 11.5t38 3.5q51 0 96.5 -25.5t72.5 -73.5q26 -45 26 -97q0 -51 -25 -96.5t-73 -72.5q-32 -19 -71 -24v-220l-6 -85q19 -5 34 -26.5t15 -75.5q0 -26 -6 -51t-16.5 -45.5t-23 -35.5t-27.5 -21v-99 q0 -24 -11 -46.5t-30 -36.5l-160 -128q-29 -23 -67 -23h-47q-36 0 -65 23l-161 128q-20 15 -30.5 37t-10.5 46v99q-15 6 -28 21t-23.5 35.5t-16 45.5t-5.5 51q0 27 4 45.5t11.5 30t16 18t18.5 8.5l-7 85v220zM1002 814q0 8 -1 19t-3 20.5t-6 16.5t-12 7q-2 -1 -5.5 -6 t-8.5 -18q-5 -12 -19 -13q-2 0 -8 2q-12 5 -13 19q0 2 2 8q0 1 4 4v92q-45 -11 -110 -17t-143 -6t-143 5.5t-108 17.5v-92l2 -4q2 -6 2 -8q0 -14 -13 -19q-6 -2 -9 -2q-12 0 -17 13q-6 14 -10 18t-5 6q-7 0 -11.5 -7t-7 -16.5t-3 -20t-0.5 -19.5q0 -10 3 -29t9.5 -37 t16.5 -32.5t22 -17.5q10 0 16 -5q6 -6 6 -15v-116q0 -31 25 -51l161 -128q18 -15 40 -14h47q23 0 41 14l161 128q25 20 24 51v116q0 8 7 15q5 5 13 5h4q4 0 12.5 9.5t17 25t14.5 36t6 45.5zM900 1543q-10 -5 -10 -17q0 -6 3 -11q5 -10 18 -10q5 0 10 3q25 14 52 13 q17 0 29 -4q42 -11 65 -50q14 -24 13 -53q0 -28 -13.5 -52.5t-40.5 -39.5q-9 -6 -9 -19q0 -6 2 -9q7 -10 17 -10q5 0 11 3q36 21 55.5 55.5t19.5 73.5t-20 72q-15 26 -37.5 44t-51.5 26q-21 5 -40 5q-40 0 -73 -20zM246 1454q-2 -10 -3.5 -19.5t-1.5 -20.5q0 -38 19 -72 q7 -10 17 -11q5 0 11 4q10 4 10 17q0 6 -2 10q-15 26 -15 52q0 7 1.5 14.5t3.5 15.5q11 42 49 64q24 14 53 13q28 0 53 -13.5t40 -40.5l3 -3q2 -14 6 -27t11 -26q5 -12 17 -12q3 0 10 2q11 6 11 19q0 2 -2 8q-8 17 -11.5 33.5t-3.5 32.5q0 45 23.5 83.5t66.5 58.5 q32 16 66 15q26 0 53 -9q30 -10 52.5 -31t36.5 -49q5 -12 19 -12q2 0 8 2q11 6 12 18q0 3 -2 10q-17 35 -46 61t-65 39q-17 6 -33.5 9t-34.5 3q-44 0 -84 -19q-46 -21 -74 -60t-36 -85q-21 18 -45.5 26t-50.5 8q-38 0 -72 -19q-26 -15 -44 -37.5t-26 -51.5zM1890 1103 q-8 0 -14.5 6t-6.5 16q0 8 6.5 14.5t14.5 6.5t14.5 -6.5t6.5 -14.5q0 -9 -6.5 -15.5t-14.5 -6.5zM1646 750h444v-76h-444v76zM1646 902h444v-76h-444v76zM2173 1545q39 0 74 -15t61 -41t41 -61t15 -75v-729q0 -39 -15 -74.5t-41 -61.5t-61 -41t-74 -15h-609q-39 0 -74.5 15 t-61.5 41t-41 61.5t-15 74.5v115h-183l183 184v430q0 39 15 74.5t41 61.5t61.5 41t74.5 15h609zM1743 1248q-8 0 -13.5 -5t-5.5 -13q0 -7 5 -12.5t14 -5.5q27 0 47.5 -17t25.5 -43q-24 -22 -23 -55q0 -31 21.5 -53t52.5 -22t53 22t22 53t-22 53.5t-53 22.5q-9 0 -18 -4 q-10 34 -39.5 56.5t-66.5 22.5zM2125 920q0 7 -2 12l-235 430q-4 8 -16 10q-10 0 -15 -9l-57 -101q19 -8 31 -20l41 74l205 -378h-417l124 222q-9 18 -28 23l-143 -255q-2 -4 -2 -8v-265q0 -7 4.5 -12t12.5 -5h479q7 0 12.5 5t5.5 12v265z" />
<glyph unicode="n" horiz-adv-x="2358" d="M407 1507q-15 0 -24.5 10t-9.5 24q0 15 10 24t24 9q35 0 67 -10.5t58.5 -30.5t45.5 -47t30 -59q19 5 35 5q29 0 55 -11t45 -30t30 -45t11 -55q0 -30 -11 -55.5t-30 -45.5t-45 -30.5t-55 -10.5t-55 10.5t-45.5 30.5t-30 45.5t-10.5 55.5t12 56.5t32 46.5q-10 49 -48.5 81 t-90.5 32zM685 1381q-16 0 -27.5 -11.5t-11.5 -27.5q0 -17 12 -28.5t27 -11.5q18 0 29.5 11.5t11.5 28.5t-11.5 28t-29.5 11zM1904 1438q93 -10 175.5 -29t144.5 -47.5t98.5 -65.5t36.5 -83v-1095q0 -38 -26 -70.5t-72.5 -58.5t-109 -46t-136 -33.5t-154.5 -20t-163 -6.5 t-163 6.5t-154 20t-136 33.5t-109.5 46t-72 58.5t-25.5 70.5v46q-84 -20 -180.5 -29t-196.5 -9q-82 0 -163.5 6.5t-154.5 20t-136 33.5t-109 46t-72 58.5t-26 70.5v691q0 45 35 81t94 64t138.5 48t169.5 30q3 -41 20.5 -75.5t45 -60t63.5 -40.5t77 -15q42 0 78 15t63.5 41.5 t44.5 62.5t19 76q52 -5 101 -12.5t95 -19.5q14 38 53.5 69.5t100 55.5t135.5 40.5t159 25.5q3 -41 20.5 -75.5t45 -60.5t64 -41t76.5 -15q41 0 77 15t63.5 41t45 60.5t20.5 75.5zM1038 452q-84 -19 -180.5 -29t-196.5 -10q-85 0 -169 7.5t-159 21.5t-138.5 35t-108.5 50 v-166q0 -19 37.5 -44.5t110 -49t180 -39.5t247.5 -16q118 0 211.5 11.5t165.5 29.5v199zM1038 899q-79 -19 -175 -29t-202 -10q-98 0 -187.5 9t-164 25t-132 38t-91.5 49v-217q0 -19 37.5 -44.5t110 -49t180 -39.5t247.5 -16q118 0 211.5 12t165.5 29v243zM2273 284 q-46 -28 -109 -49.5t-138.5 -35.5t-159 -21.5t-168.5 -7.5t-168.5 7.5t-159 21.5t-139.5 35t-108 50v-166q0 -19 37 -44.5t110.5 -49t181 -39.5t246.5 -16t246.5 16t181 39.5t110.5 49.5t37 44v166zM2273 686q-46 -28 -109 -48.5t-138.5 -35t-159 -22t-168.5 -7.5 t-168.5 7.5t-159 21.5t-139.5 35t-108 49v-165q0 -19 37 -44.5t110.5 -49t181 -39.5t246.5 -16t246.5 16t181 39.5t110.5 49.5t37 44v165zM2273 1142q-34 -27 -91 -49t-132.5 -38.5t-164.5 -25.5t-187 -9q-99 0 -188 9t-164 25.5t-132 38.5t-91 49v-217q0 -19 37 -44.5 t110.5 -49t181 -39.5t246.5 -16t246.5 16t181 39.5t110.5 49.5t37 44v217zM1462 1669q-15 0 -24.5 10t-9.5 24q0 15 10 24t24 9q35 0 67.5 -10.5t58.5 -30.5t45 -47t30 -59q16 4 35 4q29 0 55 -11t45 -30t30 -45t11 -55t-11 -55t-30 -45.5t-45 -30t-55 -10.5t-55 10.5 t-45 30t-30 45.5t-11 55q0 31 12 57.5t32 46.5q-10 49 -48.5 81t-90.5 32zM1742 1543q-17 0 -28.5 -11.5t-11.5 -27.5q0 -17 11.5 -28.5t28.5 -11.5t28 11.5t11 28.5t-11 28t-28 11z" />
<glyph unicode="o" horiz-adv-x="1450" d="M724 178q19 0 32 -13t13 -31v-107q-21 16 -45 16q-25 0 -44 -16v107q0 18 13 31t31 13zM724 -5q19 0 32 -13t13 -32q0 -18 -13 -31.5t-32 -13.5q-18 0 -31 13.5t-13 31.5q0 19 13 32t31 13zM723 1645q44 0 78 -23.5t58.5 -60.5t37.5 -83t13 -91q0 -59 -10.5 -107.5 t-26.5 -93t-34.5 -85t-34.5 -82t-26.5 -86t-10.5 -96.5v-626q-20 15 -44 14q-24 0 -44 -14v626q0 52 -10.5 96.5t-26.5 86t-34 82t-34 85t-26.5 93t-10.5 107.5q0 45 13 91t37 83t58.5 60.5t77.5 23.5zM724 1124q27 0 50.5 20t41 54.5t28 80.5t10.5 99q0 44 -12.5 85 t-34.5 70q-3 3 -8 3q-3 0 -5 -1q-5 -2 -5 -7q0 -3 1 -4q12 -39 13 -84q0 -48 -9 -90t-24 -74.5t-35 -51t-42 -18.5q-20 0 -35 12.5t-24 25.5q-3 3 -9 3q-3 0 -4 -1q-5 -2 -5 -8q0 -2 1 -3q18 -53 46.5 -82t60.5 -29zM206 1604q88 -2 139.5 -56.5t51.5 -144.5q0 -27 -6 -67.5 t-15 -89.5t-22.5 -101.5t-29.5 -103.5t-33 -96.5t-33 -77.5l-35 -64q14 -7 22.5 -20t8.5 -30v-750q0 -24 -16.5 -40t-39.5 -16q-24 0 -40 16t-16 40v750q0 17 8.5 30t21.5 20l-33 64q-17 32 -34 77.5t-32.5 96.5t-29 103.5t-23 101.5t-15 89.5t-5.5 67.5q0 45 13.5 81 t38.5 62.5t59.5 41t78.5 16.5q2 0 4 0.5t4 0.5t4 -0.5t4 -0.5zM42 1403q0 -21 4 -55.5t11 -77.5t17.5 -90.5t22.5 -92t25.5 -84.5t28.5 -67q-5 27 -10 66.5t-9.5 84t-8 91.5t-6 90t-4 78t-1.5 57q0 55 6.5 91t16.5 58q-45 -16 -69 -54t-24 -95zM228 4q0 14 -8.5 22.5 t-21.5 8.5q-14 0 -22.5 -8.5t-8.5 -22.5q0 -12 9 -21t22 -9q12 0 21 9t9 21zM198 911q5 29 11 71t10.5 88.5t9 96t7.5 94.5t4.5 82t1.5 60q0 44 -4.5 74t-11 49t-14 27.5t-14.5 8.5q-6 0 -13.5 -8.5t-14.5 -27.5t-11.5 -49t-4.5 -74q0 -23 1.5 -60t4.5 -82t7 -94.5t9.5 -96 t10.5 -88.5t11 -71zM246 936q14 28 27.5 67.5t26 84t22 92t17 90.5t11.5 77.5t4 55.5q0 57 -24 95t-68 54q10 -22 16.5 -58t6.5 -91q0 -22 -2 -57t-4.5 -78t-6 -90t-7.5 -91.5t-9 -84t-10 -66.5zM1425 1298q11 0 18.5 -7t7.5 -18v-978q0 -11 -7.5 -18.5t-18.5 -7.5h-109 q1 -53 6 -85t11 -58t10.5 -51.5t4.5 -65.5q0 -41 -9 -68t-21.5 -44t-26 -24.5t-22.5 -7.5t-22.5 7.5t-26 24.5t-21.5 44.5t-9 67.5q0 39 5 65t10.5 52t10.5 58t6 85h-108q-11 0 -18.5 7.5t-7.5 18.5v978q0 10 7.5 17.5t18.5 7.5h108q-2 47 -7 77t-10 54t-10 49.5t-5 62.5 q0 41 9 68.5t21.5 44.5t26 24.5t22.5 7.5t22.5 -7.5t26 -24.5t21.5 -44.5t9 -68.5q0 -37 -4 -62.5t-10 -49.5t-11 -54t-6 -77h108zM1394 1244h-38v-931h38v931z" />
<glyph unicode="p" horiz-adv-x="1686" d="M198 1363h137v-41h-137v41zM198 998h137v-40h-137v40zM198 927h137v-39h-137v39zM842 812h-571v41h571v-41zM468 1147v-40h-197v40h197zM786 978q-65 59 -100.5 138t-35.5 168q0 75 26.5 145t77.5 126q60 69 140 102.5t164 33.5q73 0 143 -25t129 -78q65 -59 100.5 -138 t35.5 -167q0 -57 -15.5 -112t-45.5 -103l258 -230q23 -20 23 -52q0 -12 -4.5 -24.5t-13.5 -23.5q-10 -11 -23 -16.5t-28 -5.5q-12 0 -24.5 4t-23.5 13l-257 230q-56 -44 -120.5 -66t-133.5 -22q-73 0 -143 25t-129 78zM840 1478q-36 -39 -55.5 -89.5t-19.5 -104.5 q0 -63 25.5 -120.5t72.5 -98.5q43 -37 92 -55.5t102 -18.5q61 0 119 24.5t101 72.5q36 41 55 91t19 104q0 63 -25.5 120t-71.5 99q-43 37 -92.5 55t-102.5 18q-61 0 -118 -24t-101 -73zM1148 355q11 0 11 -11v-55q0 -10 -11 -11h-975q-10 0 -10 11v55q0 11 10 11h975z M867 1251q-20 18 -20 43q0 23 16 38q18 20 43 20q21 0 38 -15l101 -91l153 165q17 19 43 19q22 0 40 -16q19 -18 18 -42q0 -23 -15 -40l-194 -206q-18 -19 -42 -19q-21 0 -39 15zM333 485q37 0 67.5 12.5t54 34t40 50t26.5 60.5h-511q-10 0 -10 11v880q0 10 10 10h673 q-27 -41 -45 -83h-555v-735h1148v136q45 18 83 44v-252q0 -11 -11 -11h-511q11 -32 29 -60.5t42 -50t55 -34t70 -12.5h7t13.5 -0.5t13.5 -1t7 -0.5l109 -76q5 -2 5 -8q0 -2 -1 -3q-2 -8 -9 -9h-945q-7 0 -9 9q-1 1 -1 3q0 6 5 8l109 76q1 0 7 0.5t13.5 1t13.5 0.5h7z M623 1147q3 -10 7 -20.5t8 -19.5h-132v40h117zM607 1219q2 -10 3.5 -19.5t3.5 -19.5h-343v39h336zM602 1292v-8v-15.5t1 -16.5h-332v40h331zM271 1071h383q5 -10 11.5 -20t12.5 -21h-407v41zM1561 89q35 0 59 -7t38.5 -18t21.5 -22.5t7 -19.5t-7 -19.5t-21.5 -22.5 t-38.5 -19t-59 -8q-32 0 -54 4t-42.5 9t-46.5 9t-67 6v-94q0 -8 -6.5 -15t-15.5 -7h-846q-9 0 -15.5 6.5t-6.5 15.5v94q-46 -1 -74 -5t-50 -9t-44 -9.5t-56 -4.5q-35 0 -59 7.5t-39 18.5t-21.5 23t-6.5 20t6.5 19.5t21.5 22.5t38.5 18t59.5 7q34 0 56 -4t44 -8.5t50 -9 t74 -5.5v94q0 9 6.5 16t15.5 7h846q8 0 15 -7t7 -16v-94q41 1 67 6t46.5 9.5t42.5 8t54 3.5zM1304 -54h-806v-32h806v32z" />
<glyph unicode="q" horiz-adv-x="1346" d="M662 1270q-20 0 -37.5 7.5t-30.5 20.5t-20.5 30.5t-7.5 37.5q0 21 8 39t22 30q-7 33 -33 55t-61 22q-9 0 -16 7t-7 16t6.5 16t16.5 7q48 0 85 -28t51 -72q10 3 24 3q20 0 37.5 -7t30.5 -20t20 -31t7 -37q0 -20 -7 -37.5t-20 -30.5t-30.5 -20.5t-37.5 -7.5zM691 1427 q-11 0 -19 -8t-8 -19t7.5 -18.5t19.5 -7.5q11 0 19 7.5t8 18.5t-8 19t-19 8zM226 1205q0 30 23.5 55t64 43.5t94 31.5t114.5 20q2 -27 13.5 -50t30.5 -41t43.5 -27.5t52.5 -9.5t52 10t43 28t30.5 41.5t12.5 51.5q65 -6 123 -19t102 -32t70 -44.5t26 -57.5v-468 q0 -29 -22 -52.5t-59.5 -42.5t-88.5 -32t-108 -20q-1 1 -1 3q-11 32 -38 50q63 6 111.5 18t81 25.5t49 27t16.5 23.5v113q-28 -18 -65.5 -31t-83 -23t-96 -15.5t-101.5 -6.5q-6 8 -15 13q-24 18 -55 18q-5 0 -10.5 -0.5t-10.5 -1.5l-48 -12l-32 37q-14 16 -32 24t-38 8 q-45 0 -72 -32l-18 -20q-30 8 -55 18.5t-44 23.5v-47q-22 -3 -39 -17q-6 -4 -10.5 -9t-10.5 -11v439zM286 1010q0 -12 25 -29.5t74 -33.5t122 -27t167 -11q95 0 167 11t121.5 27t74.5 33.5t25 29.5v147q-23 -18 -61.5 -33t-89 -26t-111 -17t-126.5 -6t-126.5 6t-111.5 17 t-89.5 26t-60.5 33v-147zM1311 1702q16 0 26 -10.5t10 -24.5v-1269q0 -8 -3.5 -15t-6.5 -10l-276 -274q-5 -5 -12 -6h-322l-6 72h284v234q0 15 11 25.5t26 10.5h233v1196h-1202v-1466h155l-6 -72h-186q-15 0 -25.5 10.5t-10.5 25.5v1538q0 15 11 25t25 10h1275zM1223 362 h-145v-146zM646 150q10 0 16 1l19 -243q0 -15 -11 -21q-7 -5 -16 -5q-7 0 -11 3l-168 82l-169 -82q-6 -3 -12 -3q-8 0 -16 5q-11 9 -11 24l21 240q5 -1 15 -1h9.5t9.5 2l51 11l34 -39q27 -30 68 -31q19 0 36.5 8t29.5 23l34 39l51 -11q5 -2 10 -2h10zM475 642q34 0 64.5 -13 t53.5 -36t36 -53.5t13 -65.5q0 -34 -13 -65t-36 -54t-53.5 -36t-64.5 -13q-35 0 -66 13t-54 36t-36 53.5t-13 65.5t13 65.5t36 53.5t54 36t66 13zM784 373q-3 -14 -19 -21l-77 -33l-8 -84q-1 -16 -14 -25q-8 -6 -20 -6q-5 0 -7 1l-83 18l-56 -64q-9 -11 -25 -12 q-17 0 -26 12l-56 64l-82 -18q-3 -1 -9 -1q-10 0 -20 6q-11 9 -13 25l-8 84l-78 33q-14 6 -19 21q-2 6 -2 10q0 9 5 18l44 73l-44 73q-5 8 -5 17q0 3 2 11q2 6 7 12t12 8l78 34l8 84q2 17 13 24q10 7 21 8q2 0 3.5 -0.5t4.5 -0.5l82 -19l56 63q9 11 25 12q15 0 26 -12 l56 -63l83 19q2 0 3.5 0.5t3.5 0.5q10 0 20 -8q12 -8 14 -24l8 -84l77 -34q15 -5 19 -20q1 -3 1.5 -5.5t0.5 -5.5q0 -5 -1 -9t-3 -8l-44 -73l44 -73q2 -4 3 -8t1 -9q0 -3 -0.5 -5.5t-1.5 -5.5zM475 262q44 0 82.5 16.5t67 45.5t45 67.5t16.5 82.5t-16.5 82.5t-45 67.5 t-67.5 45.5t-82 16.5q-44 0 -83 -16.5t-68 -45.5t-45.5 -68t-16.5 -82q0 -44 16.5 -82.5t45.5 -67.5t68 -45.5t83 -16.5z" />
<glyph unicode="r" horiz-adv-x="1712" d="M1323 401q8 0 14 -5.5t6 -13.5t-6 -14t-14 -6h-748q-20 0 -19 20q0 8 5.5 13.5t13.5 5.5h748zM1323 471q8 0 14 -5.5t6 -13.5t-6 -14t-14 -6h-748q-20 0 -19 20q0 8 5.5 13.5t13.5 5.5h748zM575 293q-27 0 -49.5 10t-40.5 27t-27.5 40.5t-9.5 49.5v256q23 -28 55.5 -45 t71.5 -17h625q23 0 38.5 15.5t15.5 38.5q0 21 -13 35q12 14 13 34q0 21 -13 36q12 14 13 35q0 22 -16 37q16 14 16 38v439h69q8 0 14 -5.5t6 -14.5v-774q0 -8 -6 -14t-14 -6h-748q-36 0 -62 -26t-26 -62t26 -62.5t62 -26.5h748q8 0 14 -5.5t6 -13.5t-6 -13.5t-14 -5.5h-748z M575 648q-27 0 -49.5 10t-40.5 27.5t-27.5 40.5t-9.5 50v692q0 26 9.5 49.5t27.5 40.5t40.5 27t49.5 10h625q8 0 13.5 -5t5.5 -13v-694q0 -8 -5.5 -14t-13.5 -6h-625q-19 0 -35 -6.5t-27.5 -18.5t-18.5 -28.5t-7 -33.5q0 -36 26 -62t62 -26h625q20 0 19 -20q0 -8 -5.5 -14 t-13.5 -6h-625zM1200 757q20 0 19 -20q0 -8 -5.5 -13.5t-13.5 -5.5h-625q-8 0 -13.5 5.5t-5.5 13.5q0 20 19 20h625zM1200 827q8 0 13.5 -5.5t5.5 -13.5q0 -20 -19 -20h-625q-20 0 -19 20q0 8 5.5 13.5t13.5 5.5h625zM203 291q-18 15 -42 14q-24 0 -42 -14v99q0 18 12 30 t30 12t30 -12t12 -30v-99zM119 219q0 18 12 30t30 12t30 -12t12 -30t-12 -29.5t-30 -11.5t-30 11.5t-12 29.5zM118 1017q0 45 -8.5 83t-21.5 74t-28.5 70.5t-28.5 72t-22 79.5t-9 93q0 38 11 78t31.5 71.5t50.5 51.5t67 20t67 -20t50.5 -51.5t31.5 -71t11 -78.5 q0 -51 -9 -93t-22 -79.5t-28.5 -72t-28.5 -70.5t-22 -74.5t-9 -82.5v-555q-18 15 -41 15q-24 0 -42 -15v555zM69 1360q0 -17 9 -33.5t22.5 -30.5t29.5 -23.5t31 -9.5q23 0 43 17t35 46.5t24 69t9 85.5q0 36 -11 72t-29 61q-2 3 -7 3q-8 0 -8 -10q6 -18 8.5 -36t2.5 -36 q0 -41 -7.5 -77.5t-20.5 -64.5t-30 -44.5t-36 -16.5q-18 0 -30.5 11t-20.5 23q-4 4 -8 4t-5 -4t-1 -6zM1645 1260q-12 6 -26 6t-26 -6l14 42q3 8 12 9q9 0 13 -9zM1686 1122q-12 12 -29.5 20t-37.5 8t-36.5 -8t-28.5 -20l28 87q10 26 37 26q12 0 22.5 -7t16.5 -18zM1619 369 q-27 0 -46.5 19t-19.5 47q0 27 19.5 46.5t46.5 19.5t47 -19.5t20 -46.5q0 -28 -20 -47t-47 -19zM1619 464q-12 0 -20.5 -8.5t-8.5 -20.5t8.5 -21t20.5 -9t21 9t9 21q0 11 -9 20t-21 9zM1686 505q-12 14 -29 21.5t-38 7.5q-20 0 -37 -8t-29 -21v546q0 27 19.5 46t46.5 19 t47 -19t20 -46v-279q-19 19 -42 25v-184q26 -8 42 -26v-82zM1585 76q35 0 60 -8t39.5 -19t21.5 -22.5t7 -20.5q0 -8 -7 -19.5t-21.5 -22.5t-39.5 -18.5t-60 -7.5q-33 0 -55 3.5t-43.5 8t-47.5 9.5t-67 6v-95q0 -9 -7 -16t-16 -7h-861q-9 0 -16 7t-7 16v96q-47 -1 -75 -5.5 t-50.5 -9.5t-45 -9t-56.5 -4q-36 0 -60.5 7.5t-39 18.5t-21.5 22.5t-7 19.5t7 20t21.5 23t38.5 19t61 8q34 0 56.5 -4t45 -9.5t51 -9.5t74.5 -5v95q0 9 7 16t16 7h861q9 0 16 -6.5t7 -16.5v-95q42 1 67.5 5.5t47 10t43.5 9t55 3.5zM1323 -71h-819v-32h819v32z" />
<glyph unicode="s" horiz-adv-x="3833" d="M1191 1458q60 25 126 25q87 0 163.5 -43t123.5 -124q22 -38 32 -79.5t10 -82.5q0 -86 -42.5 -163.5t-123.5 -123.5q-57 -32 -120 -40v-602q0 -21 -42.5 -39t-115.5 -32t-171.5 -21.5t-211.5 -7.5q-112 0 -210 7.5t-172 21.5t-116.5 32.5t-42.5 38.5v603q-72 11 -134 52 t-100 110q-44 78 -44 163q0 86 43 163.5t124 122.5q38 22 79.5 33t83.5 11q61 0 118 -22q30 62 79 113.5t118 84.5q43 21 86.5 30t86.5 9q57 0 113 -16t104.5 -46t88 -74t65.5 -99q1 -2 1 -3t1 -2zM1104 1384q19 10 19 32q0 6 -3 14q-28 61 -76.5 105t-111.5 66 q-55 20 -114 20q-76 0 -141 -32q-78 -36 -125.5 -102t-60.5 -144q-71 59 -162 59q-31 0 -62 -8t-60 -24q-44 -25 -74 -63.5t-44 -87.5q-9 -33 -9 -66q0 -65 33 -123q9 -18 30 -17q9 0 17 4q18 9 18 30q0 9 -5 16q-24 43 -23 91q0 23 6 47q20 72 85 109q42 23 88 22 q47 0 89.5 -23t67.5 -67l4 -5q7 -47 28 -90q9 -20 31 -20q8 0 15 3q9 5 14.5 13.5t5.5 17.5q0 8 -3 15q-14 27 -19.5 55.5t-5.5 56.5q0 37 10 73t29.5 67t47.5 56.5t63 42.5q54 25 112 25q47 0 91 -16q50 -18 87.5 -52.5t60.5 -82.5q9 -20 31 -20q8 0 16 3zM1440 937 q60 34 93 92.5t33 124.5q0 64 -33 122q-24 44 -63 74t-88 44q-33 9 -66 9q-64 0 -123 -33q-8 -5 -12 -13.5t-4 -16.5q0 -9 4 -17q9 -18 30 -18q9 0 17 5q43 24 89 23q24 0 48 -6q72 -21 109 -85q23 -42 23 -88q0 -47 -23.5 -90t-67.5 -68q-18 -9 -17 -30q0 -9 4 -17 q5 -8 13 -12.5t17 -4.5q7 0 17 5zM819 33q112 0 211 8t172 21.5t115.5 32t42.5 39.5v-119q0 -21 -42.5 -39.5t-115.5 -32.5t-171.5 -21.5t-211.5 -7.5q-112 0 -210 7.5t-172 21.5t-116.5 32.5t-42.5 39.5v119q0 -21 42.5 -39.5t116.5 -32t172 -21.5t210 -8zM2848 36 q110 0 207.5 8t170 21t115 31t42.5 39v-117q0 -21 -42.5 -39t-115 -31t-170 -21t-207.5 -8q-111 0 -208.5 8t-169.5 21t-114 31t-42 39v117q0 -21 42 -39t114 -31t169.5 -21t208.5 -8zM3675 605v-292q17 -10 27 -26.5t10 -37.5q0 -28 -19 -49q17 -20 27.5 -47.5t10.5 -61.5 q0 -19 -4 -44t-10.5 -51.5t-15.5 -52t-19.5 -46t-21.5 -32.5t-21 -12t-21.5 12t-22 32.5t-19.5 46t-15.5 52t-10.5 51.5t-4 44q0 33 10.5 61.5t28.5 47.5q-8 9 -14 22t-6 27q0 21 10 37t27 27v270l-219 -68v-289q0 -21 -42.5 -39t-115 -31.5t-170 -21t-207.5 -7.5 q-111 0 -208.5 7.5t-169.5 21t-114 32t-42 38.5v298l-421 130v65l970 297l970 -297v-65z" />
<glyph unicode="t" d="M1298 609q107 -19 191.5 -46.5t143.5 -61t90 -73t31 -81.5v-448q0 -14 -9.5 -23t-23.5 -9h-844q-14 0 -23.5 9.5t-9.5 22.5v429l-373 225q-16 9 -15 28v181h-424q-14 0 -23 9.5t-9 22.5v448q0 69 77.5 126.5t219.5 98.5q-1 5 -1.5 10t-0.5 10q0 27 11 49.5t28 40.5 q-8 43 -41.5 70.5t-79.5 27.5q-11 0 -20 9t-9 20q0 12 8.5 20.5t20.5 8.5q62 0 110 -35.5t66 -91.5q7 2 14 3t16 1q25 0 47 -10t38.5 -26.5t26.5 -39t10 -47.5v-5l350 -211q19 -9 19 -29v-152q96 -2 186 -8.5t175 -21.5q9 -2 18 -8t9 -19v-424zM456 1565q-15 0 -24.5 -10 t-9.5 -24q0 -15 9.5 -24.5t24.5 -9.5t24.5 9.5t9.5 24.5t-9.5 24.5t-24.5 9.5zM325 1406q-45 -12 -85.5 -26.5t-73 -31.5t-56.5 -35.5t-35 -38.5h684l-239 145q-17 -25 -43 -40t-58 -15q-28 0 -52 11t-42 31zM844 510l-324 195v-106l324 -195v106zM844 762h-152l152 -92v92z M844 943h-779v-116h779v116zM844 1209h-779v-116h779v116zM994 379h685q-17 28 -57 53.5t-95.5 47.5t-121.5 39t-133 28zM910 852l259 156q-62 7 -127.5 11.5t-131.5 5.5v-49v-124zM910 670l323 195v106l-323 -195v-106zM910 404l323 195v106l-323 -195v-106zM1689 49h-779 v-117h779v117zM1689 315h-779v-118h779v118z" />
<glyph unicode="u" horiz-adv-x="5958" d="M2752 430q-74 0 -137 27t-109 73.5t-72 109.5t-26 135t25.5 135t72 110.5t110.5 74.5t141 27q95 0 156 -28.5t108 -74.5l-93 -108q-39 35 -80.5 55.5t-91.5 20.5q-43 0 -78.5 -17t-61 -45t-40 -66t-14.5 -81q0 -44 14 -82.5t40 -67.5t62 -45.5t78 -16.5q58 0 97 21t79 57 l93 -95q-26 -27 -53.5 -49t-60 -37.5t-72 -24t-87.5 -8.5zM3428 442v55q-27 -30 -64.5 -47.5t-90.5 -17.5q-36 0 -67.5 10.5t-55.5 30t-38 49t-14 67.5q0 43 15 74t42.5 51t65 30t83.5 10q39 0 68.5 -5.5t56.5 -15.5v9q0 46 -27.5 70t-82.5 24q-42 0 -74 -8t-67 -20l-36 110 q43 19 88 30.5t110 11.5q119 0 173.5 -58.5t54.5 -163.5v-296h-140zM3431 648q-19 8 -42.5 14t-49.5 6q-47 0 -74 -18.5t-27 -53.5q0 -30 22 -46.5t57 -16.5q52 0 83 25t31 64v26zM4023 442l-133 209l-51 -54v-155h-145v697h145v-372l171 187h173l-195 -202l201 -310h-166z M4712 647h-356q10 -50 42.5 -75t81.5 -25q36 0 65.5 12t59.5 40l83 -72q-36 -45 -87.5 -71t-122.5 -26q-58 0 -107 19t-84 54.5t-55.5 84t-20.5 107.5q0 56 19 104.5t52 85t79.5 58t102.5 21.5q64 0 111.5 -23t78 -62t45.5 -89.5t15 -104.5q0 -12 -0.5 -20t-1.5 -18z M4464 847q-46 0 -74 -29.5t-36 -79.5h218q-6 49 -33.5 79t-74.5 30zM5074 432q-76 0 -149 26.5t-134 80.5l87 105q46 -37 94 -59.5t105 -22.5q46 0 71.5 17t25.5 46q0 15 -5 26.5t-20 21t-41 19t-68 20.5q-51 12 -92 27.5t-70 38.5t-44.5 56t-15.5 83q0 46 17 83.5t48 63.5 t74.5 41t93.5 15q74 0 136 -22t114 -63l-77 -111q-45 31 -88 48.5t-86 17.5q-44 0 -65 -17t-21 -41q0 -18 6.5 -30t22.5 -22t44 -18.5t72 -20.5q51 -12 90 -28.5t66 -40t41 -55.5t14 -75q0 -51 -18 -90t-50.5 -65.5t-78 -40.5t-99.5 -14zM5596 977v-142h318v-134h-318v-259 h-147v668h509v-133h-362zM1055 868l480 -118q62 24 97.5 54.5t35.5 63.5v192q0 39 -48.5 74t-131.5 61t-194.5 41t-238.5 15t-238 -15t-194 -41t-131.5 -60.5t-48.5 -74.5v-192q0 -39 48.5 -74t131.5 -61t194 -41t238 -15v191zM1535 559l-480 118v-191l480 -118 q62 24 97.5 54.5t35.5 63.5v191q0 -33 -35.5 -63.5t-97.5 -54.5zM443 486q0 -39 48.5 -74t131.5 -61t194 -41t238 -15v191q-127 0 -238 15t-194 41t-131.5 61t-48.5 74v-191zM1612 -133q-80 0 -154.5 7.5t-144.5 20t-137 27.5t-132 30q-66 16 -131.5 31t-132.5 27 t-136.5 18.5t-143.5 6.5q-106 0 -213 -15.5t-222 -45.5l-65 -18v1648l38 10q123 33 238.5 49t229.5 16q78 0 150 -6.5t140.5 -18t134 -26t129.5 -29.5l19 -4q66 -16 131 -30.5t132 -26t136.5 -18.5t145.5 -7q104 0 207.5 14t214.5 44l65 17v-1646l-39 -11 q-120 -33 -233.5 -48.5t-226.5 -15.5zM500 140q80 0 154 -7t144 -19.5t137 -28t133 -31.5t131 -31t131.5 -26.5t136 -18t145.5 -6.5q191 0 394 51v1431q-195 -45 -382 -45q-80 0 -154 7.5t-144.5 19.5t-138 27t-133.5 30q-66 16 -131.5 30.5t-133 26t-137.5 18t-146 6.5 q-194 0 -401 -50v-1432q202 48 395 48z" />
<glyph unicode="v" />
<glyph unicode="&#x2000;" horiz-adv-x="895" />
<glyph unicode="&#x2001;" horiz-adv-x="1791" />
<glyph unicode="&#x2002;" horiz-adv-x="895" />
<glyph unicode="&#x2003;" horiz-adv-x="1791" />
<glyph unicode="&#x2004;" horiz-adv-x="597" />
<glyph unicode="&#x2005;" horiz-adv-x="447" />
<glyph unicode="&#x2006;" horiz-adv-x="298" />
<glyph unicode="&#x2007;" horiz-adv-x="298" />
<glyph unicode="&#x2008;" horiz-adv-x="223" />
<glyph unicode="&#x2009;" horiz-adv-x="358" />
<glyph unicode="&#x200a;" horiz-adv-x="99" />
<glyph unicode="&#x202f;" horiz-adv-x="358" />
<glyph unicode="&#x205f;" horiz-adv-x="447" />
<glyph unicode="&#x25fc;" horiz-adv-x="519" d="M0 0v0v0v0v0z" />
</font>
</defs>
</svg>
