<?xml version="1.0" encoding="utf-8"?>
<!-- Generator: Adobe Illustrator 16.0.0, SVG Export Plug-In . SVG Version: 6.00 Build 0)  -->
<!DOCTYPE svg PUBLIC "-//W3C//DTD SVG 1.1//EN" "http://www.w3.org/Graphics/SVG/1.1/DTD/svg11.dtd">
<svg version="1.1" id="Layer_1" xmlns="http://www.w3.org/2000/svg" xmlns:xlink="http://www.w3.org/1999/xlink" x="0px" y="0px"
	 width="275.687px" height="187.734px" viewBox="0 0 275.687 187.734" enable-background="new 0 0 275.687 187.734"
	 xml:space="preserve">
<g>
	<path fill="#D43D44" d="M-0.196,139.368c0,14.049,36.504,25.453,81.536,25.453h112.614c41.619,0,75.948,9.741,80.916,22.307h0.621
		V47.155c0-14.048-36.504-25.454-81.537-25.454H81.34c-41.619,0-75.948-9.74-80.916-22.307h-0.62V139.368z"/>
	<g>
		<path fill="#FFFFFF" d="M56.868,110.909l21.814,5.417c3.795-1.483,6.077-3.371,6.077-5.417v-8.711
			c0-4.803-12.487-8.703-27.892-8.703c-15.397,0-27.879,3.9-27.879,8.703v8.711c0,4.804,12.481,8.702,27.879,8.702V110.909z"/>
		<path fill="#FFFFFF" d="M78.683,125.031l-21.814-5.42v8.704l21.814,5.419c3.795-1.488,6.077-3.37,6.077-5.419
			c0-1.85,0-6.857,0-8.704C84.76,121.661,82.478,123.542,78.683,125.031z"/>
		<path fill="#FFFFFF" d="M28.989,119.611c0,1.847,0,6.854,0,8.704c0,4.806,12.481,8.699,27.879,8.699v-8.699
			C41.471,128.315,28.989,124.413,28.989,119.611z"/>
		<path fill="#FFFFFF" d="M108.69,127.519c-6.809,0-11.866-5.258-11.866-11.901v-0.062c0-6.576,4.958-11.966,12.065-11.966
			c4.359,0,6.975,1.456,9.121,3.569l-3.238,3.732c-1.786-1.619-3.604-2.611-5.918-2.611c-3.9,0-6.707,3.238-6.707,7.205v0.07
			c0,3.963,2.74,7.268,6.707,7.268c2.646,0,4.263-1.057,6.079-2.709l3.239,3.271C115.798,125.932,113.153,127.519,108.69,127.519z"
			/>
		<path fill="#FFFFFF" d="M132.087,127.122v-1.918c-1.219,1.357-2.906,2.25-5.354,2.25c-3.336,0-6.079-1.918-6.079-5.422v-0.066
			c0-3.869,2.941-5.65,7.139-5.65c1.786,0,3.076,0.294,4.331,0.726v-0.3c0-2.078-1.288-3.24-3.801-3.24
			c-1.917,0-3.271,0.367-4.893,0.963l-1.258-3.834c1.951-0.862,3.869-1.424,6.878-1.424c5.487,0,7.9,2.842,7.9,7.639v10.277H132.087
			z M132.188,119.983c-0.858-0.4-1.982-0.662-3.205-0.662c-2.149,0-3.471,0.857-3.471,2.445v0.066c0,1.354,1.125,2.145,2.745,2.145
			c2.345,0,3.931-1.282,3.931-3.104V119.983z"/>
		<path fill="#FFFFFF" d="M152.679,127.122l-4.628-7.238l-1.751,1.852v5.387h-5.022v-24.133h5.022v12.865l5.887-6.447h6.013
			l-6.742,6.969l6.972,10.746H152.679z"/>
		<path fill="#FFFFFF" d="M176.47,120.018h-12.328c0.495,2.277,2.082,3.467,4.332,3.467c1.686,0,2.908-0.531,4.295-1.818l2.88,2.549
			c-1.657,2.05-4.037,3.304-7.241,3.304c-5.323,0-9.26-3.735-9.26-9.155v-0.068c0-5.057,3.604-9.222,8.761-9.222
			c5.916,0,8.627,4.595,8.627,9.619v0.063C176.535,119.256,176.504,119.553,176.47,120.018z M167.908,113.108
			c-2.08,0-3.438,1.486-3.835,3.766h7.57C171.345,114.625,170.022,113.108,167.908,113.108z"/>
		<path fill="#FFFFFF" d="M189.756,120.178h-3.867v6.943h-5.087v-23.139h9.452c5.517,0,8.855,3.273,8.855,8.003v0.062
			C199.109,117.405,194.944,120.178,189.756,120.178z M193.955,112.082c0-2.28-1.588-3.502-4.132-3.502h-3.935v7.075h4.033
			c2.546,0,4.033-1.523,4.033-3.505V112.082z"/>
		<path fill="#FFFFFF" d="M217.353,127.122v-9.293h-9.389v9.293h-5.086v-23.139h5.086v9.156h9.389v-9.156h5.089v23.139H217.353z"/>
		<path fill="#FFFFFF" d="M236.952,120.178h-3.867v6.943h-5.089v-23.139h9.452c5.517,0,8.857,3.273,8.857,8.003v0.062
			C246.306,117.405,242.141,120.178,236.952,120.178z M241.149,112.082c0-2.28-1.589-3.502-4.132-3.502h-3.933v7.075h4.03
			c2.547,0,4.034-1.523,4.034-3.505V112.082z"/>
	</g>
	<g>
		<g>
			<path fill="#FFFFFF" d="M171.78,77.303h-4.477l-5.277-15.296l-5.276,15.296h-4.475l-7.983-23.546h5.511l4.843,15.832
				l5.243-15.898h4.409l5.244,15.898l4.843-15.832h5.377L171.78,77.303z"/>
			<path fill="#FFFFFF" d="M183.807,77.135V53.757h5.145v23.378H183.807z"/>
			<path fill="#FFFFFF" d="M205.384,58.499v18.636h-5.142V58.499h-7.114v-4.742h19.371v4.742H205.384z"/>
			<path fill="#FFFFFF" d="M231.069,77.135V67.75h-9.484v9.384h-5.145V53.757h5.145v9.251h9.484v-9.251h5.144v23.378H231.069z"/>
		</g>
		<g>
			<path fill="#FFFFFF" d="M50.201,77.135H39.08V53.755h10.855c4.775,0,7.715,2.372,7.715,6.045v0.067
				c0,2.639-1.403,4.107-3.073,5.043c2.706,1.035,4.375,2.605,4.375,5.744v0.066C58.952,74.998,55.479,77.135,50.201,77.135z
				 M52.539,60.669c0-1.537-1.201-2.404-3.372-2.404H44.09v4.943h4.743c2.271,0,3.706-0.736,3.706-2.472V60.669z M53.843,70.021
				c0-1.569-1.168-2.538-3.809-2.538H44.09v5.143h6.111c2.272,0,3.642-0.802,3.642-2.539V70.021z"/>
			<path fill="#FFFFFF" d="M80.051,77.135l-2.138-5.243h-9.886l-2.138,5.243h-5.243l10.02-23.545h4.743l10.019,23.545H80.051z
				 M72.971,59.767l-3.107,7.583h6.213L72.971,59.767z"/>
			<path fill="#FFFFFF" d="M103.587,77.135l-7.248-9.953l-2.705,2.805v7.147H88.49V53.755h5.144v10.22l9.486-10.22h6.211
				l-9.519,9.92l9.953,13.459H103.587z"/>
			<path fill="#FFFFFF" d="M112.872,77.135V53.755h17.634v4.576h-12.524v4.743h11.021v4.576h-11.021v4.909h12.69v4.576H112.872z"/>
		</g>
	</g>
</g>
</svg>
