<?xml version="1.0" encoding="utf-8"?>
<!-- Generator: Adobe Illustrator 16.0.0, SVG Export Plug-In . SVG Version: 6.00 Build 0)  -->
<!DOCTYPE svg PUBLIC "-//W3C//DTD SVG 1.1//EN" "http://www.w3.org/Graphics/SVG/1.1/DTD/svg11.dtd">
<svg version="1.1" id="Layer_1" xmlns="http://www.w3.org/2000/svg" xmlns:xlink="http://www.w3.org/1999/xlink" x="0px" y="0px"
	 width="275.687px" height="187.734px" viewBox="0 0 275.687 187.734" enable-background="new 0 0 275.687 187.734"
	 xml:space="preserve">
<g>
	<path fill="#D43D44" d="M0,139.973c0,14.049,36.504,25.453,81.536,25.453H194.15c41.618,0,75.948,9.742,80.917,22.308h0.619V47.761
		c0-14.048-36.504-25.453-81.536-25.453H81.536C39.917,22.308,5.588,12.567,0.62,0H0V139.973z"/>
	<g>
		<path fill="#FFFFFF" d="M57.064,111.514l21.814,5.418c3.795-1.484,6.077-3.372,6.077-5.418v-8.71
			c0-4.804-12.487-8.704-27.892-8.704c-15.397,0-27.879,3.9-27.879,8.704v8.71c0,4.805,12.481,8.703,27.879,8.703V111.514z"/>
		<path fill="#FFFFFF" d="M78.879,125.636l-21.814-5.419v8.701l21.814,5.422c3.795-1.489,6.077-3.371,6.077-5.422
			c0-1.848,0-6.855,0-8.701C84.956,122.266,82.674,124.147,78.879,125.636z"/>
		<path fill="#FFFFFF" d="M29.186,120.217c0,1.846,0,6.854,0,8.701c0,4.809,12.481,8.701,27.879,8.701v-8.701
			C41.667,128.918,29.186,125.018,29.186,120.217z"/>
		<path fill="#FFFFFF" d="M108.887,128.125c-6.809,0-11.866-5.258-11.866-11.902v-0.062c0-6.576,4.958-11.966,12.065-11.966
			c4.359,0,6.975,1.456,9.121,3.568l-3.238,3.734c-1.786-1.62-3.604-2.612-5.918-2.612c-3.9,0-6.707,3.239-6.707,7.206v0.069
			c0,3.964,2.74,7.268,6.707,7.268c2.646,0,4.263-1.057,6.079-2.709l3.239,3.271C115.994,126.539,113.35,128.125,108.887,128.125z"
			/>
		<path fill="#FFFFFF" d="M132.283,127.727v-1.919c-1.219,1.358-2.906,2.251-5.354,2.251c-3.336,0-6.079-1.918-6.079-5.422v-0.066
			c0-3.869,2.941-5.65,7.139-5.65c1.786,0,3.076,0.295,4.331,0.726v-0.3c0-2.077-1.288-3.24-3.801-3.24
			c-1.917,0-3.271,0.367-4.893,0.963l-1.258-3.834c1.951-0.861,3.869-1.424,6.878-1.424c5.487,0,7.9,2.842,7.9,7.639v10.277H132.283
			z M132.384,120.588c-0.858-0.4-1.982-0.662-3.205-0.662c-2.149,0-3.471,0.857-3.471,2.445v0.066c0,1.354,1.125,2.145,2.745,2.145
			c2.345,0,3.931-1.281,3.931-3.104V120.588z"/>
		<path fill="#FFFFFF" d="M152.875,127.727l-4.628-7.237l-1.751,1.851v5.387h-5.022v-24.133h5.022v12.864l5.887-6.446h6.013
			l-6.742,6.969l6.972,10.746H152.875z"/>
		<path fill="#FFFFFF" d="M176.666,120.624h-12.328c0.495,2.278,2.082,3.467,4.332,3.467c1.686,0,2.908-0.531,4.295-1.818
			l2.88,2.547c-1.657,2.053-4.037,3.307-7.241,3.307c-5.323,0-9.26-3.736-9.26-9.156v-0.068c0-5.058,3.604-9.221,8.761-9.221
			c5.916,0,8.627,4.594,8.627,9.619v0.063C176.731,119.862,176.7,120.159,176.666,120.624z M168.104,113.713
			c-2.08,0-3.438,1.486-3.835,3.767h7.57C171.541,115.229,170.219,113.713,168.104,113.713z"/>
		<path fill="#FFFFFF" d="M189.952,120.784h-3.867v6.943h-5.087v-23.139h9.452c5.517,0,8.855,3.273,8.855,8.004v0.061
			C199.306,118.01,195.141,120.784,189.952,120.784z M194.151,112.687c0-2.28-1.588-3.501-4.132-3.501h-3.935v7.074h4.033
			c2.546,0,4.033-1.525,4.033-3.506V112.687z"/>
		<path fill="#FFFFFF" d="M217.548,127.727v-9.293h-9.387v9.293h-5.087v-23.139h5.087v9.156h9.387v-9.156h5.09v23.139H217.548z"/>
		<path fill="#FFFFFF" d="M237.148,120.784h-3.866v6.943h-5.09v-23.139h9.451c5.518,0,8.857,3.273,8.857,8.004v0.061
			C246.501,118.01,242.337,120.784,237.148,120.784z M241.346,112.687c0-2.28-1.589-3.501-4.132-3.501h-3.932v7.074h4.029
			c2.547,0,4.034-1.525,4.034-3.506V112.687z"/>
	</g>
	<g>
		<path fill="#FFFFFF" d="M182.068,77.909h-4.476l-5.278-15.296l-5.277,15.296h-4.474l-7.983-23.547h5.511l4.844,15.832
			l5.243-15.898h4.407l5.245,15.898l4.843-15.832h5.378L182.068,77.909z"/>
		<path fill="#FFFFFF" d="M194.095,77.741V54.362h5.144v23.378H194.095z"/>
		<path fill="#FFFFFF" d="M215.673,59.104v18.636h-5.144V59.104h-7.114v-4.742h19.371v4.742H215.673z"/>
		<path fill="#FFFFFF" d="M241.356,77.741v-9.384h-9.484v9.384h-5.144V54.362h5.144v9.252h9.484v-9.252h5.145v23.378H241.356z"/>
	</g>
	<g>
		<path fill="#FFFFFF" d="M60.49,77.741H49.367V54.361h10.855c4.777,0,7.716,2.372,7.716,6.045v0.067
			c0,2.638-1.403,4.107-3.073,5.043c2.705,1.035,4.375,2.605,4.375,5.745v0.066C69.24,75.603,65.767,77.741,60.49,77.741z
			 M62.828,61.275c0-1.537-1.203-2.404-3.373-2.404h-5.077v4.943h4.742c2.272,0,3.708-0.736,3.708-2.473V61.275z M64.131,70.627
			c0-1.571-1.169-2.538-3.809-2.538h-5.944v5.143h6.112c2.271,0,3.641-0.802,3.641-2.539V70.627z"/>
		<path fill="#FFFFFF" d="M90.338,77.741l-2.137-5.243h-9.887l-2.137,5.243h-5.244l10.02-23.546h4.743l10.019,23.546H90.338z
			 M83.258,60.373l-3.106,7.582h6.212L83.258,60.373z"/>
		<path fill="#FFFFFF" d="M113.875,77.741l-7.249-9.953l-2.705,2.806v7.147h-5.144V54.361h5.144v10.22l9.486-10.22h6.211
			L110.1,64.28l9.954,13.46H113.875z"/>
		<path fill="#FFFFFF" d="M123.159,77.741V54.361h17.634v4.576h-12.524v4.744h11.021v4.575h-11.021v4.909h12.692v4.576H123.159z"/>
	</g>
	<rect x="29.186" y="54.361" fill="#FFFFFF" width="5.109" height="23.38"/>
</g>
</svg>
