<?xml version="1.0" encoding="utf-8"?>
<!-- Generator: Adobe Illustrator 16.0.0, SVG Export Plug-In . SVG Version: 6.00 Build 0)  -->
<!DOCTYPE svg PUBLIC "-//W3C//DTD SVG 1.1//EN" "http://www.w3.org/Graphics/SVG/1.1/DTD/svg11.dtd">
<svg version="1.1" id="Layer_1" xmlns="http://www.w3.org/2000/svg" xmlns:xlink="http://www.w3.org/1999/xlink" x="0px" y="0px"
	 width="297.462px" height="187.733px" viewBox="0 0 297.462 187.733" enable-background="new 0 0 297.462 187.733"
	 xml:space="preserve">
<g>
	<path fill="#D33E44" d="M0,139.973c0,14.05,36.504,25.454,81.537,25.454h134.389c41.617,0,75.947,9.741,80.916,22.307h0.62V47.761
		c0-14.048-36.503-25.453-81.536-25.453H81.537C39.918,22.308,5.589,12.567,0.62,0H0V139.973z"/>
	<g>
		<g>
			<path fill="#FFFFFF" d="M84.412,77.921h-4.476l-5.277-15.296l-5.278,15.296h-4.475l-7.983-23.545h5.512l4.844,15.831
				l5.243-15.898h4.408l5.244,15.898l4.844-15.831h5.376L84.412,77.921z"/>
			<path fill="#FFFFFF" d="M96.206,77.756v-23.38h17.633v4.576h-12.523v4.742h11.021v4.576h-11.021v4.91h12.691v4.577H96.206z"/>
		</g>
		<g>
			<path fill="#FFFFFF" d="M32.44,105.544H21.318v-23.38h10.854c4.777,0,7.715,2.372,7.715,6.046v0.067
				c0,2.638-1.402,4.107-3.071,5.042c2.704,1.036,4.375,2.605,4.375,5.746v0.067C41.19,103.406,37.717,105.544,32.44,105.544z
				 M34.777,89.078c0-1.535-1.202-2.403-3.374-2.403h-5.075v4.943h4.742c2.271,0,3.707-0.736,3.707-2.473V89.078z M36.081,98.431
				c0-1.57-1.171-2.538-3.809-2.538h-5.944v5.145h6.112c2.271,0,3.641-0.804,3.641-2.54V98.431z"/>
			<path fill="#FFFFFF" d="M62.835,105.544l-2.138-5.243h-9.886l-2.138,5.243h-5.243l10.02-23.545h4.742l10.02,23.545H62.835z
				 M55.755,88.178l-3.107,7.581h6.213L55.755,88.178z"/>
			<path fill="#FFFFFF" d="M86.918,105.544l-7.248-9.953l-2.704,2.807v7.146h-5.144v-23.38h5.144v10.221l9.484-10.221h6.212
				l-9.519,9.92l9.953,13.46H86.918z"/>
			<path fill="#FFFFFF" d="M96.206,105.544v-23.38h17.634v4.578h-12.524v4.742h11.021v4.575h-11.021v4.911h12.692v4.574H96.206z"/>
		</g>
		<g>
			<path fill="#FFFFFF" d="M49.573,133.501h-4.476l-5.277-15.297l-5.276,15.297h-4.475l-7.983-23.547h5.512l4.843,15.832
				l5.243-15.898h4.407l5.245,15.898l4.843-15.832h5.378L49.573,133.501z"/>
			<path fill="#FFFFFF" d="M61.602,133.332v-23.378h5.143v23.378H61.602z"/>
			<path fill="#FFFFFF" d="M83.178,114.696v18.636h-5.143v-18.636h-7.113v-4.742h19.37v4.742H83.178z"/>
			<path fill="#FFFFFF" d="M108.863,133.332v-9.384h-9.485v9.384h-5.144v-23.378h5.144v9.252h9.485v-9.252h5.145v23.378H108.863z"/>
		</g>
	</g>
	<path fill="#FFFFFF" d="M140.108,133.425c-6.729,0-11.728-5.197-11.728-11.765v-0.063c0-6.501,4.902-11.828,11.926-11.828
		c4.312,0,6.893,1.438,9.018,3.529l-3.2,3.691c-1.766-1.6-3.563-2.583-5.85-2.583c-3.856,0-6.636,3.206-6.636,7.125v0.065
		c0,3.922,2.714,7.188,6.636,7.188c2.613,0,4.213-1.043,6.012-2.678l3.202,3.232C147.133,131.856,144.52,133.425,140.108,133.425z"
		/>
	<path fill="#FFFFFF" d="M163.241,133.033v-1.894c-1.211,1.338-2.876,2.219-5.294,2.219c-3.301,0-6.013-1.895-6.013-5.358v-0.065
		c0-3.819,2.908-5.587,7.058-5.587c1.766,0,3.038,0.294,4.28,0.72v-0.294c0-2.057-1.273-3.202-3.757-3.202
		c-1.897,0-3.233,0.359-4.835,0.947l-1.242-3.793c1.929-0.849,3.822-1.402,6.794-1.402c5.426,0,7.81,2.811,7.81,7.546v10.164
		H163.241z M163.338,125.975c-0.847-0.392-1.962-0.653-3.168-0.653c-2.126,0-3.432,0.852-3.432,2.42v0.064
		c0,1.338,1.11,2.122,2.711,2.122c2.322,0,3.889-1.274,3.889-3.07V125.975z"/>
	<path fill="#FFFFFF" d="M183.593,133.033l-4.572-7.156l-1.732,1.829v5.327h-4.965V109.18h4.965v12.714l5.814-6.375h5.947
		l-6.664,6.896l6.892,10.619H183.593z"/>
	<path fill="#FFFFFF" d="M207.113,126.009h-12.186c0.487,2.253,2.055,3.43,4.277,3.43c1.666,0,2.875-0.521,4.247-1.798l2.844,2.517
		c-1.635,2.025-3.984,3.268-7.156,3.268c-5.259,0-9.148-3.692-9.148-9.051v-0.066c0-4.998,3.561-9.113,8.657-9.113
		c5.852,0,8.529,4.541,8.529,9.506v0.066C207.178,125.258,207.145,125.55,207.113,126.009z M198.648,119.179
		c-2.06,0-3.396,1.469-3.788,3.723h7.482C202.047,120.682,200.741,119.179,198.648,119.179z"/>
	<path fill="#FFFFFF" d="M220.244,126.173h-3.823v6.86h-5.03v-22.875h9.346c5.455,0,8.755,3.237,8.755,7.91v0.065
		C229.491,123.428,225.376,126.173,220.244,126.173z M224.395,118.167c0-2.256-1.566-3.465-4.086-3.465h-3.888v6.992h3.987
		c2.516,0,3.986-1.502,3.986-3.464V118.167z"/>
	<path fill="#FFFFFF" d="M247.526,133.033v-9.181h-9.281v9.181h-5.03v-22.875h5.03v9.053h9.281v-9.053h5.03v22.875H247.526z"/>
	<path fill="#FFFFFF" d="M266.899,126.173h-3.824v6.86h-5.031v-22.875h9.345c5.456,0,8.754,3.237,8.754,7.91v0.065
		C276.143,123.428,272.029,126.173,266.899,126.173z M271.049,118.167c0-2.256-1.57-3.465-4.086-3.465h-3.888v6.992h3.985
		c2.516,0,3.988-1.502,3.988-3.464V118.167z"/>
	<g>
		<g>
			<path fill="#FFFFFF" d="M202.262,71.449l21.559,5.354c3.753-1.47,6.008-3.332,6.008-5.354c0-1.833,0-6.777,0-8.614
				c0-4.744-12.345-8.602-27.566-8.602c-15.226,0-27.565,3.858-27.565,8.602c0,1.837,0,6.78,0,8.614
				c0,4.748,12.34,8.603,27.565,8.603V71.449z"/>
			<g>
				<path fill="#FFFFFF" d="M223.82,85.408l-21.559-5.356v8.604l21.559,5.356c3.753-1.472,6.008-3.331,6.008-5.356
					c0-1.829,0-6.786,0-8.604C229.828,82.076,227.573,83.937,223.82,85.408z"/>
				<path fill="#FFFFFF" d="M174.696,80.052c0,1.819,0,6.775,0,8.604c0,4.748,12.34,8.597,27.565,8.597v-8.597
					C187.036,88.656,174.696,84.797,174.696,80.052z"/>
			</g>
		</g>
	</g>
</g>
</svg>
