<svg xmlns="http://www.w3.org/2000/svg" width="100.926" height="77.564" viewBox="0 0 100.926 77.564">
  <g id="Group_84" data-name="Group 84" transform="translate(-162.032 -1992.323)">
    <path id="Path_81" data-name="Path 81" d="M223.449,2002.69l-6.215-1.5,1.552-6.417a3.2,3.2,0,1,1,6.215,1.5Z" fill="#d43d44"/>
    <path id="Path_82" data-name="Path 82" d="M233.183,2003.471l-6.215-1.5,1.552-6.417a3.2,3.2,0,1,1,6.215,1.5Z" fill="#d43d44"/>
    <path id="Path_83" data-name="Path 83" d="M228.683,2053.42l-40.3-26.7c-1.2-1.018-3.886,1.175-4.467-.158a9.865,9.865,0,0,1,3.134-11.843l15.139-11.326a30.343,30.343,0,0,1,41.3,4.653l14.362,16.911a21.467,21.467,0,0,1,.319,27.406l-5.4,6.321a13.494,13.494,0,0,1-8.659,4.633l-10.389-5.888c-2.762.33-2.917-2.209-5.042-4" fill="#d6b967"/>
    <path id="Path_84" data-name="Path 84" d="M252.955,2043.843c-3,1.514-5.133-3.062-7.9-8.557s-5.131-9.827-2.128-11.341,7.683,1.713,10.453,7.208,2.581,11.176-.422,12.69" fill="#fff"/>
    <path id="Path_85" data-name="Path 85" d="M232.443,2064.705l11.671-1.394.086-.01a3.067,3.067,0,0,0,2-4.876l-26.378-35.678a14.046,14.046,0,0,0-13.625-5.5l-19.317,3.251a4.1,4.1,0,0,0-3.255,5.294,9.768,9.768,0,0,0,2.97,4.346l38.19,32.269a10.024,10.024,0,0,0,7.661,2.3" fill="#826e3b"/>
    <path id="Path_86" data-name="Path 86" d="M186.924,2057.568l-4.515,6.01a10.047,10.047,0,1,1-16.066-12.07l4.516-6.01a10.047,10.047,0,1,1,16.065,12.07Z" fill="none" stroke="#363637" stroke-miterlimit="10" stroke-width="4.566"/>
    <line id="Line_1" data-name="Line 1" y1="22.075" x2="16.586" transform="translate(168.341 2043.501)" fill="none" stroke="#363637" stroke-linecap="round" stroke-miterlimit="10" stroke-width="4.566"/>
    <line id="Line_2" data-name="Line 2" y1="15.131" x2="11.368" transform="translate(184.927 2028.37)" fill="none" stroke="#363637" stroke-linecap="round" stroke-miterlimit="10" stroke-width="4.566"/>
    <path id="Path_87" data-name="Path 87" d="M199.16,2057.568l-4.516,6.01a10.047,10.047,0,1,1-16.065-12.07l4.516-6.01a10.047,10.047,0,1,1,16.065,12.07Z" fill="none" stroke="#363637" stroke-miterlimit="10" stroke-width="4.566"/>
    <line id="Line_3" data-name="Line 3" y1="22.075" x2="16.585" transform="translate(180.576 2043.501)" fill="none" stroke="#363637" stroke-linecap="round" stroke-miterlimit="10" stroke-width="4.566"/>
    <line id="Line_4" data-name="Line 4" y1="15.131" x2="11.368" transform="translate(197.162 2028.37)" fill="none" stroke="#363637" stroke-linecap="round" stroke-miterlimit="10" stroke-width="4.566"/>
  </g>
</svg>
