<svg id="b7debe0f-1bd6-4241-aa07-98f1a1186fcb" data-name="Layer 1" xmlns="http://www.w3.org/2000/svg" xmlns:xlink="http://www.w3.org/1999/xlink" viewBox="0 0 100.91 77.55"><defs><style>.a4bbc126-ea09-4cd2-ab69-a705edf549c2,.ea2571e0-ef43-4d78-be62-25888679aca1,.edf9d62c-d940-446e-940b-ab05000e2aa0{fill:none;}.b2aaa668-3d78-4575-9a28-f83bfd0c1081{clip-path:url(#a089da9d-c652-4891-8c2a-407b584b9dde);}.b94af668-16e2-4a5e-bfcf-3652dd118435{fill:#d43d44;}.a8ddcecf-d859-4e71-acf2-fe33e8152018{fill:#ddb985;}.bbf53aac-9823-457c-942e-e0253644de92{fill:#fff;}.a4bbc126-ea09-4cd2-ab69-a705edf549c2,.ea2571e0-ef43-4d78-be62-25888679aca1{stroke:#1d0036;stroke-miterlimit:10;stroke-width:4.57px;}.a4bbc126-ea09-4cd2-ab69-a705edf549c2{stroke-linecap:round;}</style><clipPath id="a089da9d-c652-4891-8c2a-407b584b9dde"><rect class="edf9d62c-d940-446e-940b-ab05000e2aa0" x="-162.05" y="-1867.04" width="1280" height="5865.38"/></clipPath></defs><title>batteries_included</title><g class="b2aaa668-3d78-4575-9a28-f83bfd0c1081"><path class="b94af668-16e2-4a5e-bfcf-3652dd118435" d="M61.4,10.37,55.19,8.86l1.55-6.41A3.2,3.2,0,0,1,63,4Z"/><path class="b94af668-16e2-4a5e-bfcf-3652dd118435" d="M71.14,11.15,64.92,9.64l1.55-6.41a3.2,3.2,0,0,1,6.22,1.5Z"/><path class="a8ddcecf-d859-4e71-acf2-fe33e8152018" d="M66.64,61.1,26.34,34.39c-1.21-1-3.89,1.18-4.47-.16A9.86,9.86,0,0,1,25,22.39L40.14,11.06a30.35,30.35,0,0,1,41.31,4.66L95.81,32.63A21.46,21.46,0,0,1,96.13,60l-5.4,6.33A13.52,13.52,0,0,1,82.07,71L71.68,65.1c-2.76.33-2.92-2.21-5-4"/><path class="bbf53aac-9823-457c-942e-e0253644de92" d="M90.91,51.52C87.91,53,85.78,48.46,83,43s-5.13-9.82-2.13-11.34,7.68,1.72,10.45,7.21S93.91,50,90.91,51.52"/><path class="b94af668-16e2-4a5e-bfcf-3652dd118435" d="M70.4,72.38,82.07,71h.08a3.07,3.07,0,0,0,2-4.88L57.77,30.42a14.06,14.06,0,0,0-13.62-5.5L24.83,28.18a4.09,4.09,0,0,0-3.25,5.29,9.72,9.72,0,0,0,3,4.34L62.74,70.08a10,10,0,0,0,7.66,2.3"/><path class="ea2571e0-ef43-4d78-be62-25888679aca1" d="M24.88,65.25l-4.52,6A10,10,0,0,1,4.3,59.19l4.51-6A10,10,0,1,1,24.88,65.25Z"/><line class="a4bbc126-ea09-4cd2-ab69-a705edf549c2" x1="6.3" y1="73.25" x2="22.88" y2="51.18"/><line class="a4bbc126-ea09-4cd2-ab69-a705edf549c2" x1="22.88" y1="51.18" x2="34.25" y2="36.05"/><path class="ea2571e0-ef43-4d78-be62-25888679aca1" d="M37.11,65.25l-4.51,6A10,10,0,0,1,16.53,59.19l4.52-6A10,10,0,1,1,37.11,65.25Z"/><line class="a4bbc126-ea09-4cd2-ab69-a705edf549c2" x1="18.53" y1="73.25" x2="35.12" y2="51.18"/><line class="a4bbc126-ea09-4cd2-ab69-a705edf549c2" x1="35.12" y1="51.18" x2="46.48" y2="36.05"/></g></svg>