<?xml version="1.0" encoding="utf-8"?>
<!-- Generator: Adobe Illustrator 16.0.0, SVG Export Plug-In . SVG Version: 6.00 Build 0)  -->
<!DOCTYPE svg PUBLIC "-//W3C//DTD SVG 1.1//EN" "http://www.w3.org/Graphics/SVG/1.1/DTD/svg11.dtd">
<svg version="1.1" id="Layer_1" xmlns="http://www.w3.org/2000/svg" xmlns:xlink="http://www.w3.org/1999/xlink" x="0px" y="0px"
	 width="101.113px" height="131.572px" viewBox="0 0 101.113 131.572" enable-background="new 0 0 101.113 131.572"
	 xml:space="preserve">
<g id="Layer_3">
</g>
<g>
	<ellipse fill="#DDDDD4" cx="35.303" cy="125.401" rx="19.758" ry="3.83"/>
	<g>
		
			<linearGradient id="SVGID_1_" gradientUnits="userSpaceOnUse" x1="838.8396" y1="170.8562" x2="838.8396" y2="86.5925" gradientTransform="matrix(0.7071 0.7071 -0.7071 0.7071 -452.2843 -633.9946)">
			<stop  offset="0" style="stop-color:#F7F6F3"/>
			<stop  offset="1" style="stop-color:#F7F6F3"/>
		</linearGradient>
		<polygon fill="url(#SVGID_1_)" points="37.78,97.692 2.318,62.23 61.898,2.649 97.361,38.11 		"/>
		<circle fill="#FFFFFF" cx="49.839" cy="50.168" r="15.164"/>
		<path fill="#FFFFFF" d="M28.737,88.649L28.737,88.649c4.995-4.992,13.091-4.996,18.087,0l-9.042,9.043L28.737,88.649z"/>
		<path fill="#FFFFFF" d="M88.318,47.151L88.318,47.151c-4.994-4.995-4.996-13.089-0.002-18.084l9.043,9.045L88.318,47.151z"/>
		<path fill="#FFFFFF" d="M11.359,71.27L11.359,71.27c4.992-4.992,4.996-13.092,0.001-18.086l-9.043,9.043L11.359,71.27z"/>
		<path fill="#FFFFFF" d="M52.857,11.689L52.857,11.689c4.99,4.994,13.09,4.995,18.084,0.002l-9.043-9.043L52.857,11.689z"/>
		
			<rect x="24.762" y="8.04" transform="matrix(0.7071 0.7071 -0.7071 0.7071 50.0725 -20.5457)" fill="none" stroke="#DDDDD4" stroke-width="4.292" stroke-miterlimit="10" width="50.15" height="84.259"/>
	</g>
</g>
</svg>
