<svg xmlns="http://www.w3.org/2000/svg" width="124.892" height="100.945" viewBox="0 0 124.892 100.945">
  <g id="Group_88" data-name="Group 88" transform="translate(-160.006 -1657.07)">
    <g id="Group_1" data-name="Group 1">
      <path id="Path_1" data-name="Path 1" d="M256.1,1751.015s6.088-25.334,17.176-41.541-4.078-23.815-11.124-11.849l1.4-8a19.5,19.5,0,0,0-15.846-22.576l-3.2-.561a19.5,19.5,0,0,0-22.576,15.846l-10.655,60.834Z" fill="#d23d44"/>
      <path id="Path_2" data-name="Path 2" d="M257.824,1744.718l-8.612-1.508,18.352-23.872A163.322,163.322,0,0,0,257.824,1744.718Z" fill="#c12b36"/>
      <path id="Path_3" data-name="Path 3" d="M275.768,1694.245l-36.161,47.282-9.6-1.682,32.145-42.22C266.174,1690.785,272.854,1690.343,275.768,1694.245Z" fill="#c12b36"/>
      <path id="Path_4" data-name="Path 4" d="M212.392,1736.761l8,1.4,42.974-56.189a19.522,19.522,0,0,0-4.349-8.553Z" fill="#c12b36"/>
      <path id="Path_5" data-name="Path 5" d="M219.4,1696.738l23.313-30.482q.89.074,1.786.228l3.2.561a19.546,19.546,0,0,1,4.321,1.282l-35.858,46.884Z" fill="#c12b36"/>
      <path id="Path_6" data-name="Path 6" d="M212.392,1736.761l-1.122,6.4,44.825,7.851s.587-2.442,1.73-6.3Z" fill="#363637"/>
      <path id="Path_7" data-name="Path 7" d="M220.843,1758.015l.031-.127Z" fill="#d28e73"/>
      <path id="Path_8" data-name="Path 8" d="M220.9,1757.784l.092-.368Z" fill="#d28e73"/>
    </g>
    <path id="Path_62" data-name="Path 62" d="M208.271,1679.444l.609-7.915,11.72-1.37-12.329-.761-.984-12.328-.994,12.024-11.727,1.979s11.575.3,11.727.761S208.271,1679.444,208.271,1679.444Z" fill="#d23d44"/>
    <path id="Path_63" data-name="Path 63" d="M274.807,1735.175l-.448,5.827-8.629,1.009,9.077.56.725,9.077.732-8.853,8.634-1.456s-8.522-.225-8.634-.561S274.807,1735.175,274.807,1735.175Z" fill="#363637"/>
    <path id="Path_110" data-name="Path 110" d="M190.912,1676.648c-.175,0-.347.013-.521.018s-.346-.018-.521-.018c-11.979,0-28.645,22-28.645,42.708s12.825,32.292,28.645,32.292c.175,0,.347-.013.521-.017s.346.017.521.017c15.821,0,28.646-11.581,28.646-32.292s-16.667-42.708-28.646-42.708" fill="#d6b967"/>
    <path id="Path_111" data-name="Path 111" d="M192.535,1719.908h-4.289v-10.294a.858.858,0,0,1,.858-.858h2.573a.858.858,0,0,1,.858.858Z" fill="#fff"/>
    <rect id="Rectangle_34" data-name="Rectangle 34" width="59.54" height="4.289" transform="translate(160.006 1716.477)" fill="#fff"/>
    <path id="Path_112" data-name="Path 112" d="M183.1,1719.35H178.81v-6.391a.857.857,0,0,1,.858-.857h2.573a.857.857,0,0,1,.858.857Z" fill="#fff"/>
    <path id="Path_113" data-name="Path 113" d="M173.663,1719.35h-4.289v-9.736a.858.858,0,0,1,.858-.858H172.8a.858.858,0,0,1,.858.858Z" fill="#fff"/>
    <path id="Path_114" data-name="Path 114" d="M178.982,1730.53l4.3-5.474a.858.858,0,0,1,1.349,0l4.3,5.474a.858.858,0,0,1-.675,1.388h-8.6a.858.858,0,0,1-.675-1.388" fill="#fff"/>
  </g>
</svg>
