<svg id="b2f1e0ea-8645-4551-afa5-4a0066eef3dc" data-name="Layer 1" xmlns="http://www.w3.org/2000/svg" xmlns:xlink="http://www.w3.org/1999/xlink" viewBox="0 0 128.16 86.76"><defs><style>.a1c86002-3df2-4f6b-b9c3-fbe5e9b7f4b9,.b45d4365-b24a-4ea2-a258-d5ba25c5ca7b{fill:none;}.ec01fb7c-c4a6-433d-9798-d2d33033aa8b{clip-path:url(#ff364dfa-ccaa-48af-be1f-6df3467a65ea);}.aaf08228-2d33-46fb-bdea-31511a5d716f{fill:#9dd640;}.b45d4365-b24a-4ea2-a258-d5ba25c5ca7b{stroke:#9dd640;stroke-linecap:round;stroke-linejoin:round;stroke-width:2.81px;}.b8473d80-e15d-4474-b24e-ec7ea7d6b723{fill:#ddb985;}.e7bdf783-90e6-4251-8df0-7a765c3ae66d{fill:#fff;}.fb87495a-7a29-4866-a28b-3da1e1cbca6a{fill:#d43d44;}</style><clipPath id="ff364dfa-ccaa-48af-be1f-6df3467a65ea"><rect class="a1c86002-3df2-4f6b-b9c3-fbe5e9b7f4b9" x="-164.33" y="-1547" width="1280" height="5865.38"/></clipPath></defs><title>build_quickly</title><g class="ec01fb7c-c4a6-433d-9798-d2d33033aa8b"><polygon class="aaf08228-2d33-46fb-bdea-31511a5d716f" points="81.54 67.22 78.33 68.97 79.54 69.99 76.8 72.74 78.38 73.08 76.49 76 77.99 76.01 76.93 79.51 78.36 79.4 78.44 83.19 79.78 82.61 80.05 86.76 83.56 84.52 83.89 85.93 86.98 83.75 87.74 84.97 89.93 82.03 90.82 83.23 92.05 79.97 93.26 81.04 93.85 77.21 95.39 77.57 94.89 73.96 96.45 73.9 94.67 70.81 96.03 70.35 93.73 67.39 95.07 67.02 87.01 62.95 87.51 64.25 83.76 64.16 84.19 65.53 80.66 65.93 81.54 67.22"/><path class="b45d4365-b24a-4ea2-a258-d5ba25c5ca7b" d="M67.61,70.22C72,62.75,81,58.75,91.9,65c15.48,8.8,25.06-1,27.18-5"/><path class="aaf08228-2d33-46fb-bdea-31511a5d716f" d="M123.89,50.64a6.78,6.78,0,0,0-5.43,10.63,6.78,6.78,0,0,0,5.43-10.63"/><path class="aaf08228-2d33-46fb-bdea-31511a5d716f" d="M116.29,50.87a7.8,7.8,0,0,0-.68,1.28,7.48,7.48,0,0,0,2.85,9.12,7,7,0,0,0,.67-1.27,7.48,7.48,0,0,0-2.84-9.13"/><path class="aaf08228-2d33-46fb-bdea-31511a5d716f" d="M128.16,56.94a7.83,7.83,0,0,1-.64,1.3,7.48,7.48,0,0,1-9.06,3A7.37,7.37,0,0,1,119.1,60a7.47,7.47,0,0,1,9.06-3"/><polygon class="aaf08228-2d33-46fb-bdea-31511a5d716f" points="111.21 62 112.15 59.09 110.83 59.16 110.91 55.91 109.75 56.62 109.21 53.75 108.3 54.61 106.92 51.87 106.11 52.76 103.88 50.51 103.41 51.63 100.84 49.26 100.01 52.65 98.99 51.98 98.37 55.09 97.2 54.79 97.57 57.84 96.33 57.62 97.46 60.31 96.11 60.36 97.97 63.03 96.82 63.7 99.21 65.6 98.29 66.54 101.15 67.39 100.59 68.45 103.7 68.93 103.1 69.92 110.35 67.75 109.29 67.25 111.63 65.14 110.58 64.56 112.49 62.27 111.21 62"/><polygon class="aaf08228-2d33-46fb-bdea-31511a5d716f" points="108.09 78.66 109.43 81.41 110.33 80.44 112.53 82.83 112.87 81.52 115.25 83.21 115.31 81.96 118.21 82.97 118.17 81.77 121.34 81.84 120.9 80.7 124.39 80.63 122.64 77.61 123.84 77.39 122.13 74.72 123.17 74.13 120.8 72.18 121.83 71.48 119.15 70.33 120.09 69.36 116.9 68.72 117.27 67.45 114.22 67.73 114.23 66.42 111.58 67.8 111.24 66.64 108.68 68.46 106.22 68 104.72 73.93 105.82 73.55 105.61 76.69 106.77 76.38 106.97 79.35 108.09 78.66"/><path class="b8473d80-e15d-4474-b24e-ec7ea7d6b723" d="M53.84,0l-.52,0L52.8,0c-12,0-28.65,22-28.65,42.71S37,75,52.8,75l.52,0,.52,0c15.82,0,28.64-11.58,28.64-32.29S65.82,0,53.84,0"/><path class="e7bdf783-90e6-4251-8df0-7a765c3ae66d" d="M55.46,43.26H51.17V33a.86.86,0,0,1,.86-.86H54.6a.85.85,0,0,1,.86.86Z"/><rect class="e7bdf783-90e6-4251-8df0-7a765c3ae66d" x="20.72" y="39.83" width="65.2" height="4.29"/><path class="e7bdf783-90e6-4251-8df0-7a765c3ae66d" d="M46,42.7H41.74V36.31a.86.86,0,0,1,.86-.86h2.57a.87.87,0,0,1,.86.86Z"/><path class="e7bdf783-90e6-4251-8df0-7a765c3ae66d" d="M36.59,42.7H32.3V33a.86.86,0,0,1,.86-.86h2.57a.85.85,0,0,1,.86.86Z"/><path class="e7bdf783-90e6-4251-8df0-7a765c3ae66d" d="M41.91,53.88l4.3-5.47a.86.86,0,0,1,1.35,0l4.3,5.47a.86.86,0,0,1-.68,1.39h-8.6a.86.86,0,0,1-.67-1.39"/><path class="aaf08228-2d33-46fb-bdea-31511a5d716f" d="M5,54.05l.23-.11-.15-.13a9.51,9.51,0,0,1-2.68-8,9.51,9.51,0,0,1,8,2.68l.14.15a1.63,1.63,0,0,1,.11-.23,9.45,9.45,0,0,1,6.79-5A9.49,9.49,0,0,1,13.18,56c0,.16,0,.32,0,.49l-.49,0A9.49,9.49,0,0,1,0,60.85a9.48,9.48,0,0,1,5-6.8"/><path class="fb87495a-7a29-4866-a28b-3da1e1cbca6a" d="M11.51,54.86C17,49.38,25.28,48.78,32,55.53s9.06,19.72,4.46,24.32-17.57,2.29-24.32-4.46-6.15-15-.66-20.53"/></g></svg>