<svg xmlns="http://www.w3.org/2000/svg" width="348.509" height="256.597" viewBox="0 0 348.509 256.597">
  <g id="Group_89" data-name="Group 89" transform="translate(-696.184 -1122.452)">
    <path id="Rectangle_17" data-name="Rectangle 17" d="M0,0H348.509a0,0,0,0,1,0,0V148.88A92.809,92.809,0,0,1,255.7,241.689H0a0,0,0,0,1,0,0V0A0,0,0,0,1,0,0Z" transform="translate(1044.693 1379.049) rotate(180)" fill="#d23d44"/>
    <g id="Group_38" data-name="Group 38">
      <path id="Path_124" data-name="Path 124" d="M973.921,1181.162l25.831,1.5s2.306,28.179,2.306,26.659V1182.2l25.589-1.494-25.358-1.823-1.505-26.573-1.724,26.03Z" fill="#d6b967"/>
      <path id="Path_125" data-name="Path 125" d="M918.113,1313.193l17.043,1.311,2.949,25.235,1.639-26.546,26.546-2.12-25.891-2.141-4.26-25.25s-.656,24.922-1.639,25.25S918.113,1313.193,918.113,1313.193Z" fill="#fff"/>
      <path id="Path_126" data-name="Path 126" d="M801.014,1177.863l-12.65-.973-2.19-18.733-1.216,19.706-19.706,1.573,19.219,1.589,3.163,18.744s.486-18.5,1.216-18.744S801.014,1177.863,801.014,1177.863Z" fill="#fff"/>
    </g>
    <g id="Group_55" data-name="Group 55">
      <path id="Path_179" data-name="Path 179" d="M879.974,1327.07l-109.093,31.268a9.647,9.647,0,0,1-10.113-3.151h0a9.646,9.646,0,0,1,1.457-13.677l93.947-74.582a11.147,11.147,0,0,1,13.965.084l11.554,9.4a6.711,6.711,0,0,0,10.484-2.755l7.528-19.194c.045-.114.092-.226.143-.337L947.4,1149.949a6.712,6.712,0,0,1,3.684-3.472l4.151-1.606c5.951-2.3,11.548,4.319,8.121,9.7q-.1.159-.21.316c-3.951,5.673-52.77,95.827-56.368,102.473a6.736,6.736,0,0,0-.366.8L893.8,1291.128a6.716,6.716,0,0,0-.387,1.534l-2.868,22.111A14.768,14.768,0,0,1,879.974,1327.07Z" fill="#fff"/>
      <path id="Path_180" data-name="Path 180" d="M903.286,1250.284h0a10.69,10.69,0,0,1-3.005-12.6l48.21-108.867a10.689,10.689,0,0,1,18.252-2.182l5.863,7.635a10.691,10.691,0,0,1,.95,11.546l-54.072,101.233A10.69,10.69,0,0,1,903.286,1250.284Z" fill="#d6b967"/>
    </g>
    <path id="Path_197" data-name="Path 197" d="M866.4,1312.348l-1.809-73.834c.033-1.866-3.449-.238-6.659,1.059l-70.76,27.94,1.717,78,74.364-28.442A4.949,4.949,0,0,0,866.4,1312.348Z" fill="#d6b967"/>
    <path id="Path_198" data-name="Path 198" d="M772.641,1262.117l-1.9,75.941a3.125,3.125,0,0,0,3.225,3.2,23.628,23.628,0,0,1,14.93,4.251l-1.717-78C785.525,1263.956,776.894,1261,772.641,1262.117Z" fill="#a18b4d"/>
    <path id="Path_199" data-name="Path 199" d="M787.183,1267.51l70.751-27.937h0c3.006-1.214,6.252-2.719,6.623-1.37l-.1-4.266a3.57,3.57,0,0,0-1.715-2.982c-24.675-14.843-56.789-22.4-86.485-21.526a3.586,3.586,0,0,0-3.5,3.573v44.647l-.106,4.466c4.257-1.112,12.875,1.845,14.532,5.391Z" fill="#fff"/>
  </g>
</svg>
