<?xml version="1.0" encoding="utf-8"?>
<!-- Generator: Adobe Illustrator 16.0.0, SVG Export Plug-In . SVG Version: 6.00 Build 0)  -->
<!DOCTYPE svg PUBLIC "-//W3C//DTD SVG 1.1//EN" "http://www.w3.org/Graphics/SVG/1.1/DTD/svg11.dtd">
<svg version="1.1" id="Layer_1" xmlns="http://www.w3.org/2000/svg" xmlns:xlink="http://www.w3.org/1999/xlink" x="0px" y="0px"
	 width="134px" height="50px" viewBox="237.354 0.06 134 50" enable-background="new 237.354 0.06 134 50" xml:space="preserve">
<g id="Layer_3">
</g>
<g>
	<g id="Layer_1_1_">
		<g>
			<path fill="#D23C44" d="M371.354,37.229c0,7.087-5.729,12.831-12.792,12.831H255.566c-7.064,0-12.793-5.744-12.793-12.831V19.005
				c0-7.087,5.729-12.83,12.793-12.83h102.995c7.064,0,12.792,5.743,12.792,12.83V37.229z"/>
			
				<linearGradient id="SVGID_1_" gradientUnits="userSpaceOnUse" x1="34.8535" y1="108.1172" x2="163.4346" y2="108.1172" gradientTransform="matrix(1 0 0 -1 202.5 130.1211)">
				<stop  offset="0.2902" style="stop-color:#DDDDD4"/>
				<stop  offset="1" style="stop-color:#DDDDD4;stop-opacity:0"/>
			</linearGradient>
			<path opacity="0.8" fill="url(#SVGID_1_)" enable-background="new    " d="M365.935,31.116c0,7.086-5.729,12.83-12.792,12.83
				H250.146c-7.064,0-12.793-5.744-12.793-12.83V12.89c0-7.086,5.729-12.83,12.793-12.83h102.994c7.065,0,12.793,5.744,12.793,12.83
				L365.935,31.116L365.935,31.116z"/>
		</g>
	</g>
	<g id="Layer_2" display="none">
	</g>
</g>
</svg>
