<svg xmlns="http://www.w3.org/2000/svg" viewBox="0 0 244.26 70.53"><defs><style>.b28db276-14fa-4339-9345-b88f6176a7a9{fill:#2f85ae;}</style></defs><title>Asset 4</title><g id="a00a0a5e-2819-4235-943f-0474eb339557" data-name="Layer 2"><g id="bd4d5d1c-0a26-42be-9923-4111b2f5fa33" data-name="Layer 1"><path class="b28db276-14fa-4339-9345-b88f6176a7a9" d="M41.86,34.47l19,4.72c3.3-1.29,5.29-2.93,5.29-4.72V26.9c0-4.17-10.87-7.57-24.27-7.57S17.6,22.73,17.6,26.9v7.57c0,4.19,10.87,7.58,24.26,7.58Z"/><path class="b28db276-14fa-4339-9345-b88f6176a7a9" d="M60.84,46.77l-19-4.72v7.58l19,4.71c3.3-1.29,5.29-2.93,5.29-4.71V42.05C66.13,43.83,64.14,45.48,60.84,46.77Z"/><path class="b28db276-14fa-4339-9345-b88f6176a7a9" d="M17.6,42.05v7.58c0,4.18,10.87,7.57,24.26,7.57V49.63C28.47,49.63,17.6,46.23,17.6,42.05Z"/><path class="b28db276-14fa-4339-9345-b88f6176a7a9" d="M79.59,4.14V66.39H4.14V4.14H79.59M83.73,0H0V70.53H83.73V0Z"/><path class="b28db276-14fa-4339-9345-b88f6176a7a9" d="M108.81,51.41A13.37,13.37,0,0,1,95.23,37.79v-.07A13.47,13.47,0,0,1,109,24a13.67,13.67,0,0,1,10.44,4.09l-3.71,4.28a9.75,9.75,0,0,0-6.77-3c-4.46,0-7.68,3.71-7.68,8.25v.08c0,4.53,3.14,8.32,7.68,8.32,3,0,4.88-1.21,7-3.1l3.71,3.74A13.56,13.56,0,0,1,108.81,51.41Z"/><path class="b28db276-14fa-4339-9345-b88f6176a7a9" d="M135.61,51V48.77a7.8,7.8,0,0,1-6.13,2.57c-3.82,0-7-2.2-7-6.21v-.07c0-4.43,3.36-6.47,8.17-6.47a14.4,14.4,0,0,1,4.95.83v-.34c0-2.38-1.47-3.71-4.35-3.71a14.89,14.89,0,0,0-5.59,1.1l-1.44-4.39a17.92,17.92,0,0,1,7.87-1.62c6.28,0,9,3.25,9,8.73V51Zm.11-8.17a8.81,8.81,0,0,0-3.67-.76c-2.46,0-4,1-4,2.8v.08c0,1.55,1.28,2.45,3.14,2.45,2.68,0,4.5-1.47,4.5-3.55Z"/><path class="b28db276-14fa-4339-9345-b88f6176a7a9" d="M159.18,51l-5.29-8.29-2,2.12V51h-5.76V23.34h5.76V38.06l6.73-7.38h6.88l-7.72,8,8,12.29Z"/><path class="b28db276-14fa-4339-9345-b88f6176a7a9" d="M186.43,42.83H172.32a4.7,4.7,0,0,0,5,4,6.67,6.67,0,0,0,4.92-2.08l3.29,2.91a10.14,10.14,0,0,1-8.28,3.78c-6.09,0-10.59-4.27-10.59-10.48v-.07c0-5.79,4.12-10.56,10-10.56,6.77,0,9.87,5.26,9.87,11v.08C186.5,42,186.46,42.3,186.43,42.83Zm-9.8-7.91c-2.38,0-3.94,1.7-4.39,4.31h8.66C180.56,36.66,179.05,34.92,176.63,34.92Z"/><path class="b28db276-14fa-4339-9345-b88f6176a7a9" d="M201.72,51H191.39V24.48h10.33c8.32,0,14.07,5.71,14.07,13.16v.08C215.79,45.17,210,51,201.72,51Zm8-13.24a7.6,7.6,0,0,0-8-8h-4.5v16h4.5a7.55,7.55,0,0,0,8-7.91Z"/><path class="b28db276-14fa-4339-9345-b88f6176a7a9" d="M233.4,51.41a13.37,13.37,0,0,1-13.58-13.62v-.07A13.47,13.47,0,0,1,233.63,24a13.67,13.67,0,0,1,10.44,4.09l-3.71,4.28a9.75,9.75,0,0,0-6.77-3c-4.46,0-7.68,3.71-7.68,8.25v.08c0,4.53,3.14,8.32,7.68,8.32,3,0,4.88-1.21,7-3.1l3.71,3.74A13.56,13.56,0,0,1,233.4,51.41Z"/></g></g></svg>