<?xml version="1.0" encoding="utf-8"?>
<!-- Generator: Adobe Illustrator 21.0.2, SVG Export Plug-In . SVG Version: 6.00 Build 0)  -->
<svg version="1.1" id="Layer_1" xmlns="http://www.w3.org/2000/svg" xmlns:xlink="http://www.w3.org/1999/xlink" x="0px" y="0px"
	 viewBox="0 0 146.1 110.4" style="enable-background:new 0 0 146.1 110.4;" xml:space="preserve">
<style type="text/css">
	.st0{fill:none;stroke:#F8F7F4;stroke-width:4.0605;stroke-linecap:round;stroke-miterlimit:10;}
</style>
<title>cloud2</title>
<g>
	<g>
		<path class="st0" d="M46.6,101.7c0-14.4,11.6-26,26-26c6.2,0,12,2.2,16.4,5.8"/>
		<path class="st0" d="M144.1,108.4c0-5.1-1.5-9.9-4-13.9c-4.2-6.7-11.4-11.3-19.8-12c0.2-1.3,0.3-2.5,0.3-3.8c0-14.4-11.6-26-26-26
			c-13.4,0-24.5,10.2-25.9,23.3"/>
	</g>
	<g>
		<path class="st0" d="M41.2,67.7c-14.6,0-26.5-11.9-26.5-26.5s11.9-26.5,26.5-26.5s26.5,11.9,26.5,26.5"/>
		<line class="st0" x1="6.7" y1="41.2" x2="2" y2="41.2"/>
		<line class="st0" x1="41.2" y1="6.7" x2="41.2" y2="2"/>
		<line class="st0" x1="66.6" y1="17.9" x2="70.1" y2="14.8"/>
		<line class="st0" x1="24.2" y1="11.1" x2="21.9" y2="7.1"/>
		<line class="st0" x1="20.5" y1="68.7" x2="17.7" y2="72.5"/>
		<line class="st0" x1="9.5" y1="27.6" x2="5.2" y2="25.7"/>
	</g>
</g>
</svg>
