<svg id="a491126f-1f87-4c5c-a561-005d2952c6e0" data-name="Layer 1" xmlns="http://www.w3.org/2000/svg" xmlns:xlink="http://www.w3.org/1999/xlink" viewBox="0 0 523.85 506.07"><defs><style>.a2ba799d-5df0-4d0e-aea3-a6ccb6d5807b,.a3b524fa-9086-4b31-9374-be90b84df6a4,.ba7bdacd-3094-474a-9574-5e05e7c70d9b{fill:none;}.e1d7f768-c024-4117-9c20-4b5fb20441df{fill:#9dd640;}.a202ccb2-27a8-4645-9b16-94f4c97c921a{clip-path:url(#bbcdb66d-43ef-45ac-b66d-1103a4088eb0);}.b9a8f1d1-1aa5-4f26-8dbe-528fb5cdcd3f{fill:#d43d44;}.e3a60b76-9a5e-4aac-a643-c511dcb9a142{fill:#fff;}.afa88a2e-60d5-467c-93ee-c4d02eae441c{fill:#ddb985;}.b0f3d787-d955-4940-8889-aa18c82c9060{fill:#1d0036;}.ba7bdacd-3094-474a-9574-5e05e7c70d9b{stroke:#fff;stroke-miterlimit:10;stroke-width:5.07px;}.a3b524fa-9086-4b31-9374-be90b84df6a4{stroke:#9dd640;stroke-linecap:round;stroke-linejoin:round;stroke-width:1.84px;}</style><clipPath id="bbcdb66d-43ef-45ac-b66d-1103a4088eb0"><rect class="a2ba799d-5df0-4d0e-aea3-a6ccb6d5807b" x="-635.47" y="-94.24" width="1280" height="5865.38"/></clipPath></defs><title>hero_artwork</title><polygon class="e1d7f768-c024-4117-9c20-4b5fb20441df" points="100.42 186.68 64.14 183.95 70.93 169.7 34.79 155.92 47.77 146.37 18.6 127.56 32.19 121.37 8.18 93.84 21.65 88.99 6.9 54.27 21.38 54.06 6.89 15.19 47.93 21.23 45.11 7.02 82.14 14.19 84.07 0 116.02 17.73 119.22 3.14 143.72 27.72 150.34 13.04 171.38 45.49 183.89 35.87 194.15 70.78 208.59 64.92 205.08 100.22 219.31 98.87 210.51 135.21 224.22 133.04 212.09 181.14 167.59 203.06 166.85 189.21 133.15 205.4 131.5 191.22 97.71 202.03 100.42 186.68"/><g class="a202ccb2-27a8-4645-9b16-94f4c97c921a"><path class="b9a8f1d1-1aa5-4f26-8dbe-528fb5cdcd3f" d="M491.8,397.93H145.36a71.5,71.5,0,0,1-71.5-71.5V83.88H491.8Z"/><path class="e3a60b76-9a5e-4aac-a643-c511dcb9a142" d="M240.68,120.84a4.23,4.23,0,0,0,2.74,2.82,4.2,4.2,0,0,0-1.94-6.68,4.24,4.24,0,0,0-.8,3.86"/><path class="e3a60b76-9a5e-4aac-a643-c511dcb9a142" d="M274.12,172.05a4.18,4.18,0,0,0-3.56,1.67,4.2,4.2,0,0,0,6.94.34,4.21,4.21,0,0,0-3.38-2"/><path class="e3a60b76-9a5e-4aac-a643-c511dcb9a142" d="M287.27,92.83a4.2,4.2,0,0,0-3.56,1.66,4.19,4.19,0,0,0,6.94.35,4.21,4.21,0,0,0-3.38-2"/><path class="e3a60b76-9a5e-4aac-a643-c511dcb9a142" d="M248.34,76.23a4.18,4.18,0,0,0-3.88.65,4.19,4.19,0,0,0,6.59,2.2,4.2,4.2,0,0,0-2.71-2.85"/><path class="e3a60b76-9a5e-4aac-a643-c511dcb9a142" d="M313.22,173.1a4.18,4.18,0,0,0,.92,3.82,4.21,4.21,0,0,0,1.73-6.73,4.18,4.18,0,0,0-2.65,2.91"/><path class="e3a60b76-9a5e-4aac-a643-c511dcb9a142" d="M318.17,73.08a4.2,4.2,0,0,0-2.79,2.77,4.19,4.19,0,0,0,6.65-2,4.17,4.17,0,0,0-3.86-.76"/><path class="e3a60b76-9a5e-4aac-a643-c511dcb9a142" d="M378.09,131.2a4.18,4.18,0,0,0-3.91-.38,4.19,4.19,0,0,0,5.79,3.83,4.17,4.17,0,0,0-1.88-3.45"/><path class="e3a60b76-9a5e-4aac-a643-c511dcb9a142" d="M334.62,127.68a4.18,4.18,0,0,0-3.91-.39,4.19,4.19,0,0,0,5.79,3.84,4.15,4.15,0,0,0-1.88-3.45"/><path class="e3a60b76-9a5e-4aac-a643-c511dcb9a142" d="M350.69,95.45A4.18,4.18,0,0,0,347,94a4.19,4.19,0,0,0,4.54,5.25,4.18,4.18,0,0,0-.88-3.83"/><path class="e3a60b76-9a5e-4aac-a643-c511dcb9a142" d="M356.8,167.1a4.2,4.2,0,0,0,2.66-2.9,4.2,4.2,0,0,0-6.55,2.34,4.18,4.18,0,0,0,3.89.56"/><path class="e3a60b76-9a5e-4aac-a643-c511dcb9a142" d="M288.31,131.12a4.18,4.18,0,0,0-3.41,2,4.2,4.2,0,0,0,6.94-.25,4.17,4.17,0,0,0-3.53-1.72"/><path class="e3a60b76-9a5e-4aac-a643-c511dcb9a142" d="M380.21,71.2a4.18,4.18,0,0,0-3.4,2,4.2,4.2,0,0,0,6.94-.25,4.18,4.18,0,0,0-3.54-1.72"/><path class="e3a60b76-9a5e-4aac-a643-c511dcb9a142" d="M441.55,96.66a4.19,4.19,0,0,0-3,2.6,4.21,4.21,0,0,0,6.76-1.61,4.19,4.19,0,0,0-3.8-1"/><path class="e3a60b76-9a5e-4aac-a643-c511dcb9a142" d="M471.08,65a4.22,4.22,0,0,0-3.75-1.18,4.22,4.22,0,0,0,1.13,3.77,4.17,4.17,0,0,0,3.75,1.18A4.19,4.19,0,0,0,471.08,65"/><path class="e3a60b76-9a5e-4aac-a643-c511dcb9a142" d="M412.33,65.87a4.19,4.19,0,0,0-3.75-1.18,4.2,4.2,0,0,0,4.88,5,4.19,4.19,0,0,0-1.13-3.77"/><path class="e3a60b76-9a5e-4aac-a643-c511dcb9a142" d="M410.59,115.8a4.19,4.19,0,0,0-1.48-3.64,4.2,4.2,0,0,0-.7,6.91,4.22,4.22,0,0,0,2.18-3.27"/><path class="e3a60b76-9a5e-4aac-a643-c511dcb9a142" d="M483.9,109.09a2.23,2.23,0,1,0-2.18,3.28,4.22,4.22,0,0,0,2.18-3.28"/><path class="e3a60b76-9a5e-4aac-a643-c511dcb9a142" d="M519.08,91.23a4.19,4.19,0,0,0-.45-3.91,4.2,4.2,0,0,0-2.53,6.47,4.17,4.17,0,0,0,3-2.56"/><path class="e3a60b76-9a5e-4aac-a643-c511dcb9a142" d="M412.37,146a4.17,4.17,0,0,0-3.86.73,4.2,4.2,0,0,0,6.64,2.06,4.24,4.24,0,0,0-2.78-2.79"/><path class="e3a60b76-9a5e-4aac-a643-c511dcb9a142" d="M394.68,290a4.22,4.22,0,0,0-3.87.72,4.21,4.21,0,0,0,6.64,2.07,4.18,4.18,0,0,0-2.77-2.79"/><path class="e3a60b76-9a5e-4aac-a643-c511dcb9a142" d="M397.46,186.61a4.17,4.17,0,0,0-3.86.73,4.2,4.2,0,0,0,6.64,2.06,4.24,4.24,0,0,0-2.78-2.79"/><path class="e3a60b76-9a5e-4aac-a643-c511dcb9a142" d="M502.89,142a2.23,2.23,0,1,0-.95,3.82,4.22,4.22,0,0,0,.95-3.82"/><path class="e3a60b76-9a5e-4aac-a643-c511dcb9a142" d="M460.41,218a4.2,4.2,0,0,0,.58-3.89,4.2,4.2,0,0,0-4.12,5.6,4.18,4.18,0,0,0,3.54-1.71"/><path class="e3a60b76-9a5e-4aac-a643-c511dcb9a142" d="M464.52,166a4.23,4.23,0,0,0,.58-3.89,4.21,4.21,0,0,0-4.13,5.6,4.22,4.22,0,0,0,3.55-1.71"/><path class="e3a60b76-9a5e-4aac-a643-c511dcb9a142" d="M493.47,192.93a4.19,4.19,0,0,0,1.61-3.59,4.21,4.21,0,0,0-5.48,4.28,4.19,4.19,0,0,0,3.87-.69"/><path class="e3a60b76-9a5e-4aac-a643-c511dcb9a142" d="M430.94,197.68a4.23,4.23,0,0,0,2.76,2.8,4.2,4.2,0,0,0-2-6.66,4.2,4.2,0,0,0-.76,3.86"/><path class="e3a60b76-9a5e-4aac-a643-c511dcb9a142" d="M455.54,123.23a4.21,4.21,0,0,0-1.79-3.5,4.2,4.2,0,0,0-.1,7,4.17,4.17,0,0,0,1.89-3.45"/><path class="e3a60b76-9a5e-4aac-a643-c511dcb9a142" d="M469.76,298.73a4.19,4.19,0,0,0,2.54-3,4.21,4.21,0,0,0-6.45,2.59,4.19,4.19,0,0,0,3.91.41"/><path class="e3a60b76-9a5e-4aac-a643-c511dcb9a142" d="M304.23,207.68a4.21,4.21,0,0,0,1.6-3.59,4.2,4.2,0,0,0-5.48,4.29,4.24,4.24,0,0,0,3.88-.7"/><path class="e3a60b76-9a5e-4aac-a643-c511dcb9a142" d="M283.53,247.72a4.19,4.19,0,0,0,3.9-.49,4.2,4.2,0,0,0-6.5-2.46,4.2,4.2,0,0,0,2.6,2.95"/><path class="e3a60b76-9a5e-4aac-a643-c511dcb9a142" d="M228.35,160.5a4.18,4.18,0,0,0,2.87,2.68,4.2,4.2,0,0,0-2.26-6.57,4.19,4.19,0,0,0-.61,3.89"/><path class="e3a60b76-9a5e-4aac-a643-c511dcb9a142" d="M258.18,209.8a4.22,4.22,0,0,0,2,3.36,4.19,4.19,0,0,0-.4-6.93,4.18,4.18,0,0,0-1.64,3.57"/><path class="e3a60b76-9a5e-4aac-a643-c511dcb9a142" d="M226.72,197a4.21,4.21,0,0,0-3.88.69,4.2,4.2,0,0,0,6.62,2.13,4.22,4.22,0,0,0-2.74-2.82"/><path class="e3a60b76-9a5e-4aac-a643-c511dcb9a142" d="M521.33,274.54a4.21,4.21,0,0,0-3.92.4,4.21,4.21,0,0,0,6.44,2.62,4.23,4.23,0,0,0-2.52-3"/><path class="e3a60b76-9a5e-4aac-a643-c511dcb9a142" d="M366.62,265.58a4.15,4.15,0,0,0,.91-3.82,4.2,4.2,0,0,0-4.59,5.22,4.2,4.2,0,0,0,3.68-1.4"/><path class="e3a60b76-9a5e-4aac-a643-c511dcb9a142" d="M416.79,245.06a4.17,4.17,0,0,0-1.48-3.64,4.2,4.2,0,0,0-.7,6.91,4.18,4.18,0,0,0,2.18-3.27"/><path class="e3a60b76-9a5e-4aac-a643-c511dcb9a142" d="M322.19,260.35a4.19,4.19,0,0,0-3.89.58,4.21,4.21,0,0,0,6.56,2.31,4.2,4.2,0,0,0-2.67-2.89"/><path class="e3a60b76-9a5e-4aac-a643-c511dcb9a142" d="M375.57,220.36a4.19,4.19,0,0,0,1.87-3.46,4.2,4.2,0,0,0-5.78,3.86,4.21,4.21,0,0,0,3.91-.4"/><path class="e3a60b76-9a5e-4aac-a643-c511dcb9a142" d="M343.4,211.39a4.18,4.18,0,0,0,3.9.51,4.19,4.19,0,0,0-5.66-4,4.18,4.18,0,0,0,1.76,3.51"/><path class="e3a60b76-9a5e-4aac-a643-c511dcb9a142" d="M479,247.09a4.19,4.19,0,0,0,3.72-1.29,4.18,4.18,0,0,0-3.16-2.34,4.13,4.13,0,0,0-3.71,1.29,4.16,4.16,0,0,0,3.15,2.34"/><path class="e3a60b76-9a5e-4aac-a643-c511dcb9a142" d="M437.56,266.5a4.18,4.18,0,0,0,3.61,1.56,4.19,4.19,0,0,0-4.34-5.42,4.18,4.18,0,0,0,.73,3.86"/><path class="e3a60b76-9a5e-4aac-a643-c511dcb9a142" d="M518,219.77a2.22,2.22,0,1,0,3.23-2.24,4.19,4.19,0,0,0-3.23,2.24"/><path class="e3a60b76-9a5e-4aac-a643-c511dcb9a142" d="M496.52,327a2.23,2.23,0,1,0,.27-3.93,4.17,4.17,0,0,0-.27,3.93"/><path class="afa88a2e-60d5-467c-93ee-c4d02eae441c" d="M327.61,506.07h0a1.77,1.77,0,0,1-1.78-1.84l6.55-188.56h17.27L329.39,504.48a1.79,1.79,0,0,1-1.78,1.59"/><path class="afa88a2e-60d5-467c-93ee-c4d02eae441c" d="M503.74,375.29h0a1.53,1.53,0,0,1-1.23-.62L414.37,252.11h17.27L505,373a1.51,1.51,0,0,1-1.29,2.29"/><path class="afa88a2e-60d5-467c-93ee-c4d02eae441c" d="M2.61,382.89h0a1.54,1.54,0,0,1-1.36-2.28l82-150.17H100.5L3.91,382.18a1.55,1.55,0,0,1-1.3.71"/><polygon class="e3a60b76-9a5e-4aac-a643-c511dcb9a142" points="505.79 249.63 329.21 380.42 0 257.23 0 249.32 505.79 241.72 505.79 249.63"/><polygon class="b0f3d787-d955-4940-8889-aa18c82c9060" points="505.79 241.72 329.21 372.5 0 249.32 176.57 118.54 505.79 241.72"/><path class="e3a60b76-9a5e-4aac-a643-c511dcb9a142" d="M371.32,280.68c0-14.5-18.22-26.25-40.69-26.25s-40.69,11.75-40.69,26.25,18.22,26.26,40.69,26.26,40.69-11.76,40.69-26.26"/><path class="e3a60b76-9a5e-4aac-a643-c511dcb9a142" d="M348.58,289.13H309.3a1.84,1.84,0,0,1-1.84-1.85V262.22l43.42-2.3Z"/><rect class="b9a8f1d1-1aa5-4f26-8dbe-528fb5cdcd3f" x="307.46" y="262.22" width="41.12" height="8.97"/><path class="b9a8f1d1-1aa5-4f26-8dbe-528fb5cdcd3f" d="M348.58,289.13H309.3a1.84,1.84,0,0,1-1.84-1.85v-7.12h41.12Z"/><path class="e3a60b76-9a5e-4aac-a643-c511dcb9a142" d="M307.46,262.22h41.12v26.91h3.08v-44.4a2.76,2.76,0,0,0-3.88-2.53l-38.33,17a3.33,3.33,0,0,0-2,3.05"/><path class="e1d7f768-c024-4117-9c20-4b5fb20441df" d="M324.15,240.51a1.17,1.17,0,0,1,0,.11l-.07-.07a4.62,4.62,0,0,0-3.9-1.31,4.64,4.64,0,0,0,1.3,3.91l.08.07-.12.05a4.61,4.61,0,0,0-2.45,3.31,4.62,4.62,0,0,0,6.16-2.1l.24,0a1.94,1.94,0,0,0,0-.24,4.62,4.62,0,0,0,2.1-6.16,4.63,4.63,0,0,0-3.31,2.45"/><path class="b9a8f1d1-1aa5-4f26-8dbe-528fb5cdcd3f" d="M324.55,243.66c-2.68,2.68-3,6.71.32,10s9.6,4.41,11.84,2.17,1.12-8.56-2.17-11.84-7.32-3-10-.33"/><path class="e1d7f768-c024-4117-9c20-4b5fb20441df" d="M359.62,283.08l-.12-.05.07-.07a4.61,4.61,0,0,0,1.31-3.91,4.62,4.62,0,0,0-3.9,1.31.46.46,0,0,0-.07.07,1.17,1.17,0,0,1-.05-.11,4.65,4.65,0,0,0-3.31-2.45,4.59,4.59,0,0,0,2.09,6.15l0,.24.24,0a4.62,4.62,0,0,0,6.15,2.1,4.58,4.58,0,0,0-2.44-3.31"/><path class="b9a8f1d1-1aa5-4f26-8dbe-528fb5cdcd3f" d="M356.46,283.47c-2.67-2.67-6.71-3-10,.33s-4.41,9.6-2.17,11.84,8.56,1.12,11.85-2.17,3-7.32.32-10"/></g><polygon class="e3a60b76-9a5e-4aac-a643-c511dcb9a142" points="315.61 224.38 227.01 191.23 227.01 125.52 315.61 158.67 315.61 224.38"/><polygon class="e3a60b76-9a5e-4aac-a643-c511dcb9a142" points="337.21 208.38 248.62 175.23 248.62 109.52 337.21 142.67 337.21 208.38"/><polygon class="e3a60b76-9a5e-4aac-a643-c511dcb9a142" points="189.39 98.57 148.53 83.28 148.53 76 189.39 91.29 189.39 98.57"/><polygon class="e3a60b76-9a5e-4aac-a643-c511dcb9a142" points="189.39 113.13 148.53 97.84 148.53 90.56 189.39 105.85 189.39 113.13"/><polygon class="e3a60b76-9a5e-4aac-a643-c511dcb9a142" points="189.39 127.69 148.53 112.4 148.53 105.12 189.39 120.41 189.39 127.69"/><polygon class="e3a60b76-9a5e-4aac-a643-c511dcb9a142" points="189.39 142.25 148.53 126.96 148.53 119.68 189.39 134.97 189.39 142.25"/><polygon class="e3a60b76-9a5e-4aac-a643-c511dcb9a142" points="446.08 145.9 405.22 130.6 405.22 123.33 446.08 138.62 446.08 145.9"/><polygon class="e3a60b76-9a5e-4aac-a643-c511dcb9a142" points="446.08 160.46 405.22 145.17 405.22 137.89 446.08 153.18 446.08 160.46"/><polygon class="e3a60b76-9a5e-4aac-a643-c511dcb9a142" points="446.08 175.01 405.22 159.73 405.22 152.45 446.08 167.74 446.08 175.01"/><polygon class="e3a60b76-9a5e-4aac-a643-c511dcb9a142" points="446.08 189.57 405.22 174.28 405.22 167.01 446.08 182.29 446.08 189.57"/><polygon class="e3a60b76-9a5e-4aac-a643-c511dcb9a142" points="388.2 153.28 355.92 141.21 355.92 135.46 388.2 147.53 388.2 153.28"/><polygon class="e3a60b76-9a5e-4aac-a643-c511dcb9a142" points="388.2 164.79 355.92 152.71 355.92 146.96 388.2 159.04 388.2 164.79"/><polygon class="e3a60b76-9a5e-4aac-a643-c511dcb9a142" points="388.2 176.29 355.92 164.21 355.92 158.46 388.2 170.54 388.2 176.29"/><polygon class="e3a60b76-9a5e-4aac-a643-c511dcb9a142" points="388.2 187.79 355.92 175.71 355.92 169.96 388.2 182.04 388.2 187.79"/><polygon class="e3a60b76-9a5e-4aac-a643-c511dcb9a142" points="226.34 88.32 204.44 80.13 204.44 76.23 226.34 84.42 226.34 88.32"/><polygon class="e3a60b76-9a5e-4aac-a643-c511dcb9a142" points="226.34 96.12 204.44 87.93 204.44 84.03 226.34 92.22 226.34 96.12"/><polygon class="e3a60b76-9a5e-4aac-a643-c511dcb9a142" points="226.34 103.92 204.44 95.73 204.44 91.83 226.34 100.02 226.34 103.92"/><polygon class="e3a60b76-9a5e-4aac-a643-c511dcb9a142" points="226.34 111.72 204.44 103.53 204.44 99.63 226.34 107.82 226.34 111.72"/><g class="a202ccb2-27a8-4645-9b16-94f4c97c921a"><polygon class="b9a8f1d1-1aa5-4f26-8dbe-528fb5cdcd3f" points="294 240.38 289.7 243.57 201.11 151.16 205.41 147.97 294 181.12 294 240.38"/><polygon class="e3a60b76-9a5e-4aac-a643-c511dcb9a142" points="289.7 250.02 201.11 216.87 201.11 151.16 289.7 184.3 289.7 250.02"/><polygon class="b0f3d787-d955-4940-8889-aa18c82c9060" points="284.76 236.31 206.05 206.86 206.05 157.3 284.76 186.75 284.76 236.31"/><polygon class="e3a60b76-9a5e-4aac-a643-c511dcb9a142" points="229.98 175.2 210.6 167.95 210.6 164.31 229.98 171.56 229.98 175.2"/><polygon class="e3a60b76-9a5e-4aac-a643-c511dcb9a142" points="229.98 202.26 210.6 195.01 210.6 191.37 229.98 198.62 229.98 202.26"/><polygon class="e3a60b76-9a5e-4aac-a643-c511dcb9a142" points="222.22 206.26 210.6 201.92 210.6 198.28 222.22 202.62 222.22 206.26"/><polygon class="e3a60b76-9a5e-4aac-a643-c511dcb9a142" points="246.75 188.61 215.67 176.98 215.67 173.34 246.75 184.97 246.75 188.61"/><polygon class="e3a60b76-9a5e-4aac-a643-c511dcb9a142" points="262.25 194.41 248.96 189.44 248.96 185.8 262.25 190.77 262.25 194.41"/><polygon class="e3a60b76-9a5e-4aac-a643-c511dcb9a142" points="234.05 190.43 215.67 183.55 215.67 179.9 234.05 186.78 234.05 190.43"/><polygon class="e3a60b76-9a5e-4aac-a643-c511dcb9a142" points="258 199.38 236.82 191.46 236.82 187.82 258 195.74 258 199.38"/><polygon class="e3a60b76-9a5e-4aac-a643-c511dcb9a142" points="246.75 201.74 215.67 190.11 215.67 186.47 246.75 198.1 246.75 201.74"/><polygon class="e3a60b76-9a5e-4aac-a643-c511dcb9a142" points="256.29 205.31 249.21 202.66 249.21 199.02 256.29 201.67 256.29 205.31"/><polygon class="e3a60b76-9a5e-4aac-a643-c511dcb9a142" points="265.62 208.8 258.54 206.15 258.54 202.51 265.62 205.16 265.62 208.8"/><polygon class="e3a60b76-9a5e-4aac-a643-c511dcb9a142" points="289.7 250.02 242.19 285.21 153.59 252.06 153.59 245.62 289.7 243.57 289.7 250.02"/><polygon class="b9a8f1d1-1aa5-4f26-8dbe-528fb5cdcd3f" points="289.7 243.57 242.19 278.76 153.59 245.62 201.11 210.42 289.7 243.57"/></g><polygon class="e3a60b76-9a5e-4aac-a643-c511dcb9a142" points="268.1 259.57 179.51 226.42 179.51 160.71 268.1 193.86 268.1 259.57"/><g class="a202ccb2-27a8-4645-9b16-94f4c97c921a"><path class="e3a60b76-9a5e-4aac-a643-c511dcb9a142" d="M406.06,282.74,395,290.94a1.15,1.15,0,0,1-1.09.15h0a1.16,1.16,0,0,1-.28-2l8.66-6.41a1.15,1.15,0,0,0-.28-2h0a1.15,1.15,0,0,0-1.09.15L389.86,289a1.15,1.15,0,0,1-1.09.15h0a1.15,1.15,0,0,1-.28-2l8.66-6.42a1.15,1.15,0,0,0-.28-2h0a1.13,1.13,0,0,0-1.08.15l-11.68,8.65-2,1.46c-1.7,1.26-1.91,2.84-.82,4.14.46.55.29,1.19-.37,1.67l-11.41,8.46c-5.84,4.32-13.63,7.44-17.75,10.5-8.79,6.5-6.19,8.34-5.18,8.72s5.16,1.07,14-5.44c4.12-3.05,7.17-8,13-12.28L385,296.32a4.76,4.76,0,0,1,2.88-.74,11.66,11.66,0,0,0,7.16-1.77l2-1.46,10.47-7.75a1.16,1.16,0,0,0-.28-2h0a1.18,1.18,0,0,0-1.09.15"/><path class="e1d7f768-c024-4117-9c20-4b5fb20441df" d="M384.83,210.82l.05.12a.46.46,0,0,1,.07-.07,4.59,4.59,0,0,1,3.9-1.31,4.62,4.62,0,0,1-1.3,3.9l-.08.07.12.05a4.65,4.65,0,0,1,2.45,3.31,4.6,4.6,0,0,1-6.16-2.1l-.24,0a1.94,1.94,0,0,1,0-.24,4.62,4.62,0,0,1-2.1-6.15,4.61,4.61,0,0,1,3.31,2.44"/><path class="b9a8f1d1-1aa5-4f26-8dbe-528fb5cdcd3f" d="M384.43,214c2.67,2.67,3,6.71-.32,10s-9.6,4.41-11.84,2.17-1.12-8.56,2.16-11.85,7.33-3,10-.32"/><path class="e1d7f768-c024-4117-9c20-4b5fb20441df" d="M372.25,254.83l.11-.06-.07-.06A4.61,4.61,0,0,1,371,250.8a4.58,4.58,0,0,1,3.9,1.31.46.46,0,0,1,.07.07l.06-.11a4.59,4.59,0,0,1,3.3-2.45,4.6,4.6,0,0,1-2.09,6.15l0,.24-.24,0a4.6,4.6,0,0,1-6.15,2.09,4.57,4.57,0,0,1,2.45-3.3"/><path class="b9a8f1d1-1aa5-4f26-8dbe-528fb5cdcd3f" d="M375.4,255.22c2.67-2.67,6.71-3,10,.32s4.41,9.61,2.17,11.85-8.56,1.12-11.85-2.17-3-7.33-.32-10"/><path class="e1d7f768-c024-4117-9c20-4b5fb20441df" d="M165.38,190.39l-.12-.06.08-.06a4.64,4.64,0,0,0,1.3-3.91,4.59,4.59,0,0,0-3.9,1.31l-.07.07,0-.11a4.65,4.65,0,0,0-3.31-2.45,4.58,4.58,0,0,0,2.1,6.15,1.94,1.94,0,0,0,0,.24l.24,0a4.62,4.62,0,0,0,6.16,2.1,4.61,4.61,0,0,0-2.45-3.31"/><path class="b9a8f1d1-1aa5-4f26-8dbe-528fb5cdcd3f" d="M162.22,190.78c-2.67-2.67-6.71-3-10,.33s-4.4,9.6-2.16,11.84,8.55,1.12,11.84-2.17,3-7.33.32-10"/><path class="ba7bdacd-3094-474a-9574-5e05e7c70d9b" d="M121,194.43c0,6.21-4,11.24-8.93,11.24s-8.93-5-8.93-11.24,4-11.23,8.93-11.23S121,188.23,121,194.43Z"/><path class="e3a60b76-9a5e-4aac-a643-c511dcb9a142" d="M152,214.33c0-6.83-8.57-12.36-19.15-12.36s-19.15,5.53-19.15,12.36,8.58,12.36,19.15,12.36S152,221.15,152,214.33"/><rect class="e3a60b76-9a5e-4aac-a643-c511dcb9a142" x="113.73" y="187.5" width="38.3" height="26.83"/><path class="b0f3d787-d955-4940-8889-aa18c82c9060" d="M132.88,198.48c-9.79,0-17.77-4.93-17.77-11s8-11,17.77-11,17.77,4.92,17.77,11-8,11-17.77,11"/><path class="e3a60b76-9a5e-4aac-a643-c511dcb9a142" d="M132.88,177.91c8.88,0,16.39,4.39,16.39,9.59s-7.51,9.6-16.39,9.6-16.38-4.4-16.38-9.6,7.5-9.59,16.38-9.59m0-2.77c-10.57,0-19.15,5.54-19.15,12.36s8.58,12.36,19.15,12.36S152,194.33,152,187.5s-8.57-12.36-19.15-12.36"/><polygon class="e1d7f768-c024-4117-9c20-4b5fb20441df" points="103.14 245.37 104.02 247.6 102.99 247.61 103.22 250.14 102.28 249.65 102.01 251.91 101.25 251.29 100.32 253.5 99.64 252.85 98.02 254.72 97.59 253.88 95.71 255.85 94.88 253.26 94.13 253.83 93.48 251.44 92.58 251.74 92.71 249.34 91.75 249.57 92.5 247.41 91.44 247.44 92.75 245.26 91.82 244.8 93.58 243.19 92.82 242.5 95.01 241.69 94.52 240.89 96.92 240.36 96.39 239.61 102.16 240.93 101.37 241.38 103.3 242.9 102.51 243.41 104.12 245.09 103.14 245.37"/><path class="a3b524fa-9086-4b31-9374-be90b84df6a4" d="M121.35,248.52c-1.32-5.53-6.16-9.77-14.19-8-11.39,2.51-15.5-5.47-16-8.41"/><path class="e1d7f768-c024-4117-9c20-4b5fb20441df" d="M89.91,225.36a4.45,4.45,0,0,1,1.34,7.71,4.45,4.45,0,0,1-1.34-7.71"/><path class="e1d7f768-c024-4117-9c20-4b5fb20441df" d="M94.62,227a4.78,4.78,0,0,1,.18.93,4.9,4.9,0,0,1-3.55,5.16,4.78,4.78,0,0,1-.18-.93A4.89,4.89,0,0,1,94.62,227"/><path class="e1d7f768-c024-4117-9c20-4b5fb20441df" d="M86,228.48a5,5,0,0,0,.14.93,4.92,4.92,0,0,0,5.09,3.66,5.25,5.25,0,0,0-.15-.94A4.88,4.88,0,0,0,86,228.48"/><polygon class="e1d7f768-c024-4117-9c20-4b5fb20441df" points="118.98 237.09 119.7 234.81 120.51 235.46 121.93 233.35 122.35 234.32 123.98 232.73 124.18 233.69 126.3 232.56 126.41 233.5 128.85 233.07 128.65 234 131.36 233.65 130.36 236.19 131.31 236.22 130.31 238.48 131.19 238.82 129.57 240.6 130.46 241.02 128.52 242.23 129.37 242.87 126.98 243.74 127.41 244.68 125.02 244.82 125.18 245.83 122.97 245.08 122.84 246.01 120.65 244.91 120.58 245.82 116.94 241.16 117.84 241.31 117.3 238.91 118.23 239.02 118.04 236.69 118.98 237.09"/><path class="e1d7f768-c024-4117-9c20-4b5fb20441df" d="M103.49,213.11l-.06.11-.06-.07a4.61,4.61,0,0,0-3.91-1.31,4.61,4.61,0,0,0,1.31,3.91l.07.06-.11.06a4.61,4.61,0,0,0-2.45,3.31,4.61,4.61,0,0,0,6.15-2.1l.24,0,0-.24a4.59,4.59,0,0,0,2.06-2,4.66,4.66,0,0,0,0-4.12,4.61,4.61,0,0,0-3.31,2.45"/><path class="b9a8f1d1-1aa5-4f26-8dbe-528fb5cdcd3f" d="M103.88,216.26c-2.67,2.67-3,6.71.32,10s9.61,4.41,11.85,2.17,1.12-8.56-2.17-11.85-7.33-3-10-.32"/><polygon class="e1d7f768-c024-4117-9c20-4b5fb20441df" points="389.03 242.15 388.14 244.37 389.18 244.38 388.95 246.92 389.88 246.43 390.15 248.69 390.91 248.07 391.84 250.29 392.52 249.63 394.14 251.51 394.57 250.66 396.44 252.64 397.28 250.04 398.03 250.62 398.68 248.23 399.58 248.53 399.46 246.13 400.41 246.36 399.67 244.2 400.73 244.24 399.42 242.05 400.35 241.59 398.59 239.98 399.35 239.29 397.17 238.48 397.66 237.68 395.26 237.14 395.79 236.4 390.01 237.71 390.81 238.16 388.88 239.68 389.67 240.19 388.05 241.87 389.03 242.15"/><path class="a3b524fa-9086-4b31-9374-be90b84df6a4" d="M370.81,245.28c1.33-5.54,6.17-9.77,14.2-8,11.39,2.53,15.51-5.44,16.06-8.39"/><path class="e1d7f768-c024-4117-9c20-4b5fb20441df" d="M402.29,222.15a4.45,4.45,0,0,0-1.36,7.71,4.45,4.45,0,0,0,1.36-7.71"/><path class="e1d7f768-c024-4117-9c20-4b5fb20441df" d="M397.57,223.77a4.64,4.64,0,0,0-.18.93,4.9,4.9,0,0,0,3.54,5.16,4.78,4.78,0,0,0,.18-.93,4.89,4.89,0,0,0-3.54-5.16"/><path class="e1d7f768-c024-4117-9c20-4b5fb20441df" d="M406.17,225.28a4.29,4.29,0,0,1-.15.93,4.9,4.9,0,0,1-5.09,3.65,5,5,0,0,1,.15-.93,4.89,4.89,0,0,1,5.09-3.65"/><polygon class="e1d7f768-c024-4117-9c20-4b5fb20441df" points="373.19 233.85 372.49 231.57 371.67 232.21 370.26 230.1 369.83 231.07 368.2 229.48 368 230.44 365.88 229.31 365.77 230.25 363.33 229.81 363.53 230.75 360.83 230.39 361.82 232.93 360.87 232.96 361.87 235.23 360.99 235.56 362.6 237.34 361.71 237.76 363.65 238.97 362.81 239.61 365.19 240.48 364.76 241.43 367.15 241.57 366.99 242.58 369.2 241.83 369.32 242.76 371.52 241.67 371.58 242.58 375.24 237.91 374.34 238.07 374.88 235.67 373.94 235.78 374.14 233.45 373.19 233.85"/></g></svg>