<svg id="ad7805c7-0f16-4c9e-81db-bf358c9a12b3" data-name="Layer 1" xmlns="http://www.w3.org/2000/svg" xmlns:xlink="http://www.w3.org/1999/xlink" viewBox="0 0 109.42 92.93"><defs><style>.e565624f-06cc-4569-8592-2f3eac446380{fill:none;}.fdece9af-e6ab-4f59-8615-4f6971d89ebb{clip-path:url(#f56c4504-c443-45b9-af3b-51fc1486c8bb);}.e5646b5c-a15a-4688-b271-d990d8a3b398{fill:#d43d44;}.b3809d18-e0fe-4293-a317-ebbe8344f7ba{fill:#1d0036;}.ff28b6d0-bf15-433f-a35c-6599e57abf13{fill:#fff;}.ebb57711-e91f-47d8-b7c7-e29cc23eaf89{fill:#9dd640;}</style><clipPath id="f56c4504-c443-45b9-af3b-51fc1486c8bb"><rect class="e565624f-06cc-4569-8592-2f3eac446380" x="-880.84" y="-1540.11" width="1280" height="5865.38"/></clipPath></defs><title>license</title><g class="fdece9af-e6ab-4f59-8615-4f6971d89ebb"><rect class="e5646b5c-a15a-4688-b271-d990d8a3b398" x="10.21" width="49.87" height="60.78"/><path class="b3809d18-e0fe-4293-a317-ebbe8344f7ba" d="M84.31,65.9c0,14.93-18.88,27-42.16,27S0,80.83,0,65.9s18.87-27,42.15-27S84.31,51,84.31,65.9"/><path class="ff28b6d0-bf15-433f-a35c-6599e57abf13" d="M26.94,17.83a2.84,2.84,0,0,0-3.89,2.64V77.83A2.37,2.37,0,0,0,26.34,80l39-16.4A2.84,2.84,0,0,0,67,61V35.6A2.84,2.84,0,0,0,65.23,33Z"/><polygon class="e5646b5c-a15a-4688-b271-d990d8a3b398" points="64.09 45.94 23.05 63.22 23.05 54.13 64.09 36.85 64.09 45.94"/><polygon class="ff28b6d0-bf15-433f-a35c-6599e57abf13" points="64.09 55.03 23.05 72.31 23.05 63.22 64.09 45.94 64.09 55.03"/><path class="e5646b5c-a15a-4688-b271-d990d8a3b398" d="M64.09,64.12,26.34,80a2.37,2.37,0,0,1-3.29-2.18V72.31L64.09,55Z"/><path class="ebb57711-e91f-47d8-b7c7-e29cc23eaf89" d="M50.32,21.44l-.12-.06.08-.07a4.74,4.74,0,0,0,1.34-4,4.77,4.77,0,0,0-4,1.35.46.46,0,0,1-.07.07l-.05-.11a4.75,4.75,0,0,0-3.41-2.52,4.75,4.75,0,0,0,2.16,6.33l0,.25.25,0a4.73,4.73,0,0,0,6.33,2.15,4.73,4.73,0,0,0-2.52-3.4"/><path class="e5646b5c-a15a-4688-b271-d990d8a3b398" d="M47.07,21.84c-2.75-2.75-6.91-3.05-10.29.34s-4.54,9.88-2.23,12.19,8.81,1.15,12.19-2.23,3.08-7.55.33-10.3"/><path class="e5646b5c-a15a-4688-b271-d990d8a3b398" d="M75.12,31.5l16.2,16.62a2.25,2.25,0,0,0,3.2,0l14.21-13.84a2.26,2.26,0,0,0,0-3.21L92.57,14.49a2.29,2.29,0,0,0-1.34-.67L77.92,12.17a4.24,4.24,0,0,0-4.74,4.63l1.31,13.34a2.27,2.27,0,0,0,.63,1.36"/><path class="ff28b6d0-bf15-433f-a35c-6599e57abf13" d="M79.47,15.36a2.19,2.19,0,1,1-3.1,0,2.2,2.2,0,0,1,3.1,0"/></g></svg>