<svg xmlns="http://www.w3.org/2000/svg" width="93.643" height="96.785" viewBox="0 0 93.643 96.785">
  <g id="Group_5" data-name="Group 5" transform="translate(-890.269 -1663.602)">
    <rect id="Rectangle_5" data-name="Rectangle 5" width="59.599" height="60.778" transform="translate(898.929 1663.602)" fill="#363637"/>
    <path id="Path_9" data-name="Path 9" d="M974.576,1733.356c0,14.929-18.873,27.031-42.154,27.031s-42.153-12.1-42.153-27.031,18.873-27.028,42.153-27.028,42.154,12.1,42.154,27.028" fill="#d23d44"/>
    <g id="Group_2" data-name="Group 2">
      <path id="Path_10" data-name="Path 10" d="M949.613,1691.92l16.2,16.625a2.264,2.264,0,0,0,3.2.041l14.21-13.849a2.265,2.265,0,0,0,.041-3.2l-16.2-16.624a2.271,2.271,0,0,0-1.343-.667l-13.3-1.653a4.245,4.245,0,0,0-4.748,4.628l1.31,13.344a2.258,2.258,0,0,0,.632,1.358" fill="#d23d44"/>
      <path id="Path_11" data-name="Path 11" d="M953.961,1675.784a2.19,2.19,0,1,1-3.1-.039,2.189,2.189,0,0,1,3.1.039" fill="#363637"/>
    </g>
    <g id="Group_3" data-name="Group 3">
      <path id="Path_12" data-name="Path 12" d="M945.05,1692.375c-10.581-6.365-24.352-9.606-37.086-9.231a1.539,1.539,0,0,0-1.5,1.533v19.145l-.808,34.28a1.539,1.539,0,0,0,1.578,1.567,10.35,10.35,0,0,1,5.6,1.415,1.518,1.518,0,0,0,1.35.122l31.4-12.244a1.533,1.533,0,0,0,.975-1.463l-.774-33.845A1.53,1.53,0,0,0,945.05,1692.375Z" fill="#fff"/>
      <path id="Path_13" data-name="Path 13" d="M946.618,1727.278l-.713-29.287a2.123,2.123,0,0,0-2.918-1.92l-30.343,11.981.737,33.447,31.887-12.2A2.122,2.122,0,0,0,946.618,1727.278Z" fill="#d6b967"/>
      <path id="Path_14" data-name="Path 14" d="M906.412,1705.738,905.6,1738.3a1.34,1.34,0,0,0,1.383,1.371,10.132,10.132,0,0,1,6.4,1.823l-.736-33.447C911.937,1706.527,908.236,1705.258,906.412,1705.738Z" fill="#a18b4d"/>
    </g>
    <g id="Group_4" data-name="Group 4">
      <ellipse id="Ellipse_1" data-name="Ellipse 1" cx="9.479" cy="4.437" rx="9.479" ry="4.437" transform="translate(935.018 1716.605)" fill="#fff"/>
      <ellipse id="Ellipse_2" data-name="Ellipse 2" cx="13.541" cy="5.156" rx="13.541" ry="5.156" transform="translate(928.728 1721.042)" fill="#fff"/>
      <ellipse id="Ellipse_3" data-name="Ellipse 3" cx="17.254" cy="6.57" rx="17.254" ry="6.57" transform="translate(922.613 1725.719)" fill="#fff"/>
      <ellipse id="Ellipse_4" data-name="Ellipse 4" cx="21.884" cy="8.333" rx="21.884" ry="8.333" transform="translate(915.798 1731.391)" fill="#fff"/>
      <circle id="Ellipse_5" data-name="Ellipse 5" cx="5.201" cy="5.201" r="5.201" transform="translate(937.069 1710.641)" fill="#d23d44"/>
    </g>
  </g>
</svg>
