<svg id="b39c7c91-f210-4d61-ab89-62ba1ede8b4d" data-name="Layer 1" xmlns="http://www.w3.org/2000/svg" xmlns:xlink="http://www.w3.org/1999/xlink" viewBox="0 0 112.73 96.33"><defs><style>.a152cc13-6ef4-4a54-b4ed-e93fe4104adc{fill:none;}.a4c983b6-9b0d-4cf7-9d85-3819cd76aa12{clip-path:url(#b4811996-40f0-416e-94c9-23a39ca0ddfc);}.f7b6a680-f7d3-4565-8674-3c9b3e34cb8e{fill:#1d0036;}.fc16adf9-9e16-4ca0-844e-432fca8aafef{fill:#fff;}.e9680c1b-4e88-4f59-88fd-4d45ecf6a599{fill:#d43d44;}.b39f00c5-c10b-43ec-ada0-b0034ed15fec{fill:#9dd640;}</style><clipPath id="b4811996-40f0-416e-94c9-23a39ca0ddfc"><rect class="a152cc13-6ef4-4a54-b4ed-e93fe4104adc" x="-526.1" y="-1857" width="1280" height="5865.38"/></clipPath></defs><title>mvc</title><g class="a4c983b6-9b0d-4cf7-9d85-3819cd76aa12"><path class="f7b6a680-f7d3-4565-8674-3c9b3e34cb8e" d="M99.91,81.76H6.24V12.53H79.91a20,20,0,0,1,20,20Z"/><path class="fc16adf9-9e16-4ca0-844e-432fca8aafef" d="M68.87,51.33a2,2,0,0,1,2.8,1.9V95a1.37,1.37,0,0,1-1.9,1.26l-28.46-12a2,2,0,0,1-1.25-1.88V64.1a2,2,0,0,1,1.29-1.9Z"/><polygon class="e9680c1b-4e88-4f59-88fd-4d45ecf6a599" points="42.17 71.53 71.67 83.95 71.67 77.42 42.17 65 42.17 71.53"/><polygon class="fc16adf9-9e16-4ca0-844e-432fca8aafef" points="42.17 78.06 71.67 90.48 71.67 83.95 42.17 71.53 42.17 78.06"/><path class="e9680c1b-4e88-4f59-88fd-4d45ecf6a599" d="M42.17,84.59l27.6,11.63A1.37,1.37,0,0,0,71.67,95V90.48L42.17,78.06Z"/><path class="b39f00c5-c10b-43ec-ada0-b0034ed15fec" d="M50.13,52.56l.1,0-.06-.07A4.18,4.18,0,0,1,49,48.92a4.17,4.17,0,0,1,3.53,1.19l.06.06a.47.47,0,0,1,.05-.1,4.19,4.19,0,0,1,3-2.22,4.16,4.16,0,0,1-1.9,5.57,1.8,1.8,0,0,1,0,.22l-.22,0a4.09,4.09,0,0,1-1.84,1.86,4.16,4.16,0,0,1-3.72,0,4.17,4.17,0,0,1,2.21-3"/><path class="e9680c1b-4e88-4f59-88fd-4d45ecf6a599" d="M53,52.92c2.42-2.42,6.07-2.68,9,.29s4,8.69,2,10.71-7.73,1-10.7-2-2.71-6.62-.3-9"/><path class="fc16adf9-9e16-4ca0-844e-432fca8aafef" d="M42.45,4.82a2,2,0,0,0-2.8,1.9V47.94A1.71,1.71,0,0,0,42,49.51L70,37.73a2.05,2.05,0,0,0,1.25-1.89V17.59A2,2,0,0,0,70,15.69Z"/><polygon class="e9680c1b-4e88-4f59-88fd-4d45ecf6a599" points="69.15 25.02 39.65 37.45 39.65 30.91 69.15 18.49 69.15 25.02"/><polygon class="fc16adf9-9e16-4ca0-844e-432fca8aafef" points="69.15 31.56 39.65 43.98 39.65 37.45 69.15 25.03 69.15 31.56"/><path class="e9680c1b-4e88-4f59-88fd-4d45ecf6a599" d="M69.15,38.09,42,49.51a1.7,1.7,0,0,1-2.37-1.57V44l29.5-12.42Z"/><path class="b39f00c5-c10b-43ec-ada0-b0034ed15fec" d="M62.28,4.71l-.1,0,.06-.06a4.13,4.13,0,0,0,1.18-3.53,4.2,4.2,0,0,0-3.53,1.18l-.06.07a1,1,0,0,0,0-.1,4.16,4.16,0,0,0-3-2.22,4.16,4.16,0,0,0,0,3.72,4.09,4.09,0,0,0,1.86,1.84c0,.08,0,.15,0,.22l.22,0A4.16,4.16,0,0,0,64.49,7.7a4.17,4.17,0,0,0-2.21-3"/><path class="e9680c1b-4e88-4f59-88fd-4d45ecf6a599" d="M59.43,5.07c-2.42-2.42-6.07-2.68-9,.29s-4,8.68-2,10.71,7.73,1,10.71-2,2.7-6.63.29-9"/><path class="fc16adf9-9e16-4ca0-844e-432fca8aafef" d="M83.78,44.53A2,2,0,0,0,81,46.43V88.77a1.7,1.7,0,0,0,2.36,1.57l28.34-11.93a1.69,1.69,0,0,0,1-1.57V57.36a2,2,0,0,0-1.29-1.9Z"/><polygon class="e9680c1b-4e88-4f59-88fd-4d45ecf6a599" points="112.73 64.91 83.23 77.33 83.23 70.8 112.73 58.38 112.73 64.91"/><polygon class="fc16adf9-9e16-4ca0-844e-432fca8aafef" points="112.73 71.44 83.23 83.86 83.23 77.33 112.73 64.91 112.73 71.44"/><path class="e9680c1b-4e88-4f59-88fd-4d45ecf6a599" d="M111.69,78.41l-28.46,12V83.86l29.5-12.42v5.4a1.69,1.69,0,0,1-1,1.57"/><path class="b39f00c5-c10b-43ec-ada0-b0034ed15fec" d="M104.26,44l-.11,0,.07-.06a4.19,4.19,0,0,0,1.18-3.53,4.19,4.19,0,0,0-3.53,1.18l-.06.07,0-.1a4.19,4.19,0,0,0-3-2.22,4.17,4.17,0,0,0,1.9,5.57,1.49,1.49,0,0,0,0,.21l.22,0A4.16,4.16,0,0,0,106.47,47a4.17,4.17,0,0,0-2.21-3"/><path class="e9680c1b-4e88-4f59-88fd-4d45ecf6a599" d="M101.4,44.37c-2.41-2.42-6.06-2.68-9,.29s-4,8.68-2,10.71,7.74,1,10.71-2,2.71-6.63.29-9"/><path class="fc16adf9-9e16-4ca0-844e-432fca8aafef" d="M31.8,53.16V31.74a2,2,0,0,0-2.61-2l-27.71,8A2,2,0,0,0,0,39.7V59.43a1.38,1.38,0,0,0,.83,1.26l28.61,12a1.7,1.7,0,0,0,2.36-1.57Z"/><polygon class="e9680c1b-4e88-4f59-88fd-4d45ecf6a599" points="0 47.27 29.5 59.69 29.5 53.16 0 40.74 0 47.27"/><polygon class="fc16adf9-9e16-4ca0-844e-432fca8aafef" points="0 53.8 29.5 66.22 29.5 59.69 0 47.27 0 53.8"/><path class="e9680c1b-4e88-4f59-88fd-4d45ecf6a599" d="M.83,60.69,29.5,72.76V66.22L0,53.8v5.63a1.38,1.38,0,0,0,.83,1.26"/><path class="b39f00c5-c10b-43ec-ada0-b0034ed15fec" d="M14.83,24.06l.11,0a.29.29,0,0,0,0-.09,4.17,4.17,0,0,1,1-3.58,4.17,4.17,0,0,1,2.25,3s0,.06,0,.09l.1-.06A4.14,4.14,0,0,1,22,23.27a4.18,4.18,0,0,1-4.71,3.52,2.09,2.09,0,0,1-.14.17l-.19-.1a4.24,4.24,0,0,1-2.57.5,4.17,4.17,0,0,1-3.09-2.08,4.17,4.17,0,0,1,3.51-1.22"/><path class="e9680c1b-4e88-4f59-88fd-4d45ecf6a599" d="M17,26c3.35-.63,6.52,1.21,7.3,5.34s-1.61,9.42-4.42,10-7-3.53-7.74-7.66,1.5-7,4.86-7.63"/></g></svg>