<svg xmlns="http://www.w3.org/2000/svg" width="106.636" height="76.212" viewBox="0 0 106.636 76.212">
  <g id="Group_85" data-name="Group 85" transform="translate(-526.926 -1989.767)">
    <path id="Path_88" data-name="Path 88" d="M626.009,2064.045H532.341v-69.231h73.668a20,20,0,0,1,20,20Z" fill="#363637"/>
    <g id="Group_57" data-name="Group 57">
      <g id="Group_56" data-name="Group 56">
        <path id="Path_181" data-name="Path 181" d="M570.182,2005.314,527.1,2030.188c-.063.037-.078.04-.136.077l61.859,35.713c.064-.035,43.219-24.946,43.219-24.946,2.025-1.169,2.025-3.084,0-4.252l-54.5-31.466A8.164,8.164,0,0,0,570.182,2005.314Z" fill="#d23d44"/>
      </g>
    </g>
    <g id="Group_58" data-name="Group 58">
      <path id="Path_182" data-name="Path 182" d="M630.017,2025.7l-41.7,24.611-.114,13.6,41.557-24.413s-.538-1.063-.564-5.457A31.481,31.481,0,0,1,630.017,2025.7Z" fill="#fff"/>
    </g>
    <g id="Group_63" data-name="Group 63">
      <g id="Group_59" data-name="Group 59">
        <path id="Path_183" data-name="Path 183" d="M588.827,2051.134v14.846l-61.863-35.713V2015.42Z" fill="#9e2e33"/>
      </g>
      <g id="Group_60" data-name="Group 60">
        <path id="Path_184" data-name="Path 184" d="M534.052,2020.823v12.224l-4.6-2.657v-12.224Z" fill="#d6b967"/>
      </g>
      <g id="Group_61" data-name="Group 61">
        <path id="Path_185" data-name="Path 185" d="M538.1,2023.161v12.225L535.709,2034V2021.78Z" fill="#d6b967"/>
      </g>
      <g id="Group_62" data-name="Group 62">
        <path id="Path_186" data-name="Path 186" d="M585.412,2050.987v11.2l-2.192-1.266v-11.2Z" fill="#d6b967"/>
      </g>
    </g>
    <g id="Group_66" data-name="Group 66">
      <g id="Group_64" data-name="Group 64">
        <path id="Path_187" data-name="Path 187" d="M570.182,1990.645,527.1,2015.521c-.063.035-.117.074-.175.11l61.842,35.709c.064-.034.131-.066.193-.1l43.082-24.876c2.025-1.17,2.025-3.083,0-4.252l-54.5-31.466A8.163,8.163,0,0,0,570.182,1990.645Z" fill="#d23d44"/>
      </g>
      <g id="Group_65" data-name="Group 65">
        <path id="Path_188" data-name="Path 188" d="M617.5,2022.6l-31.237,18.036-8.714-5.033,31.237-18.036Z" fill="#d6b967"/>
      </g>
    </g>
    <g id="Group_67" data-name="Group 67">
      <g id="Layer_2" data-name="Layer 2">
        <g id="Layer_1-2" data-name="Layer 1-2">
          <path id="Path_189" data-name="Path 189" d="M575.885,2004.612a8.868,8.868,0,0,1,2.911,1.091,4.929,4.929,0,0,1,1.822,1.76,2.774,2.774,0,0,1,.331,1.007,2.377,2.377,0,0,1-.1,1.029,2.144,2.144,0,0,1-.374.678,3.915,3.915,0,0,1-.581.586l8.693,5.179q.306.181.038.676a5.452,5.452,0,0,1-.992,1.2,20.709,20.709,0,0,1-1.853,1.559q-1.129.858-2.571,1.779-1.424.907-2.8,1.65-1.207.657-2.542,1.236a12.656,12.656,0,0,1-1.994.691,1.72,1.72,0,0,1-1.15.011l-9.049-5.263a8.728,8.728,0,0,1-2.637.663,10.518,10.518,0,0,1-3.077-.144,9.8,9.8,0,0,1-1.675-.43,8.728,8.728,0,0,1-1.427-.65,6.109,6.109,0,0,1-1.16-.854,4.181,4.181,0,0,1-.78-.973,2.461,2.461,0,0,1-.322-1.046,2.526,2.526,0,0,1,.154-1.073,2.69,2.69,0,0,1,.6-.948,4.569,4.569,0,0,1,1.007-.785,7.132,7.132,0,0,1,1.97-.763,3.089,3.089,0,0,1-.311-3.367,4.411,4.411,0,0,1,1.781-1.727,8.109,8.109,0,0,1,1.774-.75,11.712,11.712,0,0,1,2.1-.414,13.411,13.411,0,0,1,2.3-.035,13.927,13.927,0,0,1,2.353.362.2.2,0,0,1,.1.027,4.517,4.517,0,0,1,2.564-1.758,8.559,8.559,0,0,1,1.5-.32,11.28,11.28,0,0,1,1.654-.081A10.4,10.4,0,0,1,575.885,2004.612Zm-7.547,3.3c.089-.143.007-.314-.205-.425a1.313,1.313,0,0,0-.269-.114,11.349,11.349,0,0,0-2.58-.324,9.348,9.348,0,0,0-2.484.293,7.07,7.07,0,0,0-1.853.724,3.716,3.716,0,0,0-1.442,1.412,2.257,2.257,0,0,0-.169,1.914,3.978,3.978,0,0,0,1.367,1.774,7.439,7.439,0,0,0-1.707.222,3.664,3.664,0,0,0-2.628,1.865,1.723,1.723,0,0,0-.048,1.185,2.869,2.869,0,0,0,.73,1.143,4.827,4.827,0,0,0,.906.668,6.956,6.956,0,0,0,2.342.819,1.3,1.3,0,0,0,.373,0,.824.824,0,0,0,.32-.106.4.4,0,0,0,.166-.171c.06-.144-.024-.3-.219-.411a1.025,1.025,0,0,0-.333-.115,5.455,5.455,0,0,1-1.684-.6,3.664,3.664,0,0,1-.649-.47,1.491,1.491,0,0,1-.5-1.678,1.909,1.909,0,0,1,.858-.947,4.256,4.256,0,0,1,1.593-.521,6.074,6.074,0,0,1,1.942.05l.155.028c.267.116.544.223.828.321a7.611,7.611,0,0,0,.917.248.953.953,0,0,0,.725-.072.588.588,0,0,0,.152-.16q.129-.234-.235-.432a1.152,1.152,0,0,0-.258-.1,7.257,7.257,0,0,1-2.022-.783,3.861,3.861,0,0,1-1.58-1.562,2.194,2.194,0,0,1,1.133-2.925,4.265,4.265,0,0,1,.676-.32,7.943,7.943,0,0,1,.777-.241,8.118,8.118,0,0,1,1.981-.232,8.916,8.916,0,0,1,2.057.247.9.9,0,0,0,.714-.065A.469.469,0,0,0,568.338,2007.908Zm16.223,14.04q1.424-.914,2.548-1.782a21.491,21.491,0,0,0,1.843-1.569,5.609,5.609,0,0,0,.994-1.193q.272-.489-.034-.672l1.685,1q.3.181.041.676a5.6,5.6,0,0,1-.975,1.2,21.05,21.05,0,0,1-1.835,1.563q-1.119.859-2.549,1.784-1.41.911-2.779,1.655-1.2.66-2.519,1.241a12.558,12.558,0,0,1-1.978.7,1.722,1.722,0,0,1-1.149.015l-1.753-1.02a1.693,1.693,0,0,0,1.143-.016,12.964,12.964,0,0,0,1.979-.7q1.153-.493,2.541-1.234T584.561,2021.948Zm-5.247-12.754c.339-.994-.249-2.086-1.546-2.873a7.742,7.742,0,0,0-4.121-.971,6.57,6.57,0,0,0-1.759.3,5.528,5.528,0,0,0-1.005.426,2.6,2.6,0,0,0-1.144,1.238c-.063.143.022.305.22.417a.914.914,0,0,0,.308.107.891.891,0,0,0,.656-.065.359.359,0,0,0,.158-.18,1.734,1.734,0,0,1,.822-.914,2.478,2.478,0,0,1,.338-.167c.124-.051.251-.1.381-.142a5.062,5.062,0,0,1,1.287-.215,5.466,5.466,0,0,1,2.979.712,2.736,2.736,0,0,1,1.006.959,1.265,1.265,0,0,1,.112,1.111c-.054.137.028.291.213.4a1.154,1.154,0,0,0,.3.122,1.048,1.048,0,0,0,.344,0,.8.8,0,0,0,.293-.1A.33.33,0,0,0,579.314,2009.194Z" fill="#fff"/>
        </g>
      </g>
    </g>
  </g>
</svg>
