<?xml version="1.0" encoding="utf-8"?>
<!-- Generator: Adobe Illustrator 16.0.0, SVG Export Plug-In . SVG Version: 6.00 Build 0)  -->
<!DOCTYPE svg PUBLIC "-//W3C//DTD SVG 1.1//EN" "http://www.w3.org/Graphics/SVG/1.1/DTD/svg11.dtd">
<svg version="1.1" id="Layer_1" xmlns="http://www.w3.org/2000/svg" xmlns:xlink="http://www.w3.org/1999/xlink" x="0px" y="0px"
	 width="24.701px" height="14.338px" viewBox="0 0 24.701 14.338" enable-background="new 0 0 24.701 14.338" xml:space="preserve">
<path fill="#FFB800" d="M22.283,0H2.418C1.083,0,0,1.083,0,2.418v11.92l3.583-2.26h18.7c1.335,0,2.418-1.083,2.418-2.418V2.418
	C24.701,1.083,23.618,0,22.283,0z"/>
<path fill="#FFFFFF" d="M7.817,9.339H6.234L3.895,5.232v4.107H2.303v-6.6h1.591L6.23,6.846V2.739h1.586V9.339z"/>
<path fill="#FFFFFF" d="M13.381,6.539h-2.503v1.578h2.957v1.223H9.288v-6.6h4.556v1.228h-2.966V5.36h2.503V6.539z"/>
<path fill="#FFFFFF" d="M20.062,6.878l0.757-4.139h1.578l-1.402,6.6h-1.649l-0.884-3.763l-0.866,3.763h-1.646l-1.404-6.6h1.582
	l0.757,4.139l0.907-4.139h1.351L20.062,6.878z"/>
</svg>
