<svg xmlns="http://www.w3.org/2000/svg" width="122.289" height="94.291" viewBox="0 0 122.289 94.291">
  <g id="Group_87" data-name="Group 87" transform="translate(-521.869 -1661.225)">
    <path id="Path_65" data-name="Path 65" d="M591.53,1662.011l-32.075,10.539a5.978,5.978,0,0,0-4.113,5.68l47.369,76.053,5.792-1.9v-2.86l29.863-9.813v2.861l5.792-1.9v-59.154a5,5,0,0,0-3.244-4.681l-38.941-14.6a15.748,15.748,0,0,0-10.443-.216" fill="#d6b967"/>
    <path id="Path_66" data-name="Path 66" d="M562.233,1736.1v3l4.264-1.4Z" fill="#d43d44"/>
    <path id="Path_67" data-name="Path 67" d="M586.9,1673.88c0,1.657-3.582,3-8,3s-8-1.343-8-3,3.582-3,8-3,8,1.343,8,3" fill="#fff"/>
    <path id="Path_68" data-name="Path 68" d="M610.378,1682.679c0,1.658-3.582,3-8,3s-8-1.342-8-3,3.582-3,8-3,8,1.344,8,3" fill="#fff"/>
    <path id="Path_69" data-name="Path 69" d="M604,1668.257c0,1.657-3.582,3-8,3s-8-1.343-8-3,3.582-3,8-3,8,1.343,8,3" fill="#fff"/>
    <path id="Path_70" data-name="Path 70" d="M627.466,1677.057c0,1.657-3.582,3-8,3s-8-1.343-8-3,3.582-3,8-3,8,1.343,8,3" fill="#fff"/>
    <path id="Path_71" data-name="Path 71" d="M634.3,1741.043l4.065,1.524v-2.86Z" fill="#1d0036"/>
    <path id="Path_72" data-name="Path 72" d="M555.342,1678.23v58.29l6.891,2.584v-3L595.82,1748.7v3l6.891,2.584V1695.13a5,5,0,0,0-3.245-4.682L559.4,1675.422a3,3,0,0,0-4.053,2.808" fill="#d23d44"/>
    <path id="Path_73" data-name="Path 73" d="M597.578,1742.831V1704.7l-37.1-13.914v38.134Z" fill="#363637"/>
    <path id="Path_74" data-name="Path 74" d="M564.008,1683.908c0,1.91-1.063,3.458-2.375,3.458s-2.375-1.548-2.375-3.458,1.064-3.458,2.375-3.458,2.375,1.548,2.375,3.458" fill="#363637"/>
    <path id="Path_75" data-name="Path 75" d="M572.675,1687.075c0,1.91-1.063,3.458-2.375,3.458s-2.375-1.548-2.375-3.458,1.064-3.458,2.375-3.458,2.375,1.548,2.375,3.458" fill="#363637"/>
    <path id="Path_76" data-name="Path 76" d="M581.342,1690.241c0,1.91-1.063,3.458-2.375,3.458s-2.375-1.548-2.375-3.458,1.063-3.457,2.375-3.457,2.375,1.548,2.375,3.457" fill="#363637"/>
    <path id="Path_77" data-name="Path 77" d="M590.008,1693.408c0,1.91-1.063,3.458-2.375,3.458s-2.375-1.548-2.375-3.458,1.064-3.458,2.375-3.458,2.375,1.548,2.375,3.458" fill="#363637"/>
    <path id="Path_78" data-name="Path 78" d="M598.675,1696.575c0,1.91-1.063,3.458-2.375,3.458s-2.375-1.548-2.375-3.458,1.064-3.458,2.375-3.458,2.375,1.548,2.375,3.458" fill="#363637"/>
    <path id="Path_79" data-name="Path 79" d="M558.973,1755.515l38.605-12.684v-6l-75.709-1.322v6Z" fill="#d43d44"/>
    <path id="Path_80" data-name="Path 80" d="M558.973,1749.515l38.605-12.684-37.1-14.006-38.6,12.684Z" fill="#826e3b"/>
    <path id="Path_108" data-name="Path 108" d="M537.427,1732.246l-.036-.07c-.185-.371.707-17.906.707-17.906h.025c.567-4.574,11.029-8.219,23.855-8.219,11.881,0,21.733,3.128,23.571,7.224h0l.879,2.544.692,16.173-.074.179a3.839,3.839,0,0,1,.074.748c0,1.929-1.46,3.726-3.973,5.233-.678-.937-2.2.83-2.939.721-1.206-.178-1.293.215-1.293.215-.278-.371-7.968,1.672-7.968,1.672s-5.2-1.046-5.222,1.714q-1.707.093-3.482.095c-13.74,0-24.878-4.321-24.878-9.65A3.879,3.879,0,0,1,537.427,1732.246Z" fill="#d6b967"/>
    <ellipse id="Ellipse_6" data-name="Ellipse 6" cx="24.856" cy="9.755" rx="24.856" ry="9.755" transform="translate(537.366 1723.054)" fill="#d6b967"/>
    <ellipse id="Ellipse_7" data-name="Ellipse 7" cx="24.272" cy="10.102" rx="24.272" ry="10.102" transform="translate(537.885 1705.163)" fill="#fff"/>
    <path id="Path_109" data-name="Path 109" d="M568.869,1714.2c0-1.219-3.239-2.208-7.236-2.208s-7.235.989-7.235,2.208,3.239,2.208,7.235,2.208c3.355,0,6.176-.7,6.995-1.641A.867.867,0,0,0,568.869,1714.2Z" fill="#826e3b"/>
  </g>
</svg>
