<svg id="f0b7753c-4615-4df9-bc32-9b47f0ec1a5c" data-name="Layer 1" xmlns="http://www.w3.org/2000/svg" xmlns:xlink="http://www.w3.org/1999/xlink" viewBox="0 0 122.29 94.29"><defs><style>.a0da3978-201c-4b01-aeb1-89f67904e804{fill:none;}.fc8e4dd2-0770-405f-baca-5f68058d9eb5{clip-path:url(#e25c1536-9ee5-4720-924d-4b962f866fab);}.fc04674b-871f-4ab2-b426-1a31293c93ae{fill:#d43d44;}.e94ed7d4-a3b4-4c66-a9d1-b2a698ea5606{fill:#fff;}.f35cf1f7-8269-4d20-922e-fd77a2595499{fill:#1d0036;}.a4d5c13e-77d2-46d9-ae24-676fe69019eb{fill:#9dd640;}</style><clipPath id="e25c1536-9ee5-4720-924d-4b962f866fab"><rect class="a0da3978-201c-4b01-aeb1-89f67904e804" x="-522.58" y="-1535.94" width="1280" height="5865.38"/></clipPath></defs><title>no_config</title><g class="fc8e4dd2-0770-405f-baca-5f68058d9eb5"><path class="fc04674b-871f-4ab2-b426-1a31293c93ae" d="M52.63.79,84.7,11.33A6,6,0,0,1,88.82,17L41.45,93.06l-5.79-1.9V88.3L5.79,78.48v2.86L0,79.44V20.29a5,5,0,0,1,3.24-4.68L42.18,1A15.74,15.74,0,0,1,52.63.79"/><polygon class="fc04674b-871f-4ab2-b426-1a31293c93ae" points="81.92 74.88 81.92 77.88 77.66 76.48 81.92 74.88"/><path class="e94ed7d4-a3b4-4c66-a9d1-b2a698ea5606" d="M57.26,12.65c0,1.66,3.58,3,8,3s8-1.34,8-3-3.58-3-8-3-8,1.35-8,3"/><path class="e94ed7d4-a3b4-4c66-a9d1-b2a698ea5606" d="M33.78,21.45c0,1.66,3.58,3,8,3s8-1.34,8-3-3.58-3-8-3-8,1.35-8,3"/><path class="e94ed7d4-a3b4-4c66-a9d1-b2a698ea5606" d="M40.16,7c0,1.66,3.58,3,8,3s8-1.34,8-3-3.58-3-8-3-8,1.35-8,3"/><path class="e94ed7d4-a3b4-4c66-a9d1-b2a698ea5606" d="M16.69,15.83c0,1.66,3.58,3,8,3s8-1.34,8-3-3.58-3-8-3-8,1.35-8,3"/><polygon class="f35cf1f7-8269-4d20-922e-fd77a2595499" points="9.86 79.82 5.79 81.34 5.79 78.48 9.86 79.82"/><path class="f35cf1f7-8269-4d20-922e-fd77a2595499" d="M88.82,17V75.3l-6.9,2.58v-3L48.34,87.47v3l-6.89,2.59V33.91a5,5,0,0,1,3.24-4.69l40.07-15A3,3,0,0,1,88.82,17"/><polygon class="fc04674b-871f-4ab2-b426-1a31293c93ae" points="46.58 81.61 46.58 43.47 83.68 29.56 83.68 67.69 46.58 81.61"/><path class="fc04674b-871f-4ab2-b426-1a31293c93ae" d="M80.15,22.68c0,1.91,1.06,3.46,2.37,3.46s2.38-1.55,2.38-3.46-1.06-3.45-2.38-3.45-2.37,1.54-2.37,3.45"/><path class="fc04674b-871f-4ab2-b426-1a31293c93ae" d="M71.48,25.85c0,1.91,1.07,3.46,2.38,3.46s2.37-1.55,2.37-3.46-1.06-3.46-2.37-3.46-2.38,1.55-2.38,3.46"/><path class="fc04674b-871f-4ab2-b426-1a31293c93ae" d="M62.82,29c0,1.91,1.06,3.45,2.37,3.45s2.38-1.54,2.38-3.45-1.07-3.46-2.38-3.46S62.82,27.11,62.82,29"/><path class="fc04674b-871f-4ab2-b426-1a31293c93ae" d="M54.15,32.18c0,1.91,1.06,3.46,2.37,3.46s2.38-1.55,2.38-3.46-1.06-3.45-2.38-3.45-2.37,1.54-2.37,3.45"/><path class="fc04674b-871f-4ab2-b426-1a31293c93ae" d="M45.48,35.35c0,1.91,1.07,3.46,2.38,3.46s2.37-1.55,2.37-3.46-1.06-3.46-2.37-3.46-2.38,1.55-2.38,3.46"/><polygon class="fc04674b-871f-4ab2-b426-1a31293c93ae" points="85.19 94.29 46.58 81.61 46.58 75.61 122.29 74.28 122.29 80.28 85.19 94.29"/><polygon class="f35cf1f7-8269-4d20-922e-fd77a2595499" points="85.19 88.29 46.58 75.61 83.68 61.6 122.29 74.28 85.19 88.29"/><path class="fc04674b-871f-4ab2-b426-1a31293c93ae" d="M65,68.59l21.83-8.24,22.72,7.46v5a3,3,0,0,1-1.93,2.79L89.49,82.44a5.31,5.31,0,0,1-3.54.07l-18.88-6.2a3,3,0,0,1-2-2.83Z"/><path class="e94ed7d4-a3b4-4c66-a9d1-b2a698ea5606" d="M65,61.55l21.83-8.24,22.72,7.46v7L89.49,75.39a5.31,5.31,0,0,1-3.54.08L65,68.59Z"/><path class="fc04674b-871f-4ab2-b426-1a31293c93ae" d="M65,54.5l21.83-8.24,22.72,7.46v7.05L89.49,68.34a5.31,5.31,0,0,1-3.54.08L65,61.55Z"/><path class="e94ed7d4-a3b4-4c66-a9d1-b2a698ea5606" d="M67.9,46.37l16-6a9,9,0,0,1,6-.13l16.64,5.47a4.46,4.46,0,0,1,3.07,4.24v3.81L89.49,61.3a5.31,5.31,0,0,1-3.54.08L65,54.5v-4a4.45,4.45,0,0,1,2.88-4.17"/><path class="a4d5c13e-77d2-46d9-ae24-676fe69019eb" d="M101.06,36.72l-.12-.06.08-.08a5.07,5.07,0,0,0,1.43-4.26,5,5,0,0,0-4.27,1.43.27.27,0,0,0-.07.08l-.06-.13A5.05,5.05,0,0,0,94.43,31a5,5,0,0,0,2.29,6.72l0,.26L97,38a5,5,0,0,0,6.73,2.29,5,5,0,0,0-2.68-3.61"/><path class="fc04674b-871f-4ab2-b426-1a31293c93ae" d="M97.62,37.15c-2.92-2.92-7.34-3.24-10.93.35s-4.82,10.5-2.37,13,9.35,1.22,12.94-2.38,3.28-8,.36-10.92"/></g></svg>