<?xml version="1.0" encoding="utf-8"?>
<!-- Generator: Adobe Illustrator 21.0.2, SVG Export Plug-In . SVG Version: 6.00 Build 0)  -->
<svg version="1.1" id="Layer_1" xmlns="http://www.w3.org/2000/svg" xmlns:xlink="http://www.w3.org/1999/xlink" x="0px" y="0px"
	 viewBox="0 0 550.9 139.2" style="enable-background:new 0 0 550.9 139.2;" xml:space="preserve">
<style type="text/css">
	.st0{fill:none;stroke:#D33C44;stroke-width:4.06;stroke-linecap:round;stroke-miterlimit:10;}
	.st1{fill:#D33C44;}
	.st2{fill:#FFFFFF;}
	.st3{enable-background:new    ;}
	.st4{fill:none;stroke:#D33C44;stroke-width:4.06;stroke-linecap:round;stroke-linejoin:round;}
</style>
<title>plaque2</title>
<line class="st0" x1="327.3" y1="71.8" x2="339.2" y2="71.8"/>
<path class="st0" d="M346.8,71.8h11.7c1.6,0,3.1-0.6,4.3-1.7l21.3-19.3c2.6-2.4,2.8-6.4,0.4-9c-0.1-0.2-0.3-0.3-0.4-0.4L362.8,22
	c-1.2-1.1-2.7-1.7-4.3-1.7H210.2"/>
<path class="st0" d="M200.7,20.3H169c-3.5,0-6.4,2.9-6.4,6.4v38.7c0,3.5,2.9,6.4,6.4,6.4h150.4"/>
<path class="st1" d="M169,67.8c-1.3,0-2.3-1-2.3-2.3l0,0V26.7c0-1.3,1-2.3,2.3-2.3l0,0h189.5c0.6,0,1.1,0.2,1.6,0.6l21.3,19.3
	c1,0.9,1,2.3,0.2,3.3c-0.1,0.1-0.1,0.1-0.2,0.2l-21.3,19.4c-0.4,0.4-1,0.6-1.6,0.6H169z"/>
<path class="st2" d="M358.5,26.4c0.1,0,0.1,0,0.2,0.1l21.3,19.4c0.1,0.1,0.1,0.3,0,0.4c0,0,0,0,0,0l-21.3,19.3
	c-0.1,0.1-0.1,0.1-0.2,0.1H169c-0.2,0-0.3-0.1-0.3-0.3v0V26.7c0-0.2,0.1-0.3,0.3-0.3l0,0H358.5 M358.5,22.4H169
	c-2.4,0-4.4,2-4.4,4.4l0,0v38.7c0,2.4,2,4.4,4.4,4.3h189.5c1.1,0,2.1-0.4,2.9-1.1l21.3-19.4c1.8-1.6,1.9-4.4,0.3-6.2
	c-0.1-0.1-0.2-0.2-0.3-0.3l-21.3-19.3C360.7,22.8,359.6,22.4,358.5,22.4z"/>
<g class="st3">
	<path class="st2" d="M190.2,48v7h-3.9v-6.9l-6.8-10.7h4.5l4.2,7.1l4.3-7.1h4.4L190.2,48z"/>
</g>
<g class="st3">
	<path class="st2" d="M206.7,55.4c-5.4,0-9.3-4-9.3-9.1v0c0-5,3.9-9.1,9.4-9.1s9.3,4,9.3,9.1v0.1C216,51.3,212.1,55.4,206.7,55.4z
		 M212,46.2c0-3-2.2-5.5-5.3-5.5s-5.3,2.5-5.3,5.5v0.1c0,3,2.2,5.5,5.3,5.5S212,49.3,212,46.2L212,46.2z"/>
	<path class="st2" d="M227.1,55.3c-4.7,0-7.6-2.6-7.6-7.8V37.4h3.9v10c0,2.9,1.4,4.4,3.8,4.4c2.4,0,3.8-1.4,3.8-4.2V37.4h3.9v9.9
		C234.8,52.7,231.8,55.3,227.1,55.3z"/>
	<path class="st2" d="M249.7,55l-3.8-5.6h-3V55H239V37.4h8c4.1,0,6.6,2.2,6.6,5.8v0.1c0,2.8-1.5,4.6-3.8,5.5l4.3,6.3H249.7z
		 M249.8,43.5c0-1.7-1.2-2.5-3-2.5h-3.8V46h3.9C248.7,46,249.8,45,249.8,43.5L249.8,43.5z"/>
</g>
<g class="st3">
	<path class="st2" d="M273.2,41v14h-3.9V41H264v-3.6h14.6V41H273.2z"/>
</g>
<g class="st3">
	<path class="st2" d="M289.6,55.4c-5.4,0-9.3-4-9.3-9.1v0c0-5,3.9-9.1,9.4-9.1s9.3,4,9.3,9.1v0.1C299,51.3,295,55.4,289.6,55.4z
		 M294.9,46.2c0-3-2.2-5.5-5.3-5.5s-5.3,2.5-5.3,5.5v0.1c0,3,2.2,5.5,5.3,5.5S294.9,49.3,294.9,46.2L294.9,46.2z"/>
</g>
<g class="st3">
	<path class="st2" d="M321,55.2h-3.4l-4-11.5l-4,11.5h-3.4l-6-17.7h4.1l3.6,11.9l3.9-12h3.3l3.9,12l3.6-11.9h4L321,55.2z"/>
	<path class="st2" d="M342.5,55l-8.5-11.2V55h-3.8V37.4h3.6l8.2,10.8V37.4h3.8V55H342.5z"/>
	<path class="st2" d="M354.4,37.4V38l-1.2,11.1h-2.1L350,38v-0.5H354.4z M350.2,55v-4h4.1v4H350.2z"/>
</g>
<line class="st0" x1="281.6" y1="79.9" x2="281.6" y2="106.1"/>
<line class="st0" x1="267.3" y1="128.8" x2="267.3" y2="79.9"/>
<line class="st0" x1="281.6" y1="116.1" x2="281.6" y2="120.9"/>
<line class="st0" x1="281.6" y1="128.6" x2="281.6" y2="128.8"/>
<line class="st0" x1="267.3" y1="137" x2="267.3" y2="137.2"/>
<polyline class="st4" points="281.6,12 281.6,2 267.3,2 267.3,12 "/>
<line class="st0" x1="467" y1="18.9" x2="497.5" y2="49.4"/>
<path class="st0" d="M418.3,55.8l36.8-36.8c3.3-3.3,8.6-3.3,11.9,0c0,0,0,0,0,0"/>
<line class="st0" x1="404.9" y1="69.1" x2="412.9" y2="61.2"/>
<line class="st0" x1="396.6" y1="77.4" x2="399" y2="75"/>
<path class="st0" d="M491.3,75.2L513.5,53c2.4-2.3,6.2-2.3,8.5,0l26.8,26.8 M472.6,93.8l13.5-13.5"/>
<line class="st0" x1="473.4" y1="41.5" x2="477.8" y2="37.5"/>
<polyline class="st0" points="446.6,36.8 452.8,43.8 464,31.7 468,35.8 "/>
<path class="st0" d="M81.4,77.4l16.4,16.4 M5.5,83.8l36.3-36.3c2.7-2.7,7-2.7,9.7,0c0,0,0,0,0,0l24,24"/>
<path class="st0" d="M90.7,23.1c2-2,5.2-2,7.2,0c0,0,0,0,0,0l34.4,34.4"/>
<line class="st0" x1="68.2" y1="45.6" x2="90.4" y2="23.4"/>
<line class="st0" x1="100.8" y1="41.4" x2="104.1" y2="38.3"/>
<polyline class="st0" points="82.4,39.8 87,45 95.6,36.2 "/>
</svg>
