<svg id="Layer_1" data-name="Layer 1" xmlns="http://www.w3.org/2000/svg" viewBox="0 0 82.57 108.19"><defs><style>.cls-1{fill:none;stroke:#d33c44;stroke-linecap:round;stroke-miterlimit:10;stroke-width:2.57px;}.cls-2{fill:#d33c44;}.cls-3{fill:#fff;}</style></defs><title>plaque1</title><line class="cls-1" x1="44.85" y1="105.31" x2="44.85" y2="106.9"/><polyline class="cls-1" points="37.72 87.87 37.72 14.53 44.85 14.53 44.85 101.66"/><line class="cls-1" x1="37.72" y1="92.93" x2="37.72" y2="92.58"/><line class="cls-1" x1="37.72" y1="102.05" x2="37.72" y2="97.81"/><line class="cls-1" x1="20.22" y1="19.2" x2="14.01" y2="25.42"/><path class="cls-1" d="M77.72,48l1.34-1.34a7.6,7.6,0,0,0,0-10.73L46.65,3.51a7.59,7.59,0,0,0-10.74,0L22.75,16.67"/><line class="cls-1" x1="64.35" y1="61.36" x2="74.13" y2="51.59"/><line class="cls-1" x1="61.09" y1="64.62" x2="61.97" y2="63.75"/><path class="cls-1" d="M7.94,31.49,3.51,35.92a7.6,7.6,0,0,0,0,10.73L35.92,79.06a7.6,7.6,0,0,0,10.74,0L58.32,67.4"/><line class="cls-1" x1="11.46" y1="27.97" x2="10.34" y2="29.09"/><path class="cls-2" d="M41.28,79a5.26,5.26,0,0,1-3.74-1.55L5.13,45a5.3,5.3,0,0,1,0-7.49L37.54,5.14a5.29,5.29,0,0,1,7.48,0L77.43,37.54a5.3,5.3,0,0,1,0,7.49L45,77.44A5.26,5.26,0,0,1,41.28,79Z"/><path class="cls-3" d="M41.28,4.87A4,4,0,0,1,44.12,6L76.52,38.45a4,4,0,0,1,0,5.66L44.12,76.53a4,4,0,0,1-5.66,0L6,44.12a4,4,0,0,1,0-5.66L38.45,6a4,4,0,0,1,2.83-1.17m0-2.57a6.56,6.56,0,0,0-4.65,1.93L4.22,36.63a6.58,6.58,0,0,0,0,9.31L36.63,78.35a6.58,6.58,0,0,0,9.31,0L78.34,45.94a6.58,6.58,0,0,0,0-9.31L45.94,4.23A6.56,6.56,0,0,0,41.28,2.3Z"/><path class="cls-3" d="M30.59,26.59a7.81,7.81,0,0,0-2.26-.85,5.86,5.86,0,0,0-2.24,0,3.73,3.73,0,0,0-2.92,2.92,5.61,5.61,0,0,0,0,2.24,8,8,0,0,0,.86,2.25,8.85,8.85,0,0,0,1.46,2,13.51,13.51,0,0,0,2.22,1.82A19.44,19.44,0,0,0,30,38.13q1.14.54,2.24,1t2.18.9a17.54,17.54,0,0,1,2.11,1.12,11.15,11.15,0,0,1,2,1.62L48.75,52.93a2,2,0,0,1,.56-1.09,1.78,1.78,0,0,1,1.09-.56L40.19,41.07a11.15,11.15,0,0,1-1.62-2,17.55,17.55,0,0,1-1.12-2.11q-.48-1.08-.89-2.19t-.95-2.24a19.54,19.54,0,0,0-1.25-2.24,13.52,13.52,0,0,0-1.82-2.22A8.86,8.86,0,0,0,30.59,26.59Zm2.73,4.74a9.3,9.3,0,0,1,1,2,4.6,4.6,0,0,1,.25,1.79A2,2,0,0,1,34,36.49a2.24,2.24,0,0,1-1.68.59,5.65,5.65,0,0,1-2.41-.67.11.11,0,0,1-.08,0,.21.21,0,0,1-.06-.24.15.15,0,0,1,.06-.09.32.32,0,0,1,.23-.11A3.46,3.46,0,0,0,31,36a1.41,1.41,0,0,0,.89-.42,1.63,1.63,0,0,0,.44-1.14,4.24,4.24,0,0,0-.3-1.62,9.44,9.44,0,0,0-.95-1.85,11.4,11.4,0,0,0-1.52-1.86,8.18,8.18,0,0,0-1.82-1.33.15.15,0,0,1-.09-.06.19.19,0,0,1,0-.23.3.3,0,0,1,.08-.11.29.29,0,0,1,.21-.09,5.9,5.9,0,0,1,2,.67,7.7,7.7,0,0,1,1.83,1.36A11.81,11.81,0,0,1,33.32,31.33Z"/><path class="cls-3" d="M50.21,52.71a1.16,1.16,0,0,1,.85-.36,1.13,1.13,0,0,1,.83.34l2,2a1.94,1.94,0,0,0-1.15.54,1.76,1.76,0,0,0-.53,1.13l-2-2a1.18,1.18,0,0,1,0-1.65Z"/><path class="cls-3" d="M53.65,56.15a1.18,1.18,0,0,1,1.69,0,1.17,1.17,0,0,1,.35.84,1.13,1.13,0,0,1-.35.85,1.1,1.1,0,0,1-.84.33,1.17,1.17,0,0,1-.84-.35,1.15,1.15,0,0,1-.36-.84A1.12,1.12,0,0,1,53.65,56.15Z"/><path class="cls-3" d="M60.85,30.71A5,5,0,0,0,59.29,27l-.07-.08-.07-.08-.08-.07L59,26.73a6.07,6.07,0,0,0-1.78-1.16,4.59,4.59,0,0,0-1.89-.35,4.89,4.89,0,0,0-1.9.45,6.09,6.09,0,0,0-1.78,1.27,13.84,13.84,0,0,0-1.17,1.37q-.66.86-1.4,2T47.6,32.6q-.73,1.24-1.4,2.48T45,37.5a17.51,17.51,0,0,0-.82,2.09l-.58,1.82a1.56,1.56,0,0,0-.78,0,1.42,1.42,0,0,0-.72.4L28,55.88a1.49,1.49,0,0,0,1,2.55A1.42,1.42,0,0,0,30.1,58L44.19,43.9a1.43,1.43,0,0,0,.4-.72,1.51,1.51,0,0,0,0-.8l1.86-.54A21.38,21.38,0,0,0,48.48,41q1.18-.53,2.44-1.19t2.5-1.39q1.24-.73,2.33-1.48t2-1.4a12.55,12.55,0,0,0,1.38-1.15A5.36,5.36,0,0,0,60.85,30.71Zm-14.43,6q.5-1,1.11-2.07t1.31-2.15q.69-1.09,1.37-2t1.25-1.66a13.4,13.4,0,0,1,1-1.12,4.62,4.62,0,0,1,2.24-1.33,3.48,3.48,0,0,1,2.32.29,6.77,6.77,0,0,0-1.39.79A14.3,14.3,0,0,0,53.75,29q-.41.41-1,1.1l-1.39,1.54q-.76.85-1.58,1.8t-1.57,1.87q-.75.92-1.4,1.75t-1.07,1.43A10.85,10.85,0,0,1,46.41,36.73ZM29.63,57.47a.82.82,0,0,1-1.13,0,.79.79,0,0,1-.24-.58.76.76,0,0,1,.23-.56.78.78,0,0,1,1.16,0,.77.77,0,0,1,.24.56A.81.81,0,0,1,29.63,57.47ZM55,32.56q-.72.67-1.62,1.46t-1.92,1.63l-2,1.63q-1,.79-1.86,1.47T46.1,39.88q.43-.66,1.13-1.54l1.47-1.86q.77-1,1.62-2L52,32.59q.79-.9,1.46-1.62t1.1-1.15A13.56,13.56,0,0,1,56,28.5a6.75,6.75,0,0,1,1.14-.7,2.37,2.37,0,0,1,.79-.24.54.54,0,0,1,.41.09.55.55,0,0,1,.11.43,2.22,2.22,0,0,1-.25.78A7.64,7.64,0,0,1,57.48,30a13.57,13.57,0,0,1-1.31,1.47Q55.74,31.89,55,32.56Zm2.16,2q-.72.57-1.67,1.24t-2,1.38q-1.07.71-2.14,1.31t-2.07,1.08a14.59,14.59,0,0,1-1.79.75q.6-.41,1.44-1.06t1.75-1.41l1.86-1.58,1.8-1.58,1.55-1.38q.69-.62,1.11-1a14,14,0,0,0,1.59-1.83,6.69,6.69,0,0,0,.78-1.4,3.5,3.5,0,0,1,.28,2.31,4.6,4.6,0,0,1-1.33,2.24A13.32,13.32,0,0,1,57.18,34.55Z"/></svg>