<svg id="Layer_1" data-name="Layer 1" xmlns="http://www.w3.org/2000/svg" viewBox="0 0 1280 302.49"><defs><style>.cls-1{fill:#f8f7f4;}.cls-2,.cls-3{fill:none;stroke-linecap:round;stroke-miterlimit:10;stroke-width:4.06px;}.cls-2{stroke:#f8f7f4;}.cls-3{stroke:#fff;}</style></defs><title>footer-img</title><path class="cls-1" d="M0,302.49v-114l82.95-82.95a14.2,14.2,0,0,1,20.08,0l59,59,41-41a14.2,14.2,0,0,1,20.08,0L273.51,174,336,111.59a14.2,14.2,0,0,1,20.08,0l45.88,45.88,42.14-42.14a12.07,12.07,0,0,1,17.07,0l5,5,26-26a12.07,12.07,0,0,1,17.07,0l22.44,22.44,5.54-5.54a12.94,12.94,0,0,1,18.3,0l36.21,36.21,37.84-37.84a14.2,14.2,0,0,1,20.08,0l43.21,43.21L760,85.59a14.2,14.2,0,0,1,20.08,0l37,37,3-3a9.25,9.25,0,0,1,13.08,0l25,25L917,85.59a14.2,14.2,0,0,1,20.08,0l48.67,48.67L1021,98.95a14.2,14.2,0,0,1,20.08,0l71.67,71.67L1177,106.45a14.2,14.2,0,0,1,20.08,0L1280,189.39v113.1Z"/><path class="cls-2" d="M593.57,95.71A26,26,0,0,1,636,75.56"/><path class="cls-2" d="M691,102.35a26,26,0,0,0-23.77-25.9,26,26,0,1,0-51.57-6.59"/><path class="cls-2" d="M452,81.17a27.42,27.42,0,0,1,39.53-12.73"/><path class="cls-2" d="M469,65.56a27.41,27.41,0,0,0-52.45-3.5,27.41,27.41,0,0,0-35.2,26.28"/><path class="cls-2" d="M828.36,76.61a27.42,27.42,0,0,0-39.53-12.73"/><path class="cls-2" d="M811.4,61a27.41,27.41,0,0,1,52.45-3.5A27.41,27.41,0,0,1,899,83.78"/><path class="cls-2" d="M590.07,67.69a26.51,26.51,0,1,1,26.51-26.51"/><line class="cls-2" x1="555.59" y1="41.17" x2="550.93" y2="41.17"/><line class="cls-2" x1="590.07" y1="6.69" x2="590.07" y2="2.03"/><line class="cls-2" x1="615.51" y1="17.9" x2="618.95" y2="14.75"/><line class="cls-2" x1="573.12" y1="11.14" x2="570.83" y2="7.08"/><line class="cls-2" x1="569.36" y1="68.75" x2="566.57" y2="72.47"/><line class="cls-2" x1="558.38" y1="27.58" x2="554.1" y2="25.74"/><path class="cls-3" d="M864.25,161,871.3,168m-66.92-23.26,17.55-17.55a6.06,6.06,0,0,1,8.57,0L857.32,154m-67.23,5,9-9"/><path class="cls-3" d="M384,151.29l1.7,1.7m-66.2-13.28,22.17-22.17a6.06,6.06,0,0,1,8.57,0l26.82,26.82m-76.19,14,13.54-13.54"/><line class="cls-3" x1="645.44" y1="116.58" x2="675.89" y2="147.03"/><path class="cls-3" d="M596.68,153.41l36.83-36.83a8.44,8.44,0,0,1,11.94,0"/><line class="cls-3" x1="583.29" y1="166.79" x2="591.28" y2="158.81"/><line class="cls-3" x1="691.52" y1="162.66" x2="681.73" y2="152.87"/><line class="cls-3" x1="575.04" y1="175.04" x2="577.42" y2="172.67"/><line class="cls-3" x1="651.83" y1="139.14" x2="656.18" y2="135.17"/><polyline class="cls-3" points="624.97 134.42 631.21 141.41 642.37 129.31 646.38 133.47"/><path class="cls-3" d="M487.64,153.39l16.42,16.42m-92.32-10,36.3-36.3a6.88,6.88,0,0,1,9.73,0l24,24m-80,22.32,4.53-4.53"/><path class="cls-3" d="M804.73,121.63l2.6,2.6m-78.5,3.83,36.3-36.3a6.88,6.88,0,0,1,9.73,0l24,24m-80,22.32,4.53-4.53"/><path class="cls-3" d="M497,100.59a5.11,5.11,0,0,1,7.23,0l34.4,34.4"/><line class="cls-3" x1="474.5" y1="123.1" x2="496.68" y2="100.92"/><line class="cls-3" x1="507.06" y1="118.92" x2="510.32" y2="115.81"/><polyline class="cls-3" points="488.7 117.29 493.29 122.47 501.88 113.73"/></svg>