<?xml version="1.0" encoding="utf-8"?>
<!-- Generator: Adobe Illustrator 21.0.2, SVG Export Plug-In . SVG Version: 6.00 Build 0)  -->
<svg version="1.1" id="Layer_1" xmlns="http://www.w3.org/2000/svg" xmlns:xlink="http://www.w3.org/1999/xlink" x="0px" y="0px"
	 viewBox="0 0 1280 564.7" style="enable-background:new 0 0 1280 564.7;" xml:space="preserve">
<style type="text/css">
	.st0{fill:#F8F7F4;}
	.st1{fill:none;stroke:#D33C44;stroke-width:4.06;stroke-linecap:round;stroke-miterlimit:10;}
	.st2{fill:#D33C44;}
	.st3{fill:#FFFFFF;}
	.st4{fill:none;stroke:#FFFFFF;stroke-width:10.15;stroke-miterlimit:10;}
	.st5{fill:none;stroke:#2F85AE;stroke-width:4.06;stroke-miterlimit:10;}
	.st6{fill:#2F85AE;}
	.st7{fill:none;stroke:#FFFFFF;stroke-width:4.06;stroke-linecap:round;stroke-miterlimit:10;}
	.st8{opacity:0.5;}
	.st9{opacity:0.3;}
	.st10{opacity:0.2;}
	.st11{opacity:0.1;}
	
		.st12{opacity:0.3;fill:none;stroke:#D33C44;stroke-width:4.06;stroke-linecap:round;stroke-miterlimit:10;enable-background:new    ;}
</style>
<title>hero</title>
<path class="st0" d="M83.9,279.2c5.5-5.5,14.5-5.5,20.1,0l59,59l41-41c5.5-5.5,14.5-5.5,20.1,0l50.5,50.5l62.4-62.5
	c5.5-5.5,14.5-5.5,20.1,0l45.9,45.9l42.1-42.1c4.7-4.7,12.4-4.7,17.1,0c0,0,0,0,0,0l5,5l26-26c4.7-4.7,12.4-4.7,17.1,0c0,0,0,0,0,0
	l22.3,22.5l5.5-5.5c5.1-5.1,13.2-5.1,18.3,0c0,0,0,0,0,0l36.2,36.2l37.8-37.8c5.5-5.5,14.5-5.5,20.1,0l43.2,43.2l67.2-67.2
	c5.5-5.5,14.5-5.5,20.1,0l37,37l3-3c3.6-3.6,9.5-3.6,13.1,0l25,25l58.8-59c5.5-5.5,14.5-5.5,20.1,0l48.7,48.7l35.2-35.3
	c5.5-5.5,14.5-5.5,20.1,0l71.7,71.7L1178,280c5.5-5.5,14.5-5.5,20.1,0l81.9,82V-5H0v368.9L83.9,279.2z"/>
<polyline class="st1" points="631.6,554 631.6,199.5 645.9,199.5 645.9,531.3 "/>
<line class="st1" x1="681" y1="297.5" x2="693.5" y2="285"/>
<path class="st1" d="M565.6,239.7l-2.7,2.7c-5.9,6-5.9,15.6,0,21.6L628,329c5.9,6,15.6,6,21.6,0c0,0,0,0,0,0l26.4-26.4"/>
<line class="st1" x1="592.4" y1="212.9" x2="572.8" y2="232.5"/>
<line class="st1" x1="599" y1="206.3" x2="597.2" y2="208.1"/>
<path class="st1" d="M705.7,272.8l8.9-8.9c5.9-6,5.9-15.6,0-21.6l-65.1-65.1c-6-5.9-15.6-5.9-21.6,0l-23.4,23.4"/>
<line class="st1" x1="698.6" y1="279.9" x2="700.9" y2="277.7"/>
<path class="st2" d="M638.8,329.4c-3,0-5.8-1.2-7.9-3.3L565.8,261c-4.4-4.4-4.4-11.4,0-15.8l65.1-65c4.4-4.4,11.4-4.4,15.8,0
	l65.1,65.1c4.4,4.4,4.4,11.4,0,15.8l-65.1,65.1C644.6,328.2,641.7,329.4,638.8,329.4z"/>
<path class="st0" d="M638.8,178.9c2.4,0,4.8,1,6.5,2.7l65.1,65.1c3.6,3.6,3.6,9.4,0,12.9l-65.1,65.1c-3.6,3.6-9.4,3.6-12.9,0
	l-65.1-65.1c-3.6-3.6-3.6-9.4,0-12.9l65.1-65.1C634,179.9,636.3,178.9,638.8,178.9 M638.8,174.9c-3.5,0-6.9,1.4-9.3,3.9l-65.1,65.1
	c-5.2,5.2-5.2,13.5,0,18.7c0,0,0,0,0,0l65.1,65.1c5.2,5.2,13.5,5.2,18.7,0c0,0,0,0,0,0l65.1-65.1c5.2-5.2,5.2-13.5,0-18.7
	c0,0,0,0,0,0l-65.1-65.1C645.6,176.3,642.3,174.9,638.8,174.9z"/>
<path class="st3" d="M638.8,246.9l31.3,7.8c5.5-2.1,8.7-4.8,8.7-7.8v-12.6c0-6.9-17.9-12.5-40-12.5s-40,5.6-40,12.5v12.5
	c0,6.9,17.9,12.5,40,12.5L638.8,246.9z"/>
<path class="st3" d="M670,267.2l-31.2-7.8v12.5l31.2,7.8c5.5-2.1,8.7-4.8,8.7-7.8v-12.5C678.8,262.4,675.5,265.1,670,267.2z"/>
<path class="st3" d="M598.7,259.4v12.5c0,6.9,17.9,12.5,40,12.5v-12.4C616.7,271.9,598.7,266.3,598.7,259.4z"/>
<path class="st1" d="M715.2,437.5h29.5c3.1,0,5.6-2.5,5.6-5.6v-81.6c0-3.1-2.5-5.6-5.6-5.6H577.7"/>
<line class="st1" x1="681.1" y1="437.5" x2="707.4" y2="437.5"/>
<path class="st1" d="M556.3,344.8h-23.6c-3.1,0-5.6,2.5-5.6,5.6v81.5c0,3.1,2.5,5.6,5.6,5.6h140.1"/>
<line class="st1" x1="569" y1="344.8" x2="565.5" y2="344.8"/>
<path class="st2" d="M532.7,348.9h212.1c0.8,0,1.5,0.7,1.5,1.5v81.5c0,0.8-0.7,1.5-1.5,1.5H532.7c-0.8,0-1.5-0.7-1.5-1.5v-81.5
	C531.2,349.6,531.9,348.9,532.7,348.9z"/>
<path class="st3" d="M744.3,350.9v80.5H533.2v-80.5H744.3 M744.8,346.9H532.7c-2,0-3.6,1.6-3.6,3.6v81.5c0,2,1.6,3.6,3.6,3.6h212.1
	c2,0,3.6-1.6,3.6-3.6v-81.6C748.3,348.4,746.8,346.8,744.8,346.9L744.8,346.9z"/>
<path class="st3" d="M591.9,374.8L591.9,374.8c-0.1-6.6,5.2-12,11.7-12.1c0.2,0,0.3,0,0.5,0c3.9-0.2,7.6,1.6,9.8,4.8l-4.8,3.7
	c-1.1-1.7-3-2.7-5-2.7c-3.2,0-5.5,2.7-5.5,6.1v0.1c0,3.5,2.3,6.2,5.5,6.2c2.4,0,3.8-1.1,5.2-2.8l4.8,3.4c-3.8,5.5-11.4,6.9-16.9,3
	C593.9,382.3,592,378.7,591.9,374.8L591.9,374.8z"/>
<path class="st3" d="M624.6,363h6.2l9.8,23.3h-6.9l-1.7-4.1h-8.9l-1.7,4.1h-6.7L624.6,363z M630.2,377.2l-2.6-6.6l-2.6,6.6H630.2z"
	/>
<path class="st3" d="M642.8,363.2h6.4v9.4l8-9.4h7.6l-8.8,9.9l9,13.2h-7.7l-5.8-8.6l-2.3,2.6v6h-6.4L642.8,363.2z"/>
<path class="st3" d="M666.9,363.2h18.6v5.4h-12.2v3.5h11.1v5h-11.1v3.7h12.4v5.4h-18.7V363.2z"/>
<path class="st3" d="M548.7,395.7h10.9c3.5,0,6,0.9,7.5,2.5c1.4,1.4,2.1,3.4,2,5.4v0.1c0.1,3.1-1.8,6-4.8,7.1l5.5,8h-7.4l-4.7-7
	h-2.8v7h-6.4L548.7,395.7z M559.4,406.8c2.2,0,3.4-1.1,3.4-2.7V404c0-1.8-1.3-2.7-3.5-2.7h-4.2v5.5L559.4,406.8z"/>
<path class="st3" d="M571.7,407.3L571.7,407.3c0.1-6.8,5.5-12.1,12.2-12.1c0.1,0,0.2,0,0.3,0c7.1,0,12.4,5.3,12.4,11.9v0.1
	c-0.1,6.7-5.5,12.1-12.2,12c-0.1,0-0.2,0-0.3,0C576.9,419.2,571.7,413.9,571.7,407.3z M590,407.3L590,407.3c0.1-3.4-2.4-6.2-5.8-6.3
	c-0.1,0-0.1,0-0.2,0c-3.3,0-5.9,2.7-5.8,5.9c0,0.1,0,0.2,0,0.2v0.1c-0.1,3.3,2.4,6.1,5.8,6.2c0.1,0,0.1,0,0.2,0
	c3.3,0,5.9-2.7,5.9-5.9C590,407.5,590,407.4,590,407.3z"/>
<path class="st3" d="M606.4,395.5h6.2l9.8,23.3h-6.9l-1.7-4.1h-8.9l-1.7,4.1h-6.7L606.4,395.5z M612,409.7l-2.6-6.6l-2.6,6.6H612z"
	/>
<path class="st3" d="M624.6,395.7h8.9c8.2,0,13,4.8,13,11.4v0.1c0,6.7-4.8,11.6-13.2,11.6h-8.8L624.6,395.7z M633.6,413.1
	c3.8,0,6.4-2.1,6.4-5.8v-0.1c0-3.7-2.5-5.8-6.4-5.8H631v11.8H633.6z"/>
<path class="st3" d="M660,401.3h-6.9v-5.6h20.3v5.6h-6.9v17.5H660V401.3z"/>
<path class="st3" d="M676.1,395.7h10.9c3.5,0,6,0.9,7.5,2.5c1.4,1.4,2.1,3.4,2,5.4v0.1c0.1,3.1-1.8,6-4.8,7.1l5.5,8H690l-4.7-7h-2.8
	v7h-6.4L676.1,395.7z M686.8,406.8c2.2,0,3.4-1.1,3.4-2.7V404c0-1.8-1.3-2.7-3.5-2.7h-4.2v5.5L686.8,406.8z"/>
<path class="st3" d="M700,395.7h6.4v23.1H700V395.7z"/>
<path class="st3" d="M710.7,395.7h9.9c5.8,0,9.6,3,9.6,8.1v0.1c0,5.4-4.2,8.3-9.9,8.3h-3.2v6.6h-6.4V395.7z M720.1,407.2
	c2.3,0,3.7-1.2,3.7-3v-0.1c0-2-1.4-3-3.7-3h-3v6.1L720.1,407.2z"/>
<line class="st1" x1="645.9" y1="541.2" x2="645.9" y2="546.1"/>
<line class="st1" x1="645.9" y1="553.7" x2="645.9" y2="553.9"/>
<line class="st1" x1="631.6" y1="562.1" x2="631.6" y2="562.3"/>
<path class="st4" d="M615.6,459h46.3c4.7,0,8.5,3.8,8.5,8.5v37.2c0,4.7-3.8,8.5-8.5,8.5h-46.3c-4.7,0-8.5-3.8-8.5-8.5v-37.2
	C607.1,462.8,610.9,459,615.6,459z"/>
<path class="st5" d="M615.6,459h46.3c4.7,0,8.5,3.8,8.5,8.5v37.2c0,4.7-3.8,8.5-8.5,8.5h-46.3c-4.7,0-8.5-3.8-8.5-8.5v-37.2
	C607.1,462.8,610.9,459,615.6,459z"/>
<path class="st6" d="M615.6,460h46.3c4.1,0,7.5,3.3,7.5,7.5v37.1c0,4.1-3.3,7.5-7.5,7.5h-46.3c-4.1,0-7.5-3.3-7.5-7.5v-37.1
	C608.1,463.3,611.5,460,615.6,460z"/>
<path class="st3" d="M661.9,461c3.6,0,6.5,2.9,6.5,6.5v37.2c0,3.6-2.9,6.5-6.5,6.5h-46.3c-3.6,0-6.5-2.9-6.5-6.5v-37.2
	c0-3.6,2.9-6.5,6.5-6.5L661.9,461 M661.9,459h-46.3c-4.7,0-8.5,3.8-8.5,8.5v37.2c0,4.7,3.8,8.5,8.5,8.5h46.3c4.7,0,8.5-3.8,8.5-8.5
	v-37.2C670.4,462.8,666.6,459,661.9,459L661.9,459z"/>
<path class="st3" d="M638.8,478.7l5.8,1.4c1-0.4,1.6-0.9,1.6-1.4v-2.4c0-1.3-3.3-2.3-7.4-2.3s-7.4,1-7.4,2.3v2.3
	c0,1.3,3.3,2.3,7.4,2.3V478.7z"/>
<path class="st3" d="M644.6,482.5l-5.8-1.5v2.3l5.8,1.4c1-0.4,1.6-0.9,1.6-1.4v-2.3C646.2,481.6,645.6,482.1,644.6,482.5z"/>
<path class="st3" d="M631.3,481.1v2.3c0,1.3,3.3,2.3,7.4,2.3v-2.3C634.7,483.4,631.3,482.3,631.3,481.1z"/>
<path class="st3" d="M650.3,471.3v17.2h-23.1v-17.2H650.3 M651.6,470h-25.6v19.8h25.6L651.6,470L651.6,470z"/>
<path class="st3" d="M620.1,502.1c-2.3,0-4.1-1.8-4.2-4c0-0.1,0-0.1,0-0.2l0,0c0-2.3,1.8-4.2,4-4.2c0.1,0,0.1,0,0.2,0
	c1.2-0.1,2.4,0.4,3.2,1.2l-1.1,1.3c-0.5-0.6-1.3-0.9-2.1-0.9c-1.3,0-2.4,1.1-2.4,2.4c0,0,0,0,0,0.1l0,0c-0.1,1.3,0.9,2.5,2.3,2.5
	c0,0,0.1,0,0.1,0c0.8,0,1.6-0.4,2.1-1l1.1,1.1C622.6,501.6,621.4,502.1,620.1,502.1z"/>
<path class="st3" d="M628.3,501.9v-0.7c-0.5,0.5-1.2,0.8-1.9,0.8c-1.1,0.1-2-0.6-2.1-1.7c0-0.1,0-0.1,0-0.2l0,0c0-1.4,1-2,2.5-2
	c0.5,0,1,0.1,1.5,0.2v-0.1c0-0.7-0.5-1.1-1.3-1.1c-0.6,0-1.2,0.1-1.7,0.3l-0.4-1.3c0.8-0.3,1.6-0.5,2.4-0.5c1.9,0,2.8,1,2.8,2.7v3.6
	L628.3,501.9z M628.3,499.4c-0.4-0.2-0.7-0.2-1.1-0.2c-0.8,0-1.2,0.3-1.2,0.9l0,0c0,0.5,0.4,0.8,1,0.8c0.8,0,1.4-0.5,1.4-1.1
	L628.3,499.4z"/>
<path class="st3" d="M635.5,501.9l-1.6-2.5l-0.6,0.6v1.9h-1.8v-8.5h1.8v4.5l2.1-2.3h2.1l-2.4,2.4l2.4,3.8L635.5,501.9z"/>
<path class="st3" d="M643.9,499.4h-4.3c0.1,0.7,0.8,1.3,1.5,1.2c0.6,0,1.1-0.2,1.5-0.6l1,0.9c-1.2,1.4-3.2,1.6-4.6,0.4
	c-0.7-0.6-1.1-1.5-1.2-2.4l0,0c-0.1-1.7,1.2-3.1,2.9-3.2c0,0,0.1,0,0.1,0c2.1,0,3,1.6,3,3.4l0,0
	C643.9,499.2,643.9,499.3,643.9,499.4z M640.9,497c-0.7,0-1.3,0.6-1.3,1.3h2.7C642.1,497.6,641.6,497,640.9,497L640.9,497z"/>
<path class="st3" d="M648.5,501.9h-3.2v-8.1h3.2c2.2-0.2,4.1,1.5,4.3,3.7c0,0.1,0,0.2,0,0.3l0,0c0,2.2-1.8,4.1-4,4.1
	C648.7,501.9,648.6,501.9,648.5,501.9z M651,497.9c0.1-1.3-0.9-2.4-2.2-2.4c-0.1,0-0.2,0-0.2,0h-1.4v4.9h1.4
	c1.3,0.1,2.4-0.9,2.4-2.2C651,498.1,651,498,651,497.9L651,497.9z"/>
<path class="st3" d="M658.2,502.1c-2.3,0-4.1-1.8-4.2-4c0-0.1,0-0.1,0-0.2l0,0c0-2.3,1.8-4.2,4-4.2c0.1,0,0.1,0,0.2,0
	c1.2-0.1,2.4,0.4,3.2,1.2l-1.1,1.3c-0.5-0.6-1.3-0.9-2.1-0.9c-1.3,0-2.4,1.1-2.4,2.4c0,0,0,0,0,0.1l0,0c-0.1,1.3,0.9,2.5,2.3,2.5
	c0,0,0.1,0,0.1,0c0.8,0,1.6-0.4,2.1-1l1.1,1.1C660.7,501.6,659.5,502.1,658.2,502.1z"/>
<path class="st1" d="M752.3,242.8c0-14.4,11.6-26,26-26c6,0,11.8,2.1,16.4,5.8"/>
<path class="st1" d="M849.8,249.4c0-13.5-10.3-24.8-23.8-25.9c2.1-14.2-7.7-27.4-21.9-29.5c-14.2-2.1-27.4,7.7-29.5,21.9
	c-0.1,0.3-0.1,0.7-0.1,1"/>
<path class="st7" d="M401.8,265.8c0-14.4-11.6-26-26-26c-6,0-11.8,2.1-16.4,5.8"/>
<path class="st7" d="M304.3,272.4c0-13.5,10.3-24.7,23.8-25.9c-2.1-14.2,7.7-27.4,21.9-29.5c14.2-2.1,27.4,7.7,29.5,21.9
	c0.1,0.3,0.1,0.7,0.1,1"/>
<path class="st1" d="M506,239.2c5.9-13.9,22-20.5,35.9-14.6c1.2,0.5,2.4,1.1,3.6,1.8"/>
<path class="st1" d="M523,223.6c-3.3-14.8-18-24.1-32.8-20.7c-9.1,2-16.5,8.5-19.7,17.2c-14.5-4.3-29.8,4-34.1,18.5
	c-0.7,2.5-1.1,5.1-1.1,7.8"/>
<path class="st7" d="M908.5,236.5c-5.9-13.9-22-20.5-35.9-14.6c-1.2,0.5-2.4,1.1-3.6,1.8"/>
<path class="st7" d="M891.5,220.9c3.3-14.8,18-24.1,32.8-20.7c9.1,2,16.5,8.5,19.7,17.2c14.5-4.3,29.8,4,34.1,18.5
	c0.7,2.5,1.1,5.2,1.1,7.8"/>
<path class="st1" d="M746.9,208.8c-14.6,0-26.5-11.9-26.5-26.5s11.9-26.5,26.5-26.5c14.6,0,26.5,11.9,26.5,26.5"/>
<line class="st1" x1="712.4" y1="182.3" x2="707.8" y2="182.3"/>
<line class="st1" x1="746.9" y1="147.8" x2="746.9" y2="143.1"/>
<line class="st1" x1="772.3" y1="159" x2="775.8" y2="155.8"/>
<line class="st1" x1="730" y1="152.2" x2="727.7" y2="148.2"/>
<line class="st1" x1="726.2" y1="209.8" x2="723.4" y2="213.6"/>
<line class="st1" x1="715.2" y1="168.7" x2="710.9" y2="166.8"/>
<path class="st1" d="M832.2,421.9l-7.5-15.3c-0.2-0.3,0-0.8,0.3-0.9c0.1,0,0.2-0.1,0.3-0.1h2.8c0.4,0,0.7-0.3,0.7-0.7
	c0-0.1,0-0.2-0.1-0.3l-9.3-18.9c-0.2-0.3-0.6-0.5-0.9-0.3c-0.1,0.1-0.2,0.2-0.3,0.3l-9.3,18.9c-0.2,0.3,0,0.8,0.3,0.9
	c0.1,0,0.2,0.1,0.3,0.1h2.8c0.4,0,0.7,0.3,0.7,0.7c0,0.1,0,0.2-0.1,0.3l-7.5,15.3c-0.2,0.3,0,0.8,0.3,0.9c0.1,0,0.2,0.1,0.3,0.1h4.8
	c0.4,0,0.7,0.3,0.7,0.7c0,0.1,0,0.2-0.1,0.3l-4.4,8.9"/>
<line class="st1" x1="829.5" y1="430.6" x2="826.2" y2="423.9"/>
<line class="st1" x1="858.3" y1="472.2" x2="865.1" y2="486"/>
<path class="st1" d="M833.5,492.6l10.1-20.4c0.2-0.3,0-0.8-0.3-0.9c-0.1,0-0.2-0.1-0.3-0.1h-4.8c-0.4,0-0.7-0.3-0.7-0.7
	c0-0.1,0-0.2,0.1-0.3l7.5-15.3c0.2-0.3,0-0.8-0.3-0.9c-0.1,0-0.2-0.1-0.3-0.1h-2.8c-0.4,0-0.7-0.3-0.7-0.7c0-0.1,0-0.2,0.1-0.3
	l9.3-18.9c0.2-0.3,0.6-0.5,0.9-0.3c0.1,0.1,0.2,0.2,0.3,0.3l9.3,18.9c0.2,0.3,0,0.8-0.3,0.9c-0.1,0-0.2,0.1-0.3,0.1h-2.8
	c-0.4,0-0.7,0.3-0.7,0.7c0,0.1,0,0.2,0.1,0.3l7.5,15.3"/>
<path class="st1" d="M768.4,470.2l7.5-15.3c0.2-0.3,0-0.8-0.3-0.9c-0.1,0-0.2-0.1-0.3-0.1h-2.8c-0.4,0-0.7-0.3-0.7-0.7
	c0-0.1,0-0.2,0.1-0.3l9.3-18.9c0.2-0.3,0.6-0.5,0.9-0.3c0.1,0.1,0.2,0.2,0.3,0.3l9.3,18.9c0.2,0.3,0,0.8-0.3,0.9
	c-0.1,0-0.2,0.1-0.3,0.1h-2.8c-0.4,0-0.7,0.3-0.7,0.7c0,0.1,0,0.2,0.1,0.3l7.5,15.3c0.2,0.3,0,0.8-0.3,0.9c-0.1,0-0.2,0.1-0.3,0.1
	h-4.8c-0.4,0-0.7,0.3-0.7,0.7c0,0.1,0,0.2,0.1,0.3l10.1,20.4"/>
<line class="st1" x1="768.1" y1="485.1" x2="774.5" y2="472.2"/>
<g class="st8">
	<path class="st1" d="M930.3,470.2l-7.5-15.3c-0.2-0.3,0-0.8,0.3-0.9c0.1,0,0.2-0.1,0.3-0.1h2.8c0.4,0,0.7-0.3,0.7-0.7
		c0-0.1,0-0.2-0.1-0.3l-9.3-18.9c-0.2-0.3-0.6-0.5-0.9-0.3c-0.1,0.1-0.2,0.2-0.3,0.3l-9.3,18.9c-0.2,0.3,0,0.8,0.3,0.9
		c0.1,0,0.2,0.1,0.3,0.1h2.8c0.4,0,0.7,0.3,0.7,0.7c0,0.1,0,0.2-0.1,0.3l-7.5,15.3c-0.2,0.3,0,0.8,0.3,0.9c0.1,0,0.2,0.1,0.3,0.1
		h4.8c0.4,0,0.7,0.3,0.7,0.7c0,0.1,0,0.2-0.1,0.3l-10.1,20.4"/>
	<line class="st1" x1="930.6" y1="485.1" x2="924.2" y2="472.2"/>
</g>
<g class="st9">
	<path class="st1" d="M1030,421.9l-7.5-15.3c-0.2-0.3,0-0.8,0.3-0.9c0.1,0,0.2-0.1,0.3-0.1h2.9c0.4,0,0.7-0.3,0.7-0.7
		c0-0.1,0-0.2-0.1-0.3l-9.3-18.9c-0.2-0.3-0.6-0.5-0.9-0.3c-0.1,0.1-0.2,0.2-0.3,0.3l-9.3,18.9c-0.2,0.3,0,0.8,0.3,0.9
		c0.1,0,0.2,0.1,0.3,0.1h2.8c0.4,0,0.7,0.3,0.7,0.7c0,0.1,0,0.2-0.1,0.3l-7.5,15.3c-0.2,0.3,0,0.8,0.3,0.9c0.1,0,0.2,0.1,0.3,0.1
		h4.8c0.4,0,0.7,0.3,0.7,0.7c0,0.1,0,0.2-0.1,0.3l-4.4,8.9"/>
	<line class="st1" x1="1027.2" y1="430.6" x2="1023.9" y2="423.9"/>
</g>
<g class="st10">
	<line class="st1" x1="976.8" y1="472.2" x2="966.8" y2="492.6"/>
	<path class="st1" d="M994.1,453l-9.3-18.9c-0.2-0.3-0.6-0.5-0.9-0.3c-0.1,0.1-0.2,0.2-0.3,0.3l-9.3,18.9c-0.2,0.3,0,0.8,0.3,0.9
		c0.1,0,0.2,0.1,0.3,0.1h2.8c0.4,0,0.7,0.3,0.7,0.7c0,0.1,0,0.2-0.1,0.3l-7.5,15.3"/>
	<path class="st1" d="M997.5,484.5l-6-12.2c-0.2-0.3,0-0.8,0.3-0.9c0.1,0,0.2-0.1,0.3-0.1h4.9c0.4,0,0.7-0.3,0.7-0.7
		c0-0.1,0-0.2-0.1-0.3L990,455"/>
</g>
<g class="st11">
	<path class="st1" d="M1032.6,470.2l7.6-15.3c0.2-0.3,0-0.8-0.3-0.9c-0.1,0-0.2-0.1-0.3-0.1h-2.8c-0.4,0-0.7-0.3-0.7-0.7
		c0-0.1,0-0.2,0.1-0.3l9.3-18.9c0.2-0.3,0.6-0.5,0.9-0.3c0.1,0.1,0.2,0.2,0.3,0.3l9.3,18.9c0.2,0.3,0,0.8-0.3,0.9
		c-0.1,0-0.2,0.1-0.3,0.1h-2.8c-0.4,0-0.7,0.3-0.7,0.7c0,0.1,0,0.2,0.1,0.3l7.6,15.3c0.2,0.3,0,0.8-0.3,0.9c-0.1,0-0.2,0.1-0.3,0.1
		h-4.8c-0.4,0-0.7,0.3-0.7,0.7c0,0.1,0,0.2,0.1,0.3l10.1,20.4"/>
	<line class="st1" x1="1032.3" y1="485.1" x2="1038.7" y2="472.2"/>
</g>
<path class="st1" d="M939.2,421.9l7.5-15.3c0.2-0.3,0-0.8-0.3-0.9c-0.1,0-0.2-0.1-0.3-0.1h-2.8c-0.4,0-0.7-0.3-0.7-0.7
	c0-0.1,0-0.2,0.1-0.3l9.3-18.9c0.2-0.3,0.6-0.5,0.9-0.3c0.1,0.1,0.2,0.2,0.3,0.3l9.3,18.9c0.2,0.3,0,0.8-0.3,0.9
	c-0.1,0-0.2,0.1-0.3,0.1h-2.8c-0.4,0-0.7,0.3-0.7,0.7c0,0.1,0,0.2,0.1,0.3l7.5,15.3c0.2,0.3,0,0.8-0.3,0.9c-0.1,0-0.2,0.1-0.3,0.1
	h-4.8c-0.4,0-0.7,0.3-0.7,0.7c0,0.1,0,0.2,0.1,0.3l3.4,6.9"/>
<line class="st1" x1="938.9" y1="436.8" x2="945.3" y2="423.9"/>
<path class="st1" d="M873.5,421.9l7.5-15.3c0.2-0.3,0-0.8-0.3-0.9c-0.1,0-0.2-0.1-0.3-0.1h-2.8c-0.4,0-0.7-0.3-0.7-0.7
	c0-0.1,0-0.2,0.1-0.3l9.3-18.9c0.2-0.3,0.6-0.5,0.9-0.3c0.1,0.1,0.2,0.2,0.3,0.3l9.3,18.9c0.2,0.3,0,0.8-0.3,0.9
	c-0.1,0-0.2,0.1-0.3,0.1h-2.8c-0.4,0-0.7,0.3-0.7,0.7c0,0.1,0,0.2,0.1,0.3l7.5,15.3c0.2,0.3,0,0.8-0.3,0.9c-0.1,0-0.2,0.1-0.3,0.1
	h-4.8c-0.4,0-0.7,0.3-0.7,0.7c0,0.1,0,0.2,0.1,0.3l3.4,6.9"/>
<line class="st1" x1="873.2" y1="436.8" x2="879.6" y2="423.9"/>
<path class="st1" d="M358.4,455l-1.5,3.1l-6,12.2c-0.2,0.3,0,0.8,0.3,0.9c0.1,0,0.2,0.1,0.3,0.1h4.8c0.4,0,0.7,0.3,0.7,0.7
	c0,0.1,0,0.2-0.1,0.3l-6.8,13.8"/>
<path class="st1" d="M381.7,492.6l-10.1-20.4c-0.2-0.3,0-0.8,0.3-0.9c0.1,0,0.2-0.1,0.3-0.1h4.8c0.4,0,0.7-0.3,0.7-0.7
	c0-0.1,0-0.2-0.1-0.3l-7.5-15.3c-0.2-0.3,0-0.8,0.3-0.9c0.1,0,0.2-0.1,0.3-0.1h2.9c0.4,0,0.7-0.3,0.7-0.7c0-0.1,0-0.2-0.1-0.3
	l-9.3-18.9c-0.2-0.3-0.6-0.5-0.9-0.3c-0.1,0.1-0.2,0.2-0.3,0.3l-9.3,18.9"/>
<path class="st1" d="M447.1,470.2l-7.5-15.3c-0.2-0.3,0-0.8,0.3-0.9c0.1,0,0.2-0.1,0.3-0.1h2.9c0.4,0,0.7-0.3,0.7-0.7
	c0-0.1,0-0.2-0.1-0.3l-9.3-18.9c-0.2-0.3-0.6-0.5-0.9-0.3c-0.1,0.1-0.2,0.2-0.3,0.3l-9.3,18.9c-0.2,0.3,0,0.8,0.3,0.9
	c0.1,0,0.2,0.1,0.3,0.1h2.9c0.4,0,0.7,0.3,0.7,0.7c0,0.1,0,0.2-0.1,0.3l-7.5,15.3c-0.2,0.3,0,0.8,0.3,0.9c0.1,0,0.2,0.1,0.3,0.1h4.8
	c0.4,0,0.7,0.3,0.7,0.7c0,0.1,0,0.2-0.1,0.3l-10.1,20.4"/>
<line class="st1" x1="447.4" y1="485.1" x2="441" y2="472.2"/>
<path class="st1" d="M479.6,421.9l-7.5-15.3c-0.2-0.3,0-0.8,0.3-0.9c0.1,0,0.2-0.1,0.3-0.1h2.9c0.4,0,0.7-0.3,0.7-0.7
	c0-0.1,0-0.2-0.1-0.3l-9.3-18.9c-0.2-0.3-0.6-0.5-0.9-0.3c-0.1,0.1-0.2,0.2-0.3,0.3l-9.3,18.9c-0.2,0.3,0,0.8,0.3,0.9
	c0.1,0,0.2,0.1,0.3,0.1h2.9c0.4,0,0.7,0.3,0.7,0.7c0,0.1,0,0.2-0.1,0.3l-7.5,15.3c-0.2,0.3,0,0.8,0.3,0.9c0.1,0,0.2,0.1,0.3,0.1h4.8
	c0.4,0,0.7,0.3,0.7,0.7c0,0.1,0,0.2-0.1,0.3l-4.4,8.9"/>
<line class="st1" x1="476.8" y1="430.6" x2="473.5" y2="423.9"/>
<line class="st1" x1="492.4" y1="472.2" x2="482.3" y2="492.6"/>
<path class="st1" d="M509.7,453l-9.3-18.9c-0.2-0.3-0.6-0.5-0.9-0.3c-0.1,0.1-0.2,0.2-0.3,0.3l-9.3,18.9c-0.2,0.3,0,0.8,0.3,0.9
	c0.1,0,0.2,0.1,0.3,0.1h2.9c0.4,0,0.7,0.3,0.7,0.7c0,0.1,0,0.2-0.1,0.3l-7.5,15.3"/>
<path class="st1" d="M513.1,484.5l-6-12.2c-0.2-0.3,0-0.8,0.3-0.9c0.1,0,0.2-0.1,0.3-0.1h4.8c0.4,0,0.7-0.3,0.7-0.7
	c0-0.1,0-0.2-0.1-0.3l-7.5-15.3"/>
<path class="st1" d="M389.4,421.9l7.5-15.3c0.2-0.3,0-0.8-0.3-0.9c-0.1,0-0.2-0.1-0.3-0.1h-2.9c-0.4,0-0.7-0.3-0.7-0.7
	c0-0.1,0-0.2,0.1-0.3l9.3-18.9c0.2-0.3,0.6-0.5,0.9-0.3c0.1,0.1,0.2,0.2,0.3,0.3l9.3,18.9c0.2,0.3,0,0.8-0.3,0.9
	c-0.1,0-0.2,0.1-0.3,0.1h-2.9c-0.4,0-0.7,0.3-0.7,0.7c0,0.1,0,0.2,0.1,0.3l7.5,15.3c0.2,0.3,0,0.8-0.3,0.9c-0.1,0-0.2,0.1-0.3,0.1
	h-4.8c-0.4,0-0.7,0.3-0.7,0.7c0,0.1,0,0.2,0.1,0.3l3.4,6.9"/>
<line class="st1" x1="389.1" y1="436.8" x2="395.5" y2="423.9"/>
<g class="st10">
	<path class="st1" d="M280.1,421.9l-7.5-15.3c-0.2-0.3,0-0.8,0.3-0.9c0.1,0,0.2-0.1,0.3-0.1h2.9c0.4,0,0.7-0.3,0.7-0.7
		c0-0.1,0-0.2-0.1-0.3l-9.3-18.9c-0.2-0.3-0.6-0.5-0.9-0.3c-0.1,0.1-0.2,0.2-0.3,0.3l-9.3,18.9c-0.2,0.3,0,0.8,0.3,0.9
		c0.1,0,0.2,0.1,0.3,0.1h2.9c0.4,0,0.7,0.3,0.7,0.7c0,0.1,0,0.2-0.1,0.3l-7.6,15.3c-0.2,0.3,0,0.8,0.3,0.9c0.1,0,0.2,0.1,0.3,0.1
		h4.8c0.4,0,0.7,0.3,0.7,0.7c0,0.1,0,0.2-0.1,0.3l-4.4,8.9"/>
	<line class="st1" x1="277.4" y1="430.6" x2="274.1" y2="423.9"/>
</g>
<g class="st9">
	<path class="st1" d="M284.7,470.2l7.5-15.3c0.2-0.3,0-0.8-0.3-0.9c-0.1,0-0.2-0.1-0.3-0.1h-2.9c-0.4,0-0.7-0.3-0.7-0.7
		c0-0.1,0-0.2,0.1-0.3l9.3-18.9c0.2-0.3,0.6-0.5,0.9-0.3c0.1,0.1,0.2,0.2,0.3,0.3l9.3,18.9c0.2,0.3,0,0.8-0.3,0.9
		c-0.1,0-0.2,0.1-0.3,0.1h-2.9c-0.4,0-0.7,0.3-0.7,0.7c0,0.1,0,0.2,0.1,0.3l7.5,15.3c0.2,0.3,0,0.8-0.3,0.9c-0.1,0-0.2,0.1-0.3,0.1
		h-4.8c-0.4,0-0.7,0.3-0.7,0.7c0,0.1,0,0.2,0.1,0.3l10.1,20.4"/>
	<line class="st1" x1="284.4" y1="485.1" x2="290.8" y2="472.2"/>
</g>
<g class="st8">
	<path class="st1" d="M320.5,421.9l7.5-15.3c0.2-0.3,0-0.8-0.3-0.9c-0.1,0-0.2-0.1-0.3-0.1h-2.9c-0.4,0-0.7-0.3-0.7-0.7
		c0-0.1,0-0.2,0.1-0.3l9.3-18.9c0.2-0.3,0.6-0.5,0.9-0.3c0.1,0.1,0.2,0.2,0.3,0.3l9.3,18.9c0.2,0.3,0,0.8-0.3,0.9
		c-0.1,0-0.2,0.1-0.3,0.1h-2.9c-0.4,0-0.7,0.3-0.7,0.7c0,0.1,0,0.2,0.1,0.3l7.5,15.3c0.2,0.3,0,0.8-0.3,0.9c-0.1,0-0.2,0.1-0.3,0.1
		h-4.8c-0.4,0-0.7,0.3-0.7,0.7c0,0.1,0,0.2,0.1,0.3l3.4,6.9"/>
	<line class="st1" x1="320.1" y1="436.8" x2="326.5" y2="423.9"/>
</g>
<g class="st11">
	<path class="st1" d="M222.1,453l9.3-18.9c0.2-0.3,0.6-0.5,0.9-0.3c0.1,0.1,0.2,0.2,0.3,0.3L242,453c0.2,0.3,0,0.8-0.3,0.9
		c-0.1,0-0.2,0.1-0.3,0.1h-2.9c-0.4,0-0.7,0.3-0.7,0.7c0,0.1,0,0.2,0.1,0.3l7.6,15.3c0.2,0.3,0,0.8-0.3,0.9c-0.1,0-0.2,0.1-0.3,0.1
		H240c-0.4,0-0.7,0.3-0.7,0.7c0,0.1,0,0.2,0.1,0.3l10.1,20.4"/>
	<path class="st1" d="M218.6,484.5l6.1-12.2c0.2-0.3,0-0.8-0.3-0.9c-0.1,0-0.2-0.1-0.3-0.1h-4.8c-0.4,0-0.7-0.3-0.7-0.7
		c0-0.1,0-0.2,0.1-0.3l7.6-15.3"/>
</g>
<line class="st1" x1="777.3" y1="267.7" x2="807.8" y2="298.1"/>
<path class="st1" d="M728.5,304.5l36.8-36.8c3.3-3.3,8.6-3.3,11.9,0c0,0,0,0,0,0"/>
<line class="st1" x1="715.2" y1="317.9" x2="723.2" y2="309.9"/>
<line class="st1" x1="706.9" y1="326.1" x2="709.3" y2="323.8"/>
<path class="st1" d="M866.1,335.5l7.1,7.1 M801.6,323.9l22.2-22.2c2.4-2.4,6.2-2.4,8.6,0l26.8,26.8 M782.9,342.6l13.5-13.5"/>
<path class="st12" d="M385,324.9l1.7,1.7 M320.5,313.3l22.2-22.2c2.4-2.4,6.2-2.4,8.6,0l26.8,26.8 M301.9,332l13.5-13.6"/>
<line class="st1" x1="783.7" y1="290.2" x2="788" y2="286.3"/>
<polyline class="st1" points="756.8,285.5 763.1,292.5 774.2,280.4 778.2,284.6 "/>
<path class="st1" d="M488.6,327l16.4,16.4 M412.7,333.4l36.3-36.3c2.7-2.7,7-2.7,9.7,0c0,0,0,0,0,0l24,24 M402.8,343.4l4.5-4.5"/>
<path class="st12" d="M961.9,296.3l6,6 M886,302.7l36.3-36.3c2.7-2.7,7-2.7,9.7,0c0,0,0,0,0,0l24,24 M876,312.7l4.5-4.5"/>
<path class="st1" d="M498,272.7c2-2,5.2-2,7.2,0c0,0,0,0,0,0l34.4,34.4"/>
<line class="st1" x1="475.5" y1="295.2" x2="497.7" y2="273"/>
<line class="st1" x1="508.1" y1="291" x2="511.3" y2="287.9"/>
<polyline class="st1" points="489.7,289.4 494.3,294.6 502.9,285.8 "/>
</svg>
