<svg id="a7422468-bc20-45a3-9eca-3cbdd916dc5d" data-name="Layer 1" xmlns="http://www.w3.org/2000/svg" xmlns:xlink="http://www.w3.org/1999/xlink" viewBox="0 0 123.54 82.13"><defs><style>.a5f0c762-e699-4a86-bb8e-48926a5cc1f9,.a725a2b3-5600-4a0d-8dfe-7b8c3de82d74{fill:none;}.af6beceb-389d-457e-8aaa-6628853341d8{clip-path:url(#bfad674d-285a-42e7-86be-d69c2cfb229a);}.af7380aa-ff9a-48cd-888f-9cfd7fa0d1d3{fill:#9dd640;}.a725a2b3-5600-4a0d-8dfe-7b8c3de82d74{stroke:#9dd640;stroke-linecap:round;stroke-linejoin:round;stroke-width:2.64px;}.f241f5c0-0b61-4fe8-bbe8-9311f5477687{fill:#d43d44;}.a1aec532-fbd6-4666-96e0-21af711af65b{fill:#1d0036;}</style><clipPath id="bfad674d-285a-42e7-86be-d69c2cfb229a"><rect class="a5f0c762-e699-4a86-bb8e-48926a5cc1f9" x="-880.84" y="-1875.5" width="1280" height="5865.38"/></clipPath></defs><title>secure</title><g class="af6beceb-389d-457e-8aaa-6628853341d8"><polygon class="af7380aa-ff9a-48cd-888f-9cfd7fa0d1d3" points="81.58 64.72 79.47 67.43 80.89 67.86 79.56 71.25 81.05 70.95 80.51 74.18 81.8 73.62 82.2 77.05 83.39 76.42 84.88 79.65 85.81 78.65 87.6 82.13 89.78 78.88 90.59 79.98 92.44 76.94 93.56 77.71 94.35 74.36 95.57 75.06 95.41 71.79 96.85 72.26 95.93 68.74 97.39 68.47 95.61 65.54 96.93 64.91 94.25 62.91 95.25 62.01 92.16 60.31 93.18 59.5 84.7 59 85.62 59.93 82.35 61.25 83.24 62.27 80.34 63.94 81.58 64.72"/><path class="a725a2b3-5600-4a0d-8dfe-7b8c3de82d74" d="M70.69,72.51c1-8.1,7.26-14.89,19-13.61,16.63,1.8,21.25-10.21,21.56-14.49"/><path class="af7380aa-ff9a-48cd-888f-9cfd7fa0d1d3" d="M111.91,34.6a6.37,6.37,0,0,0-.71,11.2,6.38,6.38,0,0,0,.71-11.2"/><path class="af7380aa-ff9a-48cd-888f-9cfd7fa0d1d3" d="M105.44,37.64a7.57,7.57,0,0,0-.11,1.36,7,7,0,0,0,5.87,6.8,7.53,7.53,0,0,0,.1-1.35,7,7,0,0,0-5.86-6.81"/><path class="af7380aa-ff9a-48cd-888f-9cfd7fa0d1d3" d="M117.94,38.44a7.79,7.79,0,0,1-.06,1.36,7,7,0,0,1-6.68,6,6.11,6.11,0,0,1,.06-1.35,7,7,0,0,1,6.68-6"/><polygon class="af7380aa-ff9a-48cd-888f-9cfd7fa0d1d3" points="105.22 49.13 104.94 46.27 103.83 46.83 102.68 44 101.95 45.04 100.41 42.77 99.95 43.85 97.73 42 97.37 43.07 94.61 41.96 94.61 43.11 91.52 42.03 92.06 45.26 90.94 45.06 91.56 47.97 90.45 48.15 91.9 50.64 90.75 50.92 92.73 52.81 91.58 53.36 94.18 54.97 93.44 55.97 96.22 56.73 95.78 57.88 98.56 57.54 98.47 58.67 101.33 57.91 101.18 59 106.62 54.41 105.53 54.38 106.75 51.69 105.63 51.58 106.43 48.9 105.22 49.13"/><polygon class="af7380aa-ff9a-48cd-888f-9cfd7fa0d1d3" points="108.75 64.67 110.93 66.54 111.35 65.36 114.14 66.6 113.94 65.35 116.63 65.92 116.21 64.81 119.09 64.61 118.6 63.59 121.36 62.46 120.56 61.65 123.54 60.27 120.91 58.33 121.86 57.69 119.38 56.03 120.06 55.12 117.29 54.34 117.92 53.34 115.18 53.35 115.63 52.16 112.64 52.81 112.47 51.57 109.95 52.96 109.47 51.82 107.7 54 106.98 53.13 105.45 55.65 103.16 56.17 104.07 61.85 104.89 61.11 105.87 63.9 106.75 63.19 108.05 65.68 108.75 64.67"/><path class="af7380aa-ff9a-48cd-888f-9cfd7fa0d1d3" d="M3.6,51.32l.16-.08-.1-.1A6.77,6.77,0,0,1,1.74,45.4a6.81,6.81,0,0,1,5.73,1.92l.1.11.08-.17a6.76,6.76,0,0,1,4.86-3.59,6.76,6.76,0,0,1-3.08,9c0,.12,0,.24,0,.36l-.35,0a6.76,6.76,0,0,1-9,3.08,6.75,6.75,0,0,1,3.6-4.85"/><path class="f241f5c0-0b61-4fe8-bbe8-9311f5477687" d="M8.23,51.89c3.92-3.92,9.85-4.35,14.68.48s6.48,14.1,3.19,17.39S13.53,71.4,8.7,66.58,4.3,55.82,8.23,51.89"/><path class="f241f5c0-0b61-4fe8-bbe8-9311f5477687" d="M78.84,36.53,48.51,66.87,19.63,38a21.31,21.31,0,0,1,0-30.13l.21-.21A21.31,21.31,0,0,1,50,7.65Z"/><path class="a1aec532-fbd6-4666-96e0-21af711af65b" d="M78.84,36.53,48.51,66.87l3.19,3.19a5.18,5.18,0,0,0,7.34,0l23-23a5.18,5.18,0,0,0,0-7.34Z"/><path class="f241f5c0-0b61-4fe8-bbe8-9311f5477687" d="M71.15,36.49,53.62,38.93l-4-28.86A8.85,8.85,0,0,1,67.15,7.64Z"/><path class="af7380aa-ff9a-48cd-888f-9cfd7fa0d1d3" d="M99,15.64l.06.14.08-.09a5.42,5.42,0,0,1,4.61-1.54,5.49,5.49,0,0,1-1.54,4.61l-.09.08.14.06a5.45,5.45,0,0,1,2.89,3.91,5.44,5.44,0,0,1-7.27-2.48l-.28,0a2.7,2.7,0,0,1,0-.28,5.45,5.45,0,0,1-2.47-7.27A5.47,5.47,0,0,1,99,15.64"/><path class="f241f5c0-0b61-4fe8-bbe8-9311f5477687" d="M98.54,19.37c3.16,3.15,3.5,7.92-.38,11.81s-11.35,5.21-14,2.56-1.32-10.11,2.56-14,8.65-3.54,11.81-.38"/></g></svg>