<svg id="f8cdd16c-4f4d-4e19-b19e-09be246fd574" data-name="Layer 1" xmlns="http://www.w3.org/2000/svg" xmlns:xlink="http://www.w3.org/1999/xlink" viewBox="0 0 370.91 318.39"><defs><style>.f1874c5c-6ba2-49e2-aef1-404647e86dd2{fill:none;}.ad6595c7-619e-43f2-aad0-b3e9de88615d{clip-path:url(#a6740b46-3c71-46a3-98c4-68c1ff1f3a39);}.fcb4dfd2-74e9-46bf-85b4-bb4e4c6ce120{fill:#fff;}.b54bf58f-dac5-455e-8614-9baa512a32a5{fill:#d43d44;}.a8b445af-25af-4378-a133-2702585ec6a2{fill:#9dd640;}</style><clipPath id="a6740b46-3c71-46a3-98c4-68c1ff1f3a39"><rect class="f1874c5c-6ba2-49e2-aef1-404647e86dd2" x="-248.44" y="-2453.84" width="1280" height="5865.38"/></clipPath></defs><title>share_cake_no_bg</title><g class="ad6595c7-619e-43f2-aad0-b3e9de88615d"><path class="fcb4dfd2-74e9-46bf-85b4-bb4e4c6ce120" d="M167.89,115.7a4.68,4.68,0,0,1,6.4,4.36v95.51a3.12,3.12,0,0,1-4.33,2.88L104.81,191A4.67,4.67,0,0,1,102,186.7V144.94a4.67,4.67,0,0,1,3-4.35Z"/><polygon class="b54bf58f-dac5-455e-8614-9baa512a32a5" points="106.78 161.95 174.29 190.37 174.29 175.42 106.78 147 106.78 161.95"/><polygon class="fcb4dfd2-74e9-46bf-85b4-bb4e4c6ce120" points="106.78 176.9 174.29 205.32 174.29 190.37 106.78 161.95 106.78 176.9"/><path class="b54bf58f-dac5-455e-8614-9baa512a32a5" d="M106.78,191.84,170,218.45a3.12,3.12,0,0,0,4.33-2.88V205.32L106.78,176.9Z"/><path class="a8b445af-25af-4378-a133-2702585ec6a2" d="M129.43,121.64l.2-.09a.69.69,0,0,1-.13-.11,7.83,7.83,0,0,1-2.21-6.61A7.82,7.82,0,0,1,133.9,117l.12.12a1.63,1.63,0,0,1,.09-.19,7.81,7.81,0,0,1,5.6-4.15,7.81,7.81,0,0,1-.06,7,7.71,7.71,0,0,1-3.49,3.45c0,.14,0,.28,0,.41l-.4,0a7.81,7.81,0,0,1-10.42,3.55,7.8,7.8,0,0,1,4.14-5.61"/><path class="b54bf58f-dac5-455e-8614-9baa512a32a5" d="M134.77,122.31c4.53-4.52,11.37-5,16.93.55s7.47,16.26,3.68,20.06-14.49,1.89-20.06-3.68-5.07-12.4-.55-16.93"/><path class="fcb4dfd2-74e9-46bf-85b4-bb4e4c6ce120" d="M256.91,288.84H191.17a3.91,3.91,0,0,1-3.9-3.9V243.28l73.54-3.9Z"/><rect class="b54bf58f-dac5-455e-8614-9baa512a32a5" x="187.27" y="243.28" width="69.64" height="15.19"/><path class="b54bf58f-dac5-455e-8614-9baa512a32a5" d="M256.91,288.84H191.17a3.91,3.91,0,0,1-3.9-3.9V273.65h69.64Z"/><path class="fcb4dfd2-74e9-46bf-85b4-bb4e4c6ce120" d="M187.27,242.64v.64h69.64v45.56h1.31a3.9,3.9,0,0,0,3.9-3.9V213.66a4.68,4.68,0,0,0-6.57-4.28l-65.49,29a4.68,4.68,0,0,0-2.79,4.28"/><path class="a8b445af-25af-4378-a133-2702585ec6a2" d="M215.77,205.43l-.09.19-.12-.12a7.8,7.8,0,0,0-6.61-2.22,7.82,7.82,0,0,0,2.21,6.61l.13.12-.19.09a7.8,7.8,0,0,0-4.15,5.6,7.81,7.81,0,0,0,10.42-3.55l.41,0c0-.14,0-.27,0-.41a7.81,7.81,0,0,0,3.55-10.42,7.8,7.8,0,0,0-5.6,4.15"/><path class="b54bf58f-dac5-455e-8614-9baa512a32a5" d="M216.44,210.77c-4.53,4.52-5,11.36.54,16.93s16.27,7.47,20.06,3.67,1.89-14.49-3.67-20.06-12.41-5.07-16.93-.54"/><path class="fcb4dfd2-74e9-46bf-85b4-bb4e4c6ce120" d="M370.91,103.19v-49a4.68,4.68,0,0,0-6-4.5L301.52,67.89a4.67,4.67,0,0,0-3.39,4.49v45.15a3.14,3.14,0,0,0,1.91,2.88L365.5,148a3.9,3.9,0,0,0,5.41-3.6Z"/><path class="a8b445af-25af-4378-a133-2702585ec6a2" d="M320.79,49.4l.19-.09-.12-.11a7.81,7.81,0,0,1-2.21-6.61,7.81,7.81,0,0,1,6.61,2.21l.11.12.09-.19a7.84,7.84,0,0,1,5.6-4.15A7.81,7.81,0,0,1,327.51,51c0,.14,0,.27,0,.41l-.41,0A7.81,7.81,0,0,1,316.64,55a7.83,7.83,0,0,1,4.15-5.6"/><path class="b54bf58f-dac5-455e-8614-9baa512a32a5" d="M326.13,50.07c4.52-4.52,11.36-5,16.93.55s7.47,16.26,3.67,20.05-14.49,1.9-20.05-3.67-5.07-12.41-.55-16.93"/><polygon class="b54bf58f-dac5-455e-8614-9baa512a32a5" points="298.13 89.7 365.65 118.13 365.65 103.18 298.13 74.76 298.13 89.7"/><polygon class="fcb4dfd2-74e9-46bf-85b4-bb4e4c6ce120" points="298.13 104.65 365.65 133.08 365.65 118.13 298.13 89.71 298.13 104.65"/><path class="b54bf58f-dac5-455e-8614-9baa512a32a5" d="M300,120.41,365.65,148V133.08l-67.52-28.43v12.88a3.12,3.12,0,0,0,1.91,2.88"/><path class="fcb4dfd2-74e9-46bf-85b4-bb4e4c6ce120" d="M80,114.17v-49a4.68,4.68,0,0,0-6-4.5L10.65,78.87a4.67,4.67,0,0,0-3.39,4.49v45.15a3.12,3.12,0,0,0,1.91,2.88L74.63,159a3.9,3.9,0,0,0,5.41-3.6Z"/><polygon class="b54bf58f-dac5-455e-8614-9baa512a32a5" points="7.26 100.69 74.77 129.11 74.77 114.16 7.26 85.74 7.26 100.69"/><polygon class="fcb4dfd2-74e9-46bf-85b4-bb4e4c6ce120" points="7.26 115.63 74.77 144.06 74.77 129.11 7.26 100.69 7.26 115.63"/><path class="b54bf58f-dac5-455e-8614-9baa512a32a5" d="M9.17,131.39,74.77,159V144.06L7.26,115.63v12.88a3.12,3.12,0,0,0,1.91,2.88"/><path class="fcb4dfd2-74e9-46bf-85b4-bb4e4c6ce120" d="M296.16,150.79a4.68,4.68,0,0,0-6.4,4.35v94.34a3.89,3.89,0,0,0,5.41,3.59l64.07-27a4.68,4.68,0,0,0,2.86-4.31V180a4.68,4.68,0,0,0-3-4.35Z"/><polygon class="b54bf58f-dac5-455e-8614-9baa512a32a5" points="357.27 197.03 289.76 225.46 289.76 210.51 357.27 182.08 357.27 197.03"/><polygon class="fcb4dfd2-74e9-46bf-85b4-bb4e4c6ce120" points="357.27 211.98 289.76 240.41 289.76 225.46 357.27 197.03 357.27 211.98"/><path class="b54bf58f-dac5-455e-8614-9baa512a32a5" d="M357.27,226.93l-62.1,26.15a3.9,3.9,0,0,1-5.41-3.6v-9.07L357.27,212Z"/><path class="a8b445af-25af-4378-a133-2702585ec6a2" d="M339.13,156.3l-.19-.09.12-.11a7.8,7.8,0,0,0,2.21-6.61,7.84,7.84,0,0,0-6.61,2.21l-.11.12-.09-.19a7.83,7.83,0,0,0-5.6-4.15,7.78,7.78,0,0,0,.06,7,7.66,7.66,0,0,0,3.49,3.45c0,.14,0,.28,0,.41l.41.05a7.81,7.81,0,0,0,10.42,3.55,7.84,7.84,0,0,0-4.15-5.61"/><path class="b54bf58f-dac5-455e-8614-9baa512a32a5" d="M333.79,157c-4.52-4.52-11.36-5-16.93.55s-7.47,16.26-3.67,20.06,14.49,1.89,20.05-3.68,5.07-12.4.55-16.93"/><path class="fcb4dfd2-74e9-46bf-85b4-bb4e4c6ce120" d="M108.62,2.88a4.68,4.68,0,0,0-6.4,4.35v94.34a3.9,3.9,0,0,0,5.41,3.6l64.07-27a4.68,4.68,0,0,0,2.87-4.31V32.12a4.69,4.69,0,0,0-3-4.36Z"/><polygon class="b54bf58f-dac5-455e-8614-9baa512a32a5" points="169.74 49.12 102.22 77.55 102.22 62.6 169.74 34.18 169.74 49.12"/><polygon class="fcb4dfd2-74e9-46bf-85b4-bb4e4c6ce120" points="169.74 64.07 102.22 92.5 102.22 77.55 169.74 49.12 169.74 64.07"/><path class="b54bf58f-dac5-455e-8614-9baa512a32a5" d="M169.73,79l-62.1,26.15a3.9,3.9,0,0,1-5.41-3.6V92.5l67.51-28.43Z"/><path class="a8b445af-25af-4378-a133-2702585ec6a2" d="M147.08,8.82l-.19-.09.12-.12A7.82,7.82,0,0,0,149.22,2a7.81,7.81,0,0,0-6.61,2.22l-.12.12a1.11,1.11,0,0,0-.09-.19A7.81,7.81,0,0,0,136.8,0a7.81,7.81,0,0,0,3.55,10.42c0,.14,0,.27.05.41l.4,0a7.81,7.81,0,0,0,10.42,3.55,7.79,7.79,0,0,0-4.14-5.6"/><path class="b54bf58f-dac5-455e-8614-9baa512a32a5" d="M141.74,9.49c-4.53-4.53-11.37-5-16.93.54s-7.47,16.27-3.68,20.06,14.49,1.89,20.06-3.67,5.07-12.41.55-16.93"/><path class="fcb4dfd2-74e9-46bf-85b4-bb4e4c6ce120" d="M202,90.26a4.68,4.68,0,0,0-6.4,4.35V191.5a3.91,3.91,0,0,0,5.42,3.6l64.85-27.31a3.9,3.9,0,0,0,2.38-3.59V119.61a4.68,4.68,0,0,0-3-4.35Z"/><polygon class="b54bf58f-dac5-455e-8614-9baa512a32a5" points="268.27 136.89 200.76 165.32 200.76 150.37 268.27 121.94 268.27 136.89"/><polygon class="fcb4dfd2-74e9-46bf-85b4-bb4e4c6ce120" points="268.27 151.84 200.76 180.26 200.76 165.31 268.27 136.89 268.27 151.84"/><path class="b54bf58f-dac5-455e-8614-9baa512a32a5" d="M265.89,167.79l-65.13,27.42v-15l67.51-28.42V164.2a3.9,3.9,0,0,1-2.38,3.59"/><path class="a8b445af-25af-4378-a133-2702585ec6a2" d="M245.62,96.59l-.2-.09.13-.12a7.82,7.82,0,0,0,2.21-6.61A7.82,7.82,0,0,0,241.15,92l-.12.13-.09-.2a7.81,7.81,0,0,0-5.6-4.14,7.81,7.81,0,0,0,3.55,10.42c0,.13,0,.27,0,.4l.41,0a7.81,7.81,0,0,0,10.42,3.55,7.79,7.79,0,0,0-4.14-5.6"/><path class="b54bf58f-dac5-455e-8614-9baa512a32a5" d="M240.27,97.25c-4.52-4.52-11.36-5-16.93.55s-7.46,16.26-3.67,20.06,14.49,1.89,20.06-3.67,5.07-12.41.54-16.94"/><path class="fcb4dfd2-74e9-46bf-85b4-bb4e4c6ce120" d="M201.89,11.68V56.36A3.89,3.89,0,0,0,204.27,60l64.55,27.18a3.9,3.9,0,0,0,5.41-3.6V11.68A4.67,4.67,0,0,0,269.55,7h-63a4.67,4.67,0,0,0-4.68,4.68"/><polygon class="b54bf58f-dac5-455e-8614-9baa512a32a5" points="206.72 31.09 274.23 59.51 274.23 44.56 206.72 16.14 206.72 31.09"/><polygon class="fcb4dfd2-74e9-46bf-85b4-bb4e4c6ce120" points="206.72 46.03 274.23 74.46 274.23 59.51 206.72 31.09 206.72 46.03"/><path class="b54bf58f-dac5-455e-8614-9baa512a32a5" d="M206.72,61l62.1,26.15a3.9,3.9,0,0,0,5.41-3.6V74.46L206.72,46Z"/><path class="fcb4dfd2-74e9-46bf-85b4-bb4e4c6ce120" d="M85.47,242.63v44.68a3.91,3.91,0,0,0,2.39,3.6l64.54,27.17a3.9,3.9,0,0,0,5.41-3.59V242.63a4.67,4.67,0,0,0-4.68-4.68h-63a4.68,4.68,0,0,0-4.68,4.68"/><polygon class="b54bf58f-dac5-455e-8614-9baa512a32a5" points="90.3 262.04 157.82 290.46 157.82 275.51 90.3 247.09 90.3 262.04"/><polygon class="fcb4dfd2-74e9-46bf-85b4-bb4e4c6ce120" points="90.3 276.99 157.82 305.41 157.82 290.46 90.3 262.04 90.3 276.99"/><path class="b54bf58f-dac5-455e-8614-9baa512a32a5" d="M90.3,291.93l62.1,26.15a3.91,3.91,0,0,0,5.42-3.59v-9.08L90.3,277Z"/><path class="a8b445af-25af-4378-a133-2702585ec6a2" d="M112.17,227.71l.19-.09-.12-.11A7.84,7.84,0,0,1,110,220.9a7.8,7.8,0,0,1,6.61,2.21l.11.12.09-.19a7.84,7.84,0,0,1,5.61-4.15,7.81,7.81,0,0,1-3.55,10.42c0,.14,0,.27-.05.41l-.41,0a7.71,7.71,0,0,1-3.45,3.49,7.81,7.81,0,0,1-7,.06,7.83,7.83,0,0,1,4.15-5.6"/><path class="b54bf58f-dac5-455e-8614-9baa512a32a5" d="M117.51,228.38c4.53-4.53,11.37-5,16.93.54s7.47,16.27,3.68,20.06-14.5,1.89-20.06-3.67-5.07-12.41-.55-16.93"/><path class="fcb4dfd2-74e9-46bf-85b4-bb4e4c6ce120" d="M6.4,161.71A4.68,4.68,0,0,0,0,166.06v98a3.11,3.11,0,0,0,4.33,2.87l67.12-28.26a3.11,3.11,0,0,0,1.91-2.87V191.35a4.68,4.68,0,0,0-3-4.36Z"/><polygon class="b54bf58f-dac5-455e-8614-9baa512a32a5" points="73.36 207.95 5.85 236.38 5.85 221.43 73.36 193 73.36 207.95"/><polygon class="fcb4dfd2-74e9-46bf-85b4-bb4e4c6ce120" points="73.36 222.9 5.85 251.32 5.85 236.38 73.36 207.95 73.36 222.9"/><path class="b54bf58f-dac5-455e-8614-9baa512a32a5" d="M71.45,238.65,5.85,266.27V251.32L73.36,222.9v12.88a3.11,3.11,0,0,1-1.91,2.87"/><path class="a8b445af-25af-4378-a133-2702585ec6a2" d="M50.7,167.65l-.19-.09.12-.12a7.8,7.8,0,0,0,2.22-6.61A7.82,7.82,0,0,0,46.24,163l-.12.13L46,163a7.8,7.8,0,0,0-5.6-4.15A7.81,7.81,0,0,0,44,169.25c0,.13,0,.27,0,.41l.41,0a7.81,7.81,0,0,0,10.42,3.55,7.8,7.8,0,0,0-4.15-5.6"/><path class="b54bf58f-dac5-455e-8614-9baa512a32a5" d="M45.36,168.32c-4.52-4.53-11.36-5-16.93.54S21,185.13,24.76,188.92s14.49,1.89,20.06-3.67,5.07-12.41.54-16.93"/><path class="a8b445af-25af-4378-a133-2702585ec6a2" d="M25.08,61.21l.2-.09a.69.69,0,0,1-.13-.11,7.83,7.83,0,0,1-2.21-6.61,7.82,7.82,0,0,1,6.61,2.21l.12.12a1.63,1.63,0,0,1,.09-.19,7.81,7.81,0,0,1,5.6-4.15,7.81,7.81,0,0,1-.06,7,7.71,7.71,0,0,1-3.49,3.45c0,.14,0,.28,0,.41l-.4.05a7.81,7.81,0,0,1-10.42,3.55,7.8,7.8,0,0,1,4.14-5.61"/><path class="b54bf58f-dac5-455e-8614-9baa512a32a5" d="M30.42,61.88c4.53-4.52,11.37-5,16.93.55S54.82,78.69,51,82.49,36.54,84.38,31,78.81s-5.07-12.4-.55-16.93"/></g></svg>