<svg xmlns="http://www.w3.org/2000/svg" width="387.989" height="387.168" viewBox="0 0 387.989 387.168">
  <g id="Group_83" data-name="Group 83" transform="translate(-229.333 -2414.228)">
    <g id="Group_37" data-name="Group 37">
      <path id="Path_121" data-name="Path 121" d="M363.372,2729.778l-2,34.433s-37.563,3.074-35.537,3.074h36.152l1.992,34.111,2.429-33.8,35.423-2.006-34.7-2.3Z" fill="#fff"/>
      <path id="Path_122" data-name="Path 122" d="M497.491,2414.228l-1.747,22.717-33.639,3.932,35.386,2.184,2.826,35.387,2.854-34.513,33.659-5.679s-33.222-.874-33.659-2.185S497.491,2414.228,497.491,2414.228Z" fill="#d23d44"/>
      <path id="Path_123" data-name="Path 123" d="M547.151,2592.538l1.3-16.864,24.971-2.918-26.268-1.622-2.1-26.268-2.118,25.62L517.95,2574.7s24.661.649,24.985,1.622S547.151,2592.538,547.151,2592.538Z" fill="#fff"/>
    </g>
    <ellipse id="Ellipse_19" data-name="Ellipse 19" cx="158.623" cy="69.486" rx="158.623" ry="69.486" transform="translate(229.333 2571.994)" fill="#d23d44"/>
    <line id="Line_5" data-name="Line 5" transform="translate(270.938 2650.824)" fill="#d6b967"/>
    <g id="Group_72" data-name="Group 72">
      <path id="Path_200" data-name="Path 200" d="M388.282,2495.882c-67.09,0-121.476,22.636-121.476,50.559,0,5.911,2.445,11.584,6.924,16.857l75.754-21.644a16.285,16.285,0,0,0,6.886-3.863c4.627-4.475,18.334-7.721,34.532-7.721,20,0,36.212,4.947,36.212,11.05s-16.213,11.049-36.212,11.049a112.753,112.753,0,0,1-12.5-.678c-2.279.817-5.033,2.279-7.052,6.74l-16.66,36.81a283.9,283.9,0,0,0,33.593,1.96c67.089,0,121.476-22.636,121.476-50.56S455.371,2495.882,388.282,2495.882Z" fill="#fff"/>
    </g>
    <path id="Path_201" data-name="Path 201" d="M353.494,2621.342l.237-.086-.057-3.873,1.015-22.341,16.66-36.811c2.019-4.461,4.773-5.923,7.052-6.74a112.753,112.753,0,0,0,12.5.678c20,0,36.212-4.947,36.212-11.049s-16.213-11.05-36.212-11.05c-16.273,0-30.032,3.276-34.6,7.784a15.61,15.61,0,0,1-6.735,3.775l-82.765,7.581-3.794,80.359a5.692,5.692,0,0,0,6.432,5.91l19.934-2.642Z" fill="#a18b4d"/>
    <g id="Group_73" data-name="Group 73">
      <path id="Path_202" data-name="Path 202" d="M512.122,2631.287c.043-.084.082-.159.107-.21.735-1.47-1.907-56.74-3.042-79.733-5.924,25.622-57.79,45.657-120.9,45.657a283.9,283.9,0,0,1-33.593-1.96h0l-1.015,22.341.057,3.873-1.563,51.867-.054,1.786a6.55,6.55,0,0,0,5.9,6.727q6.088.59,12.4.94l0,.034q8.542.465,17.428.474c68.764,0,124.508-21.621,124.508-48.292,0-.075-.009-.15-.01-.224,0-.108.01-.216.01-.324A19.615,19.615,0,0,0,512.122,2631.287Z" fill="#d6b967"/>
    </g>
    <ellipse id="Ellipse_20" data-name="Ellipse 20" cx="96.539" cy="42.29" rx="96.539" ry="42.29" transform="translate(424.244 2681.904)" fill="#d23d44"/>
    <path id="Path_203" data-name="Path 203" d="M562.853,2717.394l-1.575-64.279c.029-1.624-3-.207-5.8.922l-61.6,24.324,1.494,67.906,64.74-24.76A4.31,4.31,0,0,0,562.853,2717.394Z" fill="#d6b967"/>
    <path id="Path_204" data-name="Path 204" d="M481.226,2673.663l-1.65,66.114a2.721,2.721,0,0,0,2.807,2.783,20.568,20.568,0,0,1,13,3.7l-1.5-67.907C492.443,2675.265,484.929,2672.689,481.226,2673.663Z" fill="#a18b4d"/>
    <path id="Path_205" data-name="Path 205" d="M493.886,2678.358l61.6-24.321h0c2.617-1.058,5.442-2.368,5.766-1.194l-.085-3.713a3.111,3.111,0,0,0-1.493-2.6c-21.482-12.922-49.44-19.5-75.293-18.74a3.123,3.123,0,0,0-3.05,3.111v38.869l-.092,3.888c3.706-.968,11.209,1.606,12.651,4.693Z" fill="#fff"/>
    <path id="Path_206" data-name="Path 206" d="M386.631,2549.692" fill="#fff"/>
  </g>
</svg>
