<svg id="a8420ebe-450c-4f90-bfdc-c18ecc618346" data-name="Layer 1" xmlns="http://www.w3.org/2000/svg" xmlns:xlink="http://www.w3.org/1999/xlink" viewBox="0 0 370.91 518.7"><defs><style>.ec158766-2dfc-494d-a42d-a0501f94f773{fill:none;}.e57db906-ea14-49c3-94da-fba9cd233b3e{clip-path:url(#bb9a926f-69f7-4ca6-816f-37edeaabdf6b);}.a4b89add-bbc2-4424-a173-8f05673fd52c{fill:#1d0036;}.eb452653-2671-4336-9d58-d05154b4de3a{fill:#fff;}.ef3afcf5-879a-471d-8324-4265d4c1fedd{fill:#d43d44;}.e62e2f2d-1afe-4f23-b1f8-6bedd1f70544{fill:#9dd640;}</style><clipPath id="bb9a926f-69f7-4ca6-816f-37edeaabdf6b"><rect class="ec158766-2dfc-494d-a42d-a0501f94f773" x="-248.44" y="-2347.65" width="1280" height="5865.38"/></clipPath></defs><title>share_cake_bg</title><g class="e57db906-ea14-49c3-94da-fba9cd233b3e"><rect class="a4b89add-bbc2-4424-a173-8f05673fd52c" x="30.11" width="306.65" height="518.7"/><path class="eb452653-2671-4336-9d58-d05154b4de3a" d="M167.89,221.89a4.68,4.68,0,0,1,6.4,4.35v95.52a3.11,3.11,0,0,1-4.33,2.87L104.81,297.2a4.67,4.67,0,0,1-2.86-4.31V251.13a4.69,4.69,0,0,1,3-4.36Z"/><polygon class="ef3afcf5-879a-471d-8324-4265d4c1fedd" points="106.78 268.13 174.29 296.56 174.29 281.61 106.78 253.19 106.78 268.13"/><polygon class="eb452653-2671-4336-9d58-d05154b4de3a" points="106.78 283.08 174.29 311.51 174.29 296.56 106.78 268.13 106.78 283.08"/><path class="ef3afcf5-879a-471d-8324-4265d4c1fedd" d="M106.78,298,170,324.63a3.11,3.11,0,0,0,4.33-2.87V311.51l-67.51-28.43Z"/><path class="e62e2f2d-1afe-4f23-b1f8-6bedd1f70544" d="M129.43,227.83l.2-.09-.13-.11a7.84,7.84,0,0,1-2.21-6.61,7.79,7.79,0,0,1,6.61,2.21l.12.12a1.63,1.63,0,0,1,.09-.19,7.81,7.81,0,0,1,5.6-4.15,7.81,7.81,0,0,1-3.55,10.42c0,.14,0,.27,0,.41l-.4,0a7.81,7.81,0,0,1-10.42,3.55,7.79,7.79,0,0,1,4.14-5.6"/><path class="ef3afcf5-879a-471d-8324-4265d4c1fedd" d="M134.77,228.5c4.53-4.53,11.37-5,16.93.54s7.47,16.27,3.68,20.06-14.49,1.89-20.06-3.67-5.07-12.41-.55-16.93"/><path class="eb452653-2671-4336-9d58-d05154b4de3a" d="M256.91,395H191.17a3.9,3.9,0,0,1-3.9-3.9V349.47l73.54-3.9Z"/><rect class="ef3afcf5-879a-471d-8324-4265d4c1fedd" x="187.27" y="349.47" width="69.64" height="15.19"/><path class="ef3afcf5-879a-471d-8324-4265d4c1fedd" d="M256.91,395H191.17a3.9,3.9,0,0,1-3.9-3.9V379.84h69.64Z"/><path class="eb452653-2671-4336-9d58-d05154b4de3a" d="M187.27,348.83v.64h69.64V395h1.31a3.89,3.89,0,0,0,3.9-3.9V319.84a4.68,4.68,0,0,0-6.57-4.28l-65.49,29a4.68,4.68,0,0,0-2.79,4.28"/><path class="e62e2f2d-1afe-4f23-b1f8-6bedd1f70544" d="M215.77,311.61l-.09.2-.12-.13a7.82,7.82,0,0,0-6.61-2.21,7.82,7.82,0,0,0,2.21,6.61l.13.12a1.11,1.11,0,0,0-.19.09,7.78,7.78,0,0,0-4.15,5.6,7.81,7.81,0,0,0,10.42-3.55l.41,0c0-.13,0-.27,0-.4a7.81,7.81,0,0,0,3.55-10.42,7.79,7.79,0,0,0-5.6,4.14"/><path class="ef3afcf5-879a-471d-8324-4265d4c1fedd" d="M216.44,317c-4.53,4.53-5,11.37.54,16.93s16.27,7.47,20.06,3.68,1.89-14.49-3.67-20.06S221,312.43,216.44,317"/><path class="eb452653-2671-4336-9d58-d05154b4de3a" d="M370.91,209.38v-49a4.68,4.68,0,0,0-6-4.5l-63.42,18.22a4.68,4.68,0,0,0-3.39,4.5v45.15a3.13,3.13,0,0,0,1.91,2.87l65.46,27.56a3.9,3.9,0,0,0,5.41-3.59Z"/><path class="e62e2f2d-1afe-4f23-b1f8-6bedd1f70544" d="M320.79,155.59l.19-.09-.12-.12a7.79,7.79,0,0,1-2.21-6.61,7.82,7.82,0,0,1,6.61,2.22,1.31,1.31,0,0,1,.11.12l.09-.19a7.82,7.82,0,0,1,5.6-4.15,7.81,7.81,0,0,1-3.55,10.42c0,.13,0,.27,0,.4l-.41,0a7.81,7.81,0,0,1-10.42,3.55,7.83,7.83,0,0,1,4.15-5.6"/><path class="ef3afcf5-879a-471d-8324-4265d4c1fedd" d="M326.13,156.26c4.52-4.53,11.36-5,16.93.54s7.47,16.27,3.67,20.06-14.49,1.89-20.05-3.67-5.07-12.41-.55-16.93"/><polygon class="ef3afcf5-879a-471d-8324-4265d4c1fedd" points="298.13 195.89 365.65 224.32 365.65 209.37 298.13 180.94 298.13 195.89"/><polygon class="eb452653-2671-4336-9d58-d05154b4de3a" points="298.13 210.84 365.65 239.26 365.65 224.32 298.13 195.89 298.13 210.84"/><path class="ef3afcf5-879a-471d-8324-4265d4c1fedd" d="M300,226.59l65.61,27.62V239.27l-67.52-28.43v12.88a3.11,3.11,0,0,0,1.91,2.87"/><path class="eb452653-2671-4336-9d58-d05154b4de3a" d="M80,220.36v-49a4.68,4.68,0,0,0-6-4.5L10.65,185.05a4.68,4.68,0,0,0-3.39,4.5V234.7a3.12,3.12,0,0,0,1.91,2.87l65.46,27.56A3.9,3.9,0,0,0,80,261.54Z"/><polygon class="ef3afcf5-879a-471d-8324-4265d4c1fedd" points="7.26 206.87 74.77 235.3 74.77 220.35 7.26 191.92 7.26 206.87"/><polygon class="eb452653-2671-4336-9d58-d05154b4de3a" points="7.26 221.82 74.77 250.25 74.77 235.3 7.26 206.87 7.26 221.82"/><path class="ef3afcf5-879a-471d-8324-4265d4c1fedd" d="M9.17,237.57l65.6,27.62V250.24L7.26,221.82V234.7a3.11,3.11,0,0,0,1.91,2.87"/><path class="eb452653-2671-4336-9d58-d05154b4de3a" d="M296.16,257a4.68,4.68,0,0,0-6.4,4.35v94.34a3.9,3.9,0,0,0,5.41,3.59l64.07-27A4.69,4.69,0,0,0,362.1,328V286.21a4.67,4.67,0,0,0-3-4.35Z"/><polygon class="ef3afcf5-879a-471d-8324-4265d4c1fedd" points="357.27 303.22 289.76 331.64 289.76 316.69 357.27 288.27 357.27 303.22"/><polygon class="eb452653-2671-4336-9d58-d05154b4de3a" points="357.27 318.17 289.76 346.59 289.76 331.64 357.27 303.22 357.27 318.17"/><path class="ef3afcf5-879a-471d-8324-4265d4c1fedd" d="M357.27,333.12l-62.1,26.14a3.9,3.9,0,0,1-5.41-3.59v-9.08l67.51-28.42Z"/><path class="e62e2f2d-1afe-4f23-b1f8-6bedd1f70544" d="M339.13,262.49l-.19-.09.12-.11a7.81,7.81,0,0,0,2.21-6.61,7.81,7.81,0,0,0-6.61,2.21l-.11.12-.09-.19a7.83,7.83,0,0,0-5.6-4.15,7.81,7.81,0,0,0,3.55,10.42c0,.14,0,.27,0,.41l.41,0a7.71,7.71,0,0,0,3.45,3.49,7.81,7.81,0,0,0,7,.06,7.83,7.83,0,0,0-4.15-5.6"/><path class="ef3afcf5-879a-471d-8324-4265d4c1fedd" d="M333.79,263.16c-4.52-4.53-11.36-5-16.93.54s-7.47,16.27-3.67,20.06,14.49,1.89,20.05-3.67,5.07-12.41.55-16.93"/><path class="eb452653-2671-4336-9d58-d05154b4de3a" d="M108.62,109.07a4.68,4.68,0,0,0-6.4,4.35v94.34a3.9,3.9,0,0,0,5.41,3.59l64.07-27a4.68,4.68,0,0,0,2.87-4.31V138.3a4.69,4.69,0,0,0-3-4.35Z"/><polygon class="ef3afcf5-879a-471d-8324-4265d4c1fedd" points="169.74 155.31 102.22 183.74 102.22 168.79 169.74 140.36 169.74 155.31"/><polygon class="eb452653-2671-4336-9d58-d05154b4de3a" points="169.74 170.26 102.22 198.68 102.22 183.74 169.74 155.31 169.74 170.26"/><path class="ef3afcf5-879a-471d-8324-4265d4c1fedd" d="M169.73,185.21l-62.1,26.14a3.9,3.9,0,0,1-5.41-3.59v-9.08l67.51-28.42Z"/><path class="e62e2f2d-1afe-4f23-b1f8-6bedd1f70544" d="M147.08,115l-.19-.09.12-.12a7.82,7.82,0,0,0,2.21-6.61,7.83,7.83,0,0,0-6.61,2.21l-.12.13a1.76,1.76,0,0,0-.09-.2,7.77,7.77,0,0,0-5.6-4.14,7.81,7.81,0,0,0,3.55,10.42c0,.13,0,.27.05.4l.4,0a7.81,7.81,0,0,0,10.42,3.55,7.77,7.77,0,0,0-4.14-5.6"/><path class="ef3afcf5-879a-471d-8324-4265d4c1fedd" d="M141.74,115.67c-4.53-4.52-11.37-5-16.93.55s-7.47,16.26-3.68,20.06,14.49,1.89,20.06-3.68,5.07-12.4.55-16.93"/><path class="eb452653-2671-4336-9d58-d05154b4de3a" d="M202,196.44a4.68,4.68,0,0,0-6.4,4.36v96.89a3.9,3.9,0,0,0,5.42,3.59L265.89,274a3.91,3.91,0,0,0,2.38-3.6V225.8a4.67,4.67,0,0,0-3-4.35Z"/><polygon class="ef3afcf5-879a-471d-8324-4265d4c1fedd" points="268.27 243.08 200.76 271.5 200.76 256.55 268.27 228.13 268.27 243.08"/><polygon class="eb452653-2671-4336-9d58-d05154b4de3a" points="268.27 258.03 200.76 286.45 200.76 271.5 268.27 243.08 268.27 258.03"/><path class="ef3afcf5-879a-471d-8324-4265d4c1fedd" d="M265.89,274,200.76,301.4V286.45L268.27,258v12.36a3.91,3.91,0,0,1-2.38,3.59"/><path class="e62e2f2d-1afe-4f23-b1f8-6bedd1f70544" d="M245.62,202.77l-.2-.09.13-.11a7.84,7.84,0,0,0,2.21-6.61,7.82,7.82,0,0,0-6.61,2.21l-.12.12-.09-.19a7.83,7.83,0,0,0-5.6-4.15,7.81,7.81,0,0,0,3.55,10.42c0,.14,0,.28,0,.41l.41.05a7.81,7.81,0,0,0,10.42,3.55,7.83,7.83,0,0,0-4.14-5.61"/><path class="ef3afcf5-879a-471d-8324-4265d4c1fedd" d="M240.27,203.44c-4.52-4.52-11.36-5-16.93.55s-7.46,16.26-3.67,20.06,14.49,1.89,20.06-3.68,5.07-12.4.54-16.93"/><path class="eb452653-2671-4336-9d58-d05154b4de3a" d="M201.89,117.86v44.69a3.9,3.9,0,0,0,2.38,3.59l64.55,27.17a3.89,3.89,0,0,0,5.41-3.59V117.86a4.68,4.68,0,0,0-4.68-4.68h-63a4.68,4.68,0,0,0-4.68,4.68"/><polygon class="ef3afcf5-879a-471d-8324-4265d4c1fedd" points="206.72 137.27 274.23 165.7 274.23 150.75 206.72 122.33 206.72 137.27"/><polygon class="eb452653-2671-4336-9d58-d05154b4de3a" points="206.72 152.22 274.23 180.65 274.23 165.7 206.72 137.27 206.72 152.22"/><path class="ef3afcf5-879a-471d-8324-4265d4c1fedd" d="M206.72,167.17l62.1,26.15a3.9,3.9,0,0,0,5.41-3.6v-9.07l-67.51-28.43Z"/><path class="e62e2f2d-1afe-4f23-b1f8-6bedd1f70544" d="M228.59,103a1.63,1.63,0,0,1,.19-.09l-.12-.12a7.8,7.8,0,0,1-2.22-6.61,7.85,7.85,0,0,1,6.62,2.21l.11.13.09-.2a7.79,7.79,0,0,1,5.6-4.14,7.81,7.81,0,0,1-3.55,10.42c0,.13,0,.27,0,.4l-.41,0a7.81,7.81,0,0,1-10.42,3.55,7.81,7.81,0,0,1,4.15-5.6"/><path class="ef3afcf5-879a-471d-8324-4265d4c1fedd" d="M233.93,103.61c4.52-4.52,11.36-5,16.93.55s7.47,16.26,3.67,20.06-14.49,1.89-20.06-3.68-5.07-12.4-.54-16.93"/><path class="eb452653-2671-4336-9d58-d05154b4de3a" d="M85.47,348.81V393.5a3.89,3.89,0,0,0,2.39,3.59l64.54,27.18a3.9,3.9,0,0,0,5.41-3.6V348.81a4.68,4.68,0,0,0-4.68-4.68h-63a4.69,4.69,0,0,0-4.68,4.68"/><polygon class="ef3afcf5-879a-471d-8324-4265d4c1fedd" points="90.3 368.22 157.82 396.65 157.82 381.7 90.3 353.28 90.3 368.22"/><polygon class="eb452653-2671-4336-9d58-d05154b4de3a" points="90.3 383.17 157.82 411.6 157.82 396.65 90.3 368.22 90.3 383.17"/><path class="ef3afcf5-879a-471d-8324-4265d4c1fedd" d="M90.3,398.12l62.1,26.15a3.91,3.91,0,0,0,5.42-3.6V411.6L90.3,383.17Z"/><path class="e62e2f2d-1afe-4f23-b1f8-6bedd1f70544" d="M112.17,333.9l.19-.09-.12-.12a7.82,7.82,0,0,1-2.21-6.61,7.83,7.83,0,0,1,6.61,2.21l.11.13.09-.2a7.83,7.83,0,0,1,5.61-4.14,7.81,7.81,0,0,1-3.55,10.42c0,.13,0,.27-.05.4l-.41.05A7.81,7.81,0,0,1,108,339.5a7.81,7.81,0,0,1,4.15-5.6"/><path class="ef3afcf5-879a-471d-8324-4265d4c1fedd" d="M117.51,334.57c4.53-4.53,11.37-5,16.93.54s7.47,16.27,3.68,20.06-14.5,1.89-20.06-3.67-5.07-12.41-.55-16.93"/><path class="eb452653-2671-4336-9d58-d05154b4de3a" d="M6.4,267.89A4.68,4.68,0,0,0,0,272.25v98a3.12,3.12,0,0,0,4.33,2.88l67.12-28.26A3.12,3.12,0,0,0,73.36,342V297.53a4.68,4.68,0,0,0-3-4.35Z"/><polygon class="ef3afcf5-879a-471d-8324-4265d4c1fedd" points="73.36 314.14 5.85 342.56 5.85 327.62 73.36 299.19 73.36 314.14"/><polygon class="eb452653-2671-4336-9d58-d05154b4de3a" points="73.36 329.09 5.85 357.51 5.85 342.56 73.36 314.14 73.36 329.09"/><path class="ef3afcf5-879a-471d-8324-4265d4c1fedd" d="M71.45,344.84,5.85,372.46V357.51l67.51-28.42V342a3.12,3.12,0,0,1-1.91,2.88"/><path class="e62e2f2d-1afe-4f23-b1f8-6bedd1f70544" d="M50.7,273.83l-.19-.09.12-.11A7.81,7.81,0,0,0,52.85,267a7.82,7.82,0,0,0-6.61,2.21l-.12.12-.09-.19a7.83,7.83,0,0,0-5.6-4.15A7.81,7.81,0,0,0,44,275.44c0,.13,0,.27,0,.4l.41.05a7.81,7.81,0,0,0,10.42,3.55,7.82,7.82,0,0,0-4.15-5.61"/><path class="ef3afcf5-879a-471d-8324-4265d4c1fedd" d="M45.36,274.5c-4.52-4.52-11.36-5-16.93.55S21,291.31,24.76,295.11s14.49,1.89,20.06-3.68,5.07-12.4.54-16.93"/><path class="e62e2f2d-1afe-4f23-b1f8-6bedd1f70544" d="M25.08,167.4l.2-.09-.13-.11a7.85,7.85,0,0,1-2.21-6.62,7.83,7.83,0,0,1,6.61,2.22l.12.12a1.63,1.63,0,0,1,.09-.19,7.81,7.81,0,0,1,5.6-4.15A7.81,7.81,0,0,1,31.81,169c0,.14,0,.27,0,.41l-.4,0A7.81,7.81,0,0,1,20.94,173a7.79,7.79,0,0,1,4.14-5.6"/><path class="ef3afcf5-879a-471d-8324-4265d4c1fedd" d="M30.42,168.07c4.53-4.53,11.37-5,16.93.54s7.47,16.27,3.68,20.06S36.54,190.56,31,185s-5.07-12.41-.55-16.93"/></g></svg>