<svg xmlns="http://www.w3.org/2000/svg" width="616.076" height="605.034" viewBox="0 0 616.076 605.034">
  <g id="Group_82" data-name="Group 82" transform="translate(-682.091 -2985.688)">
    <path id="Path_61" data-name="Path 61" d="M949.146,3590.722h246.282V3037.65a49.273,49.273,0,0,0-49.273-49.273H900.324V3541.9a48.822,48.822,0,0,0,48.822,48.822" fill="#d6b967"/>
    <path id="Path_89" data-name="Path 89" d="M946.018,3271.485,682.091,3395.3l352.15,144.3,263.926-165.942Z" fill="#363637"/>
    <path id="Path_90" data-name="Path 90" d="M682.091,3395.3v9.554l352.149,144.3,263.927-165.942v-9.555Z" fill="#363637"/>
    <path id="Path_91" data-name="Path 91" d="M1000.045,3328.192v-48.8l-78.375-17.9L940.6,3298c0,13.574,17.552,37.211,17.552,55.466,0,15.188-47.615,30.1-63.616,34.3v6.675a3.412,3.412,0,0,0,2.118,3.157L956,3421.922a14.04,14.04,0,0,0,11.382-.325l34.065-16.29s17.787-8.752,17.787-27.006-19.191-36.535-19.191-50.109" fill="#fff"/>
    <path id="Path_92" data-name="Path 92" d="M994.077,3332.522v-56.636l-72.407-21.061v48.026c0,13.574,19.191,26.213,19.191,44.467s-17.787,24.808-17.787,24.808l-26.5,12.431a3.5,3.5,0,0,0,.16,6.41l59.322,24.309a14.039,14.039,0,0,0,11.289-.28l28.134-13.2s17.787-6.553,17.787-24.808-19.191-30.893-19.191-44.467" fill="#d6b967"/>
    <path id="Path_93" data-name="Path 93" d="M1140.213,3381.838l.118-222.3a14.042,14.042,0,0,0-8.718-13L818.865,3018.379a7.018,7.018,0,0,0-5.9.267l-17.567,9.135,323.546,369.377,17.489-9.094a7.021,7.021,0,0,0,3.782-6.226" fill="#fff"/>
    <path id="Path_94" data-name="Path 94" d="M1112.977,3397.431,800.3,3269.3a14.042,14.042,0,0,1-8.718-13l.118-222.273a7.021,7.021,0,0,1,9.684-6.492l312.674,128.127a14.043,14.043,0,0,1,8.718,13l-.118,222.273a7.02,7.02,0,0,1-9.683,6.493" fill="#363637"/>
    <path id="Path_96" data-name="Path 96" d="M793.359,3247.544l327.535,134.219.108-204.339L793.468,3043.206Z" fill="none"/>
    <g id="Group_16" data-name="Group 16">
      <path id="Path_97" data-name="Path 97" d="M853.18,3354.247c0,9.891-6.375,17.909-14.239,17.909s-14.239-8.018-14.239-17.909,6.375-17.909,14.239-17.909S853.18,3344.357,853.18,3354.247Z" fill="none" stroke="#fff" stroke-miterlimit="10" stroke-width="9.361"/>
      <path id="Path_98" data-name="Path 98" d="M832.794,3380.337c0-8.85-13.668-16.024-30.525-16.024s-30.525,7.174-30.525,16.024,13.666,16.024,30.525,16.024,30.525-7.174,30.525-16.024" fill="#fff"/>
      <rect id="Rectangle_19" data-name="Rectangle 19" width="61.049" height="44.456" transform="translate(771.745 3335.881)" fill="#fff"/>
      <path id="Path_99" data-name="Path 99" d="M802.269,3349.564c-15.277,0-28.184-6.266-28.184-13.684s12.907-13.683,28.184-13.683,28.184,6.266,28.184,13.683-12.907,13.684-28.184,13.684" fill="#a18b4d"/>
      <path id="Path_100" data-name="Path 100" d="M802.269,3324.538c14.792,0,25.844,5.988,25.844,11.342s-11.052,11.344-25.844,11.344-25.844-5.989-25.844-11.344,11.052-11.342,25.844-11.342m0-4.681c-16.858,0-30.524,7.174-30.524,16.023s13.666,16.024,30.524,16.024,30.524-7.174,30.524-16.024-13.666-16.023-30.524-16.023" fill="#fff"/>
    </g>
    <path id="Path_101" data-name="Path 101" d="M1037.67,3505.573l-5.346-.868a35.244,35.244,0,0,1-10.239-3.33l-30.666-15.489s-9.88-4.445-9.9-4.454a86.7,86.7,0,0,1-21.306-10.972,2.886,2.886,0,0,0-3.168-.13,1.14,1.14,0,0,0-.084,1.9,85.456,85.456,0,0,0,16.871,9.314.53.53,0,0,1,.068.944l-.237.143a2.756,2.756,0,0,1-2.479.187,85.552,85.552,0,0,1-16.417-9.082,2.888,2.888,0,0,0-3.169-.131,1.14,1.14,0,0,0-.084,1.9,85.5,85.5,0,0,0,16.871,9.314.53.53,0,0,1,.068.944l-.237.143a2.75,2.75,0,0,1-2.479.187,85.509,85.509,0,0,1-16.417-9.082,2.886,2.886,0,0,0-3.168-.13,1.139,1.139,0,0,0-.085,1.9,86.023,86.023,0,0,0,18.86,10.114,11.7,11.7,0,0,0,5.245.744l12.676-1.1a14.121,14.121,0,0,1,9.085,2.339l20.372,13.66a35.24,35.24,0,0,0,14.769,5.634l2.326.324a11.934,11.934,0,0,0,7.715-1.544l1.077-.636a1.487,1.487,0,0,0-.518-2.748" fill="#fff"/>
    <path id="Path_102" data-name="Path 102" d="M1112.429,3459.99c0,18.6-28.223,33.674-63.037,33.674s-63.037-15.076-63.037-33.674,28.222-33.673,63.037-33.673,63.037,15.076,63.037,33.673" fill="#d23d44"/>
    <path id="Path_115" data-name="Path 115" d="M958.945,3043.023l1.56-20.282,30.033-3.51-31.593-1.951-2.523-31.592-2.547,30.812-30.051,5.071s29.661.78,30.051,1.95S958.945,3043.023,958.945,3043.023Z" fill="#d23d44"/>
    <path id="Path_116" data-name="Path 116" d="M1061.571,3063.328l13.082,1.8,1.113,19.6,2.486-20.4,20.569-.413-19.868-2.843-2.123-19.668s-1.653,19.189-2.426,19.4S1061.571,3063.328,1061.571,3063.328Z" fill="#fff"/>
    <path id="Path_117" data-name="Path 117" d="M1173.708,3063.592l-.853,11.086-16.416,1.918,17.269,1.066,1.378,17.268,1.393-16.841,16.425-2.772s-16.212-.426-16.425-1.066S1173.708,3063.592,1173.708,3063.592Z" fill="#d23d44"/>
    <path id="Path_118" data-name="Path 118" d="M1173.829,3262.373l.853-11.086,16.415-1.919-17.268-1.066-1.379-17.268-1.393,16.842-16.425,2.771s16.212.427,16.425,1.066S1173.829,3262.373,1173.829,3262.373Z" fill="#fff"/>
    <g id="Group_69" data-name="Group 69">
      <path id="Path_192" data-name="Path 192" d="M1072.23,3396.908c-15.891-9.559-36.572-14.427-55.7-13.863a2.311,2.311,0,0,0-2.256,2.3V3414.1l-1.213,51.484a2.311,2.311,0,0,0,2.37,2.352,15.554,15.554,0,0,1,8.4,2.125,2.277,2.277,0,0,0,2.028.183l47.164-18.387a2.3,2.3,0,0,0,1.465-2.2l-1.162-50.83A2.3,2.3,0,0,0,1072.23,3396.908Z" fill="#fff"/>
      <path id="Path_193" data-name="Path 193" d="M1072.672,3449.675l-1.071-43.984a3.188,3.188,0,0,0-4.382-2.883l-43.657,17.644,1.106,50.233,45.977-17.968A3.188,3.188,0,0,0,1072.672,3449.675Z" fill="#d6b967"/>
      <path id="Path_194" data-name="Path 194" d="M1014.2,3416.977l-1.221,48.906a2.013,2.013,0,0,0,2.077,2.059,15.215,15.215,0,0,1,9.614,2.738l-1.1-50.233C1022.5,3418.162,1016.942,3416.256,1014.2,3416.977Z" fill="#a18b4d"/>
    </g>
    <g id="Group_70" data-name="Group 70">
      <ellipse id="Ellipse_11" data-name="Ellipse 11" cx="14.271" cy="6.68" rx="14.271" ry="6.68" transform="translate(1057.756 3433.215)" fill="#fff"/>
      <ellipse id="Ellipse_12" data-name="Ellipse 12" cx="20.387" cy="7.763" rx="20.387" ry="7.763" transform="translate(1048.286 3439.895)" fill="#fff"/>
      <ellipse id="Ellipse_13" data-name="Ellipse 13" cx="25.977" cy="9.892" rx="25.977" ry="9.892" transform="translate(1039.079 3446.936)" fill="#fff"/>
      <ellipse id="Ellipse_14" data-name="Ellipse 14" cx="32.947" cy="12.546" rx="32.947" ry="12.546" transform="translate(1028.82 3455.474)" fill="#fff"/>
      <circle id="Ellipse_15" data-name="Ellipse 15" cx="7.83" cy="7.83" r="7.83" transform="translate(1060.843 3424.235)" fill="#d23d44"/>
    </g>
  </g>
</svg>
