<svg id="bb05b491-132b-4975-b55e-479f7f3e605a" data-name="Layer 1" xmlns="http://www.w3.org/2000/svg" xmlns:xlink="http://www.w3.org/1999/xlink" viewBox="0 0 616.08 646.13"><defs><style>.a2782606-8f24-46e0-ab99-9eb90bcffa55,.ae264162-c932-4276-87e9-495798513987,.b8ace68b-1e29-473d-83d2-7d8f19c36392{fill:none;}.f9561676-adc4-438a-a055-0f2596c3789f{clip-path:url(#e32fb857-dabc-4a1d-a424-83399c681076);}.a421ead1-53a1-467b-a558-bbdd128314fd{fill:#d43d44;}.ba736638-056d-41d4-a159-90e7c2c3bdf0{fill:#9dd640;}.ae264162-c932-4276-87e9-495798513987{stroke:#9dd640;}.a2782606-8f24-46e0-ab99-9eb90bcffa55,.ae264162-c932-4276-87e9-495798513987{stroke-miterlimit:10;stroke-width:9.36px;}.add62d17-c88b-49d6-a7ff-63d2a3e58e7c{fill:#1d0036;}.ffe952a6-9cdd-4cbe-8c7a-dd47771f134b{fill:#fff;}.a4136767-2953-44ce-b904-66c4a27448d4{clip-path:url(#bb892677-fcfb-4aef-981a-cef40705af55);}.a2782606-8f24-46e0-ab99-9eb90bcffa55{stroke:#fff;}</style><clipPath id="e32fb857-dabc-4a1d-a424-83399c681076" transform="translate(-9.6 -38.21)"><rect class="b8ace68b-1e29-473d-83d2-7d8f19c36392" x="-672.49" y="-3038.79" width="1280" height="5865.38"/></clipPath><clipPath id="bb892677-fcfb-4aef-981a-cef40705af55" transform="translate(-9.6 -38.21)"><polygon class="b8ace68b-1e29-473d-83d2-7d8f19c36392" points="120.86 297.38 448.4 431.6 448.51 227.26 120.97 93.04 120.86 297.38"/></clipPath></defs><title>using_cakephp</title><g class="f9561676-adc4-438a-a055-0f2596c3789f"><path class="a421ead1-53a1-467b-a558-bbdd128314fd" d="M276.65,640.56H522.93V87.49a49.27,49.27,0,0,0-49.27-49.28H227.83V591.74a48.82,48.82,0,0,0,48.82,48.82" transform="translate(-9.6 -38.21)"/><polygon class="ba736638-056d-41d4-a159-90e7c2c3bdf0" points="348.69 590.86 362.29 591.46 360.4 585.86 374.43 582.35 370.04 578.22 381.71 572.53 376.93 569.63 387.08 560.47 382.29 558.07 389.31 545.83 383.94 545.1 391.05 531.31 375.54 531.73 377.22 526.57 363.14 527.59 363.06 522.23 350.4 527.4 349.86 521.84 339.66 529.88 337.85 524.13 328.6 535.25 324.38 531.12 319.01 543.64 313.91 540.82 313.64 554.09 308.42 552.95 310.07 566.85 305.08 565.43 323 593.96 323.89 588.85 335.69 596.36 336.94 591.16 349.01 596.68 348.69 590.86"/><path class="ae264162-c932-4276-87e9-495798513987" d="M219.44,480.69c-78.48,18.78-79.25,62-68.57,77.76,14.95,22,47.42,37,107.24,34.18s80.57,33.09,71.54,62.53" transform="translate(-9.6 -38.21)"/><polygon class="ba736638-056d-41d4-a159-90e7c2c3bdf0" points="173.46 572.61 164.47 582.83 170.01 584.86 163.96 598 169.92 597.16 167.04 609.83 172.3 607.92 173.08 621.57 177.95 619.35 183.09 632.49 187.02 628.75 193.31 642.94 202.71 630.59 205.67 635.13 213.7 623.52 217.93 626.81 221.84 613.71 226.51 616.77 226.63 603.79 232.25 605.98 229.38 591.8 235.24 591.1 228.85 579.08 234.25 576.87 224.07 568.34 228.23 564.98 216.37 557.56 220.6 554.56 187.14 550.65 190.56 554.55 177.31 559.03 180.58 563.26 168.72 569.21 173.46 572.61"/><path class="ba736638-056d-41d4-a159-90e7c2c3bdf0" d="M316,684.35a21.18,21.18,0,0,0,15.6-33.86A21.19,21.19,0,0,0,316,684.35" transform="translate(-9.6 -38.21)"/><path class="ba736638-056d-41d4-a159-90e7c2c3bdf0" d="M339.68,682.65a22.67,22.67,0,0,0,1.95-4.06,23.33,23.33,0,0,0-10-28.1,23.37,23.37,0,0,0,8.09,32.16" transform="translate(-9.6 -38.21)"/><path class="ba736638-056d-41d4-a159-90e7c2c3bdf0" d="M301.89,665.23a23.32,23.32,0,0,1,29.7-14.74,23.32,23.32,0,0,1-29.7,14.74" transform="translate(-9.6 -38.21)"/><polygon class="ba736638-056d-41d4-a159-90e7c2c3bdf0" points="109.52 483.63 95.62 477 95.11 483.66 78.94 481.12 81.69 487.36 67.02 488.13 70.71 493.26 56.1 498.32 60.02 502.94 47.3 512.59 52.57 515.71 39.07 526.94 55.42 533.36 51.39 537.99 66.5 543.15 64.22 548.77 79.69 548.98 77.8 555.01 91.97 551.14 91.31 557.92 105.87 550.43 108.44 556.6 119.56 545.94 123.63 551.13 129.77 537.42 134.71 540.91 139.13 525.71 139.79 515.87 137.64 491.75 134.46 496.69 125.48 483.64 121.89 488.51 111.75 477.42 109.52 483.63"/><polygon class="ba736638-056d-41d4-a159-90e7c2c3bdf0" points="414.31 237.29 423.85 211.24 432.9 219.18 450.51 195.52 454.83 207.02 474.69 189.52 476.41 200.78 501.6 188.87 502.37 199.76 530.91 196.14 528.06 206.82 559.59 204.25 546.64 233.12 557.65 234 544.71 259.69 554.72 264.05 535.08 283.81 545.12 289.19 521.99 302.07 531.39 309.98 503.21 318.68 507.67 329.86 479.92 330.15 481.23 341.96 456.04 332.06 454.08 342.78 429.24 328.78 427.99 339.29 395.2 320.4 388.35 283.2 398.67 285.53 393.78 257.43 404.54 259.16 403.62 232.12 414.31 237.29"/><polygon class="add62d17-c88b-49d6-a7ff-63d2a3e58e7c" points="263.93 283.11 0 406.92 352.15 551.23 616.08 385.28 263.93 283.11"/><polygon class="add62d17-c88b-49d6-a7ff-63d2a3e58e7c" points="0 406.92 0 416.48 352.15 560.78 616.08 394.84 616.08 385.28 0 406.92"/><path class="ffe952a6-9cdd-4cbe-8c7a-dd47771f134b" d="M327.55,378v-48.8l-78.37-17.9,18.93,36.51c0,13.57,17.55,37.21,17.55,55.47,0,15.18-47.62,30.1-63.62,34.3v6.67a3.41,3.41,0,0,0,2.12,3.16l59.35,24.32a14,14,0,0,0,11.38-.33L329,455.14s17.78-8.75,17.78-27S327.55,391.6,327.55,378" transform="translate(-9.6 -38.21)"/><path class="a421ead1-53a1-467b-a558-bbdd128314fd" d="M321.58,382.36V325.72l-72.4-21.06v48c0,13.57,19.19,26.21,19.19,44.47S250.58,422,250.58,422l-26.5,12.43a3.5,3.5,0,0,0,.16,6.41l59.32,24.31a14,14,0,0,0,11.29-.28L323,451.63s17.78-6.55,17.78-24.8-19.19-30.9-19.19-44.47" transform="translate(-9.6 -38.21)"/><path class="ffe952a6-9cdd-4cbe-8c7a-dd47771f134b" d="M467.72,431.68l.12-222.3a14.05,14.05,0,0,0-8.72-13L146.37,68.22a7,7,0,0,0-5.9.26L122.9,77.62,446.45,447l17.49-9.1a7,7,0,0,0,3.78-6.22" transform="translate(-9.6 -38.21)"/><path class="add62d17-c88b-49d6-a7ff-63d2a3e58e7c" d="M440.48,447.27,127.81,319.14a14,14,0,0,1-8.72-13l.12-222.27a7,7,0,0,1,9.68-6.5L441.57,205.5a14,14,0,0,1,8.71,13l-.11,222.28a7,7,0,0,1-9.69,6.49" transform="translate(-9.6 -38.21)"/></g><g class="f9561676-adc4-438a-a055-0f2596c3789f"><path class="a2782606-8f24-46e0-ab99-9eb90bcffa55" d="M180.06,392.89c0,9.89-6.38,17.9-14.24,17.9s-14.24-8-14.24-17.9S158,375,165.82,375,180.06,383,180.06,392.89Z" transform="translate(-9.6 -38.21)"/><path class="ffe952a6-9cdd-4cbe-8c7a-dd47771f134b" d="M159.67,419c0-8.85-13.66-16-30.52-16s-30.53,7.17-30.53,16,13.67,16,30.53,16,30.52-7.18,30.52-16" transform="translate(-9.6 -38.21)"/><rect class="ffe952a6-9cdd-4cbe-8c7a-dd47771f134b" x="89.03" y="336.3" width="61.05" height="44.46"/><path class="add62d17-c88b-49d6-a7ff-63d2a3e58e7c" d="M129.15,388.2c-15.28,0-28.19-6.26-28.19-13.68s12.91-13.68,28.19-13.68,28.18,6.26,28.18,13.68-12.9,13.68-28.18,13.68" transform="translate(-9.6 -38.21)"/><path class="ffe952a6-9cdd-4cbe-8c7a-dd47771f134b" d="M129.15,363.18c14.79,0,25.84,6,25.84,11.34s-11.05,11.34-25.84,11.34-25.85-6-25.85-11.34,11.06-11.34,25.85-11.34m0-4.69c-16.86,0-30.53,7.18-30.53,16s13.67,16,30.53,16,30.52-7.17,30.52-16-13.66-16-30.52-16" transform="translate(-9.6 -38.21)"/><path class="ffe952a6-9cdd-4cbe-8c7a-dd47771f134b" d="M365.18,555.41l-5.35-.87a35.23,35.23,0,0,1-10.24-3.33l-30.66-15.49L309,531.27a86.49,86.49,0,0,1-21.3-11,2.88,2.88,0,0,0-3.17-.13,1.14,1.14,0,0,0-.09,1.9,85,85,0,0,0,16.87,9.31.53.53,0,0,1,.07,1l-.23.14a2.75,2.75,0,0,1-2.48.19,85.41,85.41,0,0,1-16.42-9.08,2.88,2.88,0,0,0-3.17-.13,1.14,1.14,0,0,0-.08,1.9,85,85,0,0,0,16.87,9.31.54.54,0,0,1,.07,1l-.24.14a2.75,2.75,0,0,1-2.48.19,85.68,85.68,0,0,1-16.42-9.09,2.92,2.92,0,0,0-3.17-.13,1.15,1.15,0,0,0-.08,1.91,86.32,86.32,0,0,0,18.86,10.11,11.57,11.57,0,0,0,5.24.74l12.68-1.1a14.14,14.14,0,0,1,9.09,2.34l20.37,13.66A35.16,35.16,0,0,0,354.58,560l2.32.33a11.93,11.93,0,0,0,7.72-1.55l1.07-.63a1.49,1.49,0,0,0-.51-2.75" transform="translate(-9.6 -38.21)"/><path class="ffe952a6-9cdd-4cbe-8c7a-dd47771f134b" d="M439.94,509.83c0,18.6-28.23,33.67-63,33.67s-63-15.07-63-33.67,28.22-33.68,63-33.68,63,15.08,63,33.68" transform="translate(-9.6 -38.21)"/><path class="ffe952a6-9cdd-4cbe-8c7a-dd47771f134b" d="M405.89,488V445.23a4.08,4.08,0,0,0-5.21-3.92l-55.26,15.88a4.08,4.08,0,0,0-3,3.92v39.34a2.73,2.73,0,0,0,1.67,2.51l57,24a3.4,3.4,0,0,0,4.72-3.13Z" transform="translate(-9.6 -38.21)"/><path class="ba736638-056d-41d4-a159-90e7c2c3bdf0" d="M362.21,441.08l.16-.08-.1-.1a6.82,6.82,0,0,1-1.93-5.76,6.82,6.82,0,0,1,5.76,1.93l.1.1c0-.05.05-.11.08-.16a6.83,6.83,0,0,1,4.88-3.62,6.79,6.79,0,0,1-3.09,9.08c0,.12,0,.24,0,.36l-.36,0a6.79,6.79,0,0,1-9.08,3.09,6.83,6.83,0,0,1,3.62-4.88" transform="translate(-9.6 -38.21)"/><path class="a421ead1-53a1-467b-a558-bbdd128314fd" d="M366.86,441.66c3.94-3.94,9.91-4.37,14.76.48s6.5,14.17,3.2,17.48-12.63,1.65-17.48-3.2-4.42-10.82-.48-14.76" transform="translate(-9.6 -38.21)"/><polygon class="a421ead1-53a1-467b-a558-bbdd128314fd" points="332.87 437.99 391.7 462.76 391.7 449.73 332.87 424.96 332.87 437.99"/><polygon class="ffe952a6-9cdd-4cbe-8c7a-dd47771f134b" points="332.87 451.01 391.7 475.79 391.7 462.76 332.87 437.99 332.87 451.01"/><path class="a421ead1-53a1-467b-a558-bbdd128314fd" d="M344.13,503,401.3,527V514l-58.84-24.77v11.22a2.73,2.73,0,0,0,1.67,2.51" transform="translate(-9.6 -38.21)"/><path class="ffe952a6-9cdd-4cbe-8c7a-dd47771f134b" d="M393.51,74.46a4.62,4.62,0,0,1,1.7,4,4.65,4.65,0,0,1-6-4.84,4.63,4.63,0,0,1,4.27.84" transform="translate(-9.6 -38.21)"/><path class="ffe952a6-9cdd-4cbe-8c7a-dd47771f134b" d="M496.32,195a4.62,4.62,0,0,1,1.7,4,4.64,4.64,0,0,1-6-4.84,4.63,4.63,0,0,1,4.27.84" transform="translate(-9.6 -38.21)"/><path class="ffe952a6-9cdd-4cbe-8c7a-dd47771f134b" d="M349.15,92.53a4.66,4.66,0,0,1,3.94,1.84,4.65,4.65,0,0,1-7.68.39,4.64,4.64,0,0,1,3.74-2.23" transform="translate(-9.6 -38.21)"/><path class="ffe952a6-9cdd-4cbe-8c7a-dd47771f134b" d="M353.09,61.61A4.64,4.64,0,0,1,357,63.45a4.65,4.65,0,0,1-7.68.38,4.63,4.63,0,0,1,3.74-2.22" transform="translate(-9.6 -38.21)"/><path class="ffe952a6-9cdd-4cbe-8c7a-dd47771f134b" d="M355,129a4.62,4.62,0,0,1-1,4.23,4.66,4.66,0,0,1-1.91-7.45A4.66,4.66,0,0,1,355,129" transform="translate(-9.6 -38.21)"/><path class="ffe952a6-9cdd-4cbe-8c7a-dd47771f134b" d="M315.17,107.48a4.62,4.62,0,0,1,3.09,3.06,4.63,4.63,0,0,1-7.35-2.23,4.61,4.61,0,0,1,4.26-.83" transform="translate(-9.6 -38.21)"/><path class="ffe952a6-9cdd-4cbe-8c7a-dd47771f134b" d="M456.06,171.14a4.63,4.63,0,0,1,4.33-.43A4.65,4.65,0,0,1,454,175a4.64,4.64,0,0,1,2.08-3.82" transform="translate(-9.6 -38.21)"/><path class="ffe952a6-9cdd-4cbe-8c7a-dd47771f134b" d="M276.79,93.9a4.66,4.66,0,0,1,4.33-.42,4.64,4.64,0,0,1-6.41,4.24,4.67,4.67,0,0,1,2.08-3.82" transform="translate(-9.6 -38.21)"/><path class="ffe952a6-9cdd-4cbe-8c7a-dd47771f134b" d="M258.26,58a4.66,4.66,0,0,1,4.06-1.58,4.65,4.65,0,0,1-5,5.82,4.66,4.66,0,0,1,1-4.24" transform="translate(-9.6 -38.21)"/><path class="ffe952a6-9cdd-4cbe-8c7a-dd47771f134b" d="M302.05,67.39a4.66,4.66,0,0,1,3.76,2.17,4.64,4.64,0,0,1-7.68-.27,4.64,4.64,0,0,1,3.92-1.9" transform="translate(-9.6 -38.21)"/><path class="ffe952a6-9cdd-4cbe-8c7a-dd47771f134b" d="M435.89,66.84a4.64,4.64,0,0,1,.49-4.32,4.64,4.64,0,0,1,2.81,7.15,4.62,4.62,0,0,1-3.3-2.83" transform="translate(-9.6 -38.21)"/><path class="ffe952a6-9cdd-4cbe-8c7a-dd47771f134b" d="M486.75,63.43a4.65,4.65,0,0,1,2.9-3.24,4.65,4.65,0,0,1-1.85,7.46,4.62,4.62,0,0,1-1.05-4.22" transform="translate(-9.6 -38.21)"/><path class="ffe952a6-9cdd-4cbe-8c7a-dd47771f134b" d="M493.34,112.56a4.66,4.66,0,0,1-1.77-4,4.65,4.65,0,0,1,6.05,4.74,4.63,4.63,0,0,1-4.28-.76" transform="translate(-9.6 -38.21)"/><path class="ffe952a6-9cdd-4cbe-8c7a-dd47771f134b" d="M494.38,156.61a4.65,4.65,0,0,1-4.32-.55,4.64,4.64,0,0,1,7.19-2.71,4.62,4.62,0,0,1-2.87,3.26" transform="translate(-9.6 -38.21)"/><path class="ffe952a6-9cdd-4cbe-8c7a-dd47771f134b" d="M388.3,119.1a4.63,4.63,0,0,1-3.18,3,4.65,4.65,0,0,1,2.51-7.27,4.65,4.65,0,0,1,.67,4.3" transform="translate(-9.6 -38.21)"/><path class="ffe952a6-9cdd-4cbe-8c7a-dd47771f134b" d="M459.66,102.1a4.66,4.66,0,0,1-2.25,3.72,4.65,4.65,0,0,1,.44-7.68,4.63,4.63,0,0,1,1.81,4" transform="translate(-9.6 -38.21)"/><path class="ffe952a6-9cdd-4cbe-8c7a-dd47771f134b" d="M424.23,101.39a4.66,4.66,0,0,1,4.29.76,4.64,4.64,0,0,1-7.32,2.36,4.66,4.66,0,0,1,3-3.12" transform="translate(-9.6 -38.21)"/><path class="ffe952a6-9cdd-4cbe-8c7a-dd47771f134b" d="M446,133.9a4.61,4.61,0,0,1,1.5-4.08,4.65,4.65,0,0,1,1,7.61A4.61,4.61,0,0,1,446,133.9" transform="translate(-9.6 -38.21)"/><path class="ffe952a6-9cdd-4cbe-8c7a-dd47771f134b" d="M414.87,151a4.65,4.65,0,0,1-4.31.57,4.64,4.64,0,0,1,6.26-4.46,4.6,4.6,0,0,1-1.95,3.89" transform="translate(-9.6 -38.21)"/></g></svg>