<svg xmlns="http://www.w3.org/2000/svg" xmlns:xlink="http://www.w3.org/1999/xlink" width="576.652" height="490.144" viewBox="0 0 576.652 490.144">
  <defs>
    <clipPath id="clip-path">
      <path id="Path_243" data-name="Path 243" d="M163.335,902.944,207.1,965.168c11.723,16.665,35.019,22.152,51.516,11.679,13.293-8.44,17.465-24.341,11.71-38.483,48.723,15.233,97.77-6.866,106.4-48.385l.206-.995c8.155-39.229-24.183-77.9-69.1-88.031l-136.47-30.795L121.292,888.991Z" fill="none"/>
    </clipPath>
  </defs>
  <g id="Group_80" data-name="Group 80" transform="translate(-1.294 -527.589)">
    <path id="Path_207" data-name="Path 207" d="M1.294,726.541v92.014l142.469,40.359,4.744-59.841Z" fill="#d6b967"/>
    <path id="Path_208" data-name="Path 208" d="M570.5,1017.733H342.04A122.483,122.483,0,0,1,219.558,895.25V527.589H570.5Z" fill="#363637"/>
    <g id="Group_76" data-name="Group 76">
      <path id="Path_209" data-name="Path 209" d="M120.4,893.978l53.36-128.262-14.535-3.354c-9.064-2.088-19.042,2.347-22.44,9.973L94.874,866.467c-4.02,9.028.391,19.037,10.035,22.287Z" fill="#fff"/>
      <g id="Group_75" data-name="Group 75">
        <g id="Group_74" data-name="Group 74" clip-path="url(#clip-path)">
          <path id="Path_210" data-name="Path 210" d="M-30.631,834.228,308.049,683.2,538.4,927.847,59.111,1139.406Z" fill="#363637"/>
          <path id="Path_211" data-name="Path 211" d="M518.607,794.066l7.531,1.447-64.259,711.674-11.863-7.763Z" fill="#fff"/>
          <path id="Path_212" data-name="Path 212" d="M491.333,788.827l7.279,1.4-79.753,688.808-11.222-7.344Z" fill="#fff"/>
          <path id="Path_213" data-name="Path 213" d="M435.576,778.115l6.778,1.3-108.6,643.918-10.007-6.549Z" fill="#fff"/>
          <path id="Path_214" data-name="Path 214" d="M411,773.395l6.563,1.261L297.4,1399.547l-9.509-6.223Z" fill="#fff"/>
          <path id="Path_215" data-name="Path 215" d="M360.627,763.718l6.133,1.178L225,1352.167l-8.555-5.6Z" fill="#fff"/>
          <path id="Path_216" data-name="Path 216" d="M338.369,759.442l5.948,1.143L193.885,1331.8l-8.16-5.34Z" fill="#fff"/>
          <path id="Path_217" data-name="Path 217" d="M292.637,750.657l5.576,1.071L131.55,1291.008l-7.4-4.841Z" fill="#fff"/>
          <path id="Path_218" data-name="Path 218" d="M272.383,746.766l5.415,1.04-173.19,525.57-7.08-4.633Z" fill="#fff"/>
          <path id="Path_219" data-name="Path 219" d="M230.679,738.755l5.091.978-185.4,498.151-6.46-4.228Z" fill="#fff"/>
          <path id="Path_220" data-name="Path 220" d="M212.17,735.2l4.951.951-190.3,486.32-6.2-4.057Z" fill="#fff"/>
          <path id="Path_221" data-name="Path 221" d="M173.984,727.863l4.667.9L-20.794,1191.308l-5.69-3.724Z" fill="#fff"/>
          <path id="Path_222" data-name="Path 222" d="M157,724.6l4.544.873L-41.558,1177.72l-5.475-3.583Z" fill="#fff"/>
          <path id="Path_223" data-name="Path 223" d="M121.909,717.86l4.294.825L-83.7,1150.142l-5.05-3.305Z" fill="#fff"/>
          <path id="Path_224" data-name="Path 224" d="M106.275,714.857l4.185.8-212.6,422.412-4.87-3.187Z" fill="#fff"/>
          <path id="Path_225" data-name="Path 225" d="M73.911,708.639l3.964.761L-139.7,1113.494l-4.512-2.953Z" fill="#fff"/>
          <path id="Path_226" data-name="Path 226" d="M59.47,705.865l3.867.743L-156.187,1102.7l-4.36-2.853Z" fill="#fff"/>
          <path id="Path_227" data-name="Path 227" d="M57.631,709.159l1.84-3.294,466.666,89.647-.454,5.03Z" fill="#fff"/>
          <path id="Path_228" data-name="Path 228" d="M50.718,721.537l1.884-3.375,471.833,96.194-.47,5.2Z" fill="#fff"/>
          <path id="Path_229" data-name="Path 229" d="M35.237,749.26l1.987-3.558,483.34,111.53-.506,5.609Z" fill="#fff"/>
          <path id="Path_230" data-name="Path 230" d="M27.765,762.64l2.038-3.649L518.665,878.262l-.525,5.814Z" fill="#fff"/>
          <path id="Path_231" data-name="Path 231" d="M11.005,792.651l2.153-3.856L514.331,926.261l-.568,6.3Z" fill="#fff"/>
          <path id="Path_232" data-name="Path 232" d="M2.9,807.159l2.21-3.958L512.2,949.883l-.59,6.539Z" fill="#fff"/>
          <path id="Path_233" data-name="Path 233" d="M-15.3,839.755l2.341-4.192,520.272,168.419-.642,7.115Z" fill="#fff"/>
          <path id="Path_234" data-name="Path 234" d="M-24.115,855.54l2.406-4.308L504.9,1030.7l-.669,7.409Z" fill="#fff"/>
          <path id="Path_235" data-name="Path 235" d="M-43.957,891.071-41.4,886.5l540.755,205.652-.732,8.106Z" fill="#fff"/>
          <path id="Path_236" data-name="Path 236" d="M-53.584,908.309l2.628-4.707L496.6,1122.623l-.764,8.464Z" fill="#fff"/>
          <path id="Path_237" data-name="Path 237" d="M-75.3,947.189l2.8-5.012,562.742,250.837-.842,9.32Z" fill="#fff"/>
          <path id="Path_238" data-name="Path 238" d="M-85.851,966.091l2.884-5.164,570.045,267.165-.881,9.762Z" fill="#fff"/>
          <path id="Path_239" data-name="Path 239" d="M-109.711,1008.816l3.08-5.515,586.355,306.237-.978,10.828Z" fill="#fff"/>
          <path id="Path_240" data-name="Path 240" d="M-121.337,1029.635l3.178-5.69,594.2,326.4-1.028,11.383Z" fill="#fff"/>
          <path id="Path_241" data-name="Path 241" d="M-147.679,1076.806l3.405-6.1,611.706,374.964-1.15,12.734Z" fill="#fff"/>
          <path id="Path_242" data-name="Path 242" d="M-160.547,1099.848l3.519-6.3L463.091,1493.74l-1.214,13.444Z" fill="#fff"/>
        </g>
      </g>
      <g id="Path_244" data-name="Path 244" fill="none" stroke-miterlimit="10">
        <path d="M163.335,902.944,207.1,965.168c11.723,16.665,35.019,22.152,51.516,11.679,13.293-8.44,17.465-24.341,11.71-38.483,48.723,15.233,97.77-6.866,106.4-48.385l.206-.995c8.155-39.229-24.183-77.9-69.1-88.031l-136.47-30.795L121.292,888.991Z" stroke="none"/>
        <path d="M 239.8109130859375 982.18408203125 C 246.3871002197266 982.184326171875 252.9088897705078 980.4713745117188 258.6179809570312 976.8469848632812 C 271.9109802246094 968.406982421875 276.0830078125 952.5059814453125 270.3280029296875 938.364013671875 C 280.8077087402344 941.6404418945312 291.3073120117188 943.1903076171875 301.41162109375 943.1903076171875 C 338.2849426269531 943.1903076171875 369.9544067382812 922.5677490234375 376.72900390625 889.97900390625 L 376.9349975585938 888.9840087890625 C 385.0899963378906 849.7550048828125 352.7520446777344 811.0889892578125 307.8340454101562 800.9530029296875 L 171.3639984130859 770.1580200195312 L 121.2919921875 888.9910278320312 L 163.3349914550781 902.9439697265625 L 207.1019897460938 965.1680297851562 C 214.7680206298828 976.0657958984375 227.3845520019531 982.1835327148438 239.8109130859375 982.18408203125 M 239.8125 987.18408203125 L 239.8125 982.18408203125 L 239.8119506835938 987.18408203125 C 232.8241271972656 987.1837158203125 225.7656707763672 985.4658203125 219.3983154296875 982.2159423828125 C 216.1808624267578 980.5737915039062 213.1681823730469 978.5562133789062 210.4439086914062 976.2191772460938 C 207.6306762695312 973.8057861328125 205.1304016113281 971.0555419921875 203.0124969482422 968.0447998046875 L 160.1943817138672 907.1698608398438 L 114.5844039916992 892.0330810546875 L 168.3816375732422 764.3593139648438 L 308.9346313476562 796.0756225585938 C 314.7310791015625 797.3836669921875 320.4456787109375 799.177001953125 325.919677734375 801.4059448242188 C 331.2814636230469 803.589111328125 336.4710998535156 806.2136840820312 341.3443908691406 809.2068481445312 C 346.1622314453125 812.1658325195312 350.7160339355469 815.512451171875 354.8793029785156 819.1536254882812 C 359.0391845703125 822.7919311523438 362.8446655273438 826.7553100585938 366.1900024414062 830.9336547851562 C 369.5698547363281 835.155029296875 372.5091857910156 839.6324462890625 374.9263610839844 844.241455078125 C 377.3934020996094 848.9454956054688 379.3399963378906 853.8319091796875 380.7120971679688 858.764892578125 C 382.1231384277344 863.8379516601562 382.9418640136719 869.0162353515625 383.1455993652344 874.1561279296875 C 383.3558654785156 879.460693359375 382.9133605957031 884.7918701171875 381.8303527832031 890.0016479492188 L 381.6251831054688 890.99267578125 C 379.8326416015625 899.615478515625 376.3936157226562 907.6516723632812 371.4028625488281 914.8820190429688 C 366.6142578125 921.8193359375 360.4890441894531 927.888427734375 353.1973266601562 932.9205932617188 C 346.0687561035156 937.840087890625 337.9952697753906 941.653076171875 329.2010498046875 944.2535400390625 C 320.3671875 946.8657836914062 311.0174560546875 948.1903076171875 301.41162109375 948.1903076171875 C 293.4171142578125 948.1903076171875 285.384033203125 947.2736206054688 277.4332885742188 945.4591674804688 C 277.6025390625 946.5897827148438 277.7206420898438 947.7260131835938 277.7870483398438 948.8653564453125 C 278.0315246582031 953.0602416992188 277.5700988769531 957.1918334960938 276.41552734375 961.1453247070312 C 275.2387084960938 965.1749267578125 273.3720397949219 968.9141235351562 270.8672180175781 972.2590942382812 C 268.278076171875 975.7166748046875 265.0585327148438 978.6803588867188 261.2980346679688 981.0679931640625 C 254.9954528808594 985.0692138671875 247.5659484863281 987.18408203125 239.8125 987.18408203125 Z" stroke="none" fill="#fff"/>
      </g>
    </g>
    <g id="Group_77" data-name="Group 77">
      <path id="Path_245" data-name="Path 245" d="M523.314,889.886l-2.105,36.2s-39.487,3.232-37.357,3.232h38l2.094,35.857,2.554-35.534,37.237-2.108-36.476-2.416Z" fill="#d23d44"/>
      <path id="Path_246" data-name="Path 246" d="M249.27,596.316,247.433,620.2l-35.362,4.133,37.2,2.3,2.97,37.2,3-36.28,35.383-5.971s-34.924-.918-35.383-2.3S249.27,596.316,249.27,596.316Z" fill="#d23d44"/>
      <path id="Path_247" data-name="Path 247" d="M550.333,699.243l1.364-17.727,26.249-3.068-27.613-1.7-2.205-27.613L545.9,676.062l-26.265,4.432s25.924.681,26.265,1.7S550.333,699.243,550.333,699.243Z" fill="#fff"/>
    </g>
    <g id="Group_78" data-name="Group 78">
      <ellipse id="Ellipse_21" data-name="Ellipse 21" cx="179.258" cy="78.526" rx="179.258" ry="78.526" transform="translate(197.982 748.945)" fill="#d23d44"/>
      <path id="Path_248" data-name="Path 248" d="M517.478,816.109c.085-.165.158-.307.2-.4,1.049-2.1-3.995-101.278-3.995-101.278l-.144,0c-3.2-25.868-62.38-46.487-134.921-46.487-67.2,0-122.921,17.693-133.316,40.861H245.3l-4.968,14.39-3.917,91.468.418,1.013a21.732,21.732,0,0,0-.418,4.234c0,10.91,8.257,21.07,22.474,29.6,3.832-5.3,12.454,4.69,16.623,4.074,6.822-1.007,7.309,1.218,7.309,1.218,1.574-2.1,45.071,9.458,45.071,9.458s29.4-5.92,29.533,9.693q9.656.525,19.7.535c77.709,0,140.706-24.434,140.706-54.575A21.738,21.738,0,0,0,517.478,816.109Z" fill="#d6b967"/>
      <ellipse id="Ellipse_22" data-name="Ellipse 22" cx="140.584" cy="55.171" rx="140.584" ry="55.171" transform="translate(236.656 764.122)" fill="#d6b967"/>
      <ellipse id="Ellipse_23" data-name="Ellipse 23" cx="137.279" cy="57.137" rx="137.279" ry="57.137" transform="translate(240.329 662.931)" fill="#fff"/>
      <path id="Path_249" data-name="Path 249" d="M339.645,714.054c0-6.9,18.322-12.486,40.923-12.486s40.924,5.59,40.924,12.486-18.322,12.487-40.924,12.487c-18.97,0-34.926-3.939-39.562-9.282A4.9,4.9,0,0,1,339.645,714.054Z" fill="#826e3b"/>
    </g>
    <g id="Group_79" data-name="Group 79">
      <path id="Path_250" data-name="Path 250" d="M342.433,602.644c.695-.9,1.513-1.769,2.388-2.7l1.075-1.157a22.445,22.445,0,0,0,5.152-8.857,17.619,17.619,0,0,0-2-14.016,34.7,34.7,0,0,0-4.142-5.284l-.093-.1c-.817-.917-1.661-1.865-2.386-2.8-4.968-6.386-5.85-13.276-2.551-19.926,1.317-2.653,3.709-5.282,6.027-7.832a22.335,22.335,0,0,0,5.17-8.942,16.939,16.939,0,0,0,.594-3.437h-5.651a14.168,14.168,0,0,1-.467,2.6,18.938,18.938,0,0,1-4.388,7.56c-2.486,2.731-5.056,5.556-6.593,8.65-3.82,7.7-2.78,15.985,2.926,23.323.8,1.035,1.712,2.057,2.641,3.1a31.61,31.61,0,0,1,3.717,4.7,14.345,14.345,0,0,1,1.673,11.555,18.941,18.941,0,0,1-4.369,7.479l-1.066,1.15c-.891.951-1.812,1.935-2.6,2.945a27.587,27.587,0,0,0-2.917,4.547c-3.837,7.692-2.8,15.977,2.918,23.329.807,1.04,1.721,2.066,2.645,3.1a31.836,31.836,0,0,1,3.713,4.7,14.358,14.358,0,0,1,1.7,11.471c-.038.135-.089.267-.14.4-.042.112-.084.225-.123.338l-.448,1.321h5.84l.217-.707c.017-.055.039-.11.059-.165.043-.112.084-.223.118-.342a17.622,17.622,0,0,0-2.024-13.926,35.13,35.13,0,0,0-4.145-5.286l-.123-.139c-.8-.9-1.636-1.84-2.352-2.761-4.975-6.4-5.856-13.288-2.548-19.926A24.112,24.112,0,0,1,342.433,602.644Z" fill="#fff"/>
      <path id="Path_251" data-name="Path 251" d="M431.412,602.95c.68-.88,1.489-1.741,2.359-2.666l1.079-1.16a22.922,22.922,0,0,0,5.262-9.057,18.105,18.105,0,0,0-2.048-14.405,34.888,34.888,0,0,0-4.2-5.364l-.074-.084c-.816-.918-1.661-1.867-2.384-2.795-4.84-6.224-5.7-12.931-2.5-19.4,1.285-2.587,3.651-5.189,5.951-7.718a22.836,22.836,0,0,0,5.28-9.142,17.525,17.525,0,0,0,.616-3.573H434.1a13.643,13.643,0,0,1-.446,2.464,18.44,18.44,0,0,1-4.275,7.358c-2.509,2.756-5.1,5.606-6.672,8.765-3.909,7.883-2.85,16.353,2.979,23.85.819,1.058,1.743,2.095,2.67,3.135a31.367,31.367,0,0,1,3.652,4.615,13.866,13.866,0,0,1,1.624,11.164,18.444,18.444,0,0,1-4.254,7.277l-1.05,1.131c-.9.964-1.838,1.963-2.641,3a27.907,27.907,0,0,0-2.971,4.63c-3.927,7.874-2.871,16.348,2.971,23.858.823,1.062,1.751,2.1,2.682,3.148a31.388,31.388,0,0,1,3.639,4.6,13.868,13.868,0,0,1,1.647,11.081c-.034.12-.081.237-.125.355s-.09.238-.13.358l-.674,1.982h6.908l.325-1.06.047-.129c.049-.129.1-.258.134-.39a18.114,18.114,0,0,0-2.074-14.314,35.438,35.438,0,0,0-4.2-5.366l-.085-.1c-.812-.913-1.652-1.857-2.369-2.779-4.847-6.235-5.711-12.943-2.5-19.394A23.5,23.5,0,0,1,431.412,602.95Z" fill="#fff"/>
      <path id="Path_252" data-name="Path 252" d="M385.934,602.032c.726-.938,1.585-1.852,2.447-2.769l1.067-1.149a21.436,21.436,0,0,0,4.93-8.459,16.511,16.511,0,0,0-1.9-13.237,34.018,34.018,0,0,0-4.025-5.124c-.872-.979-1.748-1.959-2.522-2.954-5.166-6.641-6.12-14.005-2.657-20.985,1.381-2.78,3.823-5.463,6.184-8.06a21.342,21.342,0,0,0,4.946-8.539,16.172,16.172,0,0,0,.556-3.167h-3.645a15.035,15.035,0,0,1-.51,2.87,19.926,19.926,0,0,1-4.611,7.962c-2.439,2.681-4.963,5.454-6.436,8.421-3.672,7.4-2.659,15.22,2.82,22.266.8,1.026,1.7,2.038,2.6,3.047a32.392,32.392,0,0,1,3.833,4.862,15.376,15.376,0,0,1,1.772,12.336,19.939,19.939,0,0,1-4.6,7.884l-1.048,1.13c-.9.959-1.8,1.916-2.558,2.9a26.378,26.378,0,0,0-2.813,4.381c-3.686,7.389-2.67,15.22,2.813,22.27.8,1.025,1.7,2.035,2.6,3.043a32.536,32.536,0,0,1,3.835,4.866,15.412,15.412,0,0,1,1.8,12.252c-.075.263-.189.522-.278.783h3.705c.05-.162.125-.321.171-.485a16.527,16.527,0,0,0-1.924-13.149,34.022,34.022,0,0,0-4.029-5.127c-.87-.979-1.746-1.957-2.518-2.952-5.166-6.645-6.123-14.021-2.653-20.986A24.993,24.993,0,0,1,385.934,602.032Z" fill="#fff"/>
    </g>
  </g>
</svg>
