<svg id="bbbb9396-92de-4c7f-b622-8c4a9db899a6" data-name="Layer 1" xmlns="http://www.w3.org/2000/svg" xmlns:xlink="http://www.w3.org/1999/xlink" viewBox="0 0 584.34 614.11"><defs><style>.b7dd3671-1bb2-4ed8-ba07-cd9b53167b8b,.b97fe586-ebc1-4962-a8fe-cbdcbdb2b174{fill:none;}.a04c84f4-e3e6-4e01-8bae-e6ef5d13fbf2{clip-path:url(#b2131f85-ef36-452e-9be2-25cb03dbdc15);}.ac203d18-ba42-4a8b-8575-867694ecb70e{fill:#d43d44;}.b0a666f9-ef09-44c3-a454-ae9d986adaee{fill:#1d0036;}.ea0ee903-2e76-4264-ad7e-0a73ba1019ee{fill:#fff;}.abe2a867-c858-4dbd-9c9c-4edd6c3217d5{fill:#ddb985;}.b00f9705-05fb-4085-9973-fa324bd7a2fa{fill:#9dd640;}.b7dd3671-1bb2-4ed8-ba07-cd9b53167b8b{stroke:#1d0036;stroke-linecap:round;stroke-miterlimit:10;stroke-width:1.76px;}.b7efac87-2dca-4800-a293-0a01855fd02f{fill:#eff2f7;}</style><clipPath id="b2131f85-ef36-452e-9be2-25cb03dbdc15"><rect class="b97fe586-ebc1-4962-a8fe-cbdcbdb2b174" x="-80.32" y="-646.97" width="1280" height="5865.38"/></clipPath></defs><title>whats_new</title><g class="a04c84f4-e3e6-4e01-8bae-e6ef5d13fbf2"><path class="ac203d18-ba42-4a8b-8575-867694ecb70e" d="M423.57,550.71H123.5V0H378.73a44.84,44.84,0,0,1,44.84,44.84Z"/><path class="b0a666f9-ef09-44c3-a454-ae9d986adaee" d="M75,399.3c-27.31-37.76-44.32-89.41-44.32-145.73,0-61.21,49.18-110.28,105.53-110.28,48.55,0,66.73,33.38,69.95,97.65S238,323.23,238,323.23Z"/><path class="ea0ee903-2e76-4264-ad7e-0a73ba1019ee" d="M257.84,38.48A4.92,4.92,0,0,0,256,42.75a5,5,0,0,0,6.38-5.17,5,5,0,0,0-4.56.9"/><path class="ea0ee903-2e76-4264-ad7e-0a73ba1019ee" d="M315.68,86a5,5,0,0,0-4.21,2,5,5,0,0,0,8.2.41,4.93,4.93,0,0,0-4-2.37"/><path class="ea0ee903-2e76-4264-ad7e-0a73ba1019ee" d="M301.52,20.16a5,5,0,0,0-4.21,2,5,5,0,0,0,8.2.41,4.92,4.92,0,0,0-4-2.38"/><path class="ea0ee903-2e76-4264-ad7e-0a73ba1019ee" d="M377.49,104.68a4.94,4.94,0,0,0,1.08,4.52,5,5,0,0,0,2-8,4.93,4.93,0,0,0-3.12,3.43"/><path class="ea0ee903-2e76-4264-ad7e-0a73ba1019ee" d="M351,67.07a5,5,0,0,0-3.3,3.28A5,5,0,0,0,355.6,68a5,5,0,0,0-4.56-.9"/><path class="ea0ee903-2e76-4264-ad7e-0a73ba1019ee" d="M401.23,187.74a5,5,0,0,0-4.63-.45,5,5,0,0,0,6.85,4.53,5,5,0,0,0-2.22-4.08"/><path class="ea0ee903-2e76-4264-ad7e-0a73ba1019ee" d="M396.21,66.14a5,5,0,0,0-4.63-.45,5,5,0,0,0,6.85,4.53,5,5,0,0,0-2.22-4.08"/><path class="ea0ee903-2e76-4264-ad7e-0a73ba1019ee" d="M383.14,26a5,5,0,0,0-4.33-1.69,5,5,0,0,0,5.37,6.22,4.94,4.94,0,0,0-1-4.53"/><path class="ea0ee903-2e76-4264-ad7e-0a73ba1019ee" d="M343.72,31.8a5,5,0,0,0-4,2.32,5,5,0,0,0,8.21-.29,5,5,0,0,0-4.18-2"/><path class="ea0ee903-2e76-4264-ad7e-0a73ba1019ee" d="M228.63,19.25a5,5,0,0,0-.52-4.62,5,5,0,0,0-3,7.65,5,5,0,0,0,3.52-3"/><path class="ea0ee903-2e76-4264-ad7e-0a73ba1019ee" d="M173.05,24.22a4.94,4.94,0,0,0-3.1-3.46,5,5,0,0,0,2,8,5,5,0,0,0,1.12-4.51"/><path class="ea0ee903-2e76-4264-ad7e-0a73ba1019ee" d="M357.42,140.69a4.93,4.93,0,0,0,1.89-4.24,5,5,0,0,0-6.46,5.07,4.94,4.94,0,0,0,4.57-.83"/><path class="ea0ee903-2e76-4264-ad7e-0a73ba1019ee" d="M317.87,178.48a5,5,0,0,0,4.61-.59,5,5,0,0,0-7.68-2.9,5,5,0,0,0,3.07,3.49"/><path class="ea0ee903-2e76-4264-ad7e-0a73ba1019ee" d="M286.16,68.86a5,5,0,0,0,3.4,3.17,5,5,0,0,0-2.68-7.76,5,5,0,0,0-.72,4.59"/><path class="ea0ee903-2e76-4264-ad7e-0a73ba1019ee" d="M317.67,131.44a5,5,0,0,0,2.41,4,5,5,0,0,0-.48-8.2,5,5,0,0,0-1.93,4.22"/><path class="ea0ee903-2e76-4264-ad7e-0a73ba1019ee" d="M280.49,116.29a4.92,4.92,0,0,0-4.57.81,5,5,0,0,0,7.81,2.52,4.93,4.93,0,0,0-3.24-3.33"/><path class="ea0ee903-2e76-4264-ad7e-0a73ba1019ee" d="M365.72,189.79a5,5,0,0,0-1.6-4.36,5,5,0,0,0-1.11,8.13,4.92,4.92,0,0,0,2.71-3.77"/><path class="ea0ee903-2e76-4264-ad7e-0a73ba1019ee" d="M395.3,146.71a5,5,0,0,0,4.6.6,5,5,0,0,0-6.69-4.76,5,5,0,0,0,2.09,4.16"/><polygon class="abe2a867-c858-4dbd-9c9c-4edd6c3217d5" points="251.85 148.3 87.07 203.81 69.73 359.91 325.57 245.43 251.85 148.3"/><polygon class="b00f9705-05fb-4085-9973-fa324bd7a2fa" points="409.39 446.5 438.09 459.62 428.28 469.17 453.54 491.24 440.12 495.11 458.19 519.18 445.27 520.13 456.54 549.74 444.12 549.64 445.69 582.32 433.85 578.14 433.96 614.11 402.38 596.87 400.41 609.28 372.44 592.32 366.6 603.28 345.94 579.26 338.95 590.17 326.4 562.81 316.6 572.76 309.24 540.04 296.18 544.11 298.31 512.63 284.8 513.06 298.26 485.39 286.29 482.22 304.36 455.29 292.56 452.94 316.88 417.45 359.66 412.99 356.11 424.48 388.39 421.43 385.47 433.47 416.21 434.83 409.39 446.5"/><polygon class="b00f9705-05fb-4085-9973-fa324bd7a2fa" points="407.19 384.63 435.15 370.01 436.69 383.61 469.6 377.19 464.43 390.17 494.52 390.65 487.35 401.43 517.66 410.69 509.97 420.44 536.74 439.23 526.17 446.03 554.66 468 521.68 482.37 530.27 491.54 499.72 503.24 504.81 514.57 473.16 516.16 477.49 528.37 448.18 521.5 450.04 535.35 419.68 521.1 414.88 533.92 391.32 512.92 383.37 523.86 369.77 496.26 359.92 503.77 349.73 472.99 340.64 480.87 327.52 439.9 350.23 403.37 357.13 413.22 374.51 385.85 382.23 395.54 402.15 372.09 407.19 384.63"/><polygon class="ea0ee903-2e76-4264-ad7e-0a73ba1019ee" points="584.34 328.07 584.34 365.55 208.97 523.58 0 412.14 0 374.66 584.34 328.07"/><polygon class="b0a666f9-ef09-44c3-a454-ae9d986adaee" points="375.36 216.63 584.34 328.07 208.97 486.11 0 374.66 375.36 216.63"/><path class="ea0ee903-2e76-4264-ad7e-0a73ba1019ee" d="M162.62,423.58l-5.41-1.17a36.05,36.05,0,0,1-10.28-3.94L116.43,401,106.59,396a88.75,88.75,0,0,1-21.21-12.35,3,3,0,0,0-3.23-.3,1.17,1.17,0,0,0-.17,1.95,87.67,87.67,0,0,0,16.72,10.4.54.54,0,0,1,0,1l-.25.14a2.84,2.84,0,0,1-2.54.06,86.92,86.92,0,0,1-16.28-10.15,3,3,0,0,0-3.23-.3,1.17,1.17,0,0,0-.18,1.95A87.21,87.21,0,0,0,93,398.71a.54.54,0,0,1,0,1l-.25.14a2.81,2.81,0,0,1-2.54.05,87.11,87.11,0,0,1-16.28-10.14,3,3,0,0,0-3.23-.3,1.18,1.18,0,0,0-.18,1.95A88.34,88.34,0,0,0,90.12,403.1a8.19,8.19,0,0,0,3.59.66l13.83-.48a14.47,14.47,0,0,1,9.15,2.87l20.08,15a36,36,0,0,0,14.78,6.54l2.36.45a12.25,12.25,0,0,0,8-1.16l1.13-.6a1.52,1.52,0,0,0-.38-2.83"/><path class="ac203d18-ba42-4a8b-8575-867694ecb70e" d="M405,350.86a3.37,3.37,0,0,1,0,4.79l-16.85,16.86a3.39,3.39,0,1,0-4.8-4.79l16.86-16.86a3.39,3.39,0,0,1,4.79,0"/><path class="ea0ee903-2e76-4264-ad7e-0a73ba1019ee" d="M388.12,367.72a3.39,3.39,0,0,1,0,4.79l-27.9,27.89a3.39,3.39,0,0,1-4.79-4.79l27.89-27.89a3.39,3.39,0,0,1,4.8,0"/><path class="ea0ee903-2e76-4264-ad7e-0a73ba1019ee" d="M398.17,352.87l-5,5-.9-.9a1.42,1.42,0,0,0-2,0l-13.43,13.44a.86.86,0,0,1-1.21-1.21l17.15-17.15a3.25,3.25,0,0,1,4.58,0Z"/><path class="b00f9705-05fb-4085-9973-fa324bd7a2fa" d="M512.64,308.29c0,6-8.64,10.81-19.29,10.81s-19.29-4.84-19.29-10.81,8.64-10.82,19.29-10.82,19.29,4.85,19.29,10.82"/><polygon class="b00f9705-05fb-4085-9973-fa324bd7a2fa" points="516.59 287.62 470.11 287.62 474.06 308.29 512.63 308.29 516.59 287.62"/><path class="ea0ee903-2e76-4264-ad7e-0a73ba1019ee" d="M520.84,287.62c0,8.52-12.31,15.42-27.49,15.42s-27.49-6.9-27.49-15.42,12.31-15.41,27.49-15.41,27.49,6.9,27.49,15.41"/><rect class="ea0ee903-2e76-4264-ad7e-0a73ba1019ee" x="465.86" y="279.49" width="54.98" height="8.13"/><line class="b7dd3671-1bb2-4ed8-ba07-cd9b53167b8b" x1="473.99" y1="248.4" x2="471.86" y2="245.75"/><line class="b7dd3671-1bb2-4ed8-ba07-cd9b53167b8b" x1="499.29" y1="245.81" x2="502.63" y2="243.27"/><path class="ac203d18-ba42-4a8b-8575-867694ecb70e" d="M493.35,292.11c-13.39,0-24.7-5.78-24.7-12.62s11.31-12.62,24.7-12.62S518,272.65,518,279.49s-11.31,12.62-24.69,12.62"/><path class="ea0ee903-2e76-4264-ad7e-0a73ba1019ee" d="M493.35,269.66c13.37,0,21.9,5.82,21.9,9.83s-8.53,9.82-21.9,9.82-21.9-5.81-21.9-9.82,8.53-9.83,21.9-9.83m0-5.58c-15.18,0-27.49,6.9-27.49,15.41s12.31,15.41,27.49,15.41,27.49-6.9,27.49-15.41-12.31-15.41-27.49-15.41"/><line class="b7dd3671-1bb2-4ed8-ba07-cd9b53167b8b" x1="483.27" y1="271.11" x2="479.9" y2="269.42"/><path class="b00f9705-05fb-4085-9973-fa324bd7a2fa" d="M504.92,279.49c0,3.58-5.18,6.49-11.57,6.49s-11.58-2.91-11.58-6.49S487,273,493.35,273s11.57,2.91,11.57,6.49"/><path class="b00f9705-05fb-4085-9973-fa324bd7a2fa" d="M493.35,241.5h0a11.58,11.58,0,0,0-11.58,11.58v26.41h23.15V253.08a11.57,11.57,0,0,0-11.57-11.58"/><path class="b00f9705-05fb-4085-9973-fa324bd7a2fa" d="M484.31,266.31l-11.75-7.95a6.31,6.31,0,0,1,7.08-10.45l11.74,8a6.31,6.31,0,0,1-7.07,10.45"/><path class="b00f9705-05fb-4085-9973-fa324bd7a2fa" d="M516.21,266.74l-13.54,9.45a6.31,6.31,0,0,1-7.22-10.34L509,256.4a6.31,6.31,0,1,1,7.23,10.34"/><line class="b7dd3671-1bb2-4ed8-ba07-cd9b53167b8b" x1="503.41" y1="251.11" x2="507.33" y2="249.96"/><line class="b7dd3671-1bb2-4ed8-ba07-cd9b53167b8b" x1="488.04" y1="245.9" x2="485.07" y2="242.71"/><line class="b7dd3671-1bb2-4ed8-ba07-cd9b53167b8b" x1="494.86" y1="243.58" x2="496.37" y2="239.66"/><line class="b7dd3671-1bb2-4ed8-ba07-cd9b53167b8b" x1="494.89" y1="252.17" x2="497.74" y2="255.02"/><line class="b7dd3671-1bb2-4ed8-ba07-cd9b53167b8b" x1="487.52" y1="253.9" x2="484.09" y2="256.75"/><line class="b7dd3671-1bb2-4ed8-ba07-cd9b53167b8b" x1="491.9" y1="262.22" x2="489.16" y2="265.04"/><line class="b7dd3671-1bb2-4ed8-ba07-cd9b53167b8b" x1="499.29" y1="266.92" x2="502.14" y2="268.86"/><line class="b7dd3671-1bb2-4ed8-ba07-cd9b53167b8b" x1="512.2" y1="266.23" x2="514.94" y2="268.86"/><line class="b7dd3671-1bb2-4ed8-ba07-cd9b53167b8b" x1="509.29" y1="258.79" x2="508.7" y2="255.24"/><line class="b7dd3671-1bb2-4ed8-ba07-cd9b53167b8b" x1="515.4" y1="259.49" x2="518.08" y2="257.71"/><line class="b7dd3671-1bb2-4ed8-ba07-cd9b53167b8b" x1="489.48" y1="272.27" x2="486.24" y2="272.93"/><line class="b7dd3671-1bb2-4ed8-ba07-cd9b53167b8b" x1="497.67" y1="277.08" x2="501.35" y2="278.84"/><line class="b7dd3671-1bb2-4ed8-ba07-cd9b53167b8b" x1="476.86" y1="256.49" x2="473.7" y2="259.21"/><line class="b7dd3671-1bb2-4ed8-ba07-cd9b53167b8b" x1="471.86" y1="252.74" x2="468.04" y2="253.39"/><line class="b7dd3671-1bb2-4ed8-ba07-cd9b53167b8b" x1="477.67" y1="248.69" x2="478.26" y2="246.19"/><line class="b7dd3671-1bb2-4ed8-ba07-cd9b53167b8b" x1="490.97" y1="279.38" x2="488.1" y2="281.6"/><path class="b00f9705-05fb-4085-9973-fa324bd7a2fa" d="M232.53,417.64c0,10.61,16.14,19.21,36.06,19.21s36.06-8.6,36.06-19.21-16.15-19.21-36.06-19.21-36.06,8.6-36.06,19.21"/><path class="ea0ee903-2e76-4264-ad7e-0a73ba1019ee" d="M292.4,390.37c2.48,0,4.57,2.9,4.57,6.34s-2.09,6.34-4.57,6.34-4.57-2.91-4.57-6.34,2.09-6.34,4.57-6.34m0-5.3c-5.45,0-9.87,5.21-9.87,11.64s4.42,11.63,9.87,11.63,9.86-5.21,9.86-11.63-4.41-11.64-9.86-11.64"/><path class="ea0ee903-2e76-4264-ad7e-0a73ba1019ee" d="M268.59,376.41c12.85,0,23.27,5.85,23.27,13v9.41a23.27,23.27,0,0,1-46.54,0v-9.41c0-7.2,10.42-13,23.27-13"/><path class="b0a666f9-ef09-44c3-a454-ae9d986adaee" d="M268.59,400.15c-11.33,0-20.91-4.9-20.91-10.69s9.58-10.68,20.91-10.68,20.9,4.89,20.9,10.68-9.57,10.69-20.9,10.69"/><path class="ea0ee903-2e76-4264-ad7e-0a73ba1019ee" d="M268.59,381.15c11.31,0,18.54,4.92,18.54,8.31s-7.23,8.32-18.54,8.32-18.54-4.93-18.54-8.32,7.22-8.31,18.54-8.31m0-4.74c-12.85,0-23.27,5.85-23.27,13s10.42,13.05,23.27,13.05,23.27-5.84,23.27-13.05-10.42-13-23.27-13"/><path class="ea0ee903-2e76-4264-ad7e-0a73ba1019ee" d="M255.05,417.64c0,4.19,6.06,7.59,13.54,7.59s13.53-3.4,13.53-7.59-6.06-7.59-13.53-7.59-13.54,3.39-13.54,7.59"/><path class="ea0ee903-2e76-4264-ad7e-0a73ba1019ee" d="M206.39,333.44a3.73,3.73,0,0,1,2.67,3.57v33a3.53,3.53,0,0,1-2.15,3.25L157.83,393.9a2.35,2.35,0,0,1-3.26-2.17v-68.4a3.71,3.71,0,0,1,4.74-3.56Z"/><path class="ea0ee903-2e76-4264-ad7e-0a73ba1019ee" d="M125,381.5c0,16.1,23.27,29.15,52,29.15s52-13,52-29.15-23.27-29.14-52-29.14-52,13.05-52,29.14"/><polygon class="ac203d18-ba42-4a8b-8575-867694ecb70e" points="205.43 351.34 154.57 372.75 154.57 361.49 205.43 340.08 205.43 351.34"/><polygon class="ea0ee903-2e76-4264-ad7e-0a73ba1019ee" points="205.43 362.6 154.57 384.01 154.57 372.75 205.43 351.34 205.43 362.6"/><path class="ac203d18-ba42-4a8b-8575-867694ecb70e" d="M205.43,373.86l-47.6,20a2.35,2.35,0,0,1-3.26-2.17V384l50.86-21.41Z"/><path class="b00f9705-05fb-4085-9973-fa324bd7a2fa" d="M183.25,312.91l-.16,0,0-.13a5.88,5.88,0,0,0-1.21-5.11,5.91,5.91,0,0,0-3.35,4.05.5.5,0,0,0,0,.12l-.14-.09a5.88,5.88,0,0,0-5.23-.42,5.88,5.88,0,0,0,6.41,5.25c.06.09.13.17.19.25l.28-.14a5.82,5.82,0,0,0,3.59.87,5.92,5.92,0,0,0,4.49-2.73,5.88,5.88,0,0,0-4.88-1.94"/><path class="ac203d18-ba42-4a8b-8575-867694ecb70e" d="M180.1,315.46c-4.7-1.1-9.27,1.3-10.62,7.07s1.68,13.38,5.62,14.3,10-4.55,11.37-10.32-1.68-9.95-6.37-11.05"/><polygon class="ea0ee903-2e76-4264-ad7e-0a73ba1019ee" points="177.01 113 177.01 193.44 197.41 209.4 210.97 173.89 198.35 143.81 188.65 131.93 210 144.3 210 120.28 222.61 111.79 211.94 102.09 227.71 86.56 227.71 73.22 189.62 70.07 166.33 81.71 165.36 104.76 177.01 113"/><path class="b0a666f9-ef09-44c3-a454-ae9d986adaee" d="M179.19,117.77v-14c-4.37-.12-6.31-5-4.12-9.71s10.06-5,12-1.82h4.13C191.2,81.35,202,78.8,210,78.8s12.61,3.28,17.71,3.28,8.81-4.17,8.81-16.14S229.73,42.5,224.23,42.5c-9.22,0-6.51,8.68-27.82,12.61C171.83,59.64,156,68.69,156,91c0,13.91,7,26.76,23.21,26.76"/><polygon class="ea0ee903-2e76-4264-ad7e-0a73ba1019ee" points="161.83 188.4 217.79 168.14 205.25 230.85 161.83 188.4"/><path class="ea0ee903-2e76-4264-ad7e-0a73ba1019ee" d="M171.2,264.51l65.86,13.66a11.39,11.39,0,0,1,7.76,5.83l13.1,24.74-20,2.6-28.62-13-12.14-13.88-33,3.47Z"/><path class="ea0ee903-2e76-4264-ad7e-0a73ba1019ee" d="M271.78,233.08,311.68,214l22.75,2a11.41,11.41,0,0,1,9.45,6.79l9.43,21.55-14.93.16-36.24-8.83-13,3.47Z"/><polygon class="b00f9705-05fb-4085-9973-fa324bd7a2fa" points="430.76 307.91 224.7 317.71 224.7 327.13 305.33 370.13 430.76 317.32 430.76 307.91"/><polygon class="b7efac87-2dca-4800-a293-0a01855fd02f" points="430.76 307.91 305.33 360.71 305.33 370.13 430.76 317.32 430.76 307.91"/><polygon class="ea0ee903-2e76-4264-ad7e-0a73ba1019ee" points="305.33 360.71 224.7 317.71 350.13 264.91 430.76 307.91 305.33 360.71"/><polygon class="ea0ee903-2e76-4264-ad7e-0a73ba1019ee" points="439.55 312.6 314.13 365.4 314.13 267.15 439.55 214.35 439.55 312.6"/><polygon class="b00f9705-05fb-4085-9973-fa324bd7a2fa" points="305.33 360.71 314.13 365.4 314.13 267.15 305.33 262.46 305.33 360.71"/><polygon class="ac203d18-ba42-4a8b-8575-867694ecb70e" points="430.76 209.66 439.55 214.35 314.13 267.15 305.33 262.46 430.76 209.66"/><path class="b00f9705-05fb-4085-9973-fa324bd7a2fa" d="M390.44,275l-.19,0,.09-.13a7.2,7.2,0,0,0,.5-6.37,7.15,7.15,0,0,0-5.39,3.43l-.08.14-.12-.15a7.16,7.16,0,0,0-5.9-2.45,7.15,7.15,0,0,0,5.47,8.48,3.62,3.62,0,0,0,.13.35l.37-.05a7.15,7.15,0,0,0,10.05.85,7.17,7.17,0,0,0-4.93-4.07"/><path class="ac203d18-ba42-4a8b-8575-867694ecb70e" d="M385.84,276.77c-5-3-11.22-1.94-14.93,4.25s-3,16.12,1.18,18.65,13.31-1.54,17-7.72,1.76-12.16-3.27-15.18"/></g></svg>