<?xml version="1.0" encoding="utf-8"?>
<!-- Generator: Adobe Illustrator 16.0.0, SVG Export Plug-In . SVG Version: 6.00 Build 0)  -->
<!DOCTYPE svg PUBLIC "-//W3C//DTD SVG 1.1//EN" "http://www.w3.org/Graphics/SVG/1.1/DTD/svg11.dtd">
<svg version="1.1" id="Layer_1" xmlns="http://www.w3.org/2000/svg" xmlns:xlink="http://www.w3.org/1999/xlink" x="0px" y="0px"
	 width="43.275px" height="68.246px" viewBox="7.971 6.387 43.275 68.246" enable-background="new 7.971 6.387 43.275 68.246"
	 xml:space="preserve">
<g id="Layer_3">
</g>
<g>
	<g>
		<path fill="#D23D44" d="M51.246,60.909v13.725H10.163V60.909h13.44V21.352c-0.51,0.762-1.367,1.606-2.575,2.526
			c-1.206,0.923-2.572,1.812-4.098,2.668c-1.524,0.858-3.082,1.573-4.669,2.146c-1.59,0.572-3.019,0.857-4.29,0.857V15.538
			c1.716,0,3.479-0.46,5.29-1.382c1.81-0.92,3.479-1.939,5.005-3.05c1.524-1.112,2.778-2.145,3.764-3.098
			c0.985-0.954,1.509-1.493,1.573-1.621h15.538v54.521H51.246z"/>
	</g>
</g>
<g id="Layer_2">
</g>
</svg>
