<?xml version="1.0" encoding="utf-8"?>
<!-- Generator: Adobe Illustrator 16.0.0, SVG Export Plug-In . SVG Version: 6.00 Build 0)  -->
<!DOCTYPE svg PUBLIC "-//W3C//DTD SVG 1.1//EN" "http://www.w3.org/Graphics/SVG/1.1/DTD/svg11.dtd">
<svg version="1.1" xmlns="http://www.w3.org/2000/svg" xmlns:xlink="http://www.w3.org/1999/xlink" x="0px" y="0px" width="58.49px"
	 height="74.826px" viewBox="0 0 58.49 74.826" enable-background="new 0 0 58.49 74.826" xml:space="preserve">
<g id="Layer_3">
</g>
<g id="Layer_1">
	<g>
		<g>
			<g>
				<path fill="#D23D44" d="M7.971,74.826c0-4.385,0.238-8.229,0.715-11.534c0.477-3.303,1.366-6.194,2.669-8.674
					c1.3-2.478,3.05-4.654,5.243-6.529c2.192-1.873,5.004-3.637,8.435-5.29c2.034-0.954,4.004-1.906,5.911-2.86
					c1.906-0.954,3.606-2.016,5.098-3.193c1.493-1.175,2.702-2.493,3.623-3.955c0.921-1.461,1.383-3.145,1.383-5.052
					c0-2.606-0.764-4.559-2.288-5.862c-1.524-1.302-3.496-1.954-5.91-1.954c-1.524,0-3.021,0.224-4.48,0.668
					c-1.463,0.444-2.844,1.033-4.146,1.764c-1.303,0.73-2.526,1.541-3.67,2.432c-1.145,0.889-2.129,1.778-2.955,2.667L8.068,17.349
					c1.015-1.206,2.382-2.446,4.098-3.717c1.716-1.27,3.715-2.446,6.003-3.526c2.288-1.08,4.845-1.969,7.674-2.668
					c2.826-0.699,5.862-1.049,9.102-1.049c7.562,0,13.36,1.893,17.397,5.673c4.034,3.78,6.052,8.944,6.052,15.487
					c0,2.798-0.381,5.229-1.145,7.293c-0.762,2.065-1.81,3.909-3.145,5.529c-1.335,1.62-2.923,3.049-4.766,4.288
					c-1.844,1.238-3.877,2.43-6.1,3.575c-1.971,1.017-3.798,2.001-5.481,2.955c-1.684,0.953-3.146,1.939-4.385,2.955
					c-1.239,1.017-2.208,2.096-2.908,3.24c-0.699,1.145-1.048,2.382-1.048,3.717H58.49v13.726H7.971z"/>
			</g>
		</g>
		<g opacity="0.7">
			<linearGradient id="SVGID_1_" gradientUnits="userSpaceOnUse" x1="33.2666" y1="73.0598" x2="14.2302" y2="2.0152">
				<stop  offset="0" style="stop-color:#DDDDD4;stop-opacity:0"/>
				<stop  offset="0.7098" style="stop-color:#DDDDD4"/>
			</linearGradient>
			<path fill="url(#SVGID_1_)" d="M0,68.437c0-4.385,0.238-8.228,0.715-11.533c0.475-3.303,1.364-6.196,2.667-8.674
				c1.302-2.479,3.051-4.654,5.243-6.529c2.192-1.872,5.003-3.637,8.436-5.29c2.033-0.953,4.002-1.905,5.909-2.859
				c1.906-0.953,3.606-2.018,5.099-3.194c1.493-1.175,2.701-2.494,3.623-3.955c0.921-1.462,1.382-3.146,1.382-5.052
				c0-2.605-0.762-4.56-2.288-5.862c-1.524-1.302-3.496-1.954-5.91-1.954c-1.524,0-3.019,0.224-4.479,0.667
				c-1.463,0.444-2.845,1.033-4.148,1.763c-1.302,0.731-2.525,1.542-3.668,2.431c-1.145,0.89-2.129,1.779-2.955,2.67L0.096,10.961
				C1.11,9.755,2.478,8.516,4.194,7.246c1.716-1.271,3.717-2.446,6.005-3.528c2.287-1.08,4.845-1.97,7.672-2.668
				C20.698,0.349,23.734,0,26.974,0c7.562,0,13.359,1.892,17.396,5.671c4.034,3.781,6.052,8.946,6.052,15.49
				c0,2.797-0.381,5.227-1.143,7.292c-0.762,2.065-1.812,3.907-3.146,5.527c-1.335,1.62-2.923,3.052-4.766,4.29
				s-3.877,2.43-6.1,3.575c-1.971,1.016-3.798,2.001-5.481,2.955c-1.685,0.952-3.145,1.938-4.384,2.955
				c-1.24,1.017-2.211,2.097-2.908,3.24c-0.699,1.144-1.049,2.383-1.049,3.717h29.072v13.725H0z"/>
		</g>
	</g>
</g>
<g id="Layer_2">
</g>
</svg>
