<?xml version="1.0" encoding="utf-8"?>
<!-- Generator: Adobe Illustrator 16.0.0, SVG Export Plug-In . SVG Version: 6.00 Build 0)  -->
<!DOCTYPE svg PUBLIC "-//W3C//DTD SVG 1.1//EN" "http://www.w3.org/Graphics/SVG/1.1/DTD/svg11.dtd">
<svg version="1.1" id="Layer_1" xmlns="http://www.w3.org/2000/svg" xmlns:xlink="http://www.w3.org/1999/xlink" x="0px" y="0px"
	 width="48.61px" height="69.39px" viewBox="7.972 6.387 48.61 69.39" enable-background="new 7.972 6.387 48.61 69.39"
	 xml:space="preserve">
<g id="Layer_3">
</g>
<path fill="#D23D44" d="M30.372,75.777c-5.338,0-9.867-1.032-13.583-3.098c-3.717-2.063-6.498-5.1-8.34-9.103l7.912-10.39
	c0.19,0.571,0.586,1.334,1.189,2.287c0.605,0.954,1.447,1.892,2.528,2.812c1.079,0.922,2.445,1.732,4.098,2.43
	c1.652,0.701,3.623,1.05,5.911,1.05c1.396,0,2.73-0.159,4.002-0.478c1.271-0.316,2.398-0.774,3.385-1.381
	c0.982-0.604,1.763-1.367,2.334-2.289c0.572-0.921,0.859-1.985,0.859-3.193c0-2.922-1.606-5.02-4.815-6.291
	c-3.208-1.271-7.801-1.905-13.773-1.905h-3.146V33.554h3.146c2.351,0,4.543-0.145,6.578-0.431c2.033-0.285,3.811-0.747,5.334-1.382
	c1.527-0.635,2.733-1.445,3.625-2.431c0.889-0.983,1.334-2.176,1.334-3.573c0-1.146-0.271-2.112-0.811-2.908
	c-0.541-0.794-1.192-1.414-1.956-1.858c-0.761-0.443-1.587-0.763-2.478-0.953s-1.684-0.285-2.381-0.285
	c-1.908,0-3.592,0.222-5.054,0.667s-2.75,1.017-3.86,1.715c-1.113,0.701-2.065,1.463-2.859,2.288
	c-0.796,0.826-1.415,1.62-1.86,2.383l-9.72-11.248c1.144-1.461,2.588-2.765,4.336-3.908s3.653-2.097,5.718-2.858
	c2.064-0.764,4.227-1.351,6.482-1.766c2.255-0.413,4.495-0.618,6.721-0.618c3.432,0,6.625,0.478,9.579,1.43
	c2.955,0.954,5.496,2.257,7.625,3.908c2.128,1.652,3.795,3.606,5.004,5.861c1.206,2.255,1.81,4.718,1.81,7.388
	c0,3.75-1.143,6.831-3.431,9.244c-2.287,2.416-5.306,4.036-9.056,4.861c2.099,0.381,4.004,1.096,5.72,2.146
	c1.716,1.048,3.179,2.353,4.386,3.907c1.205,1.558,2.127,3.306,2.762,5.242c0.636,1.939,0.955,3.956,0.955,6.054
	c0,3.369-0.778,6.274-2.336,8.722c-1.559,2.448-3.574,4.466-6.052,6.052c-2.478,1.589-5.274,2.749-8.389,3.479
	C36.693,75.412,33.547,75.777,30.372,75.777z"/>
<g id="Layer_2">
</g>
</svg>
