<?xml version="1.0" encoding="utf-8"?>
<!-- Generator: Adobe Illustrator 16.0.0, SVG Export Plug-In . SVG Version: 6.00 Build 0)  -->
<!DOCTYPE svg PUBLIC "-//W3C//DTD SVG 1.1//EN" "http://www.w3.org/Graphics/SVG/1.1/DTD/svg11.dtd">
<svg version="1.1" id="Layer_1" xmlns="http://www.w3.org/2000/svg" xmlns:xlink="http://www.w3.org/1999/xlink" x="0px" y="0px"
	 width="50.519px" height="68.438px" viewBox="7.971 6.389 50.519 68.438" enable-background="new 7.971 6.389 50.519 68.438"
	 xml:space="preserve">
<g id="Layer_3">
</g>
<path fill="#D23D44" d="M7.971,74.826c0-4.386,0.238-8.229,0.715-11.534c0.477-3.303,1.366-6.193,2.669-8.674
	c1.3-2.479,3.05-4.654,5.243-6.529c2.192-1.873,5.004-3.637,8.435-5.29c2.034-0.954,4.004-1.905,5.911-2.86
	c1.906-0.953,3.605-2.016,5.098-3.192c1.493-1.175,2.702-2.493,3.623-3.955c0.921-1.461,1.383-3.145,1.383-5.052
	c0-2.606-0.764-4.559-2.288-5.862c-1.524-1.302-3.495-1.954-5.909-1.954c-1.524,0-3.021,0.224-4.48,0.668
	c-1.463,0.444-2.844,1.033-4.146,1.764c-1.303,0.73-2.526,1.541-3.67,2.432c-1.145,0.889-2.129,1.778-2.955,2.667L8.068,17.349
	c1.015-1.206,2.382-2.446,4.098-3.717c1.716-1.27,3.715-2.446,6.003-3.526s4.845-1.969,7.674-2.668
	c2.826-0.699,5.862-1.049,9.102-1.049c7.562,0,13.361,1.893,17.397,5.673c4.034,3.78,6.052,8.944,6.052,15.487
	c0,2.798-0.381,5.229-1.145,7.293c-0.762,2.065-1.811,3.909-3.145,5.529c-1.336,1.62-2.924,3.049-4.767,4.288
	c-1.844,1.238-3.877,2.43-6.101,3.574c-1.971,1.018-3.797,2.002-5.48,2.955s-3.146,1.939-4.385,2.955
	c-1.239,1.018-2.208,2.097-2.908,3.24c-0.699,1.145-1.048,2.383-1.048,3.717H58.49v13.727L7.971,74.826L7.971,74.826z"/>
<g id="Layer_2">
</g>
</svg>
