<?xml version="1.0" encoding="utf-8"?>
<!-- Generator: Adobe Illustrator 16.0.0, SVG Export Plug-In . SVG Version: 6.00 Build 0)  -->
<!DOCTYPE svg PUBLIC "-//W3C//DTD SVG 1.1//EN" "http://www.w3.org/Graphics/SVG/1.1/DTD/svg11.dtd">
<svg version="1.1" xmlns="http://www.w3.org/2000/svg" xmlns:xlink="http://www.w3.org/1999/xlink" x="0px" y="0px"
	 width="51.246px" height="74.634px" viewBox="0 0 51.246 74.634" enable-background="new 0 0 51.246 74.634" xml:space="preserve">
<g id="Layer_3">
</g>
<g id="Layer_1">
	<g>
		<g>
			<g>
				<path fill="#D23D44" d="M51.246,60.908v13.726H10.163V60.908h13.44V21.352c-0.51,0.762-1.367,1.606-2.575,2.526
					c-1.206,0.923-2.572,1.812-4.098,2.668c-1.524,0.858-3.082,1.573-4.669,2.146c-1.59,0.572-3.019,0.857-4.29,0.857V15.538
					c1.716,0,3.479-0.46,5.29-1.382c1.81-0.92,3.479-1.939,5.005-3.05c1.524-1.112,2.778-2.145,3.764-3.098
					c0.985-0.954,1.509-1.493,1.573-1.621H39.14v54.521H51.246z"/>
			</g>
		</g>
		<g opacity="0.7">
			<linearGradient id="SVGID_1_" gradientUnits="userSpaceOnUse" x1="26.9922" y1="72.6084" x2="8.0791" y2="2.0237">
				<stop  offset="0" style="stop-color:#DDDDD4;stop-opacity:0"/>
				<stop  offset="0.7098" style="stop-color:#DDDDD4"/>
			</linearGradient>
			<path fill="url(#SVGID_1_)" d="M43.273,54.521v13.725H2.192V54.521h13.439V14.964c-0.509,0.763-1.367,1.605-2.574,2.526
				c-1.208,0.922-2.573,1.812-4.098,2.669c-1.526,0.858-3.083,1.573-4.67,2.145C2.698,22.876,1.27,23.162,0,23.162V9.15
				c1.715,0,3.479-0.459,5.29-1.382c1.812-0.92,3.479-1.937,5.005-3.05c1.524-1.111,2.778-2.144,3.764-3.098
				c0.985-0.953,1.509-1.493,1.573-1.62h15.536v54.521H43.273z"/>
		</g>
	</g>
</g>
<g id="Layer_2">
</g>
</svg>
