<?xml version="1.0" encoding="utf-8"?>
<!-- Generator: Adobe Illustrator 16.0.0, SVG Export Plug-In . SVG Version: 6.00 Build 0)  -->
<!DOCTYPE svg PUBLIC "-//W3C//DTD SVG 1.1//EN" "http://www.w3.org/Graphics/SVG/1.1/DTD/svg11.dtd">
<svg version="1.1" id="Layer_1" xmlns="http://www.w3.org/2000/svg" xmlns:xlink="http://www.w3.org/1999/xlink" x="0px" y="0px"
	 width="117.094px" height="102.521px" viewBox="0 0 117.094 102.521" enable-background="new 0 0 117.094 102.521"
	 xml:space="preserve">
<g id="Layer_3">
</g>
<g>
	<g id="Layer_1_1_">
		<g>
			<g>
				<path fill="#DDDDD4" d="M117.094,89.526h-12.758V76.769V-0.239H0v89.766c0,7.046,5.712,12.758,12.756,12.758l0,0h91.58l0,0
					C111.381,102.283,117.094,96.572,117.094,89.526z"/>
				<path fill="#D23D44" d="M117.094,89.526h-12.758H91.58H25.514c0,7.046-5.711,12.758-12.758,12.758h91.58l0,0
					C111.381,102.283,117.094,96.572,117.094,89.526z"/>
			</g>
			<rect x="12.756" y="16.942" fill="#FFFFFF" width="33.6" height="8.711"/>
			<rect x="51.225" y="16.942" fill="#FFFFFF" width="12.062" height="8.711"/>
			<g>
				<rect x="12.756" y="34.01" fill="#FFFFFF" width="23.479" height="3.754"/>
				<rect x="39.169" y="34.01" fill="#FFFFFF" width="5.617" height="3.754"/>
				<rect x="67.314" y="34.01" fill="#FFFFFF" width="5.617" height="3.754"/>
				<rect x="51.505" y="34.01" fill="#FFFFFF" width="13.525" height="3.754"/>
				<rect x="83.992" y="34.01" fill="#FFFFFF" width="13.525" height="3.754"/>
				<rect x="46.415" y="34.01" fill="#FFFFFF" width="2.81" height="3.754"/>
				<rect x="74.232" y="34.01" fill="#FFFFFF" width="2.809" height="3.754"/>
				<rect x="78.777" y="34.01" fill="#FFFFFF" width="2.809" height="3.754"/>
			</g>
			<g>
				<rect x="12.756" y="54.954" fill="#FFFFFF" width="23.479" height="3.754"/>
				<rect x="39.169" y="54.954" fill="#FFFFFF" width="5.617" height="3.754"/>
				<rect x="67.314" y="54.954" fill="#FFFFFF" width="5.617" height="3.754"/>
				<rect x="83.506" y="54.954" fill="#FFFFFF" width="5.617" height="3.754"/>
				<rect x="51.505" y="54.954" fill="#FFFFFF" width="13.525" height="3.754"/>
				<rect x="46.415" y="54.954" fill="#FFFFFF" width="2.81" height="3.754"/>
				<rect x="79.398" y="54.954" fill="#FFFFFF" width="2.807" height="3.754"/>
				<rect x="74.85" y="54.954" fill="#FFFFFF" width="2.809" height="3.754"/>
			</g>
			<g>
				<rect x="71.241" y="65.429" fill="#FFFFFF" width="25.282" height="3.753"/>
				<rect x="12.756" y="65.429" fill="#FFFFFF" width="6.049" height="3.753"/>
				<rect x="49.062" y="65.429" fill="#FFFFFF" width="14.565" height="3.753"/>
				<rect x="21.38" y="65.429" fill="#FFFFFF" width="14.565" height="3.753"/>
				<rect x="66.083" y="65.429" fill="#FFFFFF" width="3.024" height="3.753"/>
				<rect x="43.43" y="65.429" fill="#FFFFFF" width="3.023" height="3.753"/>
				<rect x="38.533" y="65.429" fill="#FFFFFF" width="3.023" height="3.753"/>
			</g>
			<g>
				<rect x="64.482" y="75.9" fill="#FFFFFF" width="18.666" height="3.754"/>
				<rect x="57.359" y="75.9" fill="#FFFFFF" width="5.613" height="3.754"/>
				<rect x="84.529" y="75.9" fill="#FFFFFF" width="5.617" height="3.754"/>
				<rect x="91.744" y="75.9" fill="#FFFFFF" width="5.615" height="3.754"/>
				<rect x="12.756" y="75.9" fill="#FFFFFF" width="5.618" height="3.754"/>
				<rect x="29.214" y="75.9" fill="#FFFFFF" width="5.615" height="3.754"/>
				<rect x="37.115" y="75.9" fill="#FFFFFF" width="16.537" height="3.754"/>
				<rect x="19.801" y="75.9" fill="#FFFFFF" width="7.846" height="3.754"/>
			</g>
			<g>
				<rect x="12.756" y="44.483" fill="#FFFFFF" width="14.65" height="3.756"/>
				<rect x="57.941" y="44.483" fill="#FFFFFF" width="5.617" height="3.756"/>
				<rect x="75.455" y="44.483" fill="#FFFFFF" width="5.617" height="3.756"/>
				<rect x="29.799" y="44.483" fill="#FFFFFF" width="5.614" height="3.756"/>
				<rect x="37.7" y="44.483" fill="#FFFFFF" width="13.524" height="3.756"/>
				<rect x="83.463" y="44.483" fill="#FFFFFF" width="13.525" height="3.756"/>
				<rect x="53.505" y="44.483" fill="#FFFFFF" width="2.81" height="3.756"/>
				<rect x="65.697" y="44.483" fill="#FFFFFF" width="2.809" height="3.756"/>
				<rect x="70.245" y="44.483" fill="#FFFFFF" width="2.808" height="3.756"/>
			</g>
		</g>
	</g>
	<g id="Layer_2" display="none">
	</g>
</g>
</svg>
