<?xml version="1.0" encoding="utf-8"?>
<!-- Generator: Adobe Illustrator 16.0.0, SVG Export Plug-In . SVG Version: 6.00 Build 0)  -->
<!DOCTYPE svg PUBLIC "-//W3C//DTD SVG 1.1//EN" "http://www.w3.org/Graphics/SVG/1.1/DTD/svg11.dtd">
<svg version="1.1" xmlns="http://www.w3.org/2000/svg" xmlns:xlink="http://www.w3.org/1999/xlink" x="0px" y="0px"
	 width="110.296px" height="24.932px" viewBox="0 0 110.296 24.932" enable-background="new 0 0 110.296 24.932"
	 xml:space="preserve">
<g id="Layer_3">
</g>
<g id="Layer_1">
	<g>
		<polygon fill="#313132" points="30.625,19.872 31.088,19.872 30.104,23.548 32.413,23.548 32.296,23.975 29.522,23.975 		"/>
		<path fill="#313132" d="M33.344,22.74c0,0.55,0.352,0.915,0.915,0.915c0.393,0,0.657-0.137,0.935-0.358l0.231,0.296
			c-0.298,0.256-0.657,0.453-1.191,0.453c-0.802,0-1.343-0.521-1.343-1.288c0-0.928,0.75-1.878,1.764-1.878
			c0.77,0,1.172,0.529,1.172,1.163c0,0.206-0.038,0.397-0.104,0.574h-2.371C33.344,22.66,33.344,22.699,33.344,22.74 M35.361,22.275
			c0.016-0.051,0.029-0.128,0.029-0.233c0-0.417-0.237-0.78-0.76-0.78c-0.596,0-1.052,0.458-1.216,1.013H35.361z"/>
		<path fill="#313132" d="M36.508,23.431c0-0.105,0.019-0.223,0.042-0.319l0.474-1.767H36.61l0.104-0.398h0.423l0.243-0.915h0.45
			l-0.25,0.915h0.955l-0.104,0.398h-0.955l-0.468,1.746c-0.016,0.072-0.027,0.16-0.027,0.222c0,0.213,0.161,0.313,0.417,0.313
			c0.139,0,0.278-0.031,0.44-0.095l-0.109,0.411c-0.161,0.064-0.307,0.088-0.482,0.088C36.815,24.029,36.508,23.823,36.508,23.431"
			/>
		<path fill="#313132" d="M39.152,20.999c0.337-0.084,0.503-0.259,0.551-0.512h-0.219l0.17-0.615h0.541L40.048,20.4
			c-0.141,0.512-0.376,0.714-0.85,0.798L39.152,20.999z"/>
		<path fill="#313132" d="M39.776,23.511l0.295-0.291c0.325,0.313,0.692,0.443,1.056,0.443c0.343,0,0.665-0.198,0.665-0.501
			c0-0.2-0.137-0.346-0.571-0.517c-0.545-0.209-0.858-0.412-0.858-0.832c0-0.518,0.445-0.935,1.15-0.935
			c0.445,0,0.868,0.202,1.117,0.417l-0.261,0.312c-0.253-0.208-0.57-0.352-0.898-0.352c-0.427,0-0.656,0.227-0.656,0.482
			c0,0.199,0.123,0.327,0.605,0.516c0.543,0.22,0.827,0.438,0.827,0.833c0,0.565-0.517,0.954-1.164,0.954
			C40.617,24.04,40.131,23.865,39.776,23.511"/>
		<path fill="#313132" d="M45.209,23.296l-0.179,0.679h-0.453l1.149-4.279h0.452l-0.482,1.77c0.296-0.327,0.662-0.585,1.15-0.585
			c0.686,0,1.201,0.51,1.201,1.286c0,1.071-0.814,1.879-1.697,1.879C45.726,24.045,45.381,23.694,45.209,23.296 M47.574,22.206
			c0-0.563-0.345-0.926-0.856-0.926c-0.674,0-1.35,0.688-1.35,1.425c0,0.525,0.381,0.946,0.942,0.946
			C47.029,23.65,47.574,22.981,47.574,22.206"/>
		<path fill="#313132" d="M48.683,23.103c0-0.141,0.033-0.31,0.076-0.467l0.444-1.689h0.45l-0.462,1.717
			c-0.022,0.101-0.04,0.239-0.04,0.34c0,0.399,0.259,0.632,0.672,0.632c0.471,0,0.945-0.407,1.098-0.986l0.458-1.704h0.448
			l-0.806,3.028h-0.45l0.134-0.489c-0.277,0.309-0.599,0.555-1.06,0.555C49.061,24.04,48.683,23.677,48.683,23.103"/>
		<path fill="#313132" d="M52.89,20.946h0.452l-0.814,3.028h-0.452L52.89,20.946z M53.17,19.786h0.514l-0.132,0.497h-0.516
			L53.17,19.786z"/>
		<polygon fill="#313132" points="54.771,19.696 55.223,19.696 54.071,23.975 53.621,23.975 		"/>
		<path fill="#313132" d="M55.322,22.764c0-1.074,0.814-1.884,1.702-1.884c0.619,0,0.972,0.353,1.137,0.752l0.516-1.937h0.448
			l-1.142,4.279h-0.452l0.134-0.515c-0.286,0.329-0.657,0.586-1.142,0.586C55.837,24.046,55.322,23.53,55.322,22.764 M58.001,22.218
			c0-0.528-0.381-0.938-0.941-0.938c-0.719,0-1.264,0.667-1.264,1.442c0,0.563,0.354,0.93,0.859,0.93
			C57.33,23.651,58.001,22.962,58.001,22.218"/>
		<path fill="#313132" d="M60.209,24.72l0.248-0.339c0.113,0.088,0.316,0.152,0.464,0.152c0.256,0,0.485-0.135,0.791-0.563
			l-0.55-3.024h0.466l0.422,2.526l1.631-2.526h0.509l-2.075,3.131c-0.427,0.628-0.789,0.855-1.243,0.855
			C60.613,24.932,60.406,24.854,60.209,24.72"/>
		<path fill="#313132" d="M64.185,22.687c0-0.943,0.815-1.807,1.782-1.807c0.833,0,1.382,0.57,1.382,1.354
			c0,0.968-0.837,1.812-1.788,1.812C64.73,24.046,64.185,23.472,64.185,22.687 M66.887,22.253c0-0.617-0.387-0.973-0.948-0.973
			c-0.702,0-1.298,0.691-1.298,1.396c0,0.613,0.389,0.966,0.949,0.966C66.27,23.642,66.887,22.975,66.887,22.253"/>
		<path fill="#313132" d="M67.976,23.103c0-0.141,0.035-0.31,0.078-0.467l0.446-1.689h0.449l-0.462,1.717
			c-0.024,0.101-0.039,0.239-0.039,0.34c0,0.399,0.254,0.632,0.673,0.632c0.469,0,0.945-0.407,1.094-0.986l0.46-1.704h0.448
			l-0.806,3.028h-0.454L70,23.485c-0.274,0.309-0.598,0.555-1.062,0.555C68.358,24.04,67.976,23.677,67.976,23.103"/>
		<path fill="#313132" d="M72.138,20.946h0.451l-0.204,0.791c0.368-0.526,0.838-0.878,1.442-0.844l-0.13,0.486h-0.028
			c-0.664,0-1.326,0.486-1.566,1.402l-0.32,1.194h-0.453L72.138,20.946z"/>
		<polygon fill="#313132" points="75.669,20.946 76.143,20.946 76.483,23.46 78.158,20.946 78.669,20.946 76.554,24 76.155,24 		"/>
		<path fill="#313132" d="M79.427,20.946h0.45l-0.816,3.028h-0.448L79.427,20.946z M79.708,19.786h0.514l-0.134,0.497h-0.516
			L79.708,19.786z"/>
		<path fill="#313132" d="M79.981,23.511l0.296-0.291c0.326,0.313,0.691,0.443,1.053,0.443c0.35,0,0.667-0.198,0.667-0.501
			c0-0.2-0.135-0.346-0.574-0.517c-0.543-0.209-0.856-0.412-0.856-0.832c0-0.518,0.447-0.935,1.149-0.935
			c0.448,0,0.87,0.202,1.121,0.417l-0.263,0.312c-0.254-0.208-0.57-0.352-0.895-0.352c-0.43,0-0.661,0.227-0.661,0.482
			c0,0.199,0.124,0.327,0.603,0.516c0.545,0.22,0.829,0.438,0.829,0.833c0,0.565-0.518,0.954-1.161,0.954
			C80.821,24.04,80.333,23.865,79.981,23.511"/>
		<path fill="#313132" d="M83.881,20.946h0.453l-0.819,3.028h-0.448L83.881,20.946z M84.162,19.786h0.516l-0.134,0.497h-0.517
			L84.162,19.786z"/>
		<path fill="#313132" d="M84.761,22.687c0-0.943,0.813-1.807,1.783-1.807c0.831,0,1.382,0.57,1.382,1.354
			c0,0.968-0.839,1.812-1.789,1.812C85.303,24.046,84.761,23.472,84.761,22.687 M87.464,22.253c0-0.617-0.388-0.973-0.951-0.973
			c-0.697,0-1.296,0.691-1.296,1.396c0,0.613,0.387,0.966,0.947,0.966C86.847,23.642,87.464,22.975,87.464,22.253"/>
		<path fill="#313132" d="M89.122,20.946h0.449l-0.13,0.49c0.278-0.309,0.594-0.556,1.057-0.556c0.584,0,0.967,0.364,0.967,0.939
			c0,0.141-0.032,0.309-0.077,0.468l-0.443,1.688h-0.45l0.456-1.715c0.029-0.102,0.045-0.241,0.045-0.342
			c0-0.399-0.256-0.633-0.677-0.633c-0.469,0-0.94,0.405-1.098,0.979l-0.457,1.71h-0.453L89.122,20.946z"/>
		<path fill="#313132" d="M94.011,23.431c0-0.105,0.015-0.223,0.04-0.319l0.476-1.767h-0.419l0.108-0.398h0.42l0.246-0.915h0.446
			l-0.247,0.915h0.957l-0.108,0.398h-0.951l-0.473,1.746c-0.011,0.072-0.022,0.16-0.022,0.222c0,0.213,0.159,0.313,0.417,0.313
			c0.135,0,0.277-0.031,0.44-0.095l-0.112,0.411c-0.158,0.064-0.307,0.088-0.482,0.088C94.312,24.029,94.011,23.823,94.011,23.431"
			/>
		<path fill="#313132" d="M96.142,22.687c0-0.943,0.814-1.807,1.783-1.807c0.833,0,1.382,0.57,1.382,1.354
			c0,0.968-0.835,1.812-1.785,1.812C96.688,24.046,96.142,23.472,96.142,22.687 M98.845,22.253c0-0.617-0.388-0.973-0.95-0.973
			c-0.697,0-1.296,0.691-1.296,1.396c0,0.613,0.39,0.966,0.95,0.966C98.229,23.642,98.845,22.975,98.845,22.253"/>
		<path fill="#313132" d="M99.89,22.764c0-1.074,0.812-1.884,1.698-1.884c0.621,0,0.973,0.353,1.138,0.752l0.517-1.937h0.451
			l-1.146,4.279h-0.45l0.137-0.515c-0.29,0.329-0.656,0.586-1.143,0.586C100.401,24.046,99.89,23.53,99.89,22.764 M102.566,22.218
			c0-0.528-0.383-0.938-0.935-0.938c-0.723,0-1.271,0.667-1.271,1.442c0,0.563,0.355,0.93,0.859,0.93
			C101.893,23.651,102.566,22.962,102.566,22.218"/>
		<path fill="#313132" d="M103.57,23.201c0-0.68,0.568-1.096,1.347-1.096c0.402,0,0.785,0.083,1.079,0.166l0.018-0.072
			c0.023-0.088,0.042-0.198,0.042-0.28c0-0.392-0.27-0.616-0.822-0.616c-0.323,0-0.588,0.063-0.854,0.158l-0.078-0.377
			c0.3-0.111,0.609-0.182,1.003-0.182c0.761,0,1.189,0.354,1.189,0.941c0,0.126-0.023,0.275-0.066,0.417l-0.456,1.714h-0.437
			l0.128-0.474c-0.283,0.323-0.652,0.539-1.133,0.539C104.021,24.04,103.57,23.743,103.57,23.201 M105.857,22.785l0.062-0.208
			c-0.263-0.077-0.609-0.138-0.987-0.138c-0.538,0-0.907,0.292-0.907,0.708c0,0.323,0.25,0.541,0.645,0.541
			C105.181,23.689,105.713,23.32,105.857,22.785"/>
		<path fill="#313132" d="M106.218,24.72l0.249-0.339c0.111,0.088,0.313,0.152,0.461,0.152c0.258,0,0.488-0.135,0.792-0.563
			l-0.553-3.024h0.47l0.423,2.526l1.629-2.526h0.506l-2.072,3.131c-0.427,0.628-0.792,0.855-1.241,0.855
			C106.624,24.932,106.412,24.854,106.218,24.72"/>
		<polygon fill="#313132" points="109.765,23.361 110.296,23.361 110.131,23.975 109.594,23.975 		"/>
		<path fill="#27769E" d="M12.979,8.826l5.882,1.466c1.025-0.398,1.64-0.909,1.64-1.466V6.482c0-1.296-3.369-2.347-7.522-2.347
			S5.458,5.187,5.458,6.482v2.343c0,1.301,3.368,2.353,7.521,2.353V8.826z"/>
		<path fill="#27769E" d="M18.86,12.644l-5.882-1.466v2.349l5.882,1.461c1.025-0.403,1.64-0.911,1.64-1.461v-2.349
			C20.5,11.73,19.886,12.241,18.86,12.644"/>
		<path fill="#27769E" d="M5.458,11.178v2.349c0,1.296,3.368,2.347,7.521,2.347v-2.347C8.825,13.527,5.458,12.474,5.458,11.178"/>
		<path fill="#27769E" d="M24.673,18.72H1.283V1.285h23.39V18.72z M25.955,0H0v20.007h25.955V0z"/>
		<path fill="#313132" d="M33.73,14.08c-2.415,0-4.208-1.866-4.208-4.223V9.834c0-2.333,1.76-4.243,4.282-4.243
			c1.548,0,2.477,0.516,3.236,1.268l-1.15,1.323c-0.631-0.574-1.279-0.926-2.1-0.926c-1.385,0-2.38,1.148-2.38,2.554v0.024
			c0,1.407,0.974,2.579,2.38,2.579c0.939,0,1.514-0.375,2.159-0.961l1.149,1.16C36.256,13.517,35.312,14.08,33.73,14.08"/>
		<path fill="#313132" d="M42.037,13.938v-0.676c-0.432,0.477-1.034,0.794-1.897,0.794c-1.185,0-2.157-0.682-2.157-1.923v-0.024
			c0-1.374,1.041-2.003,2.533-2.003c0.633,0,1.089,0.104,1.537,0.255v-0.104c0-0.739-0.459-1.149-1.351-1.149
			c-0.679,0-1.16,0.127-1.735,0.339l-0.447-1.36c0.692-0.303,1.371-0.503,2.439-0.503c1.949,0,2.803,1.006,2.803,2.708v3.645H42.037
			z M42.076,11.407c-0.307-0.143-0.704-0.235-1.139-0.235c-0.762,0-1.233,0.305-1.233,0.868v0.025c0,0.48,0.399,0.761,0.976,0.761
			c0.833,0,1.396-0.457,1.396-1.105V11.407z"/>
		<polygon fill="#313132" points="49.348,13.938 47.708,11.374 47.085,12.026 47.085,13.938 45.303,13.938 45.303,5.377 
			47.085,5.377 47.085,9.94 49.174,7.653 51.307,7.653 48.917,10.131 51.389,13.938 		"/>
		<path fill="#313132" d="M57.795,11.416H53.42c0.179,0.811,0.738,1.235,1.538,1.235c0.596,0,1.03-0.189,1.522-0.647l1.021,0.903
			c-0.587,0.726-1.434,1.174-2.569,1.174c-1.888,0-3.283-1.326-3.283-3.249v-0.025c0-1.794,1.277-3.272,3.108-3.272
			c2.099,0,3.059,1.632,3.059,3.415v0.021C57.816,11.147,57.804,11.254,57.795,11.416 M54.758,8.967
			c-0.737,0-1.221,0.528-1.363,1.336h2.687C55.974,9.506,55.509,8.967,54.758,8.967"/>
		<path fill="#27769E" d="M62.537,13.938H59.33V5.731h3.207c2.578,0,4.36,1.771,4.36,4.079v0.024
			C66.896,12.145,65.115,13.938,62.537,13.938 M65.009,9.834c0-1.453-0.997-2.473-2.472-2.473h-1.396v4.948h1.396
			c1.476,0,2.472-0.994,2.472-2.452V9.834z"/>
		<path fill="#27769E" d="M72.355,14.08c-2.418,0-4.209-1.866-4.209-4.223V9.834c0-2.333,1.76-4.243,4.282-4.243
			c1.544,0,2.475,0.516,3.235,1.268l-1.151,1.323c-0.63-0.574-1.273-0.926-2.097-0.926c-1.383,0-2.381,1.148-2.381,2.554v0.024
			c0,1.407,0.975,2.579,2.381,2.579c0.938,0,1.513-0.375,2.158-0.961l1.148,1.16C74.878,13.517,73.939,14.08,72.355,14.08"/>
	</g>
</g>
<g id="Layer_2" display="none">
</g>
</svg>
