<?xml version="1.0" encoding="utf-8"?>
<!-- Generator: Adobe Illustrator 16.0.0, SVG Export Plug-In . SVG Version: 6.00 Build 0)  -->
<!DOCTYPE svg PUBLIC "-//W3C//DTD SVG 1.1//EN" "http://www.w3.org/Graphics/SVG/1.1/DTD/svg11.dtd">
<svg version="1.1" id="Layer_1" xmlns="http://www.w3.org/2000/svg" xmlns:xlink="http://www.w3.org/1999/xlink" x="0px" y="0px"
	 width="117.094px" height="123.521px" viewBox="0 0 117.094 123.521" enable-background="new 0 0 117.094 123.521"
	 xml:space="preserve">
<g>
	<g id="Layer_3">
	</g>
	<g id="Layer_1_1_">
		<g>
			<g>
				
					<linearGradient id="SVGID_1_" gradientUnits="userSpaceOnUse" x1="151.0469" y1="236.427" x2="151.0469" y2="327.7605" gradientTransform="matrix(1 0 0 1 -92.5 -201.2695)">
					<stop  offset="0" style="stop-color:#DDDDD4"/>
					<stop  offset="1" style="stop-color:#DDDDD4"/>
				</linearGradient>
				<path fill="url(#SVGID_1_)" d="M117.094,110.765h-12.758V98.008V0H0v110.765c0,7.046,5.712,12.758,12.756,12.758l0,0h91.58l0,0
					C111.381,123.523,117.094,117.811,117.094,110.765z"/>
				<path fill="#D23D44" d="M117.094,110.765h-12.758H91.58H25.514c0,7.046-5.714,12.758-12.758,12.758h91.58l0,0
					C111.381,123.523,117.094,117.811,117.094,110.765z"/>
			</g>
			<rect x="12.756" y="17.181" fill="#FFFFFF" width="33.599" height="8.711"/>
			<rect x="51.224" y="17.181" fill="#FFFFFF" width="12.063" height="8.711"/>
			<g>
				<rect x="12.756" y="34.249" fill="#FFFFFF" width="23.478" height="3.754"/>
				<rect x="39.169" y="34.249" fill="#FFFFFF" width="5.617" height="3.754"/>
				<rect x="67.312" y="34.249" fill="#FFFFFF" width="5.617" height="3.754"/>
				<rect x="51.505" y="34.249" fill="#FFFFFF" width="13.526" height="3.754"/>
				<rect x="83.992" y="34.249" fill="#FFFFFF" width="13.525" height="3.754"/>
				<rect x="46.415" y="34.249" fill="#FFFFFF" width="2.81" height="3.754"/>
				<rect x="74.232" y="34.249" fill="#FFFFFF" width="2.807" height="3.754"/>
				<rect x="78.777" y="34.249" fill="#FFFFFF" width="2.809" height="3.754"/>
			</g>
			<g>
				<rect x="12.756" y="55.194" fill="#FFFFFF" width="23.478" height="3.754"/>
				<rect x="39.169" y="55.194" fill="#FFFFFF" width="5.617" height="3.754"/>
				<rect x="67.312" y="55.194" fill="#FFFFFF" width="5.617" height="3.754"/>
				<rect x="83.506" y="55.194" fill="#FFFFFF" width="5.617" height="3.754"/>
				<rect x="51.505" y="55.194" fill="#FFFFFF" width="13.526" height="3.754"/>
				<rect x="46.415" y="55.194" fill="#FFFFFF" width="2.81" height="3.754"/>
				<rect x="79.398" y="55.194" fill="#FFFFFF" width="2.807" height="3.754"/>
				<rect x="74.85" y="55.194" fill="#FFFFFF" width="2.809" height="3.754"/>
			</g>
			<g>
				<rect x="71.242" y="65.668" fill="#FFFFFF" width="25.281" height="3.753"/>
				<rect x="12.756" y="65.668" fill="#FFFFFF" width="6.049" height="3.753"/>
				<rect x="49.062" y="65.668" fill="#FFFFFF" width="14.567" height="3.753"/>
				<rect x="21.379" y="65.668" fill="#FFFFFF" width="14.565" height="3.753"/>
				<rect x="66.082" y="65.668" fill="#FFFFFF" width="3.023" height="3.753"/>
				<rect x="43.429" y="65.668" fill="#FFFFFF" width="3.024" height="3.753"/>
				<rect x="38.533" y="65.668" fill="#FFFFFF" width="3.023" height="3.753"/>
			</g>
			<g>
				<rect x="64.482" y="76.139" fill="#FFFFFF" width="18.666" height="3.754"/>
				<rect x="57.359" y="76.139" fill="#FFFFFF" width="5.614" height="3.754"/>
				<rect x="84.529" y="76.139" fill="#FFFFFF" width="5.617" height="3.754"/>
				<rect x="91.744" y="76.139" fill="#FFFFFF" width="5.615" height="3.754"/>
				<rect x="12.756" y="76.139" fill="#FFFFFF" width="5.618" height="3.754"/>
				<rect x="29.214" y="76.139" fill="#FFFFFF" width="5.615" height="3.754"/>
				<rect x="37.113" y="76.139" fill="#FFFFFF" width="16.536" height="3.754"/>
				<rect x="19.8" y="76.139" fill="#FFFFFF" width="7.848" height="3.754"/>
			</g>
			<g>
				<rect x="12.756" y="86.613" fill="#FFFFFF" width="8.569" height="3.754"/>
				<rect x="80.822" y="86.613" fill="#FFFFFF" width="8.572" height="3.754"/>
				<rect x="31.09" y="86.613" fill="#FFFFFF" width="8.571" height="3.754"/>
				<rect x="56.539" y="86.613" fill="#FFFFFF" width="20.639" height="3.754"/>
				<rect x="23.812" y="86.613" fill="#FFFFFF" width="4.284" height="3.754"/>
				<rect x="41.647" y="86.613" fill="#FFFFFF" width="4.284" height="3.754"/>
				<rect x="92.408" y="86.613" fill="#FFFFFF" width="4.285" height="3.754"/>
				<rect x="48.583" y="86.613" fill="#FFFFFF" width="4.284" height="3.754"/>
			</g>
			<g>
				<rect x="12.756" y="97.082" fill="#FFFFFF" width="23.478" height="3.755"/>
				<rect x="39.169" y="97.082" fill="#FFFFFF" width="5.617" height="3.755"/>
				<rect x="73.445" y="97.082" fill="#FFFFFF" width="5.615" height="3.755"/>
				<rect x="66.299" y="97.082" fill="#FFFFFF" width="5.617" height="3.755"/>
				<rect x="51.18" y="97.082" fill="#FFFFFF" width="13.525" height="3.755"/>
				<rect x="46.415" y="97.082" fill="#FFFFFF" width="2.81" height="3.755"/>
				<rect x="81.891" y="97.082" fill="#FFFFFF" width="2.809" height="3.755"/>
				<rect x="87.719" y="97.082" fill="#FFFFFF" width="2.809" height="3.755"/>
			</g>
			<g>
				<rect x="12.756" y="44.722" fill="#FFFFFF" width="14.65" height="3.756"/>
				<rect x="57.942" y="44.722" fill="#FFFFFF" width="5.617" height="3.756"/>
				<rect x="75.457" y="44.722" fill="#FFFFFF" width="5.617" height="3.756"/>
				<rect x="29.799" y="44.722" fill="#FFFFFF" width="5.615" height="3.756"/>
				<rect x="37.7" y="44.722" fill="#FFFFFF" width="13.525" height="3.756"/>
				<rect x="83.463" y="44.722" fill="#FFFFFF" width="13.525" height="3.756"/>
				<rect x="53.505" y="44.722" fill="#FFFFFF" width="2.809" height="3.756"/>
				<rect x="65.697" y="44.722" fill="#FFFFFF" width="2.809" height="3.756"/>
				<rect x="70.246" y="44.722" fill="#FFFFFF" width="2.807" height="3.756"/>
			</g>
		</g>
	</g>
	<g id="Layer_2" display="none">
	</g>
</g>
</svg>
