<?xml version="1.0" encoding="utf-8"?>
<!-- Generator: Adobe Illustrator 16.0.0, SVG Export Plug-In . SVG Version: 6.00 Build 0)  -->
<!DOCTYPE svg PUBLIC "-//W3C//DTD SVG 1.1//EN" "http://www.w3.org/Graphics/SVG/1.1/DTD/svg11.dtd">
<svg version="1.1" id="Layer_1" xmlns="http://www.w3.org/2000/svg" xmlns:xlink="http://www.w3.org/1999/xlink" x="0px" y="0px"
	 width="117.094px" height="102.522px" viewBox="-16.727 -14.645 117.094 102.522"
	 enable-background="new -16.727 -14.645 117.094 102.522" xml:space="preserve">
<g id="Layer_3">
</g>
<g id="Layer_1_1_">
	<g>
		<g>
			
				<linearGradient id="SVGID_1_" gradientUnits="userSpaceOnUse" x1="-160.6799" y1="138.6956" x2="-160.6799" y2="62.8902" gradientTransform="matrix(1 0 0 -1 202.5 153.231)">
				<stop  offset="0" style="stop-color:#DDDDD4"/>
				<stop  offset="1" style="stop-color:#F7F6F3"/>
			</linearGradient>
			<path fill="url(#SVGID_1_)" d="M100.366,75.119H87.61V62.363v-77.008H-16.727v89.765c0,7.046,5.712,12.758,12.756,12.758l0,0
				H87.61l0,0C94.655,87.877,100.366,82.165,100.366,75.119z"/>
			<path fill="#D23D44" d="M100.366,75.119H87.61H74.854H8.787c0,7.046-5.712,12.758-12.758,12.758h91.581l0,0
				C94.655,87.877,100.366,82.165,100.366,75.119z"/>
		</g>
		<rect x="-3.971" y="2.535" fill="#FFFFFF" width="33.599" height="8.711"/>
		<rect x="34.497" y="2.535" fill="#FFFFFF" width="12.062" height="8.711"/>
		<g>
			<rect x="-3.971" y="19.604" fill="#FFFFFF" width="23.478" height="3.754"/>
			<rect x="22.442" y="19.604" fill="#FFFFFF" width="5.617" height="3.754"/>
			<rect x="50.587" y="19.604" fill="#FFFFFF" width="5.617" height="3.754"/>
			<rect x="34.778" y="19.604" fill="#FFFFFF" width="13.525" height="3.754"/>
			<rect x="67.266" y="19.604" fill="#FFFFFF" width="13.525" height="3.754"/>
			<rect x="29.688" y="19.604" fill="#FFFFFF" width="2.81" height="3.754"/>
			<rect x="57.505" y="19.604" fill="#FFFFFF" width="2.809" height="3.754"/>
			<rect x="62.051" y="19.604" fill="#FFFFFF" width="2.809" height="3.754"/>
		</g>
		<g>
			<rect x="-3.971" y="40.548" fill="#FFFFFF" width="23.478" height="3.754"/>
			<rect x="22.442" y="40.548" fill="#FFFFFF" width="5.617" height="3.754"/>
			<rect x="50.587" y="40.548" fill="#FFFFFF" width="5.617" height="3.754"/>
			<rect x="66.78" y="40.548" fill="#FFFFFF" width="5.617" height="3.754"/>
			<rect x="34.778" y="40.548" fill="#FFFFFF" width="13.525" height="3.754"/>
			<rect x="29.688" y="40.548" fill="#FFFFFF" width="2.81" height="3.754"/>
			<rect x="62.671" y="40.548" fill="#FFFFFF" width="2.807" height="3.754"/>
			<rect x="58.123" y="40.548" fill="#FFFFFF" width="2.809" height="3.754"/>
		</g>
		<g>
			<rect x="54.514" y="51.023" fill="#FFFFFF" width="25.282" height="3.753"/>
			<rect x="-3.971" y="51.023" fill="#FFFFFF" width="6.049" height="3.753"/>
			<rect x="32.335" y="51.023" fill="#FFFFFF" width="14.566" height="3.753"/>
			<rect x="4.653" y="51.023" fill="#FFFFFF" width="14.566" height="3.753"/>
			<rect x="49.356" y="51.023" fill="#FFFFFF" width="3.024" height="3.753"/>
			<rect x="26.702" y="51.023" fill="#FFFFFF" width="3.024" height="3.753"/>
			<rect x="21.806" y="51.023" fill="#FFFFFF" width="3.023" height="3.753"/>
		</g>
		<g>
			<rect x="47.755" y="61.493" fill="#FFFFFF" width="18.667" height="3.754"/>
			<rect x="40.632" y="61.493" fill="#FFFFFF" width="5.614" height="3.754"/>
			<rect x="67.803" y="61.493" fill="#FFFFFF" width="5.616" height="3.754"/>
			<rect x="75.017" y="61.493" fill="#FFFFFF" width="5.616" height="3.754"/>
			<rect x="-3.971" y="61.493" fill="#FFFFFF" width="5.618" height="3.754"/>
			<rect x="12.487" y="61.493" fill="#FFFFFF" width="5.615" height="3.754"/>
			<rect x="20.388" y="61.493" fill="#FFFFFF" width="16.537" height="3.754"/>
			<rect x="3.073" y="61.493" fill="#FFFFFF" width="7.847" height="3.754"/>
		</g>
		<g>
			<rect x="-3.971" y="30.076" fill="#FFFFFF" width="14.65" height="3.756"/>
			<rect x="41.215" y="30.076" fill="#FFFFFF" width="5.617" height="3.756"/>
			<rect x="58.728" y="30.076" fill="#FFFFFF" width="5.618" height="3.756"/>
			<rect x="13.072" y="30.076" fill="#FFFFFF" width="5.614" height="3.756"/>
			<rect x="20.973" y="30.076" fill="#FFFFFF" width="13.525" height="3.756"/>
			<rect x="66.737" y="30.076" fill="#FFFFFF" width="13.524" height="3.756"/>
			<rect x="36.778" y="30.076" fill="#FFFFFF" width="2.809" height="3.756"/>
			<rect x="48.97" y="30.076" fill="#FFFFFF" width="2.809" height="3.756"/>
			<rect x="53.518" y="30.076" fill="#FFFFFF" width="2.807" height="3.756"/>
		</g>
	</g>
</g>
<g id="Layer_2" display="none">
</g>
</svg>
