<?xml version="1.0" encoding="utf-8"?>
<!-- Generator: Adobe Illustrator 16.0.0, SVG Export Plug-In . SVG Version: 6.00 Build 0)  -->
<!DOCTYPE svg PUBLIC "-//W3C//DTD SVG 1.1//EN" "http://www.w3.org/Graphics/SVG/1.1/DTD/svg11.dtd">
<svg version="1.1" xmlns="http://www.w3.org/2000/svg" xmlns:xlink="http://www.w3.org/1999/xlink" x="0px" y="0px"
	 width="56.583px" height="75.777px" viewBox="0 0 56.583 75.777" enable-background="new 0 0 56.583 75.777" xml:space="preserve">
<g id="Layer_3">
</g>
<g id="Layer_1">
	<g>
		<g>
			<g>
				<path fill="#D23D44" d="M30.372,75.777c-5.339,0-9.867-1.032-13.583-3.098c-3.717-2.063-6.498-5.099-8.34-9.102l7.912-10.39
					c0.19,0.572,0.586,1.334,1.189,2.287c0.605,0.954,1.447,1.892,2.528,2.812c1.079,0.922,2.445,1.732,4.098,2.43
					c1.652,0.701,3.623,1.049,5.911,1.049c1.396,0,2.73-0.159,4.002-0.477c1.271-0.317,2.398-0.775,3.384-1.381
					c0.983-0.604,1.763-1.367,2.334-2.289c0.572-0.921,0.859-1.985,0.859-3.193c0-2.922-1.606-5.02-4.815-6.291
					c-3.208-1.271-7.801-1.906-13.773-1.906h-3.146V33.554h3.146c2.351,0,4.543-0.144,6.578-0.43
					c2.033-0.285,3.812-0.747,5.335-1.382c1.527-0.635,2.733-1.445,3.625-2.431c0.888-0.983,1.333-2.175,1.333-3.573
					c0-1.145-0.27-2.112-0.81-2.908c-0.541-0.794-1.192-1.414-1.956-1.859c-0.761-0.443-1.587-0.762-2.477-0.953
					c-0.891-0.19-1.684-0.285-2.382-0.285c-1.907,0-3.591,0.222-5.053,0.667c-1.462,0.445-2.75,1.017-3.86,1.715
					c-1.113,0.701-2.065,1.463-2.859,2.288c-0.796,0.826-1.415,1.62-1.86,2.383L7.972,15.538c1.144-1.461,2.588-2.765,4.336-3.908
					c1.748-1.144,3.653-2.097,5.718-2.859c2.064-0.763,4.227-1.35,6.482-1.765c2.255-0.413,4.495-0.619,6.721-0.619
					c3.431,0,6.625,0.478,9.579,1.43c2.955,0.954,5.496,2.257,7.625,3.908c2.128,1.653,3.795,3.607,5.004,5.862
					c1.206,2.255,1.809,4.717,1.809,7.387c0,3.75-1.142,6.831-3.43,9.245c-2.287,2.416-5.306,4.036-9.056,4.861
					c2.099,0.381,4.004,1.096,5.72,2.146c1.716,1.048,3.178,2.353,4.385,3.908c1.206,1.557,2.128,3.305,2.763,5.242
					c0.635,1.939,0.954,3.956,0.954,6.053c0,3.37-0.778,6.275-2.335,8.722c-1.559,2.448-3.574,4.466-6.052,6.052
					c-2.478,1.589-5.275,2.749-8.389,3.478C36.693,75.412,33.547,75.777,30.372,75.777z"/>
			</g>
		</g>
		<g opacity="0.7">
			<linearGradient id="SVGID_1_" gradientUnits="userSpaceOnUse" x1="32.2861" y1="68.1897" x2="14.3044" y2="1.081">
				<stop  offset="0" style="stop-color:#DDDDD4;stop-opacity:0"/>
				<stop  offset="0.7098" style="stop-color:#DDDDD4"/>
			</linearGradient>
			<path fill="url(#SVGID_1_)" d="M22.399,69.39c-5.34,0-9.865-1.031-13.583-3.097c-3.717-2.063-6.498-5.1-8.34-9.103L8.388,46.8
				c0.191,0.572,0.587,1.334,1.192,2.289c0.601,0.952,1.444,1.891,2.525,2.812c1.081,0.92,2.445,1.732,4.1,2.43
				c1.649,0.7,3.622,1.047,5.91,1.047c1.396,0,2.73-0.157,4.002-0.475c1.271-0.318,2.398-0.779,3.384-1.382
				c0.984-0.603,1.763-1.366,2.335-2.288c0.571-0.921,0.858-1.985,0.858-3.194c0-2.921-1.606-5.019-4.815-6.291
				c-3.208-1.271-7.801-1.905-13.771-1.905h-3.146V27.165h3.146c2.35,0,4.542-0.143,6.576-0.428
				c2.033-0.286,3.812-0.747,5.337-1.382c1.526-0.635,2.732-1.445,3.623-2.43c0.889-0.985,1.334-2.176,1.334-3.576
				c0-1.143-0.271-2.112-0.811-2.907c-0.541-0.794-1.192-1.413-1.955-1.858c-0.762-0.445-1.59-0.763-2.478-0.954
				c-0.891-0.19-1.685-0.286-2.383-0.286c-1.908,0-3.591,0.223-5.053,0.667c-1.462,0.444-2.75,1.017-3.86,1.716
				c-1.112,0.7-2.067,1.461-2.86,2.288c-0.794,0.826-1.413,1.62-1.857,2.383L0,9.15c1.144-1.462,2.588-2.764,4.337-3.908
				c1.747-1.144,3.651-2.097,5.718-2.859c2.065-0.763,4.227-1.35,6.481-1.764C18.792,0.207,21.032,0,23.257,0
				c3.431,0,6.625,0.476,9.578,1.43c2.957,0.954,5.497,2.257,7.627,3.908c2.128,1.653,3.797,3.607,5.004,5.862
				c1.206,2.256,1.81,4.718,1.81,7.388c0,3.748-1.144,6.83-3.432,9.245c-2.287,2.416-5.306,4.034-9.054,4.861
				c2.097,0.381,4.002,1.096,5.717,2.145c1.717,1.048,3.179,2.351,4.385,3.909c1.208,1.557,2.129,3.305,2.766,5.24
				c0.634,1.94,0.951,3.957,0.951,6.054c0,3.369-0.776,6.276-2.333,8.723c-1.558,2.446-3.576,4.463-6.052,6.051
				c-2.478,1.589-5.276,2.75-8.388,3.479C28.721,69.023,25.575,69.39,22.399,69.39z"/>
		</g>
	</g>
</g>
<g id="Layer_2">
</g>
</svg>
