<?xml version="1.0" encoding="utf-8"?>
<!-- Generator: Adobe Illustrator 16.0.0, SVG Export Plug-In . SVG Version: 6.00 Build 0)  -->
<!DOCTYPE svg PUBLIC "-//W3C//DTD SVG 1.1//EN" "http://www.w3.org/Graphics/SVG/1.1/DTD/svg11.dtd">
<svg version="1.1" id="Layer_1" xmlns="http://www.w3.org/2000/svg" xmlns:xlink="http://www.w3.org/1999/xlink" x="0px" y="0px"
	 width="117.094px" height="71.723px" viewBox="-204.047 -1.246 117.094 71.723"
	 enable-background="new -204.047 -1.246 117.094 71.723" xml:space="preserve">
<g id="Layer_3">
</g>
<g id="Layer_1_1_">
	<g>
		<g>
			
				<linearGradient id="SVGID_1_" gradientUnits="userSpaceOnUse" x1="-347.9993" y1="112.0618" x2="-347.9993" y2="59.0302" gradientTransform="matrix(1 0 0 -1 202.5 131.231)">
				<stop  offset="0" style="stop-color:#DDDDD4"/>
				<stop  offset="1" style="stop-color:#F7F6F3"/>
			</linearGradient>
			<path fill="url(#SVGID_1_)" d="M-86.953,57.72H-99.71V46.363V-1.246h-104.337V57.72c0,7.045,5.712,12.757,12.756,12.757l0,0
				h91.581l0,0C-92.665,70.477-86.953,64.765-86.953,57.72z"/>
			<path fill="#D23D44" d="M-86.953,57.72H-99.71h-12.756h-66.066c0,7.045-5.714,12.757-12.758,12.757h91.581l0,0
				C-92.665,70.477-86.953,64.765-86.953,57.72z"/>
		</g>
		<rect x="-191.291" y="15.936" fill="#FFFFFF" width="33.599" height="8.71"/>
		<rect x="-152.822" y="15.936" fill="#FFFFFF" width="12.062" height="8.71"/>
		<g>
			<rect x="-191.291" y="33.004" fill="#FFFFFF" width="23.478" height="3.754"/>
			<rect x="-164.878" y="33.004" fill="#FFFFFF" width="5.617" height="3.754"/>
			<rect x="-136.733" y="33.004" fill="#FFFFFF" width="5.616" height="3.754"/>
			<rect x="-152.542" y="33.004" fill="#FFFFFF" width="13.525" height="3.754"/>
			<rect x="-120.053" y="33.004" fill="#FFFFFF" width="13.525" height="3.754"/>
			<rect x="-157.632" y="33.004" fill="#FFFFFF" width="2.81" height="3.754"/>
			<rect x="-129.814" y="33.004" fill="#FFFFFF" width="2.808" height="3.754"/>
			<rect x="-125.268" y="33.004" fill="#FFFFFF" width="2.809" height="3.754"/>
		</g>
		<g>
			<rect x="-191.291" y="43.477" fill="#FFFFFF" width="14.65" height="3.755"/>
			<rect x="-146.104" y="43.477" fill="#FFFFFF" width="5.617" height="3.755"/>
			<rect x="-128.591" y="43.477" fill="#FFFFFF" width="5.618" height="3.755"/>
			<rect x="-174.248" y="43.477" fill="#FFFFFF" width="5.615" height="3.755"/>
			<rect x="-166.346" y="43.477" fill="#FFFFFF" width="13.525" height="3.755"/>
			<rect x="-120.583" y="43.477" fill="#FFFFFF" width="13.524" height="3.755"/>
			<rect x="-150.542" y="43.477" fill="#FFFFFF" width="2.809" height="3.755"/>
			<rect x="-138.349" y="43.477" fill="#FFFFFF" width="2.809" height="3.755"/>
			<rect x="-133.801" y="43.477" fill="#FFFFFF" width="2.807" height="3.755"/>
		</g>
	</g>
</g>
<g id="Layer_2" display="none">
</g>
</svg>
