<?xml version="1.0" encoding="utf-8"?>
<!-- Generator: Adobe Illustrator 16.0.0, SVG Export Plug-In . SVG Version: 6.00 Build 0)  -->
<!DOCTYPE svg PUBLIC "-//W3C//DTD SVG 1.1//EN" "http://www.w3.org/Graphics/SVG/1.1/DTD/svg11.dtd">
<svg version="1.1" id="Layer_1" xmlns="http://www.w3.org/2000/svg" xmlns:xlink="http://www.w3.org/1999/xlink" x="0px" y="0px"
	 width="614.615px" height="357.075px" viewBox="0 0 614.615 357.075" enable-background="new 0 0 614.615 357.075"
	 xml:space="preserve">
<g id="Layer_3">
</g>
<g id="Layer_1_1_">
	<g>
		<path fill="#981C28" d="M329.93,239.219v-39.674h-45.243v39.674c0,8.768-2.741,13.349-11.682,13.349v6.728h68.604v-6.728
			C332.669,252.568,329.93,247.987,329.93,239.219z"/>
		<rect x="223.141" y="135.897" fill="#FFFFFF" width="168.333" height="84.334"/>
		<g>
			
				<linearGradient id="SVGID_1_" gradientUnits="userSpaceOnUse" x1="53.1831" y1="253.5942" x2="156.4326" y2="253.5942" gradientTransform="matrix(1 0 0 -1 202.5 437.0752)">
				<stop  offset="0" style="stop-color:#F7F6F3"/>
				<stop  offset="1" style="stop-color:#DDDDD4"/>
			</linearGradient>
			<polyline fill="url(#SVGID_1_)" points="358.933,219.731 358.933,147.231 255.683,147.231 255.683,219.731 			"/>
			<rect x="266.561" y="158.494" fill="#FFFFFF" width="31.781" height="5.554"/>
			<rect x="302.948" y="158.494" fill="#FFFFFF" width="11.41" height="5.554"/>
			<g>
				<rect x="266.561" y="169.38" fill="#FFFFFF" width="22.207" height="2.394"/>
				<rect x="291.545" y="169.38" fill="#FFFFFF" width="5.312" height="2.394"/>
				<rect x="318.168" y="169.38" fill="#FFFFFF" width="5.312" height="2.394"/>
				<rect x="303.212" y="169.38" fill="#FFFFFF" width="12.794" height="2.394"/>
				<rect x="333.943" y="169.38" fill="#FFFFFF" width="12.794" height="2.394"/>
				<rect x="298.399" y="169.38" fill="#FFFFFF" width="2.655" height="2.394"/>
				<rect x="324.713" y="169.38" fill="#FFFFFF" width="2.655" height="2.394"/>
				<rect x="329.013" y="169.38" fill="#FFFFFF" width="2.656" height="2.394"/>
			</g>
			<g>
				<rect x="266.561" y="182.739" fill="#FFFFFF" width="22.207" height="2.395"/>
				<rect x="291.545" y="182.739" fill="#FFFFFF" width="5.312" height="2.395"/>
				<rect x="318.168" y="182.739" fill="#FFFFFF" width="5.312" height="2.395"/>
				<rect x="333.484" y="182.739" fill="#FFFFFF" width="5.312" height="2.395"/>
				<rect x="303.212" y="182.739" fill="#FFFFFF" width="12.794" height="2.395"/>
				<rect x="298.399" y="182.739" fill="#FFFFFF" width="2.655" height="2.395"/>
				<rect x="329.598" y="182.739" fill="#FFFFFF" width="2.655" height="2.395"/>
				<rect x="325.297" y="182.739" fill="#FFFFFF" width="2.656" height="2.395"/>
			</g>
			<g>
				<rect x="321.883" y="189.417" fill="#FFFFFF" width="23.915" height="2.396"/>
				<rect x="266.561" y="189.417" fill="#FFFFFF" width="5.721" height="2.396"/>
				<rect x="300.903" y="189.417" fill="#FFFFFF" width="13.776" height="2.396"/>
				<rect x="274.718" y="189.417" fill="#FFFFFF" width="13.777" height="2.396"/>
				<rect x="317.002" y="189.417" fill="#FFFFFF" width="2.861" height="2.396"/>
				<rect x="295.575" y="189.417" fill="#FFFFFF" width="2.859" height="2.396"/>
				<rect x="290.943" y="189.417" fill="#FFFFFF" width="2.86" height="2.396"/>
			</g>
			<g>
				<rect x="315.489" y="196.097" fill="#FFFFFF" width="17.657" height="2.396"/>
				<rect x="308.751" y="196.097" fill="#FFFFFF" width="5.312" height="2.396"/>
				<rect x="334.453" y="196.097" fill="#FFFFFF" width="5.312" height="2.396"/>
				<rect x="341.274" y="196.097" fill="#FFFFFF" width="5.312" height="2.396"/>
				<rect x="266.561" y="196.097" fill="#FFFFFF" width="5.312" height="2.396"/>
				<rect x="282.128" y="196.097" fill="#FFFFFF" width="5.312" height="2.396"/>
				<rect x="289.602" y="196.097" fill="#FFFFFF" width="15.643" height="2.396"/>
				<rect x="273.225" y="196.097" fill="#FFFFFF" width="7.422" height="2.396"/>
			</g>
			<g>
				<rect x="266.561" y="202.776" fill="#FFFFFF" width="8.105" height="2.396"/>
				<rect x="330.945" y="202.776" fill="#FFFFFF" width="8.107" height="2.396"/>
				<rect x="283.902" y="202.776" fill="#FFFFFF" width="8.106" height="2.396"/>
				<rect x="307.974" y="202.776" fill="#FFFFFF" width="19.522" height="2.396"/>
				<rect x="277.019" y="202.776" fill="#FFFFFF" width="4.054" height="2.396"/>
				<rect x="293.889" y="202.776" fill="#FFFFFF" width="4.053" height="2.396"/>
				<rect x="341.904" y="202.776" fill="#FFFFFF" width="4.053" height="2.396"/>
				<rect x="300.449" y="202.776" fill="#FFFFFF" width="4.053" height="2.396"/>
			</g>
			<g>
				<rect x="266.561" y="209.456" fill="#FFFFFF" width="22.207" height="2.396"/>
				<rect x="291.545" y="209.456" fill="#FFFFFF" width="5.312" height="2.396"/>
				<rect x="323.969" y="209.456" fill="#FFFFFF" width="5.312" height="2.396"/>
				<rect x="317.208" y="209.456" fill="#FFFFFF" width="5.312" height="2.396"/>
				<rect x="302.906" y="209.456" fill="#FFFFFF" width="12.794" height="2.396"/>
				<rect x="298.399" y="209.456" fill="#FFFFFF" width="2.655" height="2.396"/>
				<rect x="331.956" y="209.456" fill="#FFFFFF" width="2.656" height="2.396"/>
				<rect x="337.469" y="209.456" fill="#FFFFFF" width="2.656" height="2.396"/>
			</g>
			<g>
				<rect x="266.561" y="176.059" fill="#FFFFFF" width="13.857" height="2.395"/>
				<rect x="309.304" y="176.059" fill="#FFFFFF" width="5.312" height="2.395"/>
				<rect x="325.869" y="176.059" fill="#FFFFFF" width="5.312" height="2.395"/>
				<rect x="282.681" y="176.059" fill="#FFFFFF" width="5.312" height="2.395"/>
				<rect x="290.155" y="176.059" fill="#FFFFFF" width="12.794" height="2.395"/>
				<rect x="333.443" y="176.059" fill="#FFFFFF" width="12.794" height="2.395"/>
				<rect x="305.105" y="176.059" fill="#FFFFFF" width="2.656" height="2.395"/>
				<rect x="316.639" y="176.059" fill="#FFFFFF" width="2.656" height="2.395"/>
				<rect x="320.939" y="176.059" fill="#FFFFFF" width="2.655" height="2.395"/>
			</g>
		</g>
		<g>
			
				<linearGradient id="SVGID_2_" gradientUnits="userSpaceOnUse" x1="-966.0005" y1="-3444.3232" x2="-966.0005" y2="-3385.4268" gradientTransform="matrix(0.7071 -0.7071 -0.7071 -0.7071 -1315.5129 -2933.7053)">
				<stop  offset="0" style="stop-color:#F7F6F3"/>
				<stop  offset="1" style="stop-color:#DDDDD4"/>
			</linearGradient>
			<polygon fill="url(#SVGID_2_)" points="449.301,172.442 424.515,197.228 382.869,155.583 407.656,130.795 			"/>
			<circle fill="#FFFFFF" cx="416.085" cy="164.012" r="10.599"/>
			<path fill="#FFFFFF" d="M442.98,178.761L442.98,178.761c-3.489-3.49-3.49-9.149,0-12.64l6.32,6.321L442.98,178.761z"/>
			<path fill="#FFFFFF" d="M413.976,137.115L413.976,137.115c-3.489,3.491-9.149,3.491-12.641,0l6.321-6.32L413.976,137.115z"/>
			<path fill="#FFFFFF" d="M430.835,190.909L430.835,190.909c-3.49-3.49-9.151-3.492-12.642,0l6.32,6.32L430.835,190.909z"/>
			<path fill="#FFFFFF" d="M389.188,161.902L389.188,161.902c3.491-3.489,3.492-9.15,0.002-12.64l-6.321,6.32L389.188,161.902z"/>
			
				<rect x="398.553" y="134.563" transform="matrix(-0.7071 0.7071 -0.7071 -0.7071 826.2666 -14.2261)" fill="none" stroke="#DDDDD4" stroke-width="3" stroke-miterlimit="10" width="35.053" height="58.894"/>
		</g>
		<g>
			<path fill="#D23C44" d="M391.475,135.897v-10c0-3.314-2.687-6-6-6H229.141c-3.313,0-6,2.686-6,6v10H391.475z"/>
			<path fill="#D23C44" d="M223.141,220.231v10c0,3.312,2.687,6,6,6h156.333c3.313,0,6-2.688,6-6v-10H223.141z"/>
		</g>
		<g opacity="0.7">
			
				<linearGradient id="SVGID_3_" gradientUnits="userSpaceOnUse" x1="151.8374" y1="291.8989" x2="110.8375" y2="307.8989" gradientTransform="matrix(1 0 0 -1 202.5 437.0752)">
				<stop  offset="0" style="stop-color:#DDDDD4;stop-opacity:0"/>
				<stop  offset="0.7098" style="stop-color:#DDDDD4"/>
			</linearGradient>
			<path fill="url(#SVGID_3_)" d="M388.975,132.897v-10c0-3.314-2.687-6-6-6H226.641c-3.313,0-6,2.686-6,6v10H388.975z"/>
			
				<linearGradient id="SVGID_4_" gradientUnits="userSpaceOnUse" x1="118.501" y1="206.4741" x2="77.501" y2="222.4741" gradientTransform="matrix(1 0 0 -1 202.5 437.0752)">
				<stop  offset="0" style="stop-color:#DDDDD4;stop-opacity:0"/>
				<stop  offset="0.7098" style="stop-color:#DDDDD4"/>
			</linearGradient>
			<path fill="url(#SVGID_4_)" d="M220.641,217.231v10c0,3.312,2.687,6,6,6h156.333c3.313,0,6-2.688,6-6v-10H220.641z"/>
		</g>
		<path fill="#D23C44" d="M346.201,259.295v-5.729c0-0.553-0.447-1-1-1h-75.587c-0.553,0-1,0.447-1,1v5.729H346.201z"/>
		
			<linearGradient id="SVGID_5_" gradientUnits="userSpaceOnUse" x1="63.8418" y1="184.0923" x2="141.4287" y2="184.0923" gradientTransform="matrix(1 0 0 -1 202.5 437.0752)">
			<stop  offset="0.2902" style="stop-color:#DDDDD4"/>
			<stop  offset="1" style="stop-color:#DDDDD4;stop-opacity:0"/>
		</linearGradient>
		<path opacity="0.5" fill="url(#SVGID_5_)" enable-background="new    " d="M343.929,256.347v-5.728c0-0.554-0.446-1-1-1h-75.587
			c-0.552,0-1,0.446-1,1v5.728H343.929z"/>
		<g>
			
				<linearGradient id="SVGID_6_" gradientUnits="userSpaceOnUse" x1="305.7676" y1="-661.8018" x2="305.7676" y2="-602.9053" gradientTransform="matrix(1 0 0 -1 -60.5342 -574.1875)">
				<stop  offset="0" style="stop-color:#F7F6F3"/>
				<stop  offset="1" style="stop-color:#DDDDD4"/>
			</linearGradient>
			<rect x="227.707" y="28.718" fill="url(#SVGID_6_)" width="35.054" height="58.896"/>
			<circle fill="#FFFFFF" cx="245.234" cy="58.166" r="10.6"/>
			<path fill="#FFFFFF" d="M253.823,87.614v-0.001c0-4.935,4.001-8.937,8.938-8.937l-0.001,8.938H253.823z"/>
			<path fill="#FFFFFF" d="M262.762,37.656L262.762,37.656c-4.937,0-8.939-4-8.939-8.938h8.939V37.656z"/>
			<path fill="#FFFFFF" d="M236.645,87.614L236.645,87.614c0-4.937-4.001-8.94-8.938-8.939v8.939H236.645z"/>
			<path fill="#FFFFFF" d="M227.707,37.656L227.707,37.656c4.936,0,8.938-4.001,8.938-8.938h-8.938V37.656z"/>
			
				<rect x="227.707" y="28.718" fill="none" stroke="#DDDDD4" stroke-width="3" stroke-miterlimit="10" width="35.054" height="58.896"/>
		</g>
		<g>
			
				<linearGradient id="SVGID_7_" gradientUnits="userSpaceOnUse" x1="-543.2114" y1="1889.6177" x2="-543.2114" y2="1948.5151" gradientTransform="matrix(0.7071 0.7071 0.7071 -0.7071 -492.6349 1849.2542)">
				<stop  offset="0" style="stop-color:#F7F6F3"/>
				<stop  offset="1" style="stop-color:#DDDDD4"/>
			</linearGradient>
			<polygon fill="url(#SVGID_7_)" points="471.804,141.393 447.017,116.605 488.663,74.959 513.449,99.747 			"/>
			<circle fill="#FFFFFF" cx="480.233" cy="108.176" r="10.599"/>
			<path fill="#FFFFFF" d="M465.484,135.072l0.001-0.001c3.489-3.489,9.148-3.49,12.64,0.001l-6.321,6.321L465.484,135.072z"/>
			<path fill="#FFFFFF" d="M507.13,106.066L507.13,106.066c-3.491-3.49-3.492-9.15,0-12.64l6.32,6.321L507.13,106.066z"/>
			<path fill="#FFFFFF" d="M453.337,122.925L453.337,122.925c3.49-3.49,3.492-9.151,0-12.642l-6.321,6.322L453.337,122.925z"/>
			<path fill="#FFFFFF" d="M482.343,81.279v0.001c3.489,3.489,9.149,3.491,12.641,0l-6.321-6.321L482.343,81.279z"/>
			
				<rect x="462.712" y="78.719" transform="matrix(-0.7071 -0.7071 0.7071 -0.7071 743.3375 524.2297)" fill="none" stroke="#DDDDD4" stroke-width="3" stroke-miterlimit="10" width="35.054" height="58.896"/>
		</g>
		
			<radialGradient id="SVGID_8_" cx="19.562" cy="-1121.5972" r="20.8582" gradientTransform="matrix(1 0 0 -0.1937 202.5 86.669)" gradientUnits="userSpaceOnUse">
			<stop  offset="0.2902" style="stop-color:#DDDDD4"/>
			<stop  offset="1" style="stop-color:#DDDDD4;stop-opacity:0"/>
		</radialGradient>
		<ellipse opacity="0.8" fill="url(#SVGID_8_)" enable-background="new    " cx="222.062" cy="303.922" rx="20.855" ry="4.041"/>
		
			<radialGradient id="SVGID_9_" cx="275.562" cy="-1083.7456" r="20.8577" gradientTransform="matrix(1 0 0 -0.1937 202.5 86.669)" gradientUnits="userSpaceOnUse">
			<stop  offset="0.2902" style="stop-color:#DDDDD4"/>
			<stop  offset="1" style="stop-color:#DDDDD4;stop-opacity:0"/>
		</radialGradient>
		<ellipse opacity="0.8" fill="url(#SVGID_9_)" enable-background="new    " cx="478.062" cy="296.59" rx="20.854" ry="4.041"/>
		
			<radialGradient id="SVGID_10_" cx="-217.1836" cy="-964.9956" r="30.0835" gradientTransform="matrix(1.1389 0 0 -0.1937 693.9963 86.669)" gradientUnits="userSpaceOnUse">
			<stop  offset="0.2902" style="stop-color:#DDDDD4"/>
			<stop  offset="1" style="stop-color:#DDDDD4;stop-opacity:0"/>
		</radialGradient>
		<ellipse fill="url(#SVGID_10_)" cx="446.646" cy="273.588" rx="34.257" ry="5.828"/>
		
			<radialGradient id="SVGID_11_" cx="-54.374" cy="-1598.439" r="33.8889" gradientTransform="matrix(1 0 0 -0.1299 202.5 70.1431)" gradientUnits="userSpaceOnUse">
			<stop  offset="0.2902" style="stop-color:#DDDDD4"/>
			<stop  offset="1" style="stop-color:#DDDDD4;stop-opacity:0"/>
		</radialGradient>
		<ellipse opacity="0.8" fill="url(#SVGID_11_)" enable-background="new    " cx="148.126" cy="277.78" rx="33.887" ry="4.402"/>
		
			<linearGradient id="SVGID_12_" gradientUnits="userSpaceOnUse" x1="-7530.2661" y1="248.2261" x2="-7458.5103" y2="248.2261" gradientTransform="matrix(-1 0 0 -1 -7363.9473 437.0752)">
			<stop  offset="0" style="stop-color:#F7F6F3"/>
			<stop  offset="1" style="stop-color:#DDDDD4"/>
		</linearGradient>
		<path fill="url(#SVGID_12_)" d="M157.88,191.995h-0.005l0.005,0.004c-4.027,0-7.293,3.267-7.293,7.297
			c0,4.031,3.266,7.297,7.293,7.297c4.663,0,8.439,3.777,8.439,8.439s-3.776,8.442-8.439,8.442h-16.902
			c-4.66,0-8.44-3.78-8.44-8.442s3.78-8.439,8.44-8.439h-18.051l0.007-0.004h-0.007c-4.026,0-7.295-3.264-7.295-7.295
			c0-4.029,3.27-7.295,7.295-7.295l0.01-0.004h-22.151c-3.435,0-6.223-2.783-6.223-6.223c0-3.438,2.788-6.225,6.223-6.225h6.073
			h-0.007c2.333,0,4.222-1.891,4.222-4.221c0-2.033-1.44-3.728-3.353-4.128l-0.869-0.092h-2.485c-4.66,0-8.438-3.778-8.438-8.439
			c0-4.663,3.779-8.443,8.438-8.443h25.193c4.663,0,8.438,3.78,8.438,8.443c0,4.661-3.775,8.439-8.438,8.439h17.725h-0.003h0.003
			c2.33,0,4.221,1.89,4.221,4.223c0,2.331-1.892,4.218-4.221,4.218h-0.004h10.6c3.439,0,6.223,2.785,6.223,6.225
			C164.103,189.211,161.32,191.995,157.88,191.995z"/>
		<path fill="#D23C44" d="M167.639,243.023c-0.689,0-1.358,0.082-2.005,0.226v-2.814c0-1.133-0.917-2.051-2.05-2.051h-31.393
			c-1.132,0-2.05,0.918-2.05,2.051v2.867v22.318c0,5.961,4.832,10.793,10.792,10.793h13.91c5.778,0,10.482-4.547,10.763-10.256
			c0.655,0.146,1.333,0.23,2.032,0.23c5.102,0,9.252-4.146,9.252-9.252v-4.86C176.892,247.174,172.741,243.023,167.639,243.023z
			 M171.136,257.137c0,1.928-1.569,3.496-3.497,3.496c-0.747,0-1.437-0.24-2.005-0.641V249.42c0.568-0.4,1.258-0.639,2.005-0.639
			c1.928,0,3.497,1.567,3.497,3.495V257.137z"/>
		<path fill="#D23C44" d="M388.02,145.712c0,0.714-0.577,1.292-1.291,1.292l0,0c-0.713,0-1.291-0.578-1.291-1.292v-3.167
			c0-0.713,0.578-1.291,1.291-1.291l0,0c0.714,0,1.291,0.578,1.291,1.291V145.712z"/>
		<g>
			<circle fill="#D23C44" cx="231.996" cy="143.145" r="1.681"/>
			<circle fill="#D23C44" cx="237.039" cy="143.145" r="1.681"/>
			<g>
				<path fill="#D23C44" d="M242.082,141.962c0.651,0,1.182,0.53,1.182,1.182c0,0.651-0.53,1.18-1.182,1.18
					c-0.651,0-1.181-0.529-1.181-1.18S241.431,141.962,242.082,141.962 M242.082,141.462c-0.929,0-1.681,0.753-1.681,1.682
					c0,0.928,0.752,1.68,1.681,1.68c0.929,0,1.682-0.752,1.682-1.68S243.011,141.462,242.082,141.462L242.082,141.462z"/>
			</g>
		</g>
		<path fill="#D23C44" d="M387.737,279.407l-19.918-8.289c-0.427-0.178-0.884-0.269-1.346-0.269H243.141
			c-0.595,0-1.179,0.151-1.698,0.438l-15,8.323c-1.112,0.617-1.802,1.789-1.802,3.062v1.166c0,1.932,1.566,3.5,3.5,3.5h158.333
			c1.934,0,3.5-1.568,3.5-3.5v-1.166C389.975,281.185,389.046,279.915,387.737,279.407z"/>
		
			<linearGradient id="SVGID_13_" gradientUnits="userSpaceOnUse" x1="16.396" y1="163.3823" x2="191.3584" y2="163.3823" gradientTransform="matrix(1 0 0 -1 202.5 437.0752)">
			<stop  offset="0.2902" style="stop-color:#DDDDD4"/>
			<stop  offset="1" style="stop-color:#DDDDD4;stop-opacity:0"/>
		</linearGradient>
		<path opacity="0.8" fill="url(#SVGID_13_)" enable-background="new    " d="M393.311,279.018l-25.397-10.57
			c-0.543-0.227-1.126-0.342-1.715-0.342h-126.01c-0.757,0-1.501,0.191-2.165,0.561l-19.127,10.613h174.962
			C393.683,279.181,393.501,279.092,393.311,279.018z"/>
		<g>
			
				<linearGradient id="SVGID_14_" gradientUnits="userSpaceOnUse" x1="-1250.5723" y1="-3594.8105" x2="-1250.5723" y2="-3535.9141" gradientTransform="matrix(0.7071 -0.7071 -0.7071 -0.7071 -1426.22 -3179.1711)">
				<stop  offset="0" style="stop-color:#F7F6F3"/>
				<stop  offset="1" style="stop-color:#DDDDD4"/>
			</linearGradient>
			<polygon fill="url(#SVGID_14_)" points="243.783,234.605 218.997,259.393 177.351,217.747 202.138,192.959 			"/>
			<circle fill="#FFFFFF" cx="210.567" cy="226.176" r="10.6"/>
			<path fill="#FFFFFF" d="M237.464,240.924L237.464,240.924c-3.49-3.489-3.492-9.15-0.001-12.641l6.321,6.321L237.464,240.924z"/>
			<path fill="#FFFFFF" d="M208.458,199.279L208.458,199.279c-3.491,3.491-9.15,3.492-12.641,0.001l6.322-6.32L208.458,199.279z"/>
			<path fill="#FFFFFF" d="M225.317,253.073l-0.001-0.002c-3.49-3.49-9.15-3.49-12.641,0l6.321,6.322L225.317,253.073z"/>
			<path fill="#FFFFFF" d="M183.67,224.066L183.67,224.066c3.491-3.489,3.492-9.149,0.001-12.64l-6.321,6.32L183.67,224.066z"/>
			
				<rect x="193.037" y="196.734" transform="matrix(-0.7071 0.7071 -0.7071 -0.7071 519.3893 237.2232)" fill="none" stroke="#DDDDD4" stroke-width="3" stroke-miterlimit="10" width="35.054" height="58.897"/>
		</g>
		
			<linearGradient id="SVGID_15_" gradientUnits="userSpaceOnUse" x1="-76.8271" y1="183.6216" x2="-54.374" y2="183.6216" gradientTransform="matrix(1 0 0 -1 202.5 437.0752)">
			<stop  offset="0.2902" style="stop-color:#DDDDD4"/>
			<stop  offset="1" style="stop-color:#DDDDD4;stop-opacity:0"/>
		</linearGradient>
		<path opacity="0.8" fill="url(#SVGID_15_)" enable-background="new    " d="M148.126,233.984h-20.355
			c-1.158,0-2.098,0.94-2.098,2.099v2.937v22.854c0,6.102,4.948,11.051,11.051,11.051h11.402V233.984z"/>
		<g>
			
				<radialGradient id="SVGID_16_" cx="-1967.9971" cy="-450.2417" r="19.5449" gradientTransform="matrix(2.6258 0 0 -0.3148 5730.8608 121.3072)" gradientUnits="userSpaceOnUse">
				<stop  offset="0.2902" style="stop-color:#DDDDD4"/>
				<stop  offset="1" style="stop-color:#DDDDD4;stop-opacity:0"/>
			</radialGradient>
			<ellipse opacity="0.8" fill="url(#SVGID_16_)" enable-background="new    " cx="563.294" cy="263.043" rx="51.321" ry="6.153"/>
			<path fill="#D23C44" d="M485.947,132.798c2.649-11.531,14.146-18.728,25.679-16.078c9.437,2.17,15.969,10.267,16.577,19.456
				c0.266-0.04,0.536-0.07,0.813-0.07c2.691,0,4.907,2.03,5.21,4.639l56.853,37.997l2.914-6.226
				c0.776-1.665,2.758-2.383,4.422-1.604c1.665,0.778,2.383,2.759,1.604,4.423l-3.344,7.145l7.534,5.037
				c1.528,1.021,1.938,3.087,0.917,4.614c-0.64,0.961-1.693,1.479-2.77,1.479c-0.635,0-1.276-0.182-1.847-0.562l-6.689-4.475
				l-23.526,50.271c11.873,1.467,21.19,11.172,22.053,23.221h-50.351c0.833-11.646,9.564-21.103,20.869-23.047l25.357-54.183
				l-57.589-38.489c-0.509,0.166-1.054,0.257-1.618,0.257c-0.897,0-1.743-0.227-2.482-0.624c-0.617,1.455-1.379,2.816-2.273,4.068
				l-38.559-8.865C485.241,138.479,485.294,135.641,485.947,132.798z"/>
		</g>
		<g>
			
				<radialGradient id="SVGID_17_" cx="-1804.6514" cy="-1475.2671" r="33.8884" gradientTransform="matrix(1.7631 0 0 -0.1299 3241.5273 70.1431)" gradientUnits="userSpaceOnUse">
				<stop  offset="0.2902" style="stop-color:#DDDDD4"/>
				<stop  offset="1" style="stop-color:#DDDDD4;stop-opacity:0"/>
			</radialGradient>
			<ellipse opacity="0.8" fill="url(#SVGID_17_)" enable-background="new    " cx="59.745" cy="261.78" rx="59.745" ry="4.402"/>
			
				<linearGradient id="SVGID_18_" gradientUnits="userSpaceOnUse" x1="-179.5122" y1="184.9526" x2="-108.561" y2="184.9526" gradientTransform="matrix(1 0 0 -1 202.5 437.0752)">
				<stop  offset="0" style="stop-color:#F7F6F3"/>
				<stop  offset="1" style="stop-color:#DDDDD4"/>
			</linearGradient>
			<path fill="url(#SVGID_18_)" d="M89.084,252.122c0-2.828,2.119-5.156,4.855-5.496c-0.226-0.028-0.456-0.049-0.69-0.049H28.533
				c-3.062,0-5.545,2.484-5.545,5.545c0,3.062,2.482,5.547,5.545,5.547h64.716c0.234,0,0.464-0.021,0.69-0.049
				C91.203,257.279,89.084,254.952,89.084,252.122z"/>
			
				<linearGradient id="SVGID_19_" gradientUnits="userSpaceOnUse" x1="-179.5122" y1="203.3716" x2="-108.561" y2="203.3716" gradientTransform="matrix(1 0 0 -1 202.5 437.0752)">
				<stop  offset="0" style="stop-color:#F7F6F3"/>
				<stop  offset="1" style="stop-color:#DDDDD4"/>
			</linearGradient>
			<path fill="url(#SVGID_19_)" d="M89.084,233.704c0-2.828,2.119-5.156,4.855-5.498c-0.226-0.027-0.456-0.047-0.69-0.047H28.533
				c-3.062,0-5.545,2.482-5.545,5.545s2.482,5.545,5.545,5.545h64.716c0.234,0,0.464-0.019,0.69-0.047
				C91.203,238.859,89.084,236.532,89.084,233.704z"/>
			<path fill="#D23C44" d="M85.783,257.667h-57.25c-3.062,0-5.545-2.483-5.545-5.545s2.482-5.545,5.545-5.545h64.716
				c0.024,0,0.047,0.004,0.07,0.004h4.374c-0.021-1.875-1.423-3.451-3.289-3.684c-0.411-0.051-0.789-0.077-1.155-0.077H28.533
				c-5.129,0-9.301,4.173-9.301,9.302s4.172,9.301,9.301,9.301h64.716c0.366,0,0.744-0.025,1.155-0.076
				c1.864-0.234,3.266-1.807,3.289-3.68h-4.444H85.783z"/>
			<path fill="#D23C44" d="M85.783,239.249h-57.25c-3.062,0-5.545-2.482-5.545-5.545c0-3.062,2.482-5.545,5.545-5.545h64.716
				c0.024,0,0.048,0.004,0.072,0.006h4.372c-0.021-1.875-1.423-3.453-3.289-3.685c-0.411-0.052-0.789-0.077-1.155-0.077H28.533
				c-5.129,0-9.301,4.172-9.301,9.301s4.172,9.301,9.301,9.301h64.716c0.366,0,0.744-0.024,1.155-0.075
				c1.864-0.233,3.266-1.808,3.289-3.681h-4.444H85.783z"/>
			
				<linearGradient id="SVGID_20_" gradientUnits="userSpaceOnUse" x1="-188.6367" y1="221.4614" x2="-149.0748" y2="197.9455" gradientTransform="matrix(1 0 0 -1 202.5 437.0752)">
				<stop  offset="0.2902" style="stop-color:#DDDDD4"/>
				<stop  offset="1" style="stop-color:#DDDDD4;stop-opacity:0"/>
			</linearGradient>
			<path opacity="0.6" fill="url(#SVGID_20_)" enable-background="new    " d="M86.773,221.295H24.899
				c-5.129,0-9.301,4.172-9.301,9.302c0,4.709,3.521,8.603,8.068,9.208c-4.547,0.605-8.068,4.5-8.068,9.21
				c0,5.129,4.171,9.3,9.301,9.3h61.874V221.295z"/>
		</g>
		<g>
			<g>
				
					<rect x="454.362" y="216.556" transform="matrix(-0.913 -0.4079 0.4079 -0.913 780.7225 631.6058)" fill="#D23C44" width="6.668" height="32.03"/>
				<path fill="#D23C44" d="M467.538,220.75l5.94-13.299c0.935-2.092-0.004-4.545-2.095-5.479c-2.092-0.935-4.545,0.004-5.479,2.095
					l-5.941,13.301L467.538,220.75z"/>
				<path fill="#D23C44" d="M467.108,224.157c-0.58,1.295-2.103,1.877-3.398,1.299l0,0c-1.298-0.58-1.88-2.102-1.3-3.398
					l5.689-12.738c0.581-1.297,2.103-1.878,3.399-1.298l0,0c1.297,0.579,1.878,2.103,1.299,3.397L467.108,224.157z"/>
			</g>
			
				<rect x="433.695" y="206.526" transform="matrix(-0.9181 0.3963 -0.3963 -0.9181 931.3257 257.7009)" fill="#D23C44" width="10.692" height="37.074"/>
			<polygon fill="#D23C44" points="457.08,197.853 454.476,202.977 451.725,208.286 444.753,249.336 452.58,250.667 
				459.553,209.616 458.758,203.706 458.053,198.459 			"/>
			<path fill="#D23C44" d="M430.093,234.75v32.742c0,3.236,2.624,5.862,5.861,5.862h21.942c3.236,0,5.861-2.625,5.861-5.862V234.75
				H430.093z"/>
			
				<linearGradient id="SVGID_21_" gradientUnits="userSpaceOnUse" x1="223.2969" y1="187.3071" x2="256.9619" y2="187.3071" gradientTransform="matrix(1 0 0 -1 202.5 437.0752)">
				<stop  offset="0" style="stop-color:#DDDDD4"/>
				<stop  offset="1" style="stop-color:#DDDDD4;stop-opacity:0"/>
			</linearGradient>
			<path fill="url(#SVGID_21_)" d="M425.797,230.467v32.74c0,3.238,2.624,5.862,5.861,5.862H453.6c3.238,0,5.862-2.624,5.862-5.862
				v-32.74H425.797z"/>
		</g>
		<g>
			
				<linearGradient id="SVGID_22_" gradientUnits="userSpaceOnUse" x1="-367.3652" y1="1875.4927" x2="-367.3652" y2="1934.3882" gradientTransform="matrix(0.7071 0.7071 0.7071 -0.7071 -597.8234 1850.7522)">
				<stop  offset="0" style="stop-color:#F7F6F3"/>
				<stop  offset="1" style="stop-color:#DDDDD4"/>
			</linearGradient>
			<polygon fill="url(#SVGID_22_)" points="480.967,277.219 456.18,252.433 497.825,210.788 522.612,235.575 			"/>
			<circle fill="#FFFFFF" cx="489.396" cy="244.004" r="10.6"/>
			<path fill="#FFFFFF" d="M474.646,270.899L474.646,270.899c3.49-3.488,9.149-3.49,12.642,0l-6.321,6.32L474.646,270.899z"/>
			<path fill="#FFFFFF" d="M516.293,241.894L516.293,241.894c-3.491-3.49-3.492-9.149-0.001-12.642l6.32,6.322L516.293,241.894z"/>
			<path fill="#FFFFFF" d="M462.5,258.752L462.5,258.752c3.49-3.489,3.492-9.15,0.001-12.642l-6.321,6.321L462.5,258.752z"/>
			<path fill="#FFFFFF" d="M491.506,217.107L491.506,217.107c3.489,3.49,9.149,3.492,12.639,0.001l-6.319-6.32L491.506,217.107z"/>
			
				<rect x="471.862" y="214.553" transform="matrix(-0.7071 -0.7071 0.7071 -0.7071 662.9151 762.5826)" fill="none" stroke="#DDDDD4" stroke-width="3" stroke-miterlimit="10" width="35.054" height="58.896"/>
		</g>
		<g>
			
				<linearGradient id="SVGID_23_" gradientUnits="userSpaceOnUse" x1="-994.6436" y1="-3759.3154" x2="-994.6436" y2="-3700.4189" gradientTransform="matrix(0.7071 -0.7071 -0.7071 -0.7071 -1870.0129 -3132.1917)">
				<stop  offset="0" style="stop-color:#F7F6F3"/>
				<stop  offset="1" style="stop-color:#DDDDD4"/>
			</linearGradient>
			<polygon fill="url(#SVGID_23_)" points="97.279,216.938 72.492,241.725 30.847,200.081 55.633,175.293 			"/>
			<circle fill="#FFFFFF" cx="64.062" cy="208.509" r="10.599"/>
			<path fill="#FFFFFF" d="M90.959,223.258L90.959,223.258c-3.49-3.491-3.491-9.15,0-12.641l6.32,6.32L90.959,223.258z"/>
			<path fill="#FFFFFF" d="M61.954,181.612v0.002c-3.49,3.489-9.149,3.49-12.64,0l6.322-6.321L61.954,181.612z"/>
			<path fill="#FFFFFF" d="M78.812,235.405L78.812,235.405c-3.49-3.49-9.15-3.492-12.641,0l6.321,6.321L78.812,235.405z"/>
			<path fill="#FFFFFF" d="M37.166,206.399L37.166,206.399c3.49-3.488,3.492-9.15,0.001-12.639l-6.321,6.32L37.166,206.399z"/>
			
				<rect x="46.534" y="179.06" transform="matrix(-0.7071 0.7071 -0.7071 -0.7071 256.7971 310.6478)" fill="none" stroke="#DDDDD4" stroke-width="3" stroke-miterlimit="10" width="35.054" height="58.896"/>
		</g>
		
			<linearGradient id="SVGID_24_" gradientUnits="userSpaceOnUse" x1="283.1504" y1="319.5396" x2="301.0365" y2="300.1311" gradientTransform="matrix(1 0 0 -1 202.5 437.0752)">
			<stop  offset="0" style="stop-color:#DDDDD4"/>
			<stop  offset="1" style="stop-color:#DDDDD4;stop-opacity:0"/>
		</linearGradient>
		<path fill="url(#SVGID_24_)" d="M491.115,149.632c0-13.853,11.229-25.083,25.083-25.083c3.734,0,7.276,0.823,10.462,2.287
			c-3.966-8.627-12.678-14.62-22.796-14.62c-13.854,0-25.083,11.229-25.083,25.083c0,10.117,5.994,18.829,14.621,22.796
			C491.938,156.909,491.115,153.368,491.115,149.632z"/>
		
			<linearGradient id="SVGID_25_" gradientUnits="userSpaceOnUse" x1="332.7529" y1="188.2466" x2="376.2109" y2="188.2466" gradientTransform="matrix(1 0 0 -1 202.5 437.0752)">
			<stop  offset="0" style="stop-color:#DDDDD4"/>
			<stop  offset="1" style="stop-color:#DDDDD4;stop-opacity:0"/>
		</linearGradient>
		<path fill="url(#SVGID_25_)" d="M549.865,262.07c2.91-12.87,14.406-22.481,28.156-22.481c0.231,0,0.459,0.011,0.689,0.018
			c-4.305-2.55-9.324-4.018-14.689-4.018c-15.141,0-27.551,11.654-28.769,26.481H549.865z"/>
		<g>
			<g>
				<path fill="#363637" d="M97.493,318.59h9.568l13.223,38.162h-10.643l-2.311-7.471H97.171l-2.257,7.471H84.217L97.493,318.59z
					 M105.664,342.293l-3.386-11.824l-3.548,11.824H105.664z"/>
				<path fill="#363637" d="M155.92,346.969c0,1.721-0.359,3.199-1.075,4.436c-0.717,1.236-1.703,2.249-2.957,3.037
					c-1.254,0.789-2.714,1.371-4.38,1.747c-1.667,0.376-3.432,0.563-5.294,0.563h-18.759V318.59H145.6
					c1.325,0,2.526,0.287,3.601,0.859c1.075,0.574,1.989,1.317,2.742,2.231c0.752,0.913,1.334,1.952,1.747,3.116
					c0.412,1.166,0.618,2.357,0.618,3.576c0,1.791-0.457,3.502-1.371,5.133s-2.284,2.857-4.112,3.682
					c2.186,0.645,3.915,1.766,5.187,3.359C155.284,342.142,155.92,344.284,155.92,346.969z M133.936,327.513v5.858h7.149
					c0.716,0,1.371-0.197,1.962-0.592c0.591-0.395,0.887-1.183,0.887-2.365c0-1.039-0.251-1.781-0.752-2.229
					c-0.502-0.448-1.093-0.672-1.774-0.672H133.936z M145.277,344.82c0-0.932-0.251-1.711-0.752-2.338
					c-0.502-0.626-1.147-0.94-1.935-0.94h-8.654v6.396h8.278c0.86,0,1.585-0.27,2.177-0.807
					C144.983,346.594,145.277,345.825,145.277,344.82z"/>
				<path fill="#363637" d="M177.742,357.075c-2.902,0-5.536-0.555-7.901-1.666c-2.365-1.109-4.39-2.57-6.074-4.381
					c-1.685-1.809-2.992-3.878-3.924-6.208c-0.932-2.329-1.397-4.729-1.397-7.202c0-2.509,0.484-4.928,1.451-7.257
					c0.968-2.329,2.32-4.381,4.058-6.153c1.738-1.774,3.798-3.189,6.182-4.248c2.383-1.057,4.989-1.584,7.821-1.584
					c2.902,0,5.536,0.556,7.901,1.666c2.365,1.11,4.389,2.58,6.074,4.408c1.684,1.827,2.983,3.905,3.897,6.234
					c0.914,2.33,1.371,4.712,1.371,7.148c0,2.51-0.484,4.918-1.451,7.229c-0.968,2.312-2.312,4.354-4.031,6.127
					c-1.72,1.774-3.771,3.198-6.155,4.272C183.18,356.538,180.573,357.075,177.742,357.075z M169.088,337.725
					c0,1.29,0.179,2.535,0.538,3.736c0.358,1.201,0.896,2.267,1.612,3.197c0.717,0.932,1.621,1.686,2.715,2.258
					c1.093,0.574,2.392,0.859,3.896,0.859c1.505,0,2.813-0.295,3.924-0.887c1.11-0.592,2.016-1.361,2.715-2.312
					c0.699-0.949,1.218-2.033,1.559-3.252c0.34-1.218,0.511-2.453,0.511-3.707c0-1.291-0.18-2.535-0.538-3.736
					c-0.359-1.201-0.905-2.258-1.639-3.172c-0.735-0.914-1.649-1.647-2.741-2.203c-1.094-0.555-2.375-0.834-3.844-0.834
					c-1.505,0-2.804,0.287-3.896,0.861c-1.094,0.573-1.998,1.334-2.715,2.284c-0.717,0.95-1.245,2.024-1.585,3.226
					C169.258,335.245,169.088,336.471,169.088,337.725z"/>
				<path fill="#363637" d="M218.324,347.776c1.218,0,2.258-0.27,3.118-0.807c0.86-0.536,1.559-1.244,2.096-2.122
					c0.538-0.878,0.932-1.89,1.183-3.037c0.25-1.146,0.376-2.347,0.376-3.601V318.59h10.481v19.619c0,2.651-0.341,5.133-1.021,7.443
					c-0.681,2.312-1.738,4.311-3.171,5.993c-1.434,1.685-3.234,3.011-5.402,3.978c-2.168,0.969-4.722,1.451-7.66,1.451
					c-3.046,0-5.653-0.51-7.82-1.531c-2.169-1.021-3.951-2.393-5.349-4.112c-1.397-1.72-2.418-3.718-3.063-5.993
					s-0.968-4.686-0.968-7.229V318.59h10.481v19.619c0,1.254,0.125,2.463,0.376,3.627c0.25,1.166,0.645,2.188,1.182,3.064
					c0.538,0.878,1.228,1.577,2.07,2.096C216.075,347.517,217.105,347.776,218.324,347.776z"/>
				<path fill="#363637" d="M271.323,327.728h-10.965v29.024h-10.481v-29.024h-11.019v-9.138h32.466L271.323,327.728
					L271.323,327.728z"/>
				<path fill="#363637" d="M283.631,337.349c0-2.329,0.438-4.622,1.316-6.88c0.878-2.258,2.159-4.282,3.844-6.074
					c1.684-1.792,3.726-3.243,6.127-4.354c2.4-1.11,5.142-1.666,8.224-1.666c3.69,0,6.89,0.762,9.596,2.283
					c2.705,1.523,4.721,3.539,6.047,6.047l-8.009,5.698c-0.359-0.931-0.833-1.702-1.425-2.312c-0.591-0.608-1.245-1.092-1.962-1.451
					c-0.717-0.357-1.46-0.609-2.23-0.752c-0.771-0.143-1.515-0.215-2.23-0.215c-1.505,0-2.804,0.295-3.896,0.887
					c-1.094,0.591-1.989,1.361-2.688,2.312c-0.699,0.949-1.219,2.023-1.559,3.225c-0.341,1.201-0.511,2.393-0.511,3.574
					c0,1.326,0.196,2.6,0.591,3.816c0.394,1.219,0.967,2.293,1.72,3.225c0.752,0.933,1.675,1.676,2.768,2.23
					c1.094,0.557,2.32,0.833,3.683,0.833c0.716,0,1.451-0.081,2.204-0.241c0.753-0.162,1.479-0.431,2.177-0.807
					c0.699-0.376,1.325-0.859,1.881-1.451s0.994-1.316,1.317-2.177l8.546,5.106c-0.574,1.396-1.443,2.651-2.607,3.763
					c-1.165,1.11-2.491,2.042-3.978,2.795c-1.488,0.752-3.083,1.325-4.784,1.72c-1.702,0.395-3.359,0.592-4.972,0.592
					c-2.832,0-5.42-0.564-7.767-1.693c-2.348-1.129-4.372-2.625-6.074-4.488c-1.703-1.863-3.02-3.979-3.951-6.342
					C284.096,342.187,283.631,339.786,283.631,337.349z"/>
				<path fill="#363637" d="M332.168,318.59h9.568l13.223,38.162h-10.643l-2.312-7.471h-10.159l-2.257,7.471h-10.697L332.168,318.59
					z M340.338,342.293l-3.386-11.824l-3.548,11.824H340.338z"/>
				<path fill="#363637" d="M358.129,356.752V318.59h10.481v14.513l11.609-14.513h11.825l-13.868,17.093l14.835,21.069h-12.04
					l-9.46-14.028l-2.902,3.01v11.019H358.129L358.129,356.752z"/>
				<path fill="#363637" d="M422.415,347.616v9.137h-27.198V318.59h26.714v9.138h-16.232v5.375h13.868v8.493h-13.868v6.02H422.415
					L422.415,347.616z"/>
				<path fill="#363637" d="M427.306,356.752V318.59h16.447c1.863,0,3.583,0.385,5.16,1.154c1.577,0.771,2.93,1.774,4.059,3.01
					c1.128,1.236,2.017,2.652,2.661,4.248c0.646,1.595,0.967,3.197,0.967,4.811c0,1.686-0.305,3.324-0.914,4.918
					c-0.609,1.596-1.46,3.01-2.553,4.247c-1.094,1.235-2.419,2.222-3.978,2.957c-1.56,0.735-3.271,1.103-5.134,1.103h-6.234v11.717
					h-10.481V356.752z M437.787,335.897h5.536c0.645,0,1.245-0.295,1.801-0.887c0.555-0.592,0.833-1.657,0.833-3.198
					c0-1.576-0.322-2.651-0.968-3.226c-0.646-0.572-1.29-0.859-1.936-0.859h-5.268L437.787,335.897L437.787,335.897z"/>
				<path fill="#363637" d="M494.547,318.59v38.162h-10.48V341.81h-12.792v14.942h-10.481V318.59h10.481v14.082h12.792V318.59
					H494.547z"/>
				<path fill="#363637" d="M501.104,356.752V318.59h16.448c1.862,0,3.583,0.385,5.16,1.154c1.576,0.771,2.929,1.774,4.058,3.01
					c1.13,1.236,2.017,2.652,2.661,4.248c0.646,1.595,0.968,3.197,0.968,4.811c0,1.686-0.306,3.324-0.914,4.918
					c-0.61,1.596-1.461,3.01-2.554,4.247c-1.093,1.235-2.419,2.222-3.978,2.957c-1.56,0.733-3.271,1.103-5.133,1.103h-6.235v11.717
					h-10.481V356.752z M511.586,335.897h5.537c0.645,0,1.245-0.295,1.801-0.887c0.555-0.592,0.833-1.657,0.833-3.198
					c0-1.576-0.323-2.651-0.967-3.226c-0.646-0.572-1.29-0.859-1.936-0.859h-5.269V335.897L511.586,335.897z"/>
			</g>
		</g>
		<g>
			<path fill="#363637" d="M81.987,93.005c-2.724,2.293-5.859,3.44-9.406,3.44c-2.473,0-4.838-0.438-7.095-1.316
				c-2.258-0.878-4.229-2.159-5.913-3.844c-1.685-1.684-3.029-3.744-4.031-6.181c-1.004-2.437-1.505-5.214-1.505-8.332
				c0-2.688,0.501-5.187,1.505-7.498c1.002-2.312,2.382-4.318,4.139-6.02c1.755-1.702,3.825-3.045,6.208-4.031
				c2.382-0.985,4.953-1.478,7.713-1.478c1.72,0,3.368,0.188,4.945,0.564c1.576,0.376,3.037,0.932,4.381,1.667
				c1.344,0.735,2.553,1.612,3.628,2.634c1.075,1.022,1.953,2.177,2.634,3.467l-7.794,5.966c-0.752-1.505-1.881-2.714-3.386-3.628
				c-1.505-0.914-3.1-1.371-4.784-1.371c-1.255,0-2.401,0.251-3.44,0.752c-1.04,0.502-1.935,1.201-2.688,2.096
				c-0.752,0.896-1.344,1.962-1.773,3.198c-0.43,1.236-0.646,2.589-0.646,4.058c0,1.505,0.215,2.867,0.646,4.085
				c0.43,1.219,1.029,2.267,1.8,3.145c0.77,0.878,1.693,1.559,2.768,2.042c1.075,0.484,2.275,0.726,3.602,0.726
				c3.045,0,5.733-1.254,8.062-3.763h-6.611v-7.525h15.695v20.318h-8.654V93.005z"/>
			<path fill="#363637" d="M122.999,87.039v9.138H95.801V58.014h26.714v9.138h-16.232v5.375h13.868v8.493h-13.868v6.02
				L122.999,87.039L122.999,87.039z"/>
			<path fill="#363637" d="M157.613,67.151h-10.965v29.025h-10.481V67.151h-11.019v-9.138h32.465V67.151z"/>
			<path fill="#363637" d="M172.018,96.177V58.014h16.448c1.862,0,3.583,0.385,5.16,1.155c1.576,0.771,2.929,1.774,4.058,3.01
				c1.129,1.236,2.016,2.652,2.661,4.247c0.645,1.595,0.967,3.198,0.967,4.811c0,1.685-0.305,3.324-0.914,4.918
				c-0.61,1.595-1.461,3.01-2.553,4.247c-1.093,1.236-2.419,2.222-3.978,2.957c-1.559,0.734-3.271,1.102-5.133,1.102h-6.235v11.718
				h-10.481V96.177z M182.499,75.321h5.537c0.645,0,1.245-0.295,1.801-0.887c0.555-0.591,0.833-1.657,0.833-3.198
				c0-1.576-0.323-2.651-0.967-3.225c-0.646-0.573-1.29-0.86-1.936-0.86h-5.268V75.321L182.499,75.321z"/>
			<path fill="#363637" d="M212.6,58.014h9.568l13.223,38.163h-10.643l-2.312-7.472h-10.159l-2.258,7.472h-10.696L212.6,58.014z
				 M220.77,81.718l-3.386-11.825l-3.548,11.825H220.77z"/>
			<path fill="#363637" d="M238.561,96.177V58.014h10.481v38.163H238.561z"/>
			<path fill="#363637" d="M255.6,96.177V58.014h14.674c3.153,0,5.93,0.502,8.331,1.505c2.4,1.004,4.408,2.365,6.021,4.085
				c1.612,1.72,2.83,3.736,3.655,6.047c0.824,2.312,1.236,4.776,1.236,7.391c0,2.902-0.457,5.528-1.371,7.875
				s-2.213,4.354-3.897,6.02c-1.685,1.667-3.708,2.957-6.074,3.87c-2.366,0.913-4.999,1.371-7.901,1.371L255.6,96.177L255.6,96.177z
				 M278.874,77.042c0-1.469-0.197-2.813-0.591-4.031c-0.395-1.218-0.959-2.258-1.693-3.118c-0.734-0.86-1.639-1.532-2.714-2.016
				s-2.276-0.726-3.601-0.726h-4.192v19.888h4.192c1.361,0,2.58-0.25,3.655-0.752c1.075-0.501,1.979-1.2,2.714-2.096
				c0.734-0.896,1.29-1.953,1.667-3.171C278.686,79.801,278.874,78.475,278.874,77.042z"/>
			<path fill="#363637" d="M334.396,67.151h-10.966v29.025h-10.48V67.151h-11.02v-9.138h32.466V67.151z"/>
			<path fill="#363637" d="M354.823,96.499c-2.902,0-5.536-0.555-7.901-1.666c-2.365-1.11-4.39-2.571-6.074-4.381
				c-1.685-1.809-2.992-3.878-3.924-6.208c-0.933-2.329-1.396-4.73-1.396-7.203c0-2.508,0.482-4.927,1.45-7.256
				c0.969-2.329,2.319-4.381,4.059-6.154c1.738-1.774,3.798-3.189,6.181-4.247c2.383-1.057,4.99-1.585,7.821-1.585
				c2.902,0,5.536,0.556,7.901,1.666c2.364,1.111,4.389,2.58,6.073,4.408s2.983,3.906,3.897,6.235
				c0.914,2.33,1.371,4.712,1.371,7.149c0,2.509-0.484,4.918-1.452,7.229c-0.967,2.312-2.312,4.354-4.031,6.127
				c-1.72,1.774-3.771,3.198-6.153,4.272C360.26,95.962,357.653,96.499,354.823,96.499z M346.169,77.149
				c0,1.29,0.179,2.536,0.538,3.736c0.358,1.201,0.895,2.267,1.613,3.198c0.716,0.932,1.621,1.685,2.714,2.257
				c1.093,0.574,2.392,0.86,3.896,0.86s2.812-0.295,3.925-0.887c1.109-0.591,2.016-1.361,2.714-2.312
				c0.698-0.949,1.218-2.033,1.559-3.252c0.34-1.218,0.51-2.454,0.51-3.708c0-1.29-0.18-2.535-0.537-3.736
				c-0.357-1.2-0.904-2.257-1.64-3.171c-0.734-0.914-1.648-1.648-2.741-2.204c-1.094-0.555-2.374-0.833-3.843-0.833
				c-1.505,0-2.805,0.287-3.896,0.86c-1.094,0.574-1.998,1.335-2.715,2.285c-0.717,0.95-1.246,2.024-1.585,3.225
				C346.339,74.668,346.169,75.895,346.169,77.149z"/>
			<path fill="#363637" d="M401.104,58.014h9.62l3.333,11.771l3.387-11.771h9.622l-6.289,18.222l2.74,7.955l8.225-26.177h11.396
				l-14.942,38.163h-8.708l-5.43-13.653l-5.375,13.653h-8.708l-14.942-38.163h11.341l8.278,26.177l2.634-7.955L401.104,58.014z"/>
			<path fill="#363637" d="M445.77,96.177V58.014h17.522c1.862,0,3.583,0.385,5.16,1.155c1.576,0.771,2.929,1.774,4.058,3.01
				c1.129,1.236,2.017,2.652,2.661,4.247c0.646,1.595,0.968,3.198,0.968,4.811c0,2.222-0.483,4.292-1.451,6.208
				c-0.968,1.917-2.312,3.485-4.031,4.703l8.062,14.029h-11.825l-6.719-11.718h-3.924v11.718H445.77z M456.25,75.321h6.611
				c0.645,0,1.244-0.357,1.801-1.075c0.555-0.716,0.833-1.72,0.833-3.01c0-1.325-0.323-2.338-0.967-3.037
				c-0.646-0.699-1.29-1.048-1.937-1.048h-6.342V75.321z"/>
			<path fill="#363637" d="M482.05,96.177V58.014h10.481v38.163H482.05z"/>
			<path fill="#363637" d="M528.812,67.151h-10.966v29.025h-10.48V67.151h-11.02v-9.138h32.466V67.151z"/>
			<path fill="#363637" d="M559.827,87.039v9.138h-27.198V58.014h26.714v9.138H543.11v5.375h13.866v8.493H543.11v6.02
				L559.827,87.039L559.827,87.039z"/>
		</g>
		<g>
			
				<linearGradient id="SVGID_26_" gradientUnits="userSpaceOnUse" x1="-915.0996" y1="-3313.251" x2="-915.0996" y2="-3254.3545" gradientTransform="matrix(0.7071 -0.7071 -0.7071 -0.7071 -1315.5129 -2933.7053)">
				<stop  offset="0" style="stop-color:#F7F6F3"/>
				<stop  offset="1" style="stop-color:#DDDDD4"/>
			</linearGradient>
			<polygon fill="url(#SVGID_26_)" points="392.612,43.767 367.825,68.555 326.18,26.908 350.967,2.121 			"/>
			<circle fill="#FFFFFF" cx="359.396" cy="35.337" r="10.599"/>
			<path fill="#FFFFFF" d="M386.292,50.086L386.292,50.086c-3.49-3.49-3.491-9.149,0-12.64l6.32,6.321L386.292,50.086z"/>
			<path fill="#FFFFFF" d="M357.287,8.44L357.287,8.44c-3.49,3.491-9.15,3.491-12.641,0.001l6.32-6.321L357.287,8.44z"/>
			<path fill="#FFFFFF" d="M374.145,62.234l-0.001-0.002c-3.488-3.489-9.148-3.489-12.64,0.001l6.321,6.322L374.145,62.234z"/>
			<path fill="#FFFFFF" d="M332.499,33.228L332.499,33.228c3.49-3.49,3.492-9.15,0.001-12.64l-6.32,6.321L332.499,33.228z"/>
			
				<rect x="341.869" y="5.894" transform="matrix(-0.7071 0.7071 -0.7071 -0.7071 638.5179 -193.7987)" fill="none" stroke="#DDDDD4" stroke-width="3" stroke-miterlimit="10" width="35.054" height="58.896"/>
		</g>
		<g>
			
				<linearGradient id="SVGID_27_" gradientUnits="userSpaceOnUse" x1="-994.7065" y1="1848.5981" x2="-994.7065" y2="1907.4946" gradientTransform="matrix(0.7071 0.7071 0.7071 -0.7071 -466.7092 2147.4905)">
				<stop  offset="0" style="stop-color:#F7F6F3"/>
				<stop  offset="1" style="stop-color:#DDDDD4"/>
			</linearGradient>
			<polygon fill="url(#SVGID_27_)" points="149.471,149.382 124.685,124.595 166.33,82.949 191.116,107.736 			"/>
			<circle fill="#FFFFFF" cx="157.901" cy="116.166" r="10.6"/>
			<path fill="#FFFFFF" d="M143.151,143.062L143.151,143.062c3.491-3.49,9.149-3.492,12.641-0.001l-6.321,6.321L143.151,143.062z"/>
			<path fill="#FFFFFF" d="M184.797,114.057L184.797,114.057c-3.49-3.491-3.491-9.15,0-12.641l6.32,6.322L184.797,114.057z"/>
			<path fill="#FFFFFF" d="M131.005,130.916L131.005,130.916c3.49-3.491,3.491-9.151,0.001-12.642l-6.321,6.321L131.005,130.916z"/>
			<path fill="#FFFFFF" d="M160.01,89.269L160.01,89.269c3.49,3.491,9.15,3.491,12.641,0.001l-6.321-6.321L160.01,89.269z"/>
			
				<rect x="140.377" y="86.716" transform="matrix(-0.7071 -0.7071 0.7071 -0.7071 187.4189 309.959)" fill="none" stroke="#DDDDD4" stroke-width="3" stroke-miterlimit="10" width="35.054" height="58.896"/>
		</g>
	</g>
</g>
<g id="Layer_2" display="none">
</g>
</svg>
