<?xml version="1.0" encoding="utf-8"?>
<!-- Generator: Adobe Illustrator 16.0.0, SVG Export Plug-In . SVG Version: 6.00 Build 0)  -->
<!DOCTYPE svg PUBLIC "-//W3C//DTD SVG 1.1//EN" "http://www.w3.org/Graphics/SVG/1.1/DTD/svg11.dtd">
<svg version="1.1" id="Layer_1" xmlns="http://www.w3.org/2000/svg" xmlns:xlink="http://www.w3.org/1999/xlink" x="0px" y="0px"
	 width="117.094px" height="71.723px" viewBox="0 0 117.094 71.723" enable-background="new 0 0 117.094 71.723"
	 xml:space="preserve">
<g id="Layer_3">
</g>
<g>
	<g id="Layer_1_1_">
		<g>
			<g>
				<path fill="#DDDDD4" d="M117.094,57.72h-12.757V46.363V-1.246H0V57.72c0,7.045,5.712,12.757,12.756,12.757l0,0h91.581l0,0
					C111.382,70.477,117.094,64.765,117.094,57.72z"/>
				<path fill="#D23D44" d="M117.094,57.72h-12.757H91.581H25.515c0,7.045-5.714,12.757-12.758,12.757h91.581l0,0
					C111.382,70.477,117.094,64.765,117.094,57.72z"/>
			</g>
			<rect x="12.756" y="15.936" fill="#FFFFFF" width="33.599" height="8.71"/>
			<rect x="51.225" y="15.936" fill="#FFFFFF" width="12.062" height="8.71"/>
			<g>
				<rect x="12.756" y="33.004" fill="#FFFFFF" width="23.478" height="3.754"/>
				<rect x="39.169" y="33.004" fill="#FFFFFF" width="5.617" height="3.754"/>
				<rect x="67.314" y="33.004" fill="#FFFFFF" width="5.615" height="3.754"/>
				<rect x="51.505" y="33.004" fill="#FFFFFF" width="13.524" height="3.754"/>
				<rect x="83.994" y="33.004" fill="#FFFFFF" width="13.525" height="3.754"/>
				<rect x="46.415" y="33.004" fill="#FFFFFF" width="2.81" height="3.754"/>
				<rect x="74.232" y="33.004" fill="#FFFFFF" width="2.809" height="3.754"/>
				<rect x="78.779" y="33.004" fill="#FFFFFF" width="2.809" height="3.754"/>
			</g>
			<g>
				<rect x="12.756" y="43.477" fill="#FFFFFF" width="14.65" height="3.755"/>
				<rect x="57.943" y="43.477" fill="#FFFFFF" width="5.618" height="3.755"/>
				<rect x="75.456" y="43.477" fill="#FFFFFF" width="5.618" height="3.755"/>
				<rect x="29.799" y="43.477" fill="#FFFFFF" width="5.615" height="3.755"/>
				<rect x="37.701" y="43.477" fill="#FFFFFF" width="13.525" height="3.755"/>
				<rect x="83.464" y="43.477" fill="#FFFFFF" width="13.524" height="3.755"/>
				<rect x="53.505" y="43.477" fill="#FFFFFF" width="2.809" height="3.755"/>
				<rect x="65.697" y="43.477" fill="#FFFFFF" width="2.81" height="3.755"/>
				<rect x="70.246" y="43.477" fill="#FFFFFF" width="2.807" height="3.755"/>
			</g>
		</g>
	</g>
	<g id="Layer_2" display="none">
	</g>
</g>
</svg>
